<?xml version="1.0" encoding="utf-8"?>
<!-- Generator: Adobe Illustrator 17.0.0, SVG Export Plug-In . SVG Version: 6.00 Build 0)  -->
<!DOCTYPE svg PUBLIC "-//W3C//DTD SVG 1.1//EN" "http://www.w3.org/Graphics/SVG/1.1/DTD/svg11.dtd">
<svg version="1.1" id="Layer_1" xmlns="http://www.w3.org/2000/svg" xmlns:xlink="http://www.w3.org/1999/xlink" x="0px" y="0px"
	 width="548px" height="327px" viewBox="0 0 548 327" style="enable-background:new 0 0 548 327;" xml:space="preserve">
<path d="M545.645,24.155c0-1.631,0.355-3.025,2.355-3.599v-7.392c-2-0.574-2.355-1.968-2.355-3.599S546,6.54,548,5.966V0h-8.026
	c-0.555,0-1.903,2.434-3.482,2.434c-1.578,0-2.926-2.434-3.481-2.434h-7.298c-0.555,0-1.903,2.434-3.481,2.434
	c-1.578,0-2.926-2.434-3.482-2.434h-7.298c-0.555,0-1.903,2.434-3.482,2.434c-1.578,0-2.926-2.434-3.482-2.434h-7.298
	c-0.555,0-1.903,2.434-3.482,2.434c-1.578,0-2.926-2.434-3.481-2.434h-7.298c-0.555,0-1.903,2.434-3.481,2.434
	c-1.578,0-2.926-2.434-3.482-2.434h-7.298c-0.555,0-1.903,2.434-3.482,2.434c-1.578,0-2.926-2.434-3.482-2.434h-7.298
	c-0.555,0-1.903,2.434-3.482,2.434c-1.578,0-2.926-2.434-3.481-2.434h-7.298c-0.555,0-1.903,2.434-3.481,2.434
	c-1.578,0-2.926-2.434-3.482-2.434h-7.298c-0.555,0-1.903,2.434-3.482,2.434c-1.578,0-2.926-2.434-3.481-2.434h-7.298
	c-0.555,0-1.903,2.434-3.481,2.434c-1.578,0-2.927-2.434-3.482-2.434h-7.298c-0.555,0-1.903,2.434-3.481,2.434
	c-1.578,0-2.926-2.434-3.482-2.434H383.1c-0.555,0-1.903,2.434-3.482,2.434c-1.578,0-2.926-2.434-3.481-2.434h-7.298
	c-0.555,0-1.903,2.434-3.481,2.434c-1.578,0-2.927-2.434-3.482-2.434h-7.298c-0.555,0-1.903,2.434-3.481,2.434
	c-1.578,0-2.926-2.434-3.482-2.434h-7.298c-0.555,0-1.903,2.434-3.482,2.434c-1.578,0-2.926-2.434-3.481-2.434h-7.298
	c-0.555,0-1.903,2.434-3.481,2.434c-1.578,0-2.927-2.434-3.482-2.434h-7.298c-0.555,0-1.903,2.434-3.481,2.434
	c-1.578,0-2.926-2.434-3.482-2.434h-7.298c-0.555,0-1.903,2.434-3.482,2.434c-1.578,0-2.926-2.434-3.481-2.434h-7.298
	c-0.555,0-1.903,2.434-3.481,2.434c-1.578,0-2.926-2.434-3.482-2.434h-7.298c-0.555,0-1.903,2.434-3.481,2.434
	c-1.578,0-2.926-2.434-3.481-2.434h-7.298c-0.555,0-1.903,2.434-3.482,2.434c-1.578,0-2.926-2.434-3.481-2.434h-7.298
	c-0.555,0-1.903,2.434-3.481,2.434c-1.578,0-2.926-2.434-3.482-2.434h-7.298c-0.555,0-1.903,2.434-3.482,2.434
	c-1.578,0-2.926-2.434-3.481-2.434h-7.298c-0.555,0-1.903,2.434-3.482,2.434C206.904,2.434,205.555,0,205,0h-7.298
	c-0.555,0-1.903,2.434-3.481,2.434c-1.578,0-2.926-2.434-3.482-2.434h-7.298c-0.555,0-1.903,2.434-3.482,2.434
	c-1.578,0-2.926-2.434-3.481-2.434h-7.298c-0.555,0-1.903,2.434-3.482,2.434c-1.578,0-2.926-2.434-3.481-2.434h-7.298
	c-0.555,0-1.903,2.434-3.481,2.434c-1.578,0-2.926-2.434-3.482-2.434h-7.298c-0.555,0-1.903,2.434-3.482,2.434
	c-1.578,0-2.926-2.434-3.481-2.434h-7.298c-0.555,0-1.903,2.434-3.482,2.434c-1.578,0-2.926-2.434-3.481-2.434h-7.298
	c-0.555,0-1.903,2.434-3.481,2.434c-1.578,0-2.926-2.434-3.482-2.434h-7.298c-0.555,0-1.903,2.434-3.482,2.434
	C92.813,2.434,91.465,0,90.91,0h-7.298c-0.555,0-1.903,2.434-3.482,2.434C78.552,2.434,77.203,0,76.648,0H69.35
	c-0.555,0-1.903,2.434-3.482,2.434C64.29,2.434,62.942,0,62.387,0h-7.298c-0.555,0-1.903,2.434-3.482,2.434
	C50.029,2.434,48.68,0,48.126,0h-7.298c-0.555,0-1.903,2.434-3.481,2.434C35.768,2.434,34.419,0,33.864,0h-7.298
	c-0.555,0-1.903,2.434-3.482,2.434C21.506,2.434,20.158,0,19.603,0h-7.298c-0.555,0-1.903,2.434-3.482,2.434
	C7.245,2.434,5.896,0,5.342,0H0v5.987c1.35,0.588,2.297,1.968,2.297,3.577S1.35,12.554,0,13.142v7.435
	c1.35,0.588,2.297,1.968,2.297,3.577S1.35,27.145,0,27.733v7.435c1.35,0.588,2.297,1.968,2.297,3.577S1.35,41.735,0,42.323v7.435
	c1.35,0.588,2.297,1.968,2.297,3.577c0,1.609-0.948,2.989-2.297,3.577v7.435c1.35,0.588,2.297,1.968,2.297,3.577
	S1.35,70.915,0,71.503v7.435c1.35,0.588,2.297,1.968,2.297,3.577S1.35,85.505,0,86.093v7.435c1.35,0.588,2.297,1.968,2.297,3.577
	c0,1.609-0.948,2.99-2.297,3.577v7.435c1.35,0.588,2.297,1.968,2.297,3.577c0,1.609-0.948,2.989-2.297,3.577v7.435
	c1.35,0.588,2.297,1.968,2.297,3.577S1.35,129.276,0,129.864v7.435c1.35,0.588,2.297,1.968,2.297,3.577
	c0,1.609-0.948,2.989-2.297,3.577v7.435c1.35,0.588,2.297,1.968,2.297,3.577c0,1.609-0.948,2.989-2.297,3.577v7.435
	c1.35,0.588,2.297,1.968,2.297,3.577c0,1.609-0.948,2.989-2.297,3.577v7.435c1.35,0.588,2.297,1.968,2.297,3.577
	c0,1.609-0.948,2.989-2.297,3.577v7.435c1.35,0.588,2.297,1.968,2.297,3.577c0,1.609-0.948,2.99-2.297,3.577v7.435
	c1.35,0.588,2.297,1.968,2.297,3.577c0,1.609-0.948,2.989-2.297,3.577v7.435c1.35,0.588,2.297,1.968,2.297,3.577
	S1.35,231.408,0,231.996v7.435c1.35,0.588,2.297,1.968,2.297,3.577c0,1.609-0.948,2.989-2.297,3.577v7.435
	c1.35,0.588,2.297,1.968,2.297,3.577c0,1.609-0.948,2.989-2.297,3.577v7.435c1.35,0.588,2.297,1.968,2.297,3.577
	c0,1.609-0.948,2.989-2.297,3.577v7.435c1.35,0.588,2.297,1.968,2.297,3.577c0,1.609-0.948,2.989-2.297,3.577v7.435
	c1.35,0.588,2.297,1.968,2.297,3.577c0,1.609-0.948,2.99-2.297,3.577v7.435c1.35,0.588,2.297,1.968,2.297,3.577
	S1.35,318.949,0,319.537V327h5.362c0.569-2,1.904-2.375,3.46-2.375c1.557,0,2.892,0.375,3.461,2.375h7.34
	c0.569-2,1.904-2.375,3.46-2.375c1.557,0,2.892,0.375,3.46,2.375h7.34c0.569-2,1.904-2.375,3.461-2.375
	c1.557,0,2.892,0.375,3.46,2.375h7.34c0.569-2,1.904-2.375,3.46-2.375c1.557,0,2.892,0.375,3.461,2.375h7.34
	c0.569-2,1.904-2.375,3.46-2.375c1.557,0,2.892,0.375,3.46,2.375h7.34c0.569-2,1.904-2.375,3.46-2.375
	c1.557,0,2.892,0.375,3.461,2.375h7.34c0.569-2,1.904-2.375,3.46-2.375c1.557,0,2.892,0.375,3.461,2.375h7.34
	c0.569-2,1.904-2.375,3.46-2.375c1.557,0,2.892,0.375,3.46,2.375h7.34c0.569-2,1.904-2.375,3.46-2.375
	c1.557,0,2.892,0.375,3.461,2.375h7.34c0.569-2,1.904-2.375,3.46-2.375c1.557,0,2.892,0.375,3.461,2.375h7.34
	c0.569-2,1.904-2.375,3.461-2.375c1.557,0,2.892,0.375,3.46,2.375h7.34c0.569-2,1.904-2.375,3.46-2.375
	c1.557,0,2.892,0.375,3.461,2.375h7.34c0.569-2,1.904-2.375,3.46-2.375c1.557,0,2.892,0.375,3.461,2.375h7.34
	c0.569-2,1.904-2.375,3.461-2.375c1.557,0,2.892,0.375,3.46,2.375h7.34c0.569-2,1.904-2.375,3.46-2.375
	c1.557,0,2.892,0.375,3.461,2.375h7.34c0.569-2,1.904-2.375,3.46-2.375s2.892,0.375,3.461,2.375h7.34
	c0.569-2,1.904-2.375,3.461-2.375c1.557,0,2.892,0.375,3.46,2.375h7.34c0.569-2,1.904-2.375,3.46-2.375
	c1.557,0,2.892,0.375,3.461,2.375h7.34c0.569-2,1.904-2.375,3.46-2.375c1.557,0,2.892,0.375,3.46,2.375h7.34
	c0.569-2,1.904-2.375,3.461-2.375c1.557,0,2.892,0.375,3.46,2.375h7.34c0.569-2,1.904-2.375,3.46-2.375
	c1.557,0,2.892,0.375,3.461,2.375h7.34c0.569-2,1.904-2.375,3.461-2.375c1.557,0,2.892,0.375,3.46,2.375h7.34
	c0.569-2,1.904-2.375,3.461-2.375c1.556,0,2.892,0.375,3.46,2.375h7.34c0.569-2,1.904-2.375,3.46-2.375
	c1.557,0,2.892,0.375,3.461,2.375h7.34c0.569-2,1.904-2.375,3.461-2.375c1.557,0,2.892,0.375,3.46,2.375h7.34
	c0.569-2,1.904-2.375,3.461-2.375c1.556,0,2.892,0.375,3.46,2.375h7.34c0.569-2,1.904-2.375,3.46-2.375
	c1.557,0,2.892,0.375,3.461,2.375h7.34c0.569-2,1.904-2.375,3.461-2.375c1.557,0,2.892,0.375,3.46,2.375h7.34
	c0.569-2,1.904-2.375,3.461-2.375c1.556,0,2.892,0.375,3.46,2.375h7.34c0.569-2,1.904-2.375,3.46-2.375
	c1.557,0,2.892,0.375,3.46,2.375h7.34c0.569-2,1.904-2.375,3.461-2.375c1.556,0,2.892,0.375,3.46,2.375h7.34
	c0.569-2,1.904-2.375,3.46-2.375c1.557,0,2.892,0.375,3.461,2.375h7.34c0.569-2,1.904-2.375,3.46-2.375
	c1.557,0,2.892,0.375,3.46,2.375h7.34c0.569-2,1.904-2.375,3.461-2.375c1.556,0,2.892,0.375,3.46,2.375h7.34
	c0.569-2,1.904-2.375,3.46-2.375c1.557,0,2.892,0.375,3.461,2.375h7.34c0.569-2,1.904-2.375,3.46-2.375
	c1.557,0,2.892,0.375,3.46,2.375h7.34c0.569-2,1.904-2.375,3.461-2.375c1.557,0,2.892,0.375,3.46,2.375h7.34
	c0.569-2,1.904-2.375,3.46-2.375c1.557,0,2.892,0.375,3.461,2.375H548v-7.442c-2-0.574-2.355-1.968-2.355-3.599
	S546,312.934,548,312.36v-7.392c-2-0.574-2.355-1.968-2.355-3.599c0-1.632,0.355-3.025,2.355-3.599v-7.392
	c-2-0.574-2.355-1.968-2.355-3.599c0-1.632,0.355-3.025,2.355-3.599v-7.392c-2-0.574-2.355-1.968-2.355-3.599
	c0-1.631,0.355-3.025,2.355-3.599v-7.392c-2-0.574-2.355-1.968-2.355-3.599s0.355-3.025,2.355-3.599v-7.392
	c-2-0.574-2.355-1.968-2.355-3.599c0-1.631,0.355-3.025,2.355-3.599v-7.392c-2-0.574-2.355-1.968-2.355-3.599
	s0.355-3.025,2.355-3.599v-7.392c-2-0.574-2.355-1.968-2.355-3.599c0-1.631,0.355-3.025,2.355-3.599v-7.392
	c-2-0.574-2.355-1.968-2.355-3.599c0-1.631,0.355-3.025,2.355-3.599v-7.392c-2-0.574-2.355-1.968-2.355-3.599
	c0-1.631,0.355-3.025,2.355-3.599v-7.392c-2-0.574-2.355-1.968-2.355-3.599c0-1.631,0.355-3.025,2.355-3.599v-7.392
	c-2-0.574-2.355-1.968-2.355-3.599c0-1.631,0.355-3.025,2.355-3.599v-7.392c-2-0.574-2.355-1.968-2.355-3.599
	c0-1.631,0.355-3.025,2.355-3.599v-7.392c-2-0.574-2.355-1.968-2.355-3.599s0.355-3.025,2.355-3.599v-7.392
	c-2-0.574-2.355-1.968-2.355-3.599c0-1.631,0.355-3.025,2.355-3.599v-7.392c-2-0.574-2.355-1.968-2.355-3.599
	c0-1.631,0.355-3.025,2.355-3.599v-7.392c-2-0.574-2.355-1.968-2.355-3.599S546,79.491,548,78.917v-7.392
	c-2-0.574-2.355-1.968-2.355-3.599S546,64.9,548,64.327v-7.392c-2-0.574-2.355-1.968-2.355-3.599c0-1.631,0.355-3.025,2.355-3.599
	v-7.392c-2-0.574-2.355-1.968-2.355-3.599S546,35.72,548,35.146v-7.392C546,27.18,545.645,25.787,545.645,24.155z"/>
</svg>
