<?xml version="1.0" encoding="utf-8"?>
<!-- Generator: Adobe Illustrator 17.0.0, SVG Export Plug-In . SVG Version: 6.00 Build 0)  -->
<!DOCTYPE svg PUBLIC "-//W3C//DTD SVG 1.1//EN" "http://www.w3.org/Graphics/SVG/1.1/DTD/svg11.dtd">
<svg version="1.1" id="Layer_1" xmlns="http://www.w3.org/2000/svg" xmlns:xlink="http://www.w3.org/1999/xlink" x="0px" y="0px"
	 width="100.031px" height="84.638px" viewBox="0 0 100.031 84.638" style="enable-background:new 0 0 100.031 84.638;"
	 xml:space="preserve">
<path d="M0.004,47.128c0-9.497,2.725-17.433,8.175-23.806c-1.082-3.285-1.624-6.692-1.624-10.218c0-4.65,1.022-9.018,3.066-13.104
	c4.327,0,8.134,0.791,11.422,2.374c3.288,1.582,7.075,4.057,11.361,7.425c5.891-1.403,12.083-2.104,18.574-2.104
	c5.93,0,11.54,0.641,16.831,1.924c4.209-3.285,7.956-5.711,11.241-7.275C82.337,0.778,86.124-0.003,90.413,0
	c2.044,4.088,3.066,8.456,3.066,13.104c0,3.486-0.541,6.852-1.624,10.099c5.45,6.412,8.175,14.387,8.175,23.926
	c0,8.295-1.222,14.927-3.666,19.898c-1.523,3.085-3.637,5.75-6.34,7.994c-2.703,2.244-5.528,3.968-8.475,5.171
	c-2.947,1.203-6.353,2.154-10.218,2.855c-3.865,0.7-7.302,1.141-10.31,1.323c-3.009,0.182-6.354,0.272-10.037,0.269
	c-3.126,0-5.972-0.06-8.537-0.181c-2.565-0.121-5.521-0.371-8.868-0.75c-3.347-0.38-6.403-0.981-9.168-1.804
	c-2.765-0.823-5.51-1.856-8.237-3.097s-5.151-2.865-7.275-4.871c-2.124-2.006-3.847-4.31-5.171-6.913C1.243,62.092,0,55.46,0,47.124
	L0.004,47.128z M13.469,57.708c0,3.527,0.641,6.602,1.924,9.226c1.282,2.624,2.906,4.687,4.871,6.19
	c1.965,1.503,4.409,2.706,7.333,3.609s5.73,1.494,8.418,1.774c2.688,0.28,5.673,0.419,8.956,0.419h10.099
	c3.285,0,6.271-0.14,8.956-0.419c2.685-0.28,5.491-0.871,8.418-1.774c2.926-0.903,5.371-2.106,7.333-3.609
	c1.962-1.503,3.586-3.566,4.871-6.19c1.285-2.624,1.926-5.699,1.924-9.226c0-4.809-1.382-8.896-4.147-12.261
	s-6.512-5.049-11.241-5.051c-1.644,0-5.551,0.421-11.722,1.262c-2.844,0.441-5.99,0.662-9.437,0.662s-6.593-0.221-9.437-0.662
	c-6.091-0.841-9.999-1.262-11.722-1.262c-4.729,0-8.477,1.684-11.241,5.051c-2.765,3.368-4.147,7.455-4.147,12.261H13.469z
	 M23.087,57.708c0-1.603,0.25-3.246,0.75-4.928c0.5-1.682,1.362-3.206,2.585-4.57c1.223-1.364,2.676-2.045,4.359-2.043
	c1.683,0.003,3.135,0.684,4.359,2.043c1.223,1.359,2.085,2.883,2.585,4.57c0.5,1.688,0.75,3.33,0.75,4.928s-0.25,3.241-0.75,4.928
	c-0.5,1.688-1.362,3.211-2.585,4.57c-1.223,1.359-2.676,2.04-4.359,2.043c-1.683,0.003-3.135-0.678-4.359-2.043
	c-1.223-1.364-2.085-2.888-2.585-4.57C23.337,60.954,23.087,59.311,23.087,57.708z M61.559,57.708c0-1.603,0.25-3.246,0.75-4.928
	c0.5-1.682,1.362-3.206,2.585-4.57c1.223-1.364,2.676-2.045,4.359-2.043c1.682,0.003,3.135,0.684,4.359,2.043
	c1.223,1.359,2.085,2.883,2.585,4.57c0.5,1.688,0.75,3.33,0.75,4.928s-0.25,3.241-0.75,4.928c-0.5,1.688-1.362,3.211-2.585,4.57
	c-1.223,1.359-2.676,2.04-4.359,2.043c-1.682,0.003-3.135-0.678-4.359-2.043c-1.223-1.364-2.085-2.888-2.585-4.57
	C61.809,60.954,61.559,59.311,61.559,57.708z"/>
</svg>
