<?xml version="1.0" encoding="utf-8"?>
<!-- Generator: Adobe Illustrator 17.0.0, SVG Export Plug-In . SVG Version: 6.00 Build 0)  -->
<!DOCTYPE svg PUBLIC "-//W3C//DTD SVG 1.1//EN" "http://www.w3.org/Graphics/SVG/1.1/DTD/svg11.dtd">
<svg version="1.1" id="Layer_1" xmlns="http://www.w3.org/2000/svg" xmlns:xlink="http://www.w3.org/1999/xlink" x="0px" y="0px"
	 width="100px" height="81.215px" viewBox="0 0 100 81.215" style="enable-background:new 0 0 100 81.215;" xml:space="preserve">
<path d="M0,72.009c1.481,0.171,3.131,0.256,4.95,0.256c9.518,0,18-2.918,25.445-8.755c-4.442-0.084-8.419-1.448-11.93-4.093
	c-3.511-2.645-5.922-6.018-7.232-10.119c1.397,0.211,2.687,0.317,3.87,0.317c1.819,0,3.617-0.233,5.393-0.698
	c-4.738-0.972-8.66-3.33-11.768-7.074c-3.108-3.744-4.662-8.09-4.662-13.039v-0.256c2.875,1.608,5.963,2.476,9.263,2.603
	c-2.791-1.863-5.012-4.295-6.664-7.297s-2.476-6.259-2.473-9.77c0-3.722,0.931-7.17,2.794-10.343
	c5.119,6.302,11.348,11.347,18.688,15.134s15.197,5.892,23.573,6.314c-0.338-1.608-0.508-3.173-0.508-4.694
	c0-5.669,1.999-10.501,5.998-14.497S63.566,0.003,69.232,0c5.923,0,10.914,2.158,14.972,6.473c4.61-0.888,8.946-2.538,13.007-4.95
	c-1.565,4.865-4.568,8.629-9.011,11.293c3.934-0.422,7.867-1.479,11.801-3.171c-2.834,4.145-6.26,7.676-10.278,10.594
	c0.043,0.593,0.065,1.481,0.065,2.664c0,5.498-0.804,10.987-2.412,16.466s-4.051,10.735-7.33,15.768
	c-3.278,5.033-7.181,9.485-11.707,13.356c-4.526,3.871-9.983,6.959-16.369,9.263c-6.386,2.304-13.218,3.457-20.495,3.46
	c-11.462,0-21.952-3.067-31.471-9.202L0,72.009z"/>
</svg>
