<?xml version="1.0" standalone="no"?>
<!DOCTYPE svg PUBLIC "-//W3C//DTD SVG 20010904//EN"
 "http://www.w3.org/TR/2001/REC-SVG-20010904/DTD/svg10.dtd">
<svg version="1.0" xmlns="http://www.w3.org/2000/svg"
 width="700.000000pt" height="700.000000pt" viewBox="0 0 700.000000 700.000000"
 preserveAspectRatio="xMidYMid meet">
<metadata>
Created by potrace 1.11, written by Peter Selinger 2001-2013
</metadata>
<g transform="translate(0.000000,700.000000) scale(0.100000,-0.100000)"
fill="#000000" stroke="none">
<path d="M1695 5649 c-33 -11 -141 -46 -240 -78 -99 -32 -308 -100 -465 -151
-418 -135 -931 -300 -960 -309 l-25 -8 0 -1313 0 -1313 25 -8 c30 -9 256 -82
662 -214 164 -53 300 -96 303 -96 3 1 22 -6 42 -13 38 -15 146 -50 648 -211
149 -48 367 -118 485 -157 118 -38 292 -94 385 -124 94 -31 244 -79 335 -109
482 -156 617 -198 631 -197 15 0 72 18 404 127 55 18 242 79 415 135 572 185
654 212 725 235 39 12 198 64 355 115 157 51 323 105 370 120 47 16 207 67
355 115 149 48 315 102 370 120 55 18 187 61 293 95 l192 62 0 1318 0 1318
-192 62 c-106 34 -224 72 -263 85 -38 13 -205 67 -370 120 -165 53 -381 123
-480 155 -99 32 -236 77 -303 99 l-124 40 -126 -42 c-70 -22 -129 -41 -132
-42 -3 0 -54 -17 -115 -37 -133 -44 -407 -133 -810 -263 -165 -53 -360 -117
-434 -141 l-134 -44 -251 81 c-138 44 -282 91 -321 104 -38 13 -205 67 -370
120 -165 53 -367 119 -450 145 -203 66 -370 120 -370 119 0 0 -27 -9 -60 -20z"/>
</g>
</svg>
