<svg viewBox="0 0 90 80" xmlns="http://www.w3.org/2000/svg" fill-rule="evenodd" clip-rule="evenodd" stroke-linejoin="round" stroke-miterlimit="1.414">
  <path d="M25.156 28.07v46.928H9.53V28.07h15.626zm.995-14.493c.033 2.306-.763 4.23-2.39 5.777-1.626 1.545-3.765 2.32-6.415 2.32h-.095c-2.587 0-4.67-.772-6.25-2.32-1.58-1.548-2.37-3.473-2.367-5.777 0-2.335.813-4.27 2.44-5.8 1.626-1.532 3.75-2.298 6.37-2.298s4.72.765 6.3 2.296c1.577 1.532 2.38 3.466 2.414 5.8h-.006zM81.368 48.1v26.898h-15.58v-25.1c0-3.314-.64-5.91-1.918-7.787-1.28-1.876-3.278-2.815-5.993-2.818-1.988 0-3.652.544-4.995 1.634-1.34 1.09-2.342 2.438-3.006 4.05-.348.946-.52 2.225-.52 3.836V75H33.772c.062-12.596.094-22.808.094-30.638 0-7.83-.016-12.5-.05-14.017l-.048-2.272h15.58v6.82h-.095c.633-1.012 1.28-1.896 1.942-2.654.662-.76 1.556-1.58 2.678-2.46 1.12-.885 2.493-1.572 4.118-2.063 1.624-.49 3.432-.736 5.422-.734 5.398 0 9.74 1.792 13.023 5.373 3.284 3.582 4.924 8.83 4.924 15.745h.004z" fill-rule="nonzero"/>
</svg>
