<svg width="100%" height="100%" viewBox="0 0 150 150" class="social">
            <rect x="20" y="20" width="110" height="110"/>
            <g transform="matrix(0.583023,0,0,0.583023,45.8404,50.3265)">
                <path d="M0.004,47.128C0.004,37.631 2.729,29.695 8.179,23.322C7.096,20.037 6.554,16.63 6.554,13.104C6.555,8.454 7.577,4.086 9.62,0C13.948,0 17.755,0.79 21.043,2.374C24.33,3.956 28.118,6.43 32.403,9.8C38.295,8.396 44.487,7.695 50.978,7.695C56.908,7.695 62.518,8.335 67.808,9.619C72.018,6.333 75.765,3.907 79.05,2.343C82.337,0.778 86.124,-0.003 90.413,0C92.457,4.088 93.479,8.456 93.479,13.104C93.479,16.59 92.937,19.956 91.854,23.204C97.304,29.614 100.029,37.59 100.029,47.129C100.029,55.423 98.807,62.055 96.363,67.026C94.84,70.111 92.726,72.776 90.023,75.02C87.32,77.265 84.495,78.99 81.548,80.192C78.6,81.395 75.194,82.346 71.328,83.047C67.464,83.747 64.028,84.187 61.018,84.37C58.01,84.552 54.665,84.642 50.982,84.64C47.856,84.64 45.01,84.58 42.445,84.458C39.88,84.338 36.925,84.088 33.577,83.708C30.229,83.328 27.173,82.728 24.407,81.904C21.643,81.081 18.897,80.048 16.171,78.807C13.445,77.566 11.021,75.942 8.896,73.937C6.771,71.93 5.048,69.627 3.724,67.023C1.243,62.093 0,55.46 0,47.123L0.004,47.128ZM13.469,57.708C13.469,61.235 14.109,64.31 15.392,66.934C16.674,69.558 18.298,71.621 20.262,73.124C22.228,74.627 24.672,75.83 27.596,76.734C30.52,77.638 33.326,78.227 36.014,78.507C38.702,78.787 41.687,78.927 44.97,78.927L55.07,78.927C58.355,78.927 61.34,78.787 64.026,78.507C66.711,78.227 69.516,77.637 72.444,76.733C75.37,75.83 77.814,74.627 79.777,73.123C81.739,71.621 83.363,69.558 84.647,66.933C85.933,64.31 86.574,61.235 86.572,57.708C86.572,52.898 85.19,48.812 82.425,45.448C79.66,42.084 75.913,40.398 71.185,40.396C69.54,40.396 65.633,40.816 59.462,41.658C56.618,42.098 53.472,42.32 50.025,42.32C46.578,42.32 43.432,42.1 40.588,41.658C34.498,40.818 30.588,40.396 28.866,40.396C24.136,40.396 20.389,42.08 17.626,45.446C14.86,48.816 13.478,52.902 13.478,57.708L13.468,57.708L13.469,57.708ZM23.086,57.708C23.086,56.105 23.336,54.462 23.836,52.78C24.336,51.098 25.198,49.574 26.421,48.21C27.644,46.846 29.097,46.165 30.781,46.167C32.463,46.17 33.915,46.851 35.139,48.21C36.362,49.57 37.224,51.093 37.724,52.78C38.224,54.468 38.474,56.11 38.474,57.708C38.474,59.306 38.224,60.948 37.724,62.636C37.224,64.324 36.362,65.846 35.139,67.206C33.916,68.566 32.463,69.246 30.779,69.249C29.097,69.251 27.645,68.569 26.421,67.205C25.198,65.841 24.336,64.317 23.836,62.635C23.336,60.953 23.086,59.31 23.086,57.707L23.086,57.708ZM61.558,57.708C61.558,56.105 61.808,54.462 62.308,52.78C62.808,51.098 63.668,49.574 64.892,48.21C66.115,46.846 67.568,46.165 69.252,46.167C70.932,46.17 72.386,46.851 73.61,48.21C74.833,49.57 75.695,51.093 76.195,52.78C76.695,54.468 76.945,56.11 76.945,57.708C76.945,59.306 76.695,60.948 76.195,62.636C75.695,64.324 74.833,65.846 73.61,67.206C72.387,68.566 70.934,69.246 69.25,69.249C67.57,69.251 66.116,68.569 64.892,67.205C63.669,65.841 62.807,64.317 62.307,62.635C61.807,60.953 61.557,59.31 61.557,57.707L61.558,57.708Z"/>
            </g>
</svg>
