<svg width="100%" height="100%" viewBox="0 0 150 150" class="social">
            <rect x="20" y="20" width="110" height="110"/>
            <g transform="matrix(0.629653,0,0,0.629653,43.517,49.4317)">
                <path d="M0,72.01C1.48,72.18 3.13,72.265 4.95,72.265C14.468,72.265 22.95,69.347 30.395,63.51C25.953,63.426 21.975,62.062 18.465,59.417C14.955,56.772 12.543,53.399 11.233,49.297C12.63,49.509 13.92,49.615 15.103,49.615C16.923,49.615 18.72,49.382 20.496,48.917C15.758,47.945 11.836,45.587 8.728,41.843C5.62,38.099 4.066,33.753 4.066,28.803L4.066,28.548C6.941,30.156 10.029,31.024 13.329,31.151C10.537,29.289 8.316,26.857 6.664,23.855C5.012,20.853 4.188,17.595 4.191,14.085C4.191,10.363 5.121,6.915 6.985,3.742C12.105,10.045 18.333,15.09 25.673,18.877C33.013,22.664 40.87,24.769 49.246,25.191C48.908,23.581 48.738,22.017 48.738,20.496C48.738,14.826 50.736,9.996 54.735,5.999C58.734,2.002 63.567,0.003 69.232,0C75.155,0 80.146,2.158 84.204,6.473C88.814,5.585 93.15,3.935 97.211,1.523C95.647,6.388 92.644,10.153 88.201,12.816C92.135,12.394 96.068,11.336 100.001,9.646C97.168,13.79 93.741,17.321 89.724,20.239C89.767,20.831 89.789,21.719 89.789,22.902C89.789,28.4 88.985,33.889 87.377,39.368C85.769,44.847 83.327,50.102 80.047,55.135C76.769,60.168 72.867,64.62 68.34,68.491C63.813,72.361 58.356,75.451 51.97,77.754C45.584,80.058 38.752,81.211 31.475,81.214C20.013,81.214 9.523,78.147 0.005,72.012L0,72.01Z"/>
            </g>
</svg>
