<svg width="100%" height="100%" viewBox="0 0 150 150" class="social">
  <rect x="20" y="20" width="110" height="110"/>
  <path d="M113.281868,62.3134786 C113.264027,62.2189175 113.246185,62.1261406 113.222991,62.0351478 C113.208717,61.9798385 113.187307,61.9280975 113.17125,61.8727882 C113.144487,61.7907163 113.119509,61.7104285 113.087394,61.6301408 C113.062415,61.5748315 113.039221,61.5213063 113.012458,61.4695654 C112.974991,61.392846 112.939307,61.3196949 112.900056,61.2465439 C112.86794,61.1965871 112.83761,61.1448461 112.80371,61.0931051 C112.76089,61.0235224 112.712718,60.9592922 112.664545,60.8932779 C112.627077,60.8468894 112.58961,60.7969326 112.550358,60.7505442 C112.498617,60.6880981 112.441523,60.6310046 112.386214,60.5703428 C112.34161,60.5257385 112.29879,60.4829184 112.252401,60.4400983 C112.193524,60.384789 112.129293,60.333048 112.065063,60.281307 C112.016891,60.2438394 111.966934,60.2045876 111.915193,60.1689042 C111.897351,60.1546308 111.879509,60.1385733 111.859883,60.1296524 L76.5154415,36.5643122 C75.39855,35.8203126 73.9462342,35.8203126 72.8311269,36.5643122 L37.4831166,60.1242999 C37.4634907,60.1385733 37.4474331,60.1546308 37.4295914,60.1653358 C37.3778505,60.2010193 37.3278936,60.240271 37.2779368,60.2795228 C37.2137067,60.3276955 37.1512606,60.3812206 37.0905988,60.4365299 C37.0459945,60.4775659 37.0013902,60.520386 36.9585701,60.5649903 C36.9014766,60.623868 36.8479514,60.6827456 36.7926421,60.7469758 C36.7533903,60.7915801 36.7159227,60.8415369 36.6802393,60.8897096 C36.6302825,60.9557239 36.583894,61.0217383 36.5392897,61.091321 C36.5071746,61.1430619 36.4750596,61.1930187 36.4447286,61.2447597 C36.4036927,61.3179108 36.3662251,61.3910618 36.3323258,61.4642128 C36.3055632,61.5195222 36.282369,61.5730473 36.2573906,61.6265725 C36.2252755,61.705076 36.1985129,61.7871479 36.1717504,61.8692198 C36.1539086,61.9245292 36.1342828,61.9780543 36.1217936,62.0315795 C36.0968152,62.1243564 36.0807576,62.2171333 36.0629159,62.3099102 C36.053995,62.3562987 36.04329,62.4062555 36.0361533,62.452644 C36.0165274,62.5971619 36.0058224,62.7398956 36.0058224,62.8879819 L36.0058224,86.4515379 C36.0058224,86.5960558 36.0165274,86.7423579 36.0361533,86.8850916 C36.04329,86.9314801 36.053995,86.9814369 36.0629159,87.0278254 C36.0807576,87.1223865 36.0985993,87.2133792 36.1217936,87.304372 C36.1360669,87.3596813 36.1556928,87.4114223 36.1717504,87.4667316 C36.1985129,87.5505877 36.2252755,87.6308754 36.2573906,87.7111631 C36.282369,87.7664725 36.3055632,87.8199976 36.3323258,87.8735228 C36.3680093,87.948458 36.4036927,88.021609 36.4447286,88.0947601 C36.4750596,88.146501 36.5071746,88.198242 36.5392897,88.2481988 C36.583894,88.3177815 36.6302825,88.3837959 36.6802393,88.4498102 C36.7177069,88.4979829 36.7533903,88.5461555 36.7926421,88.592544 C36.8461673,88.65499 36.9014766,88.7120835 36.9585701,88.7745295 C37.0013902,88.8191338 37.0459945,88.8619539 37.0905988,88.9029899 C37.1512606,88.9582992 37.2137067,89.0100402 37.2779368,89.059997 C37.3278936,89.0974646 37.3778505,89.1385005 37.4295914,89.174184 C37.4492173,89.1884573 37.4652749,89.2045149 37.4831166,89.2134357 L72.8293427,112.776992 C73.3860043,113.149884 74.0283061,113.335437 74.6706079,113.335437 C75.3129097,113.335437 75.9569957,113.149884 76.5136573,112.776992 L111.858099,89.2134357 C111.879509,89.2009465 111.895567,89.1831048 111.913409,89.174184 C111.96515,89.1367164 112.015106,89.0974646 112.063279,89.059997 C112.127509,89.0100402 112.191739,88.9582992 112.250617,88.9029899 C112.297005,88.8619539 112.339826,88.8191338 112.38443,88.7745295 C112.439739,88.7156518 112.495049,88.6567742 112.548574,88.592544 C112.587825,88.5461555 112.627077,88.4979829 112.662761,88.4498102 C112.710933,88.3837959 112.759106,88.3177815 112.801926,88.2481988 C112.835825,88.198242 112.866156,88.146501 112.898271,88.0947601 C112.937523,88.021609 112.974991,87.948458 113.010674,87.8735228 C113.037437,87.8199976 113.060631,87.7664725 113.085609,87.7111631 C113.117724,87.6308754 113.142703,87.5505877 113.169465,87.4667316 C113.187307,87.4114223 113.206933,87.3596813 113.221206,87.304372 C113.246185,87.2133792 113.262242,87.1206023 113.280084,87.0278254 C113.287221,86.9814369 113.29971,86.9314801 113.306847,86.8850916 C113.324688,86.7423579 113.337178,86.5960558 113.337178,86.4515379 L113.337178,62.8915502 C113.337178,62.743464 113.324688,62.6007302 113.306847,62.4562123 C113.301494,62.411608 113.289005,62.3616512 113.281868,62.3134786 L113.281868,62.3134786 Z M74.6706079,82.5334968 L62.9182687,74.6742203 L74.6706079,66.8131597 L86.4247313,74.6742203 L74.6706079,82.5334968 L74.6706079,82.5334968 Z M71.346696,61.03958 L56.9395093,70.6758915 L45.310278,62.8969027 L71.346696,45.538696 L71.346696,61.03958 L71.346696,61.03958 L71.346696,61.03958 Z M50.9643182,74.6742203 L42.6500779,80.2336994 L42.6500779,69.112957 L50.9643182,74.6742203 L50.9643182,74.6742203 Z M56.9395093,78.670765 L71.346696,88.3052923 L71.346696,103.806176 L45.310278,86.4479696 L56.9395093,78.670765 L56.9395093,78.670765 Z M77.9927357,88.3052923 L92.3999224,78.670765 L104.030938,86.4479696 L77.9927357,103.806176 L77.9927357,88.3052923 L77.9927357,88.3052923 Z M98.3786818,74.6742203 L106.692922,69.112957 L106.692922,80.2319153 L98.3786818,74.6742203 L98.3786818,74.6742203 Z M92.3999224,70.6741073 L77.9927357,61.03958 L77.9927357,45.538696 L104.030938,62.8969027 L92.3999224,70.6741073 L92.3999224,70.6741073 Z"></path>
</svg>
