<svg viewBox="0 0 90 80" xmlns="http://www.w3.org/2000/svg" fill-rule="evenodd" clip-rule="evenodd" stroke-linejoin="round" stroke-miterlimit="1.414">
  <path d="M7.14 46.358c0-7.19 2.063-13.2 6.19-18.025-.82-2.487-1.23-5.067-1.23-7.736 0-3.52.774-6.828 2.32-9.922 3.277 0 6.16.598 8.65 1.798 2.488 1.197 5.356 3.07 8.6 5.622 4.462-1.063 9.15-1.594 14.065-1.594 4.49 0 8.737.486 12.743 1.458 3.187-2.488 6.024-4.325 8.51-5.51 2.49-1.184 5.358-1.775 8.605-1.773 1.548 3.095 2.32 6.403 2.32 9.922 0 2.64-.41 5.188-1.23 7.647 4.128 4.853 6.19 10.892 6.19 18.115 0 6.28-.924 11.3-2.775 15.064-1.153 2.336-2.754 4.353-4.8 6.053-2.047 1.7-4.186 3.005-6.417 3.916-2.23.91-4.81 1.63-7.737 2.16-2.926.53-5.527.864-7.806 1.003-2.278.138-4.81.206-7.6.204-2.366 0-4.52-.045-6.463-.137-1.942-.09-4.18-.28-6.715-.568-2.535-.288-4.85-.742-6.944-1.366-2.092-.624-4.17-1.407-6.235-2.346-2.063-.94-3.9-2.17-5.508-3.687-1.61-1.52-2.913-3.264-3.916-5.235-1.878-3.733-2.82-8.755-2.82-15.068l.004.004zm10.195 8.01c0 2.67.484 5 1.456 6.986.97 1.987 2.2 3.55 3.688 4.687 1.49 1.14 3.34 2.05 5.553 2.734 2.215.685 4.34 1.13 6.375 1.343 2.035.212 4.295.318 6.78.318h7.648c2.487 0 4.747-.106 6.78-.318 2.034-.212 4.158-.66 6.375-1.343 2.215-.684 4.066-1.595 5.552-2.734 1.485-1.137 2.715-2.7 3.687-4.687.974-1.986 1.46-4.314 1.458-6.984 0-3.643-1.047-6.737-3.14-9.284-2.094-2.547-4.93-3.824-8.51-3.825-1.246 0-4.204.32-8.877.956-2.153.334-4.535.502-7.145.502-2.61 0-4.992-.167-7.145-.502-4.61-.636-7.572-.955-8.875-.955-3.582 0-6.42 1.276-8.51 3.825-2.095 2.55-3.142 5.645-3.142 9.284h-.006zm7.28 0c0-1.213.19-2.457.57-3.73.378-1.274 1.03-2.428 1.956-3.46.927-1.033 2.027-1.55 3.302-1.548 1.274.003 2.373.518 3.3 1.547.926 1.03 1.58 2.183 1.957 3.46.378 1.28.567 2.522.567 3.732 0 1.21-.19 2.452-.568 3.73-.38 1.278-1.032 2.43-1.958 3.46-.926 1.03-2.026 1.545-3.3 1.547-1.275.002-2.374-.515-3.3-1.548-.927-1.033-1.58-2.187-1.958-3.46-.38-1.274-.568-2.518-.568-3.732zm29.13 0c0-1.213.19-2.457.568-3.73.38-1.274 1.03-2.428 1.957-3.46.926-1.033 2.026-1.55 3.3-1.548 1.273.003 2.374.518 3.3 1.547.927 1.03 1.58 2.183 1.958 3.46.378 1.28.568 2.522.568 3.732 0 1.21-.19 2.452-.568 3.73-.38 1.278-1.03 2.43-1.957 3.46-.925 1.03-2.026 1.545-3.3 1.547-1.273.002-2.374-.515-3.3-1.548-.926-1.033-1.58-2.187-1.958-3.46-.378-1.274-.567-2.518-.567-3.732z" fill-rule="nonzero"/>
</svg>
