<svg viewBox="0 0 90 80" xmlns="http://www.w3.org/2000/svg" fill-rule="evenodd" clip-rule="evenodd" stroke-linejoin="round" stroke-miterlimit="1.414">
  <path d="M4.763 67.95c1.19.135 2.52.204 3.983.204 7.66 0 14.485-2.348 20.477-7.046-3.575-.067-6.776-1.165-9.6-3.293-2.825-2.13-4.766-4.843-5.82-8.144 1.124.17 2.162.257 3.114.257 1.464 0 2.91-.188 4.34-.562-3.813-.782-6.97-2.68-9.47-5.693-2.502-3.013-3.752-6.51-3.752-10.493v-.207c2.313 1.294 4.798 1.993 7.454 2.095-2.248-1.498-4.035-3.455-5.364-5.87-1.33-2.417-1.993-5.04-1.99-7.863 0-2.996.748-5.77 2.248-8.324 4.12 5.074 9.132 9.133 15.04 12.18 5.905 3.048 12.228 4.742 18.97 5.082-.273-1.296-.41-2.554-.41-3.778 0-4.563 1.608-8.45 4.826-11.666 3.218-3.217 7.107-4.826 11.666-4.828 4.766 0 8.783 1.737 12.048 5.21 3.71-.716 7.2-2.043 10.468-3.984-1.26 3.915-3.676 6.944-7.25 9.087 3.165-.34 6.33-1.19 9.495-2.55-2.28 3.334-5.038 6.176-8.27 8.524.034.476.052 1.19.052 2.143 0 4.424-.648 8.84-1.942 13.25s-3.26 8.64-5.9 12.69c-2.637 4.05-5.777 7.632-9.42 10.747-3.643 3.114-8.034 5.6-13.173 7.454-5.14 1.855-10.637 2.783-16.493 2.785-9.224 0-17.666-2.468-25.325-7.405h-.004z" fill-rule="nonzero"/>
</svg>
