<svg width="100%" height="100%" viewBox="0 0 150 150" class="social">
            <rect x="20" y="20" width="110" height="110"/>
            <g transform="matrix(0.551496,0,0,0.551496,47.3403,52.0638)">
                <path d="M22.88,24.863L22.88,89.363L1.405,89.363L1.405,24.863L22.88,24.863ZM24.248,4.943C24.292,8.113 23.198,10.758 20.961,12.883C18.726,15.007 15.787,16.071 12.144,16.073L12.014,16.073C8.458,16.073 5.594,15.01 3.422,12.883C1.25,10.756 0.166,8.11 0.17,4.943C0.17,1.733 1.288,-0.925 3.523,-3.03C5.758,-5.135 8.678,-6.187 12.28,-6.187C15.882,-6.187 18.767,-5.135 20.936,-3.03C23.105,-0.925 24.211,1.733 24.256,4.943L24.251,4.943L24.248,4.943ZM100.138,52.393L100.138,89.363L78.725,89.363L78.725,54.866C78.725,50.309 77.845,46.74 76.088,44.161C74.331,41.582 71.585,40.291 67.853,40.287C65.12,40.287 62.833,41.035 60.988,42.532C59.144,44.029 57.768,45.884 56.856,48.097C56.378,49.399 56.14,51.157 56.14,53.371L56.14,89.365L34.723,89.365C34.809,72.053 34.853,58.017 34.853,47.255C34.853,36.493 34.83,30.073 34.785,27.99L34.718,24.867L56.132,24.867L56.132,34.239L56.002,34.239C56.872,32.849 57.762,31.635 58.672,30.593C59.582,29.551 60.81,28.423 62.352,27.211C63.892,25.997 65.779,25.053 68.012,24.378C70.245,23.702 72.729,23.366 75.464,23.368C82.884,23.368 88.851,25.831 93.364,30.754C97.877,35.677 100.132,42.891 100.132,52.394L100.137,52.391L100.138,52.393Z"/>
            </g>
</svg>
