<svg class="line animate" viewBox="0 0 500 356" xmlns="http://www.w3.org/2000/svg" >
  <path d="M179.3 358.51l162.188-52.994v-31.27l66.65 21.125-43.806 14.37-13-4.224v-31.27l43.806-14.368 23.966 7.787v31.27l24.006-7.788v-67.634l-23.965-7.787-43.806 14.37 43.805 14.37 43.806-14.37v-100.14l-34.066-11.158V49.34l-24.007 7.788v35.916l-43.806 14.37 23.967 7.787v35.917l24.007-7.788 23.965 7.787-141.038 51.675.252-70.874-40.343-13.12-40.78 13.155 14.86 4.83v145.305l-12.362 4.01V191.52l-47.784-15.474 28.345-9.298v35.915l-28.346 9.232v-19.111l-43.807 14.37c-.128-4.31-.337-3.847 0-35.916l-23.965-7.603v-19.33l24.007-7.786 23.965 7.788.007 18.046-118.748-38.69 118.666-38.61-23.89-7.79h-.043v-47.09l-75.63-24.85L23.3-2.255" />
</svg>
