<svg class="line animate" viewBox="0 0 500 356">
  <path d="M179.3-2.255L341.488 50.74v31.27l66.65-21.126-43.806-14.37-13 4.224v31.27l43.806 14.368 23.966-7.787V57.32l24.006 7.787v67.634l-23.965 7.788-43.806-14.37 43.804-14.37 43.806 14.37v100.14l-34.066 11.158v69.46l-24.007-7.79v-35.915l-43.806-14.37 23.968-7.786v-35.917l24.007 7.788 23.965-7.787-141.038-51.675.252 70.874-40.343 13.12-40.78-13.155 14.86-4.83V74.167l-12.36-4.01v94.578l-47.785 15.474 28.345 9.297v-35.915l-28.346-9.232v19.11l-43.807-14.37c-.128 4.31-.337 3.848 0 35.917l-23.965 7.603v19.33l24.007 7.786 23.964-7.788.007-18.046-118.747 38.69 118.666 38.61-23.89 7.79h-.044v47.09l-75.63 24.85L23.3 358.51"/>
</svg>
