<?xml version="1.0" encoding="utf-8"?>
<!-- Generator: Adobe Illustrator 17.0.0, SVG Export Plug-In . SVG Version: 6.00 Build 0)  -->
<!DOCTYPE svg PUBLIC "-//W3C//DTD SVG 1.1//EN" "http://www.w3.org/Graphics/SVG/1.1/DTD/svg11.dtd">
<svg version="1.1" id="Laag_1" xmlns="http://www.w3.org/2000/svg" xmlns:xlink="http://www.w3.org/1999/xlink" x="0px" y="0px"
	 width="300px" height="200px" viewBox="0 0 300 200" enable-background="new 0 0 300 200" xml:space="preserve">
<g>
	<path fill="#EE6644" d="M128.896,144.378c-7.783,0-13.219-6.275-13.219-15.261V70.882c0-8.985,5.436-15.261,13.219-15.261
		c2.873,0,5.824,0.863,8.771,2.564l50.434,29.118c5.312,3.067,8.358,7.695,8.358,12.696c0,5.002-3.047,9.629-8.358,12.696
		l-50.434,29.117C134.72,143.515,131.769,144.378,128.896,144.378z M128.896,67.622c-1.185,0-1.219,2.927-1.219,3.261v58.235
		c0,0.334,0.034,3.261,1.219,3.261c0.335,0,1.276-0.094,2.771-0.957l50.434-29.117c1.958-1.131,2.358-2.104,2.358-2.304
		s-0.4-1.173-2.358-2.304l-50.434-29.118C130.171,67.715,129.23,67.622,128.896,67.622z"/>
</g>
<g>
	<path fill="#EE6644" d="M151.511,181c-44.664,0-81-36.337-81-81c0-44.664,36.336-81,81-81c44.663,0,81,36.336,81,81
		C232.511,144.663,196.174,181,151.511,181z M151.511,31c-38.047,0-69,30.953-69,69s30.953,69,69,69s69-30.953,69-69
		S189.558,31,151.511,31z"/>
</g>
</svg>
