<?xml version="1.0" encoding="utf-8"?>
<!-- Generator: Adobe Illustrator 17.0.0, SVG Export Plug-In . SVG Version: 6.00 Build 0)  -->
<!DOCTYPE svg PUBLIC "-//W3C//DTD SVG 1.1//EN" "http://www.w3.org/Graphics/SVG/1.1/DTD/svg11.dtd">
<svg version="1.1" id="Laag_1" xmlns="http://www.w3.org/2000/svg" xmlns:xlink="http://www.w3.org/1999/xlink" x="0px" y="0px"
	 width="300px" height="200px" viewBox="0 0 300 200" enable-background="new 0 0 300 200" xml:space="preserve">
<path fill="#EE6644" d="M182.837,9C149.622,9,122.6,36.022,122.6,69.237c0,13.391,4.397,25.772,11.817,35.786l-11.217,11.216
	l-5.027-5.027c-2.344-2.342-6.143-2.343-8.485,0.001l-51.004,51.004c-2.343,2.343-2.343,6.142,0,8.484l18.539,18.54
	c1.125,1.126,2.651,1.758,4.243,1.758s3.118-0.632,4.243-1.758l51.005-51.005c1.125-1.125,1.757-2.651,1.757-4.242
	c0-1.592-0.632-3.117-1.757-4.243l-5.027-5.027l10.803-10.802c10.688,9.659,24.841,15.552,40.347,15.552
	c33.215,0,60.237-27.022,60.237-60.237C243.074,36.022,216.052,9,182.837,9z M81.466,176.514l-10.054-10.055l42.519-42.519
	l5.025,5.025c0,0,0.001,0.001,0.001,0.001s0.001,0.001,0.001,0.001l5.026,5.026L81.466,176.514z M182.837,117.474
	c-26.598,0-48.237-21.639-48.237-48.237S156.239,21,182.837,21s48.237,21.639,48.237,48.237S209.435,117.474,182.837,117.474z"/>
<g>
	<path fill="#EE6644" d="M217.95,64.498c-2.569,0-4.946-1.664-5.736-4.249c-3.595-11.766-13.812-20.222-26.03-21.542
		c-3.295-0.356-5.677-3.315-5.32-6.61c0.355-3.295,3.328-5.673,6.609-5.321c17.001,1.837,31.217,13.6,36.218,29.967
		c0.968,3.169-0.816,6.523-3.985,7.491C219.121,64.413,218.53,64.498,217.95,64.498z"/>
</g>
<g>
	<path fill="#EE6644" d="M173.134,110.859c-0.53,0-1.069-0.071-1.605-0.22c-13.71-3.8-24.594-14.111-29.115-27.583
		c-1.055-3.142,0.638-6.543,3.779-7.597c3.14-1.056,6.542,0.637,7.597,3.779c3.252,9.688,11.081,17.104,20.944,19.837
		c3.193,0.885,5.064,4.191,4.18,7.385C178.177,109.117,175.764,110.859,173.134,110.859z"/>
</g>
<g>
	<path fill="none" stroke="#EE6644" stroke-width="12" stroke-linecap="round" stroke-linejoin="round" stroke-miterlimit="10" d="
		M216.949,82.804"/>
</g>
</svg>
