<?xml version="1.0" encoding="utf-8"?>
<!-- Generator: Adobe Illustrator 17.0.0, SVG Export Plug-In . SVG Version: 6.00 Build 0)  -->
<!DOCTYPE svg PUBLIC "-//W3C//DTD SVG 1.1//EN" "http://www.w3.org/Graphics/SVG/1.1/DTD/svg11.dtd">
<svg version="1.1" id="Laag_1" xmlns="http://www.w3.org/2000/svg" xmlns:xlink="http://www.w3.org/1999/xlink" x="0px" y="0px"
	 width="300px" height="200px" viewBox="0 0 300 200" enable-background="new 0 0 300 200" xml:space="preserve">
<g>
	<path fill="#EE6644" d="M138.352,79.401c-0.007,0-0.015-0.001-0.02,0H28.44c-2.272,0-4.35-1.284-5.366-3.315
		c-1.016-2.032-0.798-4.464,0.564-6.283l27.826-37.135c1.043-1.392,2.64-2.263,4.375-2.387c1.738-0.121,3.439,0.512,4.669,1.742
		l11.734,11.734l29.08-29.081c1.306-1.305,3.145-1.935,4.973-1.713c1.833,0.225,3.46,1.281,4.412,2.863l32.535,54.096
		c0.699,0.981,1.11,2.181,1.11,3.477C144.352,76.715,141.666,79.401,138.352,79.401z M40.434,67.401h87.289l-23.342-38.81
		L76.486,56.486c-1.125,1.125-2.651,1.757-4.243,1.757S69.126,57.611,68,56.486L56.917,45.403L40.434,67.401z"/>
</g>
<g>
	<path fill="#FFFFFF" d="M226.937,70.85c-0.244-0.92-0.59-1.827-1.071-2.699c-3.16-5.718-10.357-7.792-16.075-4.632
		c-3.656,2.021-5.813,5.693-6.073,9.573c-3.737-6.23-11.756-8.437-18.166-4.895c-4.348,2.403-6.842,6.844-6.98,11.473
		c-3.674-6.409-11.819-8.712-18.309-5.125c-3.017,1.667-5.135,4.319-6.203,7.331l-16.021-28.99
		c-3.479-6.294-11.401-8.577-17.696-5.098c-6.294,3.479-8.577,11.401-5.099,17.696l35.163,63.626
		c-0.105-0.072-0.206-0.139-0.311-0.212c-24.26-16.736-39.447-11.106-33.83,0.813c5.428,11.516,33.344,26.874,52.93,42.949
		c0.638,0.559,1.287,1.103,1.95,1.626c0.025,0.021,0.051,0.043,0.077,0.064v-0.001c15.236,11.984,36.768,14.405,54.8,4.44
		c24.028-13.279,32.742-43.523,19.463-67.552c-0.672-1.215-1.398-2.381-2.153-3.517L226.95,70.846L226.937,70.85z"/>
	<path fill="#EE6644" d="M202.025,191c-12.471,0-24.728-4.239-34.512-11.936c-0.036-0.027-0.122-0.097-0.156-0.126
		c-0.623-0.491-1.329-1.079-2.039-1.699c-6.756-5.538-14.596-11.041-22.178-16.362c-15.089-10.591-28.121-19.737-32.301-28.607
		c-3.183-6.755-1.304-11.477,0.1-13.689c2.517-3.969,7.196-6.154,13.174-6.154c3.443,0,7.289,0.728,11.393,2.125l-25.513-46.165
		c-5.072-9.18-1.731-20.776,7.447-25.849c2.813-1.555,5.991-2.376,9.19-2.376c6.927,0,13.311,3.764,16.66,9.823l11.577,20.949
		c0.783-0.606,1.617-1.155,2.493-1.639c2.89-1.597,6.154-2.441,9.44-2.441c3.229,0,6.354,0.803,9.125,2.265
		c1.702-2.526,3.99-4.661,6.724-6.171c2.889-1.597,6.151-2.44,9.436-2.44c3.311,0,6.527,0.854,9.362,2.401
		c1.456-1.868,3.294-3.453,5.441-4.639c2.636-1.457,5.614-2.227,8.613-2.227c6.493,0,12.477,3.528,15.615,9.208
		c0.597,1.083,1.081,2.241,1.447,3.457l16.051,36.126c0.806,1.232,1.502,2.382,2.122,3.503
		c14.857,26.887,5.073,60.848-21.812,75.706C220.688,188.593,211.385,191,202.025,191z M174.981,169.673
		c7.672,6.015,17.273,9.327,27.044,9.327c7.335,0,14.63-1.89,21.096-5.463c21.094-11.657,28.771-38.304,17.113-59.397
		c-0.531-0.962-1.153-1.977-1.899-3.101c-0.187-0.28-0.349-0.576-0.485-0.883l-16.225-36.519c-0.208-0.395-0.373-0.815-0.489-1.254
		c-0.132-0.498-0.303-0.935-0.524-1.337c-1.023-1.851-2.982-3.005-5.109-3.005c-0.988,0-1.933,0.246-2.809,0.729
		c-1.738,0.96-2.855,2.726-2.989,4.722c-0.175,2.617-2.029,4.817-4.579,5.432c-2.551,0.618-5.204-0.497-6.553-2.747
		c-1.358-2.265-3.845-3.672-6.487-3.672c-1.277,0-2.499,0.317-3.632,0.942c-2.351,1.3-3.803,3.692-3.884,6.4
		c-0.08,2.685-1.934,4.99-4.539,5.642c-2.606,0.652-5.327-0.506-6.663-2.836c-1.345-2.345-3.86-3.801-6.566-3.801
		c-1.279,0-2.503,0.317-3.636,0.944c-1.605,0.887-2.831,2.338-3.45,4.085c-0.79,2.225-2.811,3.781-5.164,3.974
		c-2.349,0.189-4.6-1.011-5.743-3.078l-16.021-28.99c-1.237-2.237-3.596-3.627-6.157-3.627c-1.191,0-2.331,0.296-3.386,0.879
		c-3.388,1.873-4.621,6.154-2.749,9.542l35.163,63.626c1.346,2.435,0.842,5.474-1.217,7.344c-2.057,1.87-5.13,2.08-7.426,0.508
		l-0.322-0.219c-12.318-8.498-19.895-9.415-22.581-9.415c-1.821,0-2.741,0.385-3.013,0.576c-0.022,0.264,0.047,0.992,0.593,2.151
		c2.824,5.992,15.796,15.097,28.341,23.901c7.791,5.468,15.847,11.123,22.969,16.968c0.05,0.04,0.099,0.082,0.146,0.124
		c0.562,0.492,1.134,0.972,1.717,1.433C174.895,169.602,174.943,169.641,174.981,169.673z"/>
</g>
<g>
	<path fill="#EE6644" d="M135.145,16.429c0,0,1.232-0.375,3.387-1.031c1.013-0.338,2.554-0.702,4.202-1.125
		c1.678-0.465,3.521-0.787,5.536-1.181c1.002-0.216,2.065-0.353,3.161-0.501c1.097-0.14,2.224-0.326,3.391-0.439
		c2.342-0.188,4.799-0.428,7.352-0.43c1.274-0.036,2.567-0.068,3.875,0.003c1.307,0.055,2.63,0.063,3.957,0.161
		c1.323,0.119,2.657,0.239,3.996,0.36c1.336,0.123,2.663,0.367,3.993,0.546l1.989,0.3l1.966,0.396
		c1.303,0.281,2.615,0.489,3.884,0.828c1.27,0.327,2.529,0.652,3.774,0.973c1.246,0.307,2.439,0.739,3.63,1.093
		c2.388,0.696,4.621,1.572,6.751,2.348c2.128,0.78,4.07,1.684,5.893,2.428c1.805,0.789,3.414,1.605,4.86,2.278
		c1.452,0.661,2.66,1.352,3.675,1.877c2.018,1.069,3.171,1.68,3.171,1.68c0.976,0.517,1.348,1.727,0.831,2.703
		c-0.485,0.915-1.579,1.299-2.519,0.917l-0.086-0.036c0,0-1.175-0.483-3.231-1.327c-1.031-0.411-2.259-0.966-3.721-1.465
		c-1.455-0.512-3.075-1.145-4.874-1.731c-1.814-0.54-3.745-1.224-5.836-1.764c-2.091-0.537-4.276-1.162-6.58-1.593
		c-1.149-0.223-2.302-0.521-3.492-0.692c-1.185-0.185-2.384-0.373-3.593-0.562c-1.205-0.201-2.435-0.27-3.658-0.413l-1.839-0.19
		l-1.847-0.095c-1.231-0.043-2.457-0.153-3.68-0.144c-1.22,0.009-2.436,0.018-3.642,0.027c-1.203,0.027-2.393,0.141-3.567,0.204
		c-1.175,0.047-2.327,0.191-3.458,0.336c-2.268,0.219-4.427,0.654-6.472,1.014c-1.02,0.199-1.998,0.465-2.949,0.681
		c-0.95,0.223-1.868,0.43-2.731,0.71c-1.732,0.52-3.345,0.962-4.649,1.475c-1.348,0.494-2.45,0.84-3.536,1.321
		c-2.082,0.862-3.271,1.355-3.271,1.355c-3.065,1.27-6.579-0.186-7.849-3.251s0.186-6.579,3.251-7.849
		C134.773,16.553,134.964,16.485,135.145,16.429z"/>
</g>
</svg>
