<?xml version="1.0" encoding="utf-8"?>
<!-- Generator: Adobe Illustrator 17.0.0, SVG Export Plug-In . SVG Version: 6.00 Build 0)  -->
<!DOCTYPE svg PUBLIC "-//W3C//DTD SVG 1.1//EN" "http://www.w3.org/Graphics/SVG/1.1/DTD/svg11.dtd">
<svg version="1.1" id="Laag_1" xmlns="http://www.w3.org/2000/svg" xmlns:xlink="http://www.w3.org/1999/xlink" x="0px" y="0px"
	 width="300px" height="200px" viewBox="0 0 300 200" enable-background="new 0 0 300 200" xml:space="preserve">
<g>
	<g>
		<g>
			<path fill="#EE6644" d="M225.526,161.889H77.496c-3.313,0-6-2.687-6-6V44.111c0-3.313,2.687-6,6-6h148.03c3.313,0,6,2.687,6,6
				v111.778C231.526,159.202,228.84,161.889,225.526,161.889z M83.496,149.889h136.03V50.111H83.496V149.889z"/>
		</g>
		<g>
			<path fill="#EE6644" d="M244.759,127.751c-1.536,0-3.071-0.586-4.243-1.758c-2.343-2.343-2.343-6.142,0.001-8.485l15.998-15.997
				l-15.998-15.998c-2.344-2.343-2.344-6.142-0.001-8.485c2.344-2.343,6.144-2.343,8.485,0l20.241,20.241
				c1.126,1.125,1.758,2.651,1.758,4.243c0,1.592-0.632,3.117-1.758,4.243l-20.241,20.24
				C247.83,127.165,246.294,127.751,244.759,127.751z"/>
		</g>
		<g>
			<path fill="#EE6644" d="M55.241,127.751c-1.536,0-3.071-0.586-4.243-1.757l-20.241-20.24c-1.125-1.126-1.757-2.651-1.757-4.243
				c0-1.591,0.632-3.118,1.757-4.243l20.241-20.241c2.343-2.343,6.142-2.344,8.485,0c2.343,2.343,2.343,6.142,0,8.485
				l-15.999,15.998l15.999,15.997c2.343,2.344,2.343,6.143,0,8.485C58.312,127.165,56.777,127.751,55.241,127.751z"/>
		</g>
	</g>
	<g>
		<path fill="#EE6644" d="M207.063,139.944c-0.005,0.001-0.013,0.001-0.02,0h-85.315c-2.272,0-4.349-1.283-5.366-3.315
			s-0.798-4.464,0.564-6.282l21.602-28.83c1.043-1.393,2.64-2.263,4.375-2.387c1.733-0.124,3.439,0.512,4.669,1.742l8.162,8.161
			l21.629-21.628c1.305-1.306,3.134-1.939,4.973-1.713c1.832,0.225,3.46,1.281,4.411,2.863l25.206,41.912
			c0.699,0.981,1.109,2.182,1.109,3.478C213.063,137.258,210.378,139.944,207.063,139.944z M133.722,127.944h62.712l-16.014-26.627
			l-20.443,20.442c-2.342,2.344-6.143,2.343-8.484,0.001l-7.511-7.51L133.722,127.944z"/>
	</g>
	<g>
		<path fill="#EE6644" d="M116.028,96.923c-10.203,0-18.504-8.301-18.504-18.504s8.301-18.504,18.504-18.504
			s18.504,8.301,18.504,18.504S126.231,96.923,116.028,96.923z M116.028,71.915c-3.586,0-6.504,2.917-6.504,6.504
			s2.917,6.504,6.504,6.504s6.504-2.917,6.504-6.504S119.614,71.915,116.028,71.915z"/>
	</g>
</g>
</svg>
