<?xml version="1.0" encoding="utf-8"?>
<!-- Generator: Adobe Illustrator 17.0.0, SVG Export Plug-In . SVG Version: 6.00 Build 0)  -->
<!DOCTYPE svg PUBLIC "-//W3C//DTD SVG 1.1//EN" "http://www.w3.org/Graphics/SVG/1.1/DTD/svg11.dtd">
<svg version="1.1" id="Laag_1" xmlns="http://www.w3.org/2000/svg" xmlns:xlink="http://www.w3.org/1999/xlink" x="0px" y="0px"
	 width="450px" height="300px" viewBox="0 0 450 300" enable-background="new 0 0 450 300" xml:space="preserve">
<g>
	<g>
		<g>
			<path fill="#EE6644" d="M300,286H150c-11.58,0-21-9.421-21-21V35c0-11.58,9.42-21,21-21h150c11.579,0,21,9.42,21,21v230
				C321,276.579,311.579,286,300,286z M150,26c-4.962,0-9,4.038-9,9v230c0,4.963,4.038,9,9,9h150c4.963,0,9-4.037,9-9V35
				c0-4.962-4.037-9-9-9H150z"/>
		</g>
	</g>
	<g>
		<circle fill="#FFFFFF" cx="225" cy="254.662" r="9.652"/>
		<path fill="#EE6644" d="M225,270.314c-8.63,0-15.652-7.021-15.652-15.652S216.37,239.01,225,239.01
			c8.631,0,15.652,7.021,15.652,15.652S233.631,270.314,225,270.314z M225,251.01c-2.014,0-3.652,1.639-3.652,3.652
			s1.638,3.652,3.652,3.652s3.652-1.639,3.652-3.652S227.014,251.01,225,251.01z"/>
	</g>
	<g>
		<path fill="#EE6644" d="M295,235.842H155c-3.313,0-6-2.687-6-6v-180c0-3.313,2.687-6,6-6h140c3.313,0,6,2.687,6,6v180
			C301,233.155,298.313,235.842,295,235.842z M161,223.842h128v-168H161V223.842z"/>
	</g>
	<g>
		<path fill="#EE6644" d="M225,39.847c-3.575,0-6.483-2.909-6.483-6.483s2.908-6.483,6.483-6.483c3.574,0,6.482,2.908,6.482,6.483
			S228.574,39.847,225,39.847z"/>
	</g>
</g>
</svg>
