<?xml version="1.0" encoding="utf-8"?>
<!-- Generator: Adobe Illustrator 17.0.0, SVG Export Plug-In . SVG Version: 6.00 Build 0)  -->
<!DOCTYPE svg PUBLIC "-//W3C//DTD SVG 1.1//EN" "http://www.w3.org/Graphics/SVG/1.1/DTD/svg11.dtd">
<svg version="1.1" id="Layer_1" xmlns="http://www.w3.org/2000/svg" xmlns:xlink="http://www.w3.org/1999/xlink" x="0px" y="0px"
	 width="1024px" height="768px" viewBox="0 0 1024 768" enable-background="new 0 0 1024 768" xml:space="preserve">
<rect x="247" y="192" fill="#FFFFFF" width="531" height="331"/>
<g>
	<g>
		<g>
			<g>
				<defs>
					<rect id="SVGID_1_" x="689.657" y="311.364" width="301.439" height="456.636"/>
				</defs>
				<clipPath id="SVGID_2_">
					<use xlink:href="#SVGID_1_"  overflow="visible"/>
				</clipPath>
				<g clip-path="url(#SVGID_2_)">
					
						<linearGradient id="SVGID_3_" gradientUnits="userSpaceOnUse" x1="6254.3589" y1="503.7844" x2="6472.4067" y2="503.7844" gradientTransform="matrix(-1 0 0 1 7216.7368 191)">
						<stop  offset="0" style="stop-color:#79807D"/>
						<stop  offset="1" style="stop-color:#5B6966"/>
					</linearGradient>
					<path fill="url(#SVGID_3_)" d="M889.689,505.839c8.896,4.448,18.681,19.57,24.018,21.349
						c5.337,1.779,44.477,8.896,48.035,12.454s-8.896,34.692-10.675,45.367s-0.89,50.704-4.448,63.158
						c-3.558,12.454-4.448,33.803-4.448,43.588c0,9.785-8.895,25.797-8.895,25.797s-11.565,15.123-0.89,30.245
						c10.674,15.122,23.128,77.39,23.128,87.175s10.674,42.698,4.448,48.925s-82.727,7.116-104.966,5.337
						c-22.239-1.779-99.629-6.227-99.629-6.227s1.779-20.46,1.779-42.698s14.232-75.611,15.122-85.396s21.349-27.576,4.448-42.698
						c-16.902-15.122-14.233-42.698-14.233-52.483c0-9.785-5.337-48.925-7.116-63.158c-1.779-14.232-15.122-50.704-9.785-56.041
						c5.337-5.337,38.25-16.012,52.384-15.122c5.25-6.901,13.335-24.337,25.896-25.5
						C839.874,498.429,880.793,501.391,889.689,505.839z"/>
					<g>
						
							<linearGradient id="SVGID_4_" gradientUnits="userSpaceOnUse" x1="6257.7534" y1="348.643" x2="6257.7534" y2="622.745" gradientTransform="matrix(-1 0 0 1 7216.7368 191)">
							<stop  offset="0" style="stop-color:#79807D"/>
							<stop  offset="1" style="stop-color:#5B6966"/>
						</linearGradient>
						<path fill="url(#SVGID_4_)" d="M948.398,603.689c4.448,21.349-7.116,57.82-7.116,80.059s-8.006,33.803-10.675,49.815
							s-4.448,79.17-4.448,79.17s25.797,3.558,37.361-2.669c10.674-15.122,9.784-108.524,15.122-124.536
							s16.012-66.716,12.454-83.617c-3.558-16.901-15.122-56.041-29.355-62.268C961.741,539.643,943.95,582.341,948.398,603.689z"/>
						<path opacity="0.3" enable-background="new    " d="M948.398,603.689c4.448,21.349-7.116,57.82-7.116,80.059
							s-8.006,33.803-10.675,49.815s-4.448,79.17-4.448,79.17s25.797,3.558,37.361-2.669
							c10.674-15.122,9.784-108.524,15.122-124.536s16.012-66.716,12.454-83.617c-3.558-16.901-15.122-56.041-29.355-62.268
							C961.741,539.643,943.95,582.341,948.398,603.689z"/>
					</g>
					<g>
						
							<linearGradient id="SVGID_5_" gradientUnits="userSpaceOnUse" x1="6163.251" y1="325.567" x2="6379.5674" y2="419.2287" gradientTransform="matrix(-1 0 0 1 7216.7368 191)">
							<stop  offset="0" style="stop-color:#6E6E6E"/>
							<stop  offset="1" style="stop-color:#808080"/>
						</linearGradient>
						<path fill="url(#SVGID_5_)" d="M961.73,501.728c-0.889,16.012-1.779,147.664,0.89,168.124
							c2.668,20.459-1.78,117.42-0.89,124.536c0.889,7.117-18.681,18.681-27.576,20.46s-15.122,1.779-9.785-45.367
							c5.337-47.146,15.122-138.769,15.122-138.769s14.232-303.335,16.901-319.347c6.227-1.779,9.785,3.558,9.785,3.558
							S962.618,485.715,961.73,501.728z"/>
						<path opacity="0.2" enable-background="new    " d="M961.73,501.728c-0.889,16.012-1.779,147.664,0.89,168.124
							c2.668,20.459-1.78,117.42-0.89,124.536c0.889,7.117-18.681,18.681-27.576,20.46s-15.122,1.779-9.785-45.367
							c5.337-47.146,15.122-138.769,15.122-138.769s14.232-303.335,16.901-319.347c6.227-1.779,9.785,3.558,9.785,3.558
							S962.618,485.715,961.73,501.728z"/>
					</g>
					<circle fill="#D7B977" cx="854.996" cy="624.15" r="7.116"/>
					<circle fill="#D7B977" cx="854.996" cy="657.953" r="7.116"/>
					<circle fill="#D7B977" cx="854.996" cy="694.424" r="7.116"/>
					<path fill="#4F4A46" d="M932.386,747.797c-55.151,11.564-155.67-0.89-155.67-0.89s-0.889-19.57,2.669-27.576
						c57.82,8.896,153.891-1.779,153.891-1.779S935.055,741.57,932.386,747.797z"/>
					<g>
						
							<linearGradient id="SVGID_6_" gradientUnits="userSpaceOnUse" x1="6359.5054" y1="308.9116" x2="6359.5054" y2="410.022" gradientTransform="matrix(-1 0 0 1 7216.7368 191)">
							<stop  offset="0" style="stop-color:#E0EFF8"/>
							<stop  offset="1" style="stop-color:#F4ECEA"/>
						</linearGradient>
						<path fill="url(#SVGID_6_)" d="M845.211,500.504c-21.349-1.779-21.349,0-21.349,11.564c0,11.564,24.018,73.832,33.803,88.954
							c29.355-33.803,32.913-91.623,32.913-91.623C891.467,500.503,866.56,502.283,845.211,500.504z"/>
						<path opacity="0.3" fill="#FFFFFF" enable-background="new    " d="M845.211,500.504c-21.349-1.779-21.349,0-21.349,11.564
							c0,11.564,24.018,73.832,33.803,88.954c29.355-33.803,32.913-91.623,32.913-91.623
							C891.467,500.503,866.56,502.283,845.211,500.504z"/>
					</g>
					<path fill="#4F4A46" d="M851.412,540.901c-1.779,9.785-4.375,13.654,2.576,14.131c-0.89,9.785-4.329,13.965-7.722,22.789
						l11.399,23.2l14.233-18.68c0-4.447-6.227-26.686-6.227-26.686s10.075-0.429,7.185-12.935
						c-1.864-8.063-12.523-11.972-12.523-11.972S853.191,531.117,851.412,540.901z"/>
					<g>
						
							<linearGradient id="SVGID_7_" gradientUnits="userSpaceOnUse" x1="6293.1528" y1="349.7455" x2="6382.312" y2="388.3501" gradientTransform="matrix(-1 0 0 1 7216.7368 191)">
							<stop  offset="0" style="stop-color:#6E6E6E"/>
							<stop  offset="1" style="stop-color:#808080"/>
						</linearGradient>
						<path fill="url(#SVGID_7_)" d="M857.664,601.02c-10.675,16.902-4.448,20.46-4.448,20.46s8.006-9.785,24.907-15.122
							c16.902-5.337,43.588-28.465,43.588-28.465l-8.895-8.006l17.791,5.337c0,0-0.889-20.459-7.116-34.692
							c-6.227-14.232-33.803-40.982-33.803-34.692C889.688,548.539,868.339,584.12,857.664,601.02z"/>
						<path opacity="0.2" enable-background="new    " d="M857.664,601.02c-10.675,16.902-4.448,20.46-4.448,20.46
							s8.006-9.785,24.907-15.122c16.902-5.337,43.588-28.465,43.588-28.465l-8.895-8.006l17.791,5.337
							c0,0-0.889-20.459-7.116-34.692c-6.227-14.232-33.803-40.982-33.803-34.692C889.688,548.539,868.339,584.12,857.664,601.02z"
							/>
					</g>
					<g>
						
							<linearGradient id="SVGID_8_" gradientUnits="userSpaceOnUse" x1="6356.4634" y1="378.3268" x2="6420.6675" y2="406.1262" gradientTransform="matrix(-1 0 0 1 7216.7368 191)">
							<stop  offset="0" style="stop-color:#6E6E6E"/>
							<stop  offset="1" style="stop-color:#808080"/>
						</linearGradient>
						<path fill="url(#SVGID_8_)" d="M830.088,499.612c0,0-6.227,12.454-2.669,24.018s11.564,41.809,27.576,66.716
							c16.012,24.907,14.233,62.268,14.233,62.268s-6.227-14.233-16.012-31.134c-9.785-16.901-55.151-34.692-57.82-40.919
							s11.564-13.343,11.564-13.343s-24.018,7.117-23.128,0.89s8.566-31.201,14.134-42.698
							C814.769,490.718,830.088,499.612,830.088,499.612z"/>
						<path opacity="0.2" enable-background="new    " d="M830.088,499.612c0,0-6.227,12.454-2.669,24.018
							s11.564,41.809,27.576,66.716c16.012,24.907,14.233,62.268,14.233,62.268s-6.227-14.233-16.012-31.134
							c-9.785-16.901-55.151-34.692-57.82-40.919s11.564-13.343,11.564-13.343s-24.018,7.117-23.128,0.89
							s8.566-31.201,14.134-42.698C814.769,490.718,830.088,499.612,830.088,499.612z"/>
					</g>
					<g>
						<path fill="#DFB48F" d="M829.199,488.94l2.669,18.68c0,0,19.57,23.128,28.465,23.128c8.896,0,30.245-21.349,30.245-21.349
							l3.558-14.233L829.199,488.94z"/>
						<path opacity="0.08" enable-background="new    " d="M829.199,488.94l2.669,18.68c0,0,19.57,23.128,28.465,23.128
							c8.896,0,30.245-21.349,30.245-21.349l3.558-14.233L829.199,488.94z"/>
					</g>
					<path fill="#231F20" d="M812.297,467.591c-19.57-0.89-12.454-12.454-8.006-17.791s66.716-47.146,66.716-47.146
						s39.14,33.803,48.925,48.925c9.785,15.122,4.448,16.902-5.337,17.791s-30.244-0.89-50.704-0.89
						C863.891,468.48,831.867,468.481,812.297,467.591z"/>
					<path fill="#DFB48F" d="M879.904,414.218c0,0-62.268,6.227-66.716,23.128s-0.89,30.244,5.337,36.471
						c6.227,6.227,5.337,0,5.337,0s0,12.454,5.337,20.46c5.337,8.006,20.459,19.57,34.692,20.46
						c14.233,0.89,26.687-14.233,30.245-19.57s5.337-17.791,5.337-17.791s0,0,5.337-2.669s8.254-13.303,8.006-22.239
						C911.927,420.444,879.904,414.218,879.904,414.218z"/>
					
						<linearGradient id="SVGID_9_" gradientUnits="userSpaceOnUse" x1="6289.8159" y1="226.6254" x2="6418.7695" y2="226.6254" gradientTransform="matrix(-1 0 0 1 7216.7368 191)">
						<stop  offset="0" style="stop-color:#79807D"/>
						<stop  offset="1" style="stop-color:#5B6966"/>
					</linearGradient>
					<path fill="url(#SVGID_9_)" d="M919.935,451.577c-5.338-8.006-5.338-18.681-4.448-30.245c0.889-11.564,0-24.908-12.454-39.14
						s-44.478-18.68-71.164-7.116s-22.239,40.919-21.349,53.373c0.889,12.454-11.564,21.349-12.454,29.355
						c-0.89,8.006,4.447,8.896,7.116,4.448c2.668-4.448,11.564-21.349,23.128-29.355c11.564-8.006,72.053,1.779,72.053,1.779
						s9.655,30.34,23.128,32.024C930.607,467.59,925.27,459.584,919.935,451.577z"/>
					<g>
						
							<linearGradient id="SVGID_10_" gradientUnits="userSpaceOnUse" x1="6483.0864" y1="339.7827" x2="6483.0864" y2="439.9724" gradientTransform="matrix(-1 0 0 1 7216.7368 191)">
							<stop  offset="0" style="stop-color:#79807D"/>
							<stop  offset="1" style="stop-color:#5B6966"/>
						</linearGradient>
						<path fill="url(#SVGID_10_)" d="M774.559,595.163c0,0-8.488,23.038-13.944,27.282s-22.432,12.125-40.62,6.669
							s-16.588-13.773-24.857-36.376c-9.094-24.857-4.244-39.407-0.606-42.439c3.638-3.032,32.133,0.606,41.833-7.882
							c9.701-8.488,18.565-13.607,26.07-10.913C786.079,539.992,774.559,595.163,774.559,595.163z"/>
						<path opacity="0.3" enable-background="new    " d="M774.559,595.163c0,0-8.488,23.038-13.944,27.282
							s-22.432,12.125-40.62,6.669s-16.588-13.773-24.857-36.376c-9.094-24.857-4.244-39.407-0.606-42.439
							c3.638-3.032,32.133,0.606,41.833-7.882c9.701-8.488,18.565-13.607,26.07-10.913
							C786.079,539.992,774.559,595.163,774.559,595.163z"/>
					</g>
					<g>
						<path fill="#4F4A46" d="M764.592,553.196c0.65,31.172-24.369,46.304-42.239,37.83s-25.343-26.934-26.968-39.04
							C695.385,551.986,763.942,522.024,764.592,553.196z"/>
						<path fill="#DFB48F" d="M715.114,576.228c8.835,1.976,14.431,0.282,17.965-0.282c3.534-0.564,14.136-0.282,19.732-2.822
							c5.596-2.54,15.02-17.497,16.198-23.141s-0.064-31.465-0.064-31.465s-0.897-9.924,0.87-13.593
							c1.767-3.669,0.589-11.288-3.534-11.006c-4.123,0.282-6.792,2.784-9.545,8.633c-2.837,6.027-4.538,22.032-4.538,22.032
							s0.319-13.546-0.27-20.036c-0.589-6.49-1.631-31.169-2.514-41.611c-0.453-5.36-2.482-7.624-7.519-7.624
							s-6.322,6.772-6.322,6.772c-0.755-2.893-1.467-10.276-8.985-10.059s-7.662,8.292-8.38,10.767
							c-1.86-2.08-2.38-6.347-8.77-5.416s-5.449,5.89-5.966,10.035c-0.484-1.873-0.038-4.548-4.312-4.261
							c-4.274,0.287-3.661,1.229-4.523,2.89c-1.315,2.534-1.314,22.986-0.725,26.09c0,1.975-1.472,6.772-0.294,18.625
							c-0.884,3.386-1.416,19.183-1.767,33.3C691.557,555.908,706.282,574.252,715.114,576.228z"/>
						<g>
							<path fill="#BA8D6A" d="M704.059,512.888c-0.134-1.951-1.248-18.597-0.443-21.584c-1.09-3.154-0.752-21.733-0.708-23.904
								c0.006-0.312,0.268-0.562,0.576-0.554c0.313,0.006,0.561,0.264,0.554,0.576c-0.167,8.342-0.131,22.122,0.677,23.589
								l0.14,0.253l-0.125,0.262c-0.639,1.348-0.059,13.771,0.458,21.284c0.021,0.312-0.213,0.582-0.525,0.603
								c-0.014,0.001-0.026,0.002-0.04,0.002C704.329,513.415,704.08,513.186,704.059,512.888z"/>
						</g>
						<g>
							<path fill="#BA8D6A" d="M719.98,510.989c-0.031-0.148-2.981-16.276-1.952-28.304c-0.421-8.378-0.385-19.782-0.385-19.896
								c0.002-0.312,0.254-0.564,0.566-0.564c0.001,0,0.002,0,0.002,0c0.312,0.002,0.565,0.256,0.564,0.568
								c-0.001,0.114-0.038,11.487,0.381,19.912c-0.927,10.883,1.528,26.129,1.93,28.053c0.065,0.306-0.131,0.605-0.437,0.669
								c-0.039,0.009-0.078,0.013-0.117,0.013C720.271,511.44,720.035,511.256,719.98,510.989z"/>
						</g>
						<g>
							<path fill="#BA8D6A" d="M736.165,509.263c-0.121-0.809-0.213-2.676-0.341-5.261c-0.229-4.629-0.576-11.625-1.389-18.543
								c0.651-7.343,0.535-23.411,0.534-23.573c-0.003-0.313,0.266-0.583,0.565-0.57c0.31,0,0.563,0.251,0.565,0.562
								c0.002,0.162,0.118,16.285-0.539,23.565c0.816,6.839,1.164,13.859,1.394,18.504c0.127,2.552,0.218,4.397,0.33,5.149
								c0.047,0.309-0.167,0.597-0.475,0.643c-0.029,0.004-0.057,0.007-0.085,0.007
								C736.449,509.746,736.207,509.545,736.165,509.263z"/>
						</g>
						<g>
							<path fill="#BA8D6A" d="M736.002,576.124c-4.088-2.795-7.211-8.903-8.355-16.338c-0.95-6.17-0.22-11.682,1.904-14.386
								c0.195-0.248,0.549-0.287,0.794-0.096c0.246,0.193,0.289,0.548,0.096,0.794c-1.907,2.429-2.566,7.733-1.676,13.515
								c1.081,7.025,4.099,12.994,7.876,15.576c0.257,0.176,0.323,0.528,0.147,0.786c-0.11,0.161-0.288,0.247-0.468,0.247
								C736.211,576.222,736.099,576.19,736.002,576.124z"/>
						</g>
					</g>
				</g>
			</g>
		</g>
	</g>
</g>
<g>
	<path fill="#444444" d="M317.477,287.639c0.504-0.715,1.271-1.652,2.303-2.812l6.223-6.592h3.463l-7.805,8.209l8.35,11.057h-3.533
		l-6.803-9.105l-2.197,1.898v7.207h-2.883v-27.352h2.883v14.502c0,0.645-0.047,1.641-0.141,2.988H317.477z"/>
	<path fill="#444444" d="M333.244,273.014c0-0.668,0.164-1.157,0.492-1.468s0.738-0.466,1.23-0.466c0.469,0,0.873,0.158,1.213,0.475
		s0.51,0.803,0.51,1.459s-0.17,1.146-0.51,1.468s-0.744,0.483-1.213,0.483c-0.492,0-0.902-0.161-1.23-0.483
		S333.244,273.67,333.244,273.014z M336.408,297.5h-2.918v-19.266h2.918V297.5z"/>
	<path fill="#444444" d="M355.779,297.5v-12.463c0-1.57-0.357-2.742-1.072-3.516s-1.834-1.16-3.357-1.16
		c-2.016,0-3.492,0.545-4.43,1.635s-1.406,2.889-1.406,5.396V297.5h-2.918v-19.266h2.373l0.475,2.637h0.141
		c0.598-0.949,1.436-1.685,2.514-2.206s2.279-0.782,3.604-0.782c2.32,0,4.066,0.56,5.238,1.679s1.758,2.909,1.758,5.37V297.5
		H355.779z"/>
	<path fill="#444444" d="M377.805,294.916h-0.158c-1.348,1.957-3.363,2.936-6.047,2.936c-2.52,0-4.479-0.861-5.88-2.584
		s-2.101-4.172-2.101-7.348s0.703-5.643,2.109-7.4s3.363-2.637,5.871-2.637c2.613,0,4.617,0.949,6.012,2.848h0.229l-0.123-1.389
		l-0.07-1.354v-7.84h2.918V297.5h-2.373L377.805,294.916z M371.969,295.408c1.992,0,3.437-0.542,4.333-1.626
		s1.345-2.833,1.345-5.247v-0.615c0-2.73-0.454-4.679-1.362-5.845s-2.358-1.749-4.351-1.749c-1.711,0-3.021,0.665-3.929,1.995
		s-1.362,3.208-1.362,5.634c0,2.461,0.451,4.318,1.354,5.572S370.223,295.408,371.969,295.408z"/>
	<path fill="#444444" d="M394.891,297.852c-2.848,0-5.095-0.867-6.741-2.602s-2.47-4.143-2.47-7.225c0-3.105,0.765-5.572,2.294-7.4
		s3.583-2.742,6.161-2.742c2.414,0,4.324,0.794,5.73,2.382s2.109,3.683,2.109,6.284v1.846h-13.271
		c0.059,2.262,0.63,3.979,1.714,5.15s2.61,1.758,4.579,1.758c2.074,0,4.125-0.434,6.152-1.301v2.602
		c-1.031,0.445-2.007,0.765-2.927,0.958S396.191,297.852,394.891,297.852z M394.1,280.326c-1.547,0-2.78,0.504-3.7,1.512
		s-1.462,2.402-1.626,4.184h10.072c0-1.84-0.41-3.249-1.23-4.228S395.623,280.326,394.1,280.326z"/>
	<path fill="#444444" d="M415.738,277.883c0.855,0,1.623,0.07,2.303,0.211l-0.404,2.707c-0.797-0.176-1.5-0.264-2.109-0.264
		c-1.559,0-2.892,0.633-3.999,1.898s-1.661,2.842-1.661,4.729V297.5h-2.918v-19.266h2.408l0.334,3.568h0.141
		c0.715-1.254,1.576-2.221,2.584-2.9S414.531,277.883,415.738,277.883z"/>
	<path fill="#444444" d="M429.783,297.852c-2.848,0-5.095-0.867-6.741-2.602s-2.47-4.143-2.47-7.225c0-3.105,0.765-5.572,2.294-7.4
		s3.583-2.742,6.161-2.742c2.414,0,4.324,0.794,5.73,2.382s2.109,3.683,2.109,6.284v1.846h-13.271
		c0.059,2.262,0.63,3.979,1.714,5.15s2.61,1.758,4.579,1.758c2.074,0,4.125-0.434,6.152-1.301v2.602
		c-1.031,0.445-2.007,0.765-2.927,0.958S431.084,297.852,429.783,297.852z M428.992,280.326c-1.547,0-2.78,0.504-3.7,1.512
		s-1.462,2.402-1.626,4.184h10.072c0-1.84-0.41-3.249-1.23-4.228S430.516,280.326,428.992,280.326z"/>
	<path fill="#444444" d="M455.025,297.5v-12.463c0-1.57-0.357-2.742-1.072-3.516s-1.834-1.16-3.357-1.16
		c-2.016,0-3.492,0.545-4.43,1.635s-1.406,2.889-1.406,5.396V297.5h-2.918v-19.266h2.373l0.475,2.637h0.141
		c0.598-0.949,1.436-1.685,2.514-2.206s2.279-0.782,3.604-0.782c2.32,0,4.066,0.56,5.238,1.679s1.758,2.909,1.758,5.37V297.5
		H455.025z"/>
	<path fill="#444444" d="M476.207,297.5h-2.918v-27.352h2.918V297.5z"/>
	<path fill="#444444" d="M490.533,297.852c-2.848,0-5.095-0.867-6.741-2.602s-2.47-4.143-2.47-7.225c0-3.105,0.765-5.572,2.294-7.4
		s3.583-2.742,6.161-2.742c2.414,0,4.324,0.794,5.73,2.382s2.109,3.683,2.109,6.284v1.846h-13.271
		c0.059,2.262,0.63,3.979,1.714,5.15s2.61,1.758,4.579,1.758c2.074,0,4.125-0.434,6.152-1.301v2.602
		c-1.031,0.445-2.007,0.765-2.927,0.958S491.834,297.852,490.533,297.852z M489.742,280.326c-1.547,0-2.78,0.504-3.7,1.512
		s-1.462,2.402-1.626,4.184h10.072c0-1.84-0.41-3.249-1.23-4.228S491.266,280.326,489.742,280.326z"/>
	<path fill="#444444" d="M511.381,277.883c0.855,0,1.623,0.07,2.303,0.211l-0.404,2.707c-0.797-0.176-1.5-0.264-2.109-0.264
		c-1.559,0-2.892,0.633-3.999,1.898s-1.661,2.842-1.661,4.729V297.5h-2.918v-19.266H505l0.334,3.568h0.141
		c0.715-1.254,1.576-2.221,2.584-2.9S510.174,277.883,511.381,277.883z"/>
	<path fill="#444444" d="M525.426,297.852c-2.848,0-5.095-0.867-6.741-2.602s-2.47-4.143-2.47-7.225c0-3.105,0.765-5.572,2.294-7.4
		s3.583-2.742,6.161-2.742c2.414,0,4.324,0.794,5.73,2.382s2.109,3.683,2.109,6.284v1.846h-13.271
		c0.059,2.262,0.63,3.979,1.714,5.15s2.61,1.758,4.579,1.758c2.074,0,4.125-0.434,6.152-1.301v2.602
		c-1.031,0.445-2.007,0.765-2.927,0.958S526.727,297.852,525.426,297.852z M524.635,280.326c-1.547,0-2.78,0.504-3.7,1.512
		s-1.462,2.402-1.626,4.184h10.072c0-1.84-0.41-3.249-1.23-4.228S526.158,280.326,524.635,280.326z"/>
	<path fill="#444444" d="M550.668,297.5v-12.463c0-1.57-0.357-2.742-1.072-3.516s-1.834-1.16-3.357-1.16
		c-2.016,0-3.492,0.545-4.43,1.635s-1.406,2.889-1.406,5.396V297.5h-2.918v-19.266h2.373l0.475,2.637h0.141
		c0.598-0.949,1.436-1.685,2.514-2.206s2.279-0.782,3.604-0.782c2.32,0,4.066,0.56,5.238,1.679s1.758,2.909,1.758,5.37V297.5
		H550.668z"/>
	<path fill="#444444" d="M573.15,297.5l-7.312-19.266h3.129l4.148,11.426c0.938,2.672,1.488,4.406,1.652,5.203h0.141
		c0.129-0.621,0.536-1.907,1.222-3.858s2.224-6.208,4.614-12.771h3.129l-7.312,19.266H573.15z"/>
	<path fill="#444444" d="M595.105,297.852c-2.848,0-5.095-0.867-6.741-2.602s-2.47-4.143-2.47-7.225c0-3.105,0.765-5.572,2.294-7.4
		s3.583-2.742,6.161-2.742c2.414,0,4.324,0.794,5.73,2.382s2.109,3.683,2.109,6.284v1.846h-13.271
		c0.059,2.262,0.63,3.979,1.714,5.15s2.61,1.758,4.579,1.758c2.074,0,4.125-0.434,6.152-1.301v2.602
		c-1.031,0.445-2.007,0.765-2.927,0.958S596.406,297.852,595.105,297.852z M594.314,280.326c-1.547,0-2.78,0.504-3.7,1.512
		s-1.462,2.402-1.626,4.184h10.072c0-1.84-0.41-3.249-1.23-4.228S595.838,280.326,594.314,280.326z"/>
	<path fill="#444444" d="M615.303,297.852c-2.848,0-5.095-0.867-6.741-2.602s-2.47-4.143-2.47-7.225c0-3.105,0.765-5.572,2.294-7.4
		s3.583-2.742,6.161-2.742c2.414,0,4.324,0.794,5.73,2.382s2.109,3.683,2.109,6.284v1.846h-13.271
		c0.059,2.262,0.63,3.979,1.714,5.15s2.61,1.758,4.579,1.758c2.074,0,4.125-0.434,6.152-1.301v2.602
		c-1.031,0.445-2.007,0.765-2.927,0.958S616.604,297.852,615.303,297.852z M614.512,280.326c-1.547,0-2.78,0.504-3.7,1.512
		s-1.462,2.402-1.626,4.184h10.072c0-1.84-0.41-3.249-1.23-4.228S616.035,280.326,614.512,280.326z"/>
	<path fill="#444444" d="M630.279,297.5h-2.918v-27.352h2.918V297.5z"/>
	<path fill="#444444" d="M323.559,337.918c2.531,0,4.497,0.864,5.897,2.593s2.101,4.175,2.101,7.339s-0.706,5.622-2.118,7.374
		s-3.372,2.628-5.88,2.628c-1.254,0-2.399-0.231-3.437-0.694s-1.907-1.175-2.61-2.136h-0.211l-0.615,2.479h-2.092v-27.352h2.918
		v6.645c0,1.488-0.047,2.824-0.141,4.008h0.141C318.871,338.879,320.887,337.918,323.559,337.918z M323.137,340.361
		c-1.992,0-3.428,0.571-4.307,1.714s-1.318,3.067-1.318,5.774s0.451,4.644,1.354,5.81s2.35,1.749,4.342,1.749
		c1.793,0,3.129-0.653,4.008-1.96s1.318-3.185,1.318-5.634c0-2.508-0.439-4.377-1.318-5.607S324.977,340.361,323.137,340.361z"/>
	<path fill="#444444" d="M344.793,357.852c-2.848,0-5.095-0.867-6.741-2.602s-2.47-4.143-2.47-7.225c0-3.105,0.765-5.572,2.294-7.4
		s3.583-2.742,6.161-2.742c2.414,0,4.324,0.794,5.73,2.382s2.109,3.683,2.109,6.284v1.846h-13.271
		c0.059,2.262,0.63,3.979,1.714,5.15s2.61,1.758,4.579,1.758c2.074,0,4.125-0.434,6.152-1.301v2.602
		c-1.031,0.445-2.007,0.765-2.927,0.958S346.094,357.852,344.793,357.852z M344.002,340.326c-1.547,0-2.78,0.504-3.7,1.512
		s-1.462,2.402-1.626,4.184h10.072c0-1.84-0.41-3.249-1.23-4.228S345.525,340.326,344.002,340.326z"/>
	<path fill="#444444" d="M363.074,355.443c0.516,0,1.014-0.038,1.494-0.114s0.861-0.155,1.143-0.237v2.232
		c-0.316,0.152-0.782,0.278-1.397,0.378s-1.169,0.149-1.661,0.149c-3.727,0-5.59-1.963-5.59-5.889v-11.461h-2.76v-1.406l2.76-1.213
		l1.23-4.113h1.688v4.465h5.59v2.268h-5.59v11.338c0,1.16,0.275,2.051,0.826,2.672S362.113,355.443,363.074,355.443z"/>
	<path fill="#444444" d="M377.699,357.852c-2.848,0-5.095-0.867-6.741-2.602s-2.47-4.143-2.47-7.225c0-3.105,0.765-5.572,2.294-7.4
		s3.583-2.742,6.161-2.742c2.414,0,4.324,0.794,5.73,2.382s2.109,3.683,2.109,6.284v1.846h-13.271
		c0.059,2.262,0.63,3.979,1.714,5.15s2.61,1.758,4.579,1.758c2.074,0,4.125-0.434,6.152-1.301v2.602
		c-1.031,0.445-2.007,0.765-2.927,0.958S379,357.852,377.699,357.852z M376.908,340.326c-1.547,0-2.78,0.504-3.7,1.512
		s-1.462,2.402-1.626,4.184h10.072c0-1.84-0.41-3.249-1.23-4.228S378.432,340.326,376.908,340.326z"/>
	<path fill="#444444" d="M398.547,337.883c0.855,0,1.623,0.07,2.303,0.211l-0.404,2.707c-0.797-0.176-1.5-0.264-2.109-0.264
		c-1.559,0-2.892,0.633-3.999,1.898s-1.661,2.842-1.661,4.729V357.5h-2.918v-19.266h2.408l0.334,3.568h0.141
		c0.715-1.254,1.576-2.221,2.584-2.9S397.34,337.883,398.547,337.883z"/>
	<path fill="#444444" d="M426.918,354.916h-0.158c-1.348,1.957-3.363,2.936-6.047,2.936c-2.52,0-4.479-0.861-5.88-2.584
		s-2.101-4.172-2.101-7.348s0.703-5.643,2.109-7.4s3.363-2.637,5.871-2.637c2.613,0,4.617,0.949,6.012,2.848h0.229l-0.123-1.389
		l-0.07-1.354v-7.84h2.918V357.5h-2.373L426.918,354.916z M421.082,355.408c1.992,0,3.437-0.542,4.333-1.626
		s1.345-2.833,1.345-5.247v-0.615c0-2.73-0.454-4.679-1.362-5.845s-2.358-1.749-4.351-1.749c-1.711,0-3.021,0.665-3.929,1.995
		s-1.362,3.208-1.362,5.634c0,2.461,0.451,4.318,1.354,5.572S419.336,355.408,421.082,355.408z"/>
	<path fill="#444444" d="M452.494,347.85c0,3.141-0.791,5.593-2.373,7.356s-3.768,2.646-6.557,2.646
		c-1.723,0-3.252-0.404-4.588-1.213s-2.367-1.969-3.094-3.48s-1.09-3.281-1.09-5.309c0-3.141,0.785-5.587,2.355-7.339
		s3.75-2.628,6.539-2.628c2.695,0,4.837,0.896,6.425,2.689S452.494,344.791,452.494,347.85z M437.816,347.85
		c0,2.461,0.492,4.336,1.477,5.625s2.432,1.934,4.342,1.934s3.36-0.642,4.351-1.925s1.485-3.161,1.485-5.634
		c0-2.449-0.495-4.31-1.485-5.581s-2.452-1.907-4.386-1.907c-1.91,0-3.352,0.627-4.324,1.881S437.816,345.365,437.816,347.85z"/>
	<path fill="#444444" d="M474.238,347.85c0,3.141-0.791,5.593-2.373,7.356s-3.768,2.646-6.557,2.646
		c-1.723,0-3.252-0.404-4.588-1.213s-2.367-1.969-3.094-3.48s-1.09-3.281-1.09-5.309c0-3.141,0.785-5.587,2.355-7.339
		s3.75-2.628,6.539-2.628c2.695,0,4.837,0.896,6.425,2.689S474.238,344.791,474.238,347.85z M459.561,347.85
		c0,2.461,0.492,4.336,1.477,5.625s2.432,1.934,4.342,1.934s3.36-0.642,4.351-1.925s1.485-3.161,1.485-5.634
		c0-2.449-0.495-4.31-1.485-5.581s-2.452-1.907-4.386-1.907c-1.91,0-3.352,0.627-4.324,1.881S459.561,345.365,459.561,347.85z"/>
	<path fill="#444444" d="M488.143,337.883c0.855,0,1.623,0.07,2.303,0.211l-0.404,2.707c-0.797-0.176-1.5-0.264-2.109-0.264
		c-1.559,0-2.892,0.633-3.999,1.898s-1.661,2.842-1.661,4.729V357.5h-2.918v-19.266h2.408l0.334,3.568h0.141
		c0.715-1.254,1.576-2.221,2.584-2.9S486.936,337.883,488.143,337.883z"/>
	<path fill="#444444" d="M511.539,357.852c-2.848,0-5.095-0.867-6.741-2.602s-2.47-4.143-2.47-7.225c0-3.105,0.765-5.572,2.294-7.4
		s3.583-2.742,6.161-2.742c2.414,0,4.324,0.794,5.73,2.382s2.109,3.683,2.109,6.284v1.846h-13.271
		c0.059,2.262,0.63,3.979,1.714,5.15s2.61,1.758,4.579,1.758c2.074,0,4.125-0.434,6.152-1.301v2.602
		c-1.031,0.445-2.007,0.765-2.927,0.958S512.84,357.852,511.539,357.852z M510.748,340.326c-1.547,0-2.78,0.504-3.7,1.512
		s-1.462,2.402-1.626,4.184h10.072c0-1.84-0.41-3.249-1.23-4.228S512.271,340.326,510.748,340.326z"/>
	<path fill="#444444" d="M532.387,337.883c0.855,0,1.623,0.07,2.303,0.211l-0.404,2.707c-0.797-0.176-1.5-0.264-2.109-0.264
		c-1.559,0-2.892,0.633-3.999,1.898s-1.661,2.842-1.661,4.729V357.5h-2.918v-19.266h2.408l0.334,3.568h0.141
		c0.715-1.254,1.576-2.221,2.584-2.9S531.18,337.883,532.387,337.883z"/>
	<path fill="#444444" d="M542.512,357.5l-7.312-19.266h3.129l4.148,11.426c0.938,2.672,1.488,4.406,1.652,5.203h0.141
		c0.129-0.621,0.536-1.907,1.222-3.858s2.224-6.208,4.614-12.771h3.129l-7.312,19.266H542.512z"/>
	<path fill="#444444" d="M568.176,357.5l-0.58-2.742h-0.141c-0.961,1.207-1.919,2.024-2.874,2.452s-2.147,0.642-3.577,0.642
		c-1.91,0-3.407-0.492-4.491-1.477s-1.626-2.385-1.626-4.201c0-3.891,3.111-5.93,9.334-6.117l3.27-0.105v-1.195
		c0-1.512-0.325-2.628-0.976-3.349s-1.69-1.081-3.12-1.081c-1.605,0-3.422,0.492-5.449,1.477l-0.896-2.232
		c0.949-0.516,1.989-0.92,3.12-1.213s2.265-0.439,3.401-0.439c2.297,0,3.999,0.51,5.106,1.529s1.661,2.654,1.661,4.904V357.5
		H568.176z M561.584,355.443c1.816,0,3.243-0.498,4.28-1.494s1.556-2.391,1.556-4.184v-1.74l-2.918,0.123
		c-2.32,0.082-3.993,0.442-5.019,1.081s-1.538,1.632-1.538,2.979c0,1.055,0.319,1.857,0.958,2.408S560.436,355.443,561.584,355.443z
		"/>
	<path fill="#444444" d="M585.139,337.883c0.855,0,1.623,0.07,2.303,0.211l-0.404,2.707c-0.797-0.176-1.5-0.264-2.109-0.264
		c-1.559,0-2.892,0.633-3.999,1.898s-1.661,2.842-1.661,4.729V357.5h-2.918v-19.266h2.408l0.334,3.568h0.141
		c0.715-1.254,1.576-2.221,2.584-2.9S583.932,337.883,585.139,337.883z"/>
	<path fill="#444444" d="M590.799,333.014c0-0.668,0.164-1.157,0.492-1.468s0.738-0.466,1.23-0.466c0.469,0,0.873,0.158,1.213,0.475
		s0.51,0.803,0.51,1.459s-0.17,1.146-0.51,1.468s-0.744,0.483-1.213,0.483c-0.492,0-0.902-0.161-1.23-0.483
		S590.799,333.67,590.799,333.014z M593.963,357.5h-2.918v-19.266h2.918V357.5z"/>
	<path fill="#444444" d="M613.334,357.5v-12.463c0-1.57-0.357-2.742-1.072-3.516s-1.834-1.16-3.357-1.16
		c-2.016,0-3.492,0.545-4.43,1.635s-1.406,2.889-1.406,5.396V357.5h-2.918v-19.266h2.373l0.475,2.637h0.141
		c0.598-0.949,1.436-1.685,2.514-2.206s2.279-0.782,3.604-0.782c2.32,0,4.066,0.56,5.238,1.679s1.758,2.909,1.758,5.37V357.5
		H613.334z"/>
	<path fill="#444444" d="M638.014,338.234v1.846l-3.568,0.422c0.328,0.41,0.621,0.946,0.879,1.608s0.387,1.409,0.387,2.241
		c0,1.887-0.645,3.393-1.934,4.518s-3.059,1.688-5.309,1.688c-0.574,0-1.113-0.047-1.617-0.141
		c-1.242,0.656-1.863,1.482-1.863,2.479c0,0.527,0.217,0.917,0.65,1.169s1.178,0.378,2.232,0.378h3.41
		c2.086,0,3.688,0.439,4.808,1.318s1.679,2.156,1.679,3.832c0,2.133-0.855,3.759-2.566,4.878s-4.207,1.679-7.488,1.679
		c-2.52,0-4.462-0.469-5.827-1.406s-2.048-2.262-2.048-3.973c0-1.172,0.375-2.186,1.125-3.041s1.805-1.436,3.164-1.74
		c-0.492-0.223-0.905-0.568-1.239-1.037s-0.501-1.014-0.501-1.635c0-0.703,0.188-1.318,0.562-1.846s0.967-1.037,1.775-1.529
		c-0.996-0.41-1.808-1.107-2.435-2.092s-0.94-2.109-0.94-3.375c0-2.109,0.633-3.735,1.898-4.878s3.059-1.714,5.379-1.714
		c1.008,0,1.916,0.117,2.725,0.352H638.014z M622.65,360.734c0,1.043,0.439,1.834,1.318,2.373s2.139,0.809,3.779,0.809
		c2.449,0,4.263-0.366,5.44-1.099s1.767-1.726,1.767-2.979c0-1.043-0.322-1.767-0.967-2.171s-1.857-0.606-3.639-0.606h-3.498
		c-1.324,0-2.355,0.316-3.094,0.949S622.65,359.551,622.65,360.734z M624.232,344.404c0,1.348,0.381,2.367,1.143,3.059
		s1.822,1.037,3.182,1.037c2.848,0,4.271-1.383,4.271-4.148c0-2.895-1.441-4.342-4.324-4.342c-1.371,0-2.426,0.369-3.164,1.107
		S624.232,342.951,624.232,344.404z"/>
	<path fill="#444444" d="M650.107,357.852c-2.848,0-5.095-0.867-6.741-2.602s-2.47-4.143-2.47-7.225c0-3.105,0.765-5.572,2.294-7.4
		s3.583-2.742,6.161-2.742c2.414,0,4.324,0.794,5.73,2.382s2.109,3.683,2.109,6.284v1.846H643.92c0.059,2.262,0.63,3.979,1.714,5.15
		s2.61,1.758,4.579,1.758c2.074,0,4.125-0.434,6.152-1.301v2.602c-1.031,0.445-2.007,0.765-2.927,0.958
		S651.408,357.852,650.107,357.852z M649.316,340.326c-1.547,0-2.78,0.504-3.7,1.512s-1.462,2.402-1.626,4.184h10.072
		c0-1.84-0.41-3.249-1.23-4.228S650.84,340.326,649.316,340.326z"/>
	<path fill="#444444" d="M675.35,357.5v-12.463c0-1.57-0.357-2.742-1.072-3.516s-1.834-1.16-3.357-1.16
		c-2.016,0-3.492,0.545-4.43,1.635s-1.406,2.889-1.406,5.396V357.5h-2.918v-19.266h2.373l0.475,2.637h0.141
		c0.598-0.949,1.436-1.685,2.514-2.206s2.279-0.782,3.604-0.782c2.32,0,4.066,0.56,5.238,1.679s1.758,2.909,1.758,5.37V357.5H675.35
		z"/>
	<path fill="#444444" d="M322.732,417.852c-2.848,0-5.095-0.867-6.741-2.602s-2.47-4.143-2.47-7.225c0-3.105,0.765-5.572,2.294-7.4
		s3.583-2.742,6.161-2.742c2.414,0,4.324,0.794,5.73,2.382s2.109,3.683,2.109,6.284v1.846h-13.271
		c0.059,2.262,0.63,3.979,1.714,5.15s2.61,1.758,4.579,1.758c2.074,0,4.125-0.434,6.152-1.301v2.602
		c-1.031,0.445-2.007,0.765-2.927,0.958S324.033,417.852,322.732,417.852z M321.941,400.326c-1.547,0-2.78,0.504-3.7,1.512
		s-1.462,2.402-1.626,4.184h10.072c0-1.84-0.41-3.249-1.23-4.228S323.465,400.326,321.941,400.326z"/>
	<path fill="#444444" d="M347.975,417.5v-12.463c0-1.57-0.357-2.742-1.072-3.516s-1.834-1.16-3.357-1.16
		c-2.016,0-3.492,0.545-4.43,1.635s-1.406,2.889-1.406,5.396V417.5h-2.918v-19.266h2.373l0.475,2.637h0.141
		c0.598-0.949,1.436-1.685,2.514-2.206s2.279-0.782,3.604-0.782c2.32,0,4.066,0.56,5.238,1.679s1.758,2.909,1.758,5.37V417.5
		H347.975z"/>
	<path fill="#444444" d="M365.992,393.014c0-0.668,0.164-1.157,0.492-1.468s0.738-0.466,1.23-0.466c0.469,0,0.873,0.158,1.213,0.475
		s0.51,0.803,0.51,1.459s-0.17,1.146-0.51,1.468s-0.744,0.483-1.213,0.483c-0.492,0-0.902-0.161-1.23-0.483
		S365.992,393.67,365.992,393.014z M369.156,417.5h-2.918v-19.266h2.918V417.5z"/>
	<path fill="#444444" d="M383.482,417.852c-2.848,0-5.095-0.867-6.741-2.602s-2.47-4.143-2.47-7.225c0-3.105,0.765-5.572,2.294-7.4
		s3.583-2.742,6.161-2.742c2.414,0,4.324,0.794,5.73,2.382s2.109,3.683,2.109,6.284v1.846h-13.271
		c0.059,2.262,0.63,3.979,1.714,5.15s2.61,1.758,4.579,1.758c2.074,0,4.125-0.434,6.152-1.301v2.602
		c-1.031,0.445-2.007,0.765-2.927,0.958S384.783,417.852,383.482,417.852z M382.691,400.326c-1.547,0-2.78,0.504-3.7,1.512
		s-1.462,2.402-1.626,4.184h10.072c0-1.84-0.41-3.249-1.23-4.228S384.215,400.326,382.691,400.326z"/>
	<path fill="#444444" d="M401.764,415.443c0.516,0,1.014-0.038,1.494-0.114s0.861-0.155,1.143-0.237v2.232
		c-0.316,0.152-0.782,0.278-1.397,0.378s-1.169,0.149-1.661,0.149c-3.727,0-5.59-1.963-5.59-5.889v-11.461h-2.76v-1.406l2.76-1.213
		l1.23-4.113h1.688v4.465h5.59v2.268h-5.59v11.338c0,1.16,0.275,2.051,0.826,2.672S400.803,415.443,401.764,415.443z"/>
	<path fill="#444444" d="M420.678,412.244c0,1.793-0.668,3.176-2.004,4.148s-3.211,1.459-5.625,1.459
		c-2.555,0-4.547-0.404-5.977-1.213v-2.707c0.926,0.469,1.919,0.838,2.979,1.107s2.083,0.404,3.067,0.404
		c1.523,0,2.695-0.243,3.516-0.729s1.23-1.228,1.23-2.224c0-0.75-0.325-1.392-0.976-1.925s-1.919-1.163-3.806-1.89
		c-1.793-0.668-3.067-1.251-3.823-1.749s-1.318-1.063-1.688-1.696s-0.554-1.389-0.554-2.268c0-1.57,0.639-2.81,1.916-3.718
		s3.029-1.362,5.256-1.362c2.074,0,4.102,0.422,6.082,1.266l-1.037,2.373c-1.934-0.797-3.686-1.195-5.256-1.195
		c-1.383,0-2.426,0.217-3.129,0.65s-1.055,1.031-1.055,1.793c0,0.516,0.132,0.955,0.396,1.318s0.688,0.709,1.274,1.037
		s1.711,0.803,3.375,1.424c2.285,0.832,3.829,1.67,4.632,2.514S420.678,410.967,420.678,412.244z"/>
	<path fill="#444444" d="M440.998,415.443c0.516,0,1.014-0.038,1.494-0.114s0.861-0.155,1.143-0.237v2.232
		c-0.316,0.152-0.782,0.278-1.397,0.378s-1.169,0.149-1.661,0.149c-3.727,0-5.59-1.963-5.59-5.889v-11.461h-2.76v-1.406l2.76-1.213
		l1.23-4.113h1.688v4.465h5.59v2.268h-5.59v11.338c0,1.16,0.275,2.051,0.826,2.672S440.037,415.443,440.998,415.443z"/>
	<path fill="#444444" d="M455.623,417.852c-2.848,0-5.095-0.867-6.741-2.602s-2.47-4.143-2.47-7.225c0-3.105,0.765-5.572,2.294-7.4
		s3.583-2.742,6.161-2.742c2.414,0,4.324,0.794,5.73,2.382s2.109,3.683,2.109,6.284v1.846h-13.271
		c0.059,2.262,0.63,3.979,1.714,5.15s2.61,1.758,4.579,1.758c2.074,0,4.125-0.434,6.152-1.301v2.602
		c-1.031,0.445-2.007,0.765-2.927,0.958S456.924,417.852,455.623,417.852z M454.832,400.326c-1.547,0-2.78,0.504-3.7,1.512
		s-1.462,2.402-1.626,4.184h10.072c0-1.84-0.41-3.249-1.23-4.228S456.355,400.326,454.832,400.326z"/>
	<path fill="#444444" d="M490.146,414.916h-0.158c-1.348,1.957-3.363,2.936-6.047,2.936c-2.52,0-4.479-0.861-5.88-2.584
		s-2.101-4.172-2.101-7.348s0.703-5.643,2.109-7.4s3.363-2.637,5.871-2.637c2.613,0,4.617,0.949,6.012,2.848h0.229l-0.123-1.389
		l-0.07-1.354v-7.84h2.918V417.5h-2.373L490.146,414.916z M484.311,415.408c1.992,0,3.437-0.542,4.333-1.626
		s1.345-2.833,1.345-5.247v-0.615c0-2.73-0.454-4.679-1.362-5.845s-2.358-1.749-4.351-1.749c-1.711,0-3.021,0.665-3.929,1.995
		s-1.362,3.208-1.362,5.634c0,2.461,0.451,4.318,1.354,5.572S482.564,415.408,484.311,415.408z"/>
	<path fill="#444444" d="M515.723,407.85c0,3.141-0.791,5.593-2.373,7.356s-3.768,2.646-6.557,2.646
		c-1.723,0-3.252-0.404-4.588-1.213s-2.367-1.969-3.094-3.48s-1.09-3.281-1.09-5.309c0-3.141,0.785-5.587,2.355-7.339
		s3.75-2.628,6.539-2.628c2.695,0,4.837,0.896,6.425,2.689S515.723,404.791,515.723,407.85z M501.045,407.85
		c0,2.461,0.492,4.336,1.477,5.625s2.432,1.934,4.342,1.934s3.36-0.642,4.351-1.925s1.485-3.161,1.485-5.634
		c0-2.449-0.495-4.31-1.485-5.581s-2.452-1.907-4.386-1.907c-1.91,0-3.352,0.627-4.324,1.881S501.045,405.365,501.045,407.85z"/>
	<path fill="#444444" d="M528.977,417.852c-2.848,0-5.095-0.867-6.741-2.602s-2.47-4.143-2.47-7.225c0-3.105,0.765-5.572,2.294-7.4
		s3.583-2.742,6.161-2.742c2.414,0,4.324,0.794,5.73,2.382s2.109,3.683,2.109,6.284v1.846h-13.271
		c0.059,2.262,0.63,3.979,1.714,5.15s2.61,1.758,4.579,1.758c2.074,0,4.125-0.434,6.152-1.301v2.602
		c-1.031,0.445-2.007,0.765-2.927,0.958S530.277,417.852,528.977,417.852z M528.186,400.326c-1.547,0-2.78,0.504-3.7,1.512
		s-1.462,2.402-1.626,4.184h10.072c0-1.84-0.41-3.249-1.23-4.228S529.709,400.326,528.186,400.326z"/>
	<path fill="#444444" d="M554.219,417.5v-12.463c0-1.57-0.357-2.742-1.072-3.516s-1.834-1.16-3.357-1.16
		c-2.016,0-3.492,0.545-4.43,1.635s-1.406,2.889-1.406,5.396V417.5h-2.918v-19.266h2.373l0.475,2.637h0.141
		c0.598-0.949,1.436-1.685,2.514-2.206s2.279-0.782,3.604-0.782c2.32,0,4.066,0.56,5.238,1.679s1.758,2.909,1.758,5.37V417.5
		H554.219z"/>
</g>
</svg>
