<?xml version="1.0" encoding="utf-8"?>
<!-- Generator: Adobe Illustrator 17.0.0, SVG Export Plug-In . SVG Version: 6.00 Build 0)  -->
<!DOCTYPE svg PUBLIC "-//W3C//DTD SVG 1.1//EN" "http://www.w3.org/Graphics/SVG/1.1/DTD/svg11.dtd">
<svg version="1.1" id="Laag_1" xmlns="http://www.w3.org/2000/svg" xmlns:xlink="http://www.w3.org/1999/xlink" x="0px" y="0px"
	 width="450px" height="300px" viewBox="0 0 450 300" enable-background="new 0 0 450 300" xml:space="preserve">
<g>
	<g>
		<path fill="#FFFFFF" d="M254.53,203.424H225h-29.53c0,0-3.544,61.188-10.631,76.576c25.986,0,40.16,0,40.16,0s14.174,0,40.16,0
			C258.073,264.612,254.53,203.424,254.53,203.424z"/>
		<path fill="#EE6644" d="M265.159,286h-80.32c-2.045,0-3.95-1.042-5.053-2.765c-1.103-1.722-1.252-3.888-0.397-5.745
			c5.422-11.773,9.123-57.708,10.091-74.413c0.184-3.174,2.811-5.653,5.99-5.653h59.06c3.179,0,5.806,2.479,5.99,5.653
			c0.968,16.706,4.667,62.641,10.089,74.413c0.855,1.857,0.705,4.023-0.397,5.746C269.108,284.958,267.204,286,265.159,286z
			 M193.069,274h63.84c-2.093-8.351-3.971-20.732-5.69-37.444c-1.119-10.879-1.893-21.083-2.311-27.132h-47.806
			C200.182,223.076,197.605,255.823,193.069,274z"/>
	</g>
	<g>
		<g>
			<g>
				<path fill="#FFFFFF" d="M384.725,35c-0.013-8.25-6.774-14.99-15.024-14.977L80,20.472c-8.25,0.013-14.989,6.773-14.976,15.023
					l0.252,159.912c0.013,8.25,6.774,14.99,15.024,14.977l289.7-0.449c8.25-0.013,14.989-6.773,14.976-15.023L384.725,35z"/>
			</g>
			<g>
				<path fill="#EE6644" d="M80.309,216.384c-0.003,0-0.031,0-0.035,0c-11.56,0-20.98-9.406-20.999-20.967L59.024,35.504
					c-0.018-11.579,9.388-21.014,20.967-21.032l289.701-0.449c11.595,0,21.016,9.406,21.033,20.968l0.251,159.912
					c0.01,5.593-2.171,10.865-6.14,14.846s-9.233,6.178-14.827,6.187L80.309,216.384z M369.726,26.023L80.009,26.472
					c-4.962,0.008-8.993,4.051-8.985,9.014l0.252,159.912c0.008,4.955,4.045,8.986,8.999,8.986v6l0.015-6l289.7-0.449
					c2.388-0.004,4.642-0.947,6.348-2.658c1.705-1.711,2.642-3.967,2.638-6.354l-0.251-159.913
					C378.717,30.054,374.68,26.023,369.726,26.023z"/>
			</g>
		</g>
		<g>
			<rect x="85" y="40.043" fill="#FFFFFF" width="280" height="150.321"/>
			<path fill="#EE6644" d="M365,196.364H85c-3.313,0-6-2.687-6-6V40.043c0-3.313,2.687-6,6-6h280c3.313,0,6,2.687,6,6v150.321
				C371,193.678,368.313,196.364,365,196.364z M91,184.364h268V46.043H91V184.364z"/>
		</g>
	</g>
	<g>
		<rect x="163.579" y="257.51" fill="#FFFFFF" width="122.843" height="22.49"/>
		<path fill="#EE6644" d="M286.422,286H163.579c-3.313,0-6-2.687-6-6v-22.49c0-3.313,2.687-6,6-6h122.843c3.313,0,6,2.687,6,6V280
			C292.422,283.313,289.735,286,286.422,286z M169.579,274h110.843v-10.49H169.579V274z"/>
	</g>
</g>
</svg>
