<?xml version="1.0" encoding="utf-8"?>
<!-- Generator: Adobe Illustrator 17.0.0, SVG Export Plug-In . SVG Version: 6.00 Build 0)  -->
<!DOCTYPE svg PUBLIC "-//W3C//DTD SVG 1.1//EN" "http://www.w3.org/Graphics/SVG/1.1/DTD/svg11.dtd">
<svg version="1.1" id="Layer_1" xmlns="http://www.w3.org/2000/svg" xmlns:xlink="http://www.w3.org/1999/xlink" x="0px" y="0px"
	 width="1024px" height="768px" viewBox="0 0 1024 768" enable-background="new 0 0 1024 768" xml:space="preserve">
<rect x="247" y="192" fill="#FFFFFF" width="531" height="331"/>
<g>
	<g>
		<g>
			<defs>
				<rect id="SVGID_11_" x="689.657" y="311.364" width="301.439" height="456.636"/>
			</defs>
			<clipPath id="SVGID_1_">
				<use xlink:href="#SVGID_11_"  overflow="visible"/>
			</clipPath>
			<g clip-path="url(#SVGID_1_)">
				
					<linearGradient id="SVGID_2_" gradientUnits="userSpaceOnUse" x1="6162.3589" y1="177.7156" x2="6380.4067" y2="177.7156" gradientTransform="matrix(-1 0 0 -1 7124.7368 872.5)">
					<stop  offset="0" style="stop-color:#79807D"/>
					<stop  offset="1" style="stop-color:#5B6966"/>
				</linearGradient>
				<path fill="url(#SVGID_2_)" d="M889.689,505.839c8.896,4.448,18.681,19.57,24.018,21.349
					c5.337,1.779,44.477,8.896,48.035,12.454c3.558,3.558-8.896,34.692-10.675,45.367s-0.89,50.704-4.448,63.158
					c-3.558,12.454-4.448,33.803-4.448,43.588c0,9.785-8.895,25.797-8.895,25.797s-11.565,15.123-0.89,30.245
					c10.674,15.122,23.128,77.39,23.128,87.175s10.674,42.698,4.448,48.925s-82.727,7.116-104.966,5.337
					c-22.239-1.779-99.629-6.227-99.629-6.227s1.779-20.46,1.779-42.698s14.232-75.611,15.122-85.396
					c0.89-9.785,21.349-27.576,4.448-42.698c-16.902-15.122-14.233-42.698-14.233-52.483c0-9.785-5.337-48.925-7.116-63.158
					c-1.779-14.232-15.122-50.704-9.785-56.041c5.337-5.337,38.25-16.012,52.384-15.122c5.25-6.901,13.335-24.337,25.896-25.5
					C839.874,498.429,880.793,501.391,889.689,505.839z"/>
				<g>
					
						<linearGradient id="SVGID_3_" gradientUnits="userSpaceOnUse" x1="6165.7539" y1="332.857" x2="6165.7539" y2="58.755" gradientTransform="matrix(-1 0 0 -1 7124.7368 872.5)">
						<stop  offset="0" style="stop-color:#79807D"/>
						<stop  offset="1" style="stop-color:#5B6966"/>
					</linearGradient>
					<path fill="url(#SVGID_3_)" d="M948.398,603.689c4.448,21.349-7.116,57.82-7.116,80.059s-8.006,33.803-10.675,49.815
						c-2.669,16.012-4.448,79.17-4.448,79.17s25.797,3.558,37.361-2.669c10.674-15.122,9.784-108.524,15.122-124.536
						c5.338-16.012,16.012-66.716,12.454-83.617c-3.558-16.901-15.122-56.041-29.355-62.268
						C961.741,539.643,943.95,582.341,948.398,603.689z"/>
					<path opacity="0.3" enable-background="new    " d="M948.398,603.689c4.448,21.349-7.116,57.82-7.116,80.059
						s-8.006,33.803-10.675,49.815c-2.669,16.012-4.448,79.17-4.448,79.17s25.797,3.558,37.361-2.669
						c10.674-15.122,9.784-108.524,15.122-124.536c5.338-16.012,16.012-66.716,12.454-83.617
						c-3.558-16.901-15.122-56.041-29.355-62.268C961.741,539.643,943.95,582.341,948.398,603.689z"/>
				</g>
				<g>
					
						<linearGradient id="SVGID_4_" gradientUnits="userSpaceOnUse" x1="6071.251" y1="355.9331" x2="6287.5674" y2="262.2713" gradientTransform="matrix(-1 0 0 -1 7124.7368 872.5)">
						<stop  offset="0" style="stop-color:#6E6E6E"/>
						<stop  offset="1" style="stop-color:#808080"/>
					</linearGradient>
					<path fill="url(#SVGID_4_)" d="M961.73,501.728c-0.889,16.012-1.779,147.664,0.89,168.124
						c2.668,20.459-1.78,117.42-0.89,124.536c0.889,7.117-18.681,18.681-27.576,20.46s-15.122,1.779-9.785-45.367
						c5.337-47.146,15.122-138.769,15.122-138.769s14.232-303.335,16.901-319.347c6.227-1.779,9.785,3.558,9.785,3.558
						S962.618,485.715,961.73,501.728z"/>
					<path opacity="0.2" enable-background="new    " d="M961.73,501.728c-0.889,16.012-1.779,147.664,0.89,168.124
						c2.668,20.459-1.78,117.42-0.89,124.536c0.889,7.117-18.681,18.681-27.576,20.46s-15.122,1.779-9.785-45.367
						c5.337-47.146,15.122-138.769,15.122-138.769s14.232-303.335,16.901-319.347c6.227-1.779,9.785,3.558,9.785,3.558
						S962.618,485.715,961.73,501.728z"/>
				</g>
				<circle fill="#D7B977" cx="854.996" cy="624.15" r="7.116"/>
				<circle fill="#D7B977" cx="854.996" cy="657.953" r="7.116"/>
				<circle fill="#D7B977" cx="854.996" cy="694.424" r="7.116"/>
				<path fill="#4F4A46" d="M932.386,747.797c-55.151,11.564-155.67-0.89-155.67-0.89s-0.889-19.57,2.669-27.576
					c57.82,8.896,153.891-1.779,153.891-1.779S935.055,741.57,932.386,747.797z"/>
				<g>
					
						<linearGradient id="SVGID_5_" gradientUnits="userSpaceOnUse" x1="6267.5054" y1="372.5884" x2="6267.5054" y2="271.478" gradientTransform="matrix(-1 0 0 -1 7124.7368 872.5)">
						<stop  offset="0" style="stop-color:#E0EFF8"/>
						<stop  offset="1" style="stop-color:#F4ECEA"/>
					</linearGradient>
					<path fill="url(#SVGID_5_)" d="M845.211,500.504c-21.349-1.779-21.349,0-21.349,11.564s24.018,73.832,33.803,88.954
						c29.355-33.803,32.913-91.623,32.913-91.623C891.467,500.503,866.56,502.283,845.211,500.504z"/>
					<path opacity="0.3" fill="#FFFFFF" enable-background="new    " d="M845.211,500.504c-21.349-1.779-21.349,0-21.349,11.564
						s24.018,73.832,33.803,88.954c29.355-33.803,32.913-91.623,32.913-91.623C891.467,500.503,866.56,502.283,845.211,500.504z"/>
				</g>
				<path fill="#4F4A46" d="M851.412,540.901c-1.779,9.785-4.375,13.654,2.576,14.131c-0.89,9.785-4.329,13.965-7.722,22.789
					l11.399,23.2l14.233-18.68c0-4.447-6.227-26.686-6.227-26.686s10.075-0.429,7.185-12.935
					c-1.864-8.063-12.523-11.972-12.523-11.972S853.191,531.117,851.412,540.901z"/>
				<g>
					
						<linearGradient id="SVGID_6_" gradientUnits="userSpaceOnUse" x1="6201.1533" y1="331.7545" x2="6290.3125" y2="293.1499" gradientTransform="matrix(-1 0 0 -1 7124.7368 872.5)">
						<stop  offset="0" style="stop-color:#6E6E6E"/>
						<stop  offset="1" style="stop-color:#808080"/>
					</linearGradient>
					<path fill="url(#SVGID_6_)" d="M857.664,601.02c-10.675,16.902-4.448,20.46-4.448,20.46s8.006-9.785,24.907-15.122
						c16.902-5.337,43.588-28.465,43.588-28.465l-8.895-8.006l17.791,5.337c0,0-0.889-20.459-7.116-34.692
						c-6.227-14.232-33.803-40.982-33.803-34.692C889.688,548.539,868.339,584.12,857.664,601.02z"/>
					<path opacity="0.2" enable-background="new    " d="M857.664,601.02c-10.675,16.902-4.448,20.46-4.448,20.46
						s8.006-9.785,24.907-15.122c16.902-5.337,43.588-28.465,43.588-28.465l-8.895-8.006l17.791,5.337
						c0,0-0.889-20.459-7.116-34.692c-6.227-14.232-33.803-40.982-33.803-34.692C889.688,548.539,868.339,584.12,857.664,601.02z"/>
				</g>
				<g>
					
						<linearGradient id="SVGID_7_" gradientUnits="userSpaceOnUse" x1="6264.4634" y1="303.1732" x2="6328.6675" y2="275.3738" gradientTransform="matrix(-1 0 0 -1 7124.7368 872.5)">
						<stop  offset="0" style="stop-color:#6E6E6E"/>
						<stop  offset="1" style="stop-color:#808080"/>
					</linearGradient>
					<path fill="url(#SVGID_7_)" d="M830.088,499.612c0,0-6.227,12.454-2.669,24.018c3.558,11.564,11.564,41.809,27.576,66.716
						c16.012,24.907,14.233,62.268,14.233,62.268s-6.227-14.233-16.012-31.134c-9.785-16.901-55.151-34.692-57.82-40.919
						s11.564-13.343,11.564-13.343s-24.018,7.117-23.128,0.89c0.89-6.227,8.566-31.201,14.134-42.698
						C814.769,490.718,830.088,499.612,830.088,499.612z"/>
					<path opacity="0.2" enable-background="new    " d="M830.088,499.612c0,0-6.227,12.454-2.669,24.018
						c3.558,11.564,11.564,41.809,27.576,66.716c16.012,24.907,14.233,62.268,14.233,62.268s-6.227-14.233-16.012-31.134
						c-9.785-16.901-55.151-34.692-57.82-40.919s11.564-13.343,11.564-13.343s-24.018,7.117-23.128,0.89
						c0.89-6.227,8.566-31.201,14.134-42.698C814.769,490.718,830.088,499.612,830.088,499.612z"/>
				</g>
				<g>
					<path fill="#DFB48F" d="M829.199,488.94l2.669,18.68c0,0,19.57,23.128,28.465,23.128c8.896,0,30.245-21.349,30.245-21.349
						l3.558-14.233L829.199,488.94z"/>
					<path opacity="0.08" enable-background="new    " d="M829.199,488.94l2.669,18.68c0,0,19.57,23.128,28.465,23.128
						c8.896,0,30.245-21.349,30.245-21.349l3.558-14.233L829.199,488.94z"/>
				</g>
				<path fill="#231F20" d="M812.297,467.591c-19.57-0.89-12.454-12.454-8.006-17.791s66.716-47.146,66.716-47.146
					s39.14,33.803,48.925,48.925c9.785,15.122,4.448,16.902-5.337,17.791c-9.785,0.889-30.244-0.89-50.704-0.89
					C863.891,468.48,831.867,468.481,812.297,467.591z"/>
				<path fill="#DFB48F" d="M879.904,414.218c0,0-62.268,6.227-66.716,23.128s-0.89,30.244,5.337,36.471
					c6.227,6.227,5.337,0,5.337,0s0,12.454,5.337,20.46c5.337,8.006,20.459,19.57,34.692,20.46
					c14.233,0.89,26.687-14.233,30.245-19.57s5.337-17.791,5.337-17.791s0,0,5.337-2.669s8.254-13.303,8.006-22.239
					C911.927,420.444,879.904,414.218,879.904,414.218z"/>
				
					<linearGradient id="SVGID_8_" gradientUnits="userSpaceOnUse" x1="6197.8159" y1="454.8746" x2="6326.77" y2="454.8746" gradientTransform="matrix(-1 0 0 -1 7124.7368 872.5)">
					<stop  offset="0" style="stop-color:#79807D"/>
					<stop  offset="1" style="stop-color:#5B6966"/>
				</linearGradient>
				<path fill="url(#SVGID_8_)" d="M919.935,451.577c-5.338-8.006-5.338-18.681-4.448-30.245c0.889-11.564,0-24.908-12.454-39.14
					c-12.454-14.232-44.478-18.68-71.164-7.116c-26.686,11.564-22.239,40.919-21.349,53.373
					c0.889,12.454-11.564,21.349-12.454,29.355c-0.89,8.006,4.447,8.896,7.116,4.448c2.668-4.448,11.564-21.349,23.128-29.355
					c11.564-8.006,72.053,1.779,72.053,1.779s9.655,30.34,23.128,32.024C930.607,467.59,925.27,459.584,919.935,451.577z"/>
				<g>
					
						<linearGradient id="SVGID_9_" gradientUnits="userSpaceOnUse" x1="6391.0869" y1="341.7173" x2="6391.0869" y2="241.5276" gradientTransform="matrix(-1 0 0 -1 7124.7368 872.5)">
						<stop  offset="0" style="stop-color:#79807D"/>
						<stop  offset="1" style="stop-color:#5B6966"/>
					</linearGradient>
					<path fill="url(#SVGID_9_)" d="M774.559,595.163c0,0-8.488,23.038-13.944,27.282s-22.432,12.125-40.62,6.669
						s-16.588-13.773-24.857-36.376c-9.094-24.857-4.244-39.407-0.606-42.439c3.638-3.032,32.133,0.606,41.833-7.882
						c9.701-8.488,18.565-13.607,26.07-10.913C786.079,539.992,774.559,595.163,774.559,595.163z"/>
					<path opacity="0.3" enable-background="new    " d="M774.559,595.163c0,0-8.488,23.038-13.944,27.282
						s-22.432,12.125-40.62,6.669s-16.588-13.773-24.857-36.376c-9.094-24.857-4.244-39.407-0.606-42.439
						c3.638-3.032,32.133,0.606,41.833-7.882c9.701-8.488,18.565-13.607,26.07-10.913
						C786.079,539.992,774.559,595.163,774.559,595.163z"/>
				</g>
				<g>
					<path fill="#4F4A46" d="M764.592,553.196c0.65,31.172-24.369,46.304-42.239,37.83s-25.343-26.934-26.968-39.04
						C695.385,551.986,763.942,522.024,764.592,553.196z"/>
					<path fill="#DFB48F" d="M715.114,576.228c8.835,1.976,14.431,0.282,17.965-0.282c3.534-0.564,14.136-0.282,19.732-2.822
						c5.596-2.54,15.02-17.497,16.198-23.141c1.178-5.644-0.064-31.465-0.064-31.465s-0.897-9.924,0.87-13.593
						c1.767-3.669,0.589-11.288-3.534-11.006c-4.123,0.282-6.792,2.784-9.545,8.633c-2.837,6.027-4.538,22.032-4.538,22.032
						s0.319-13.546-0.27-20.036c-0.589-6.49-1.631-31.169-2.514-41.611c-0.453-5.36-2.482-7.624-7.519-7.624
						s-6.322,6.772-6.322,6.772c-0.755-2.893-1.467-10.276-8.985-10.059c-7.518,0.217-7.662,8.292-8.38,10.767
						c-1.86-2.08-2.38-6.347-8.77-5.416s-5.449,5.89-5.966,10.035c-0.484-1.873-0.038-4.548-4.312-4.261
						c-4.274,0.287-3.661,1.229-4.523,2.89c-1.315,2.534-1.314,22.986-0.725,26.09c0,1.975-1.472,6.772-0.294,18.625
						c-0.884,3.386-1.416,19.183-1.767,33.3C691.557,555.908,706.282,574.252,715.114,576.228z"/>
					<g>
						<path fill="#BA8D6A" d="M704.059,512.888c-0.134-1.951-1.248-18.597-0.443-21.584c-1.09-3.154-0.752-21.733-0.708-23.904
							c0.006-0.312,0.268-0.562,0.576-0.554c0.313,0.006,0.561,0.264,0.554,0.576c-0.167,8.342-0.131,22.122,0.677,23.589
							l0.14,0.253l-0.125,0.262c-0.639,1.348-0.059,13.771,0.458,21.284c0.021,0.312-0.213,0.582-0.525,0.603
							c-0.014,0.001-0.026,0.002-0.04,0.002C704.329,513.415,704.08,513.186,704.059,512.888z"/>
					</g>
					<g>
						<path fill="#BA8D6A" d="M719.98,510.989c-0.031-0.148-2.981-16.276-1.952-28.304c-0.421-8.378-0.385-19.782-0.385-19.896
							c0.002-0.312,0.254-0.564,0.566-0.564c0.001,0,0.002,0,0.002,0c0.312,0.002,0.565,0.256,0.564,0.568
							c-0.001,0.114-0.038,11.487,0.381,19.912c-0.927,10.883,1.528,26.129,1.93,28.053c0.065,0.306-0.131,0.605-0.437,0.669
							c-0.039,0.009-0.078,0.013-0.117,0.013C720.271,511.44,720.035,511.256,719.98,510.989z"/>
					</g>
					<g>
						<path fill="#BA8D6A" d="M736.165,509.263c-0.121-0.809-0.213-2.676-0.341-5.261c-0.229-4.629-0.576-11.625-1.389-18.543
							c0.651-7.343,0.535-23.411,0.534-23.573c-0.003-0.313,0.266-0.583,0.565-0.57c0.31,0,0.563,0.251,0.565,0.562
							c0.002,0.162,0.118,16.285-0.539,23.565c0.816,6.839,1.164,13.859,1.394,18.504c0.127,2.552,0.218,4.397,0.33,5.149
							c0.047,0.309-0.167,0.597-0.475,0.643c-0.029,0.004-0.057,0.007-0.085,0.007C736.449,509.746,736.207,509.545,736.165,509.263
							z"/>
					</g>
					<g>
						<path fill="#BA8D6A" d="M736.002,576.124c-4.088-2.795-7.211-8.903-8.355-16.338c-0.95-6.17-0.22-11.682,1.904-14.386
							c0.195-0.248,0.549-0.287,0.794-0.096c0.246,0.193,0.289,0.548,0.096,0.794c-1.907,2.429-2.566,7.733-1.676,13.515
							c1.081,7.025,4.099,12.994,7.876,15.576c0.257,0.176,0.323,0.528,0.147,0.786c-0.11,0.161-0.288,0.247-0.468,0.247
							C736.211,576.222,736.099,576.19,736.002,576.124z"/>
					</g>
				</g>
			</g>
		</g>
	</g>
</g>
</svg>
