<?xml version="1.0" encoding="utf-8"?>
<!-- Generator: Adobe Illustrator 17.0.0, SVG Export Plug-In . SVG Version: 6.00 Build 0)  -->
<!DOCTYPE svg PUBLIC "-//W3C//DTD SVG 1.1//EN" "http://www.w3.org/Graphics/SVG/1.1/DTD/svg11.dtd">
<svg version="1.1" id="Laag_1" xmlns="http://www.w3.org/2000/svg" xmlns:xlink="http://www.w3.org/1999/xlink" x="0px" y="0px"
	 width="450px" height="300px" viewBox="0 0 450 300" enable-background="new 0 0 450 300" xml:space="preserve">
<g>
	<g>
		<path fill="#EE6644" d="M355.748,159.644c-0.007-0.001-0.015-0.001-0.02,0H184.653c-2.272,0-4.35-1.283-5.366-3.315
			s-0.798-4.464,0.564-6.283l43.318-57.81c1.043-1.392,2.64-2.263,4.375-2.387c1.741-0.121,3.439,0.512,4.669,1.742l20.631,20.629
			l47.634-47.633c1.306-1.305,3.134-1.938,4.973-1.713c1.832,0.225,3.46,1.281,4.411,2.863l50.777,84.428
			c0.699,0.981,1.109,2.182,1.109,3.478C361.748,156.957,359.062,159.644,355.748,159.644z M196.646,147.644h148.472L303.534,78.5
			l-46.448,46.448c-2.342,2.343-6.143,2.343-8.484,0l-19.979-19.978L196.646,147.644z"/>
	</g>
	<g>
		<path fill="#EE6644" d="M184.653,99.125c-15.758,0-28.578-12.82-28.578-28.578s12.82-28.578,28.578-28.578
			s28.578,12.82,28.578,28.578S200.411,99.125,184.653,99.125z M184.653,53.969c-9.141,0-16.578,7.437-16.578,16.578
			s7.437,16.578,16.578,16.578s16.578-7.437,16.578-16.578S193.794,53.969,184.653,53.969z"/>
	</g>
	<g>
		<g>
			<path fill="#EE6644" d="M135.271,195.976c-0.003,0-0.031,0-0.035,0c-11.56,0-20.979-9.406-20.998-20.966l-0.216-139.559
				c-0.009-5.592,2.172-10.865,6.141-14.846s9.234-6.178,14.827-6.187l249.738-0.394c11.594,0,21.015,9.406,21.032,20.967
				l0.216,139.557c0.01,5.593-2.171,10.865-6.14,14.847s-9.234,6.179-14.828,6.188L135.271,195.976z M384.762,26.024l-249.752,0.394
				c-2.387,0.004-4.642,0.948-6.347,2.659s-2.643,3.968-2.639,6.355l0.216,139.558c0.008,4.954,4.045,8.985,8.999,8.985v6l0.015-6
				l249.738-0.394c2.388-0.004,4.642-0.948,6.348-2.659c1.705-1.711,2.643-3.968,2.639-6.355l-0.216-139.558
				C393.753,30.055,389.716,26.024,384.762,26.024z"/>
		</g>
	</g>
	<g>
		<g>
			<circle fill="#FFFFFF" cx="106.9" cy="120.686" r="21.893"/>
			<path fill="#EE6644" d="M106.9,148.579c-15.38,0-27.893-12.513-27.893-27.893S91.52,92.793,106.9,92.793
				s27.893,12.513,27.893,27.893S122.28,148.579,106.9,148.579z M106.9,104.793c-8.764,0-15.893,7.129-15.893,15.893
				s7.129,15.893,15.893,15.893s15.893-7.129,15.893-15.893S115.664,104.793,106.9,104.793z"/>
		</g>
		<g>
			<path fill="#FFFFFF" d="M204.393,172.66c-1.307-0.453-2.657-0.482-3.905-0.164l-0.034-0.088l-31.36,16.435l-31.081-28.37
				c-0.476-0.499-0.998-0.951-1.557-1.358l-0.321-0.28l-0.022,0.026c-1.436-0.967-3.105-1.607-4.902-1.844v-0.24h-24.312H86.061
				c-0.688-0.113-1.389-0.187-2.109-0.187c-7.117,0-18.63,2.191-20.496,12.855L50,240.63l0.095,0.016
				C50.039,241.04,50,241.439,50,241.849c0,4.674,3.789,8.464,8.464,8.464c4.118,0,7.545-2.942,8.304-6.837l0.053,0.009
				l10.164-44.386V280H106.9h29.915v-92.602l21.395,17.191c4.216,3.678,11.552,6.187,15.653,2.609l32.623-19.43l-0.021-0.056
				c1.472-0.777,2.667-2.086,3.255-3.782C210.95,180.378,207.944,173.891,204.393,172.66z"/>
			<path fill="#EE6644" d="M136.815,286h-59.83c-3.314,0-6-2.687-6-6v-30.915c-2.53,4.366-7.253,7.229-12.521,7.229
				c-7.976,0-14.464-6.489-14.464-14.465c0-0.264,0.008-0.532,0.025-0.807c-0.041-0.507-0.017-1.02,0.079-1.526l13.456-71.185
				c1.909-10.912,12.027-17.741,26.392-17.741c0.825,0,1.667,0.062,2.562,0.188h44.696c0.991,0,1.925,0.24,2.749,0.665
				c1.724,0.432,3.378,1.122,4.88,2.041c0.443,0.222,0.86,0.499,1.239,0.83l0.143,0.124c0.708,0.533,1.369,1.112,1.973,1.728
				l27.839,25.411l27.635-14.482c0.851-0.445,1.786-0.676,2.725-0.686c2-0.278,4.048-0.081,5.964,0.583
				c6.629,2.297,11.356,12.189,9.031,18.902c-0.943,2.72-2.756,5.015-5.16,6.562c-0.211,0.169-0.436,0.326-0.673,0.468
				l-32.232,19.197c-2.334,1.841-5.27,2.81-8.529,2.81l0,0c-4.809,0-10.326-2.194-14.431-5.734l-11.549-9.279V280
				C142.815,283.313,140.129,286,136.815,286z M82.985,274h47.83v-86.602c0-2.309,1.325-4.413,3.407-5.41s4.551-0.711,6.352,0.732
				l21.395,17.19c0.063,0.051,0.125,0.104,0.186,0.156c1.901,1.659,4.694,2.862,6.64,2.862c0.251,0,0.862-0.024,1.124-0.252
				c0.272-0.237,0.564-0.45,0.875-0.635l31.925-19.015c0.29-0.233,0.606-0.442,0.946-0.622c0.153-0.081,0.268-0.193,0.342-0.334
				c0.039-1.004-0.935-3.133-1.724-3.779c-0.038-0.006-0.074-0.013-0.114-0.009l-30.288,15.873c-2.235,1.173-4.965,0.818-6.83-0.883
				l-31.081-28.37c-0.102-0.094-0.201-0.19-0.296-0.29c-0.216-0.227-0.468-0.444-0.749-0.649c-0.068-0.05-0.135-0.101-0.201-0.152
				c-0.682-0.451-1.454-0.736-2.297-0.848c-0.306-0.04-0.605-0.104-0.894-0.188h-43.47c-0.327,0-0.653-0.026-0.975-0.08
				c-0.44-0.072-0.811-0.107-1.134-0.107c-3.971,0-13.34,0.769-14.586,7.89l-13.272,70.217c-0.001,0.264-0.021,0.53-0.059,0.798
				c-0.032,0.222-0.035,0.321-0.035,0.354c0,1.359,1.105,2.465,2.464,2.465c1.175,0,2.191-0.835,2.415-1.985
				c0.065-0.335,0.157-0.657,0.273-0.967l9.984-43.602c0.682-2.977,3.491-4.974,6.522-4.623c3.034,0.343,5.326,2.909,5.326,5.962
				V274z"/>
		</g>
	</g>
</g>
</svg>
