<?xml version="1.0" encoding="utf-8"?>
<!-- Generator: Adobe Illustrator 17.0.0, SVG Export Plug-In . SVG Version: 6.00 Build 0)  -->
<!DOCTYPE svg PUBLIC "-//W3C//DTD SVG 1.1//EN" "http://www.w3.org/Graphics/SVG/1.1/DTD/svg11.dtd">
<svg version="1.1" id="Laag_1" xmlns="http://www.w3.org/2000/svg" xmlns:xlink="http://www.w3.org/1999/xlink" x="0px" y="0px"
	 width="111px" height="69px" viewBox="0 0 111 69" enable-background="new 0 0 111 69" xml:space="preserve">
<g>
	<defs>
		<rect id="SVGID_2_" x="1292.32" y="-153.323" width="960" height="540"/>
	</defs>
	<clipPath id="SVGID_1_">
		<use xlink:href="#SVGID_2_"  overflow="visible"/>
	</clipPath>
	<g clip-path="url(#SVGID_1_)">
		<linearGradient id="SVGID_3_" gradientUnits="userSpaceOnUse" x1="826.4978" y1="-422.9156" x2="1137.4727" y2="115.7085">
			<stop  offset="0" style="stop-color:#4673AE"/>
			<stop  offset="1" style="stop-color:#8891AF"/>
		</linearGradient>
		<path fill="url(#SVGID_3_)" d="M1590.833-864.205L840.51-425.318l-542.371,315.52l-542.383,315.527
			c0,0,611.074,340.343,611.086,340.336l-0.012,0.041c0,0,270.724-151.11,304.302-170.397
			c33.577-19.286,54.935-39.424,78.558-53.063c46.961-27.112,110.038-24.139,135.008-79.874
			c26.601-59.376,103.261-92.938,158.626-121.2c25.537-13.035,53.726-19.36,80.017-30.401
			c28.867-12.123,60.561-16.807,88.555-31.186c28.509-14.644,52.544-36.611,80.176-52.865
			c23.622-13.638,75.519-23.618,105.844-43.347c30.325-19.729,25.235-32.239,48.34-45.672l5.34-3.083l-0.012,0.041
			c0,0,37.274-13.947,70.85-33.232c41.908-24.07,74.413-55.973,121.859-69.565c46.253-13.251,61.761-49.537,96.362-79.453
			c19.044-16.465,42.91-24.098,65.79-34.087c15.761-6.881,31.085-14.779,46.828-21.724c22.698-10.012,51.217-12.162,71.34-27.051
			c15.896-11.762,27.725-26.276,45.068-36.945c11.049-6.797,22.499-13.327,33.745-19.952
			c50.074-29.495,100.147-58.991,150.221-88.486c4.493-2.647,43.833-30.894,48.261-28.428
			C2201.906-523.863,1590.833-864.205,1590.833-864.205z"/>
	</g>
</g>
<g>
	<defs>
		<rect id="SVGID_13_" x="883.959" y="-1574.453" width="1760" height="975"/>
	</defs>
	<clipPath id="SVGID_4_">
		<use xlink:href="#SVGID_13_"  overflow="visible"/>
	</clipPath>
	<g clip-path="url(#SVGID_4_)">
	</g>
</g>
<g>
	<defs>
		<rect id="SVGID_33_" x="1286.32" y="592.677" width="972" height="540"/>
	</defs>
	<clipPath id="SVGID_5_">
		<use xlink:href="#SVGID_33_"  overflow="visible"/>
	</clipPath>
	<g clip-path="url(#SVGID_5_)">
		<linearGradient id="SVGID_6_" gradientUnits="userSpaceOnUse" x1="853.9975" y1="295.8777" x2="1164.9723" y2="834.5019">
			<stop  offset="0" style="stop-color:#4673AE"/>
			<stop  offset="1" style="stop-color:#8891AF"/>
		</linearGradient>
		<path fill="url(#SVGID_6_)" d="M1618.333-145.412L868.009,293.476l-542.371,315.52l-542.383,315.527
			c0,0,611.074,340.343,611.086,340.336l-0.012,0.041c0,0,270.724-151.11,304.302-170.397
			c33.577-19.286,54.935-39.424,78.558-53.063c46.961-27.112,110.038-24.139,135.008-79.874
			c26.601-59.376,103.261-92.938,158.626-121.2c25.537-13.036,53.726-19.36,80.018-30.401
			c28.867-12.123,60.561-16.807,88.555-31.186c28.509-14.644,52.544-36.611,80.176-52.865
			c23.622-13.638,75.518-23.618,105.844-43.347c30.325-19.729,25.235-32.239,48.34-45.672l5.34-3.083l-0.012,0.041
			c0,0,37.274-13.947,70.85-33.232c41.908-24.07,74.413-55.973,121.859-69.565c46.253-13.251,61.761-49.537,96.362-79.453
			c19.044-16.465,42.91-24.098,65.79-34.087c15.761-6.881,31.085-14.779,46.828-21.724c22.698-10.012,51.217-12.162,71.34-27.051
			c15.896-11.762,27.725-26.276,45.068-36.945c11.049-6.797,22.499-13.327,33.745-19.952
			c50.074-29.495,100.147-58.991,150.221-88.486c4.493-2.647,43.833-30.894,48.261-28.428
			C2229.406,194.93,1618.333-145.412,1618.333-145.412z"/>
	</g>
</g>
<g>
	<g>
		<g>
			<linearGradient id="SVGID_7_" gradientUnits="userSpaceOnUse" x1="37.0939" y1="23.6446" x2="41.7398" y2="15.5978">
				<stop  offset="0" style="stop-color:#807C74"/>
				<stop  offset="1" style="stop-color:#808080"/>
			</linearGradient>
			<path fill="url(#SVGID_7_)" d="M49.181,19.936c0,0-7.952-4.585-9.004-5.237c-2.025-1.256-4.388-1.228-8.313,0.945
				c-1.747,0.967,4.591,7.632,4.591,7.632L49.181,19.936z"/>
			<path opacity="0.25" d="M49.181,19.936c0,0-7.952-4.585-9.004-5.237c-2.025-1.256-4.388-1.228-8.313,0.945
				c-1.747,0.967,4.591,7.632,4.591,7.632L49.181,19.936z"/>
		</g>
		<g>
			<linearGradient id="SVGID_8_" gradientUnits="userSpaceOnUse" x1="27.8769" y1="38.7951" x2="37.8293" y2="21.5571">
				<stop  offset="0" style="stop-color:#807C74"/>
				<stop  offset="1" style="stop-color:#808080"/>
			</linearGradient>
			<path fill="url(#SVGID_8_)" d="M49.686,28.403L19.63,25.697v6.82c0,0.004,0.002,0.009,0.002,0.013
				c0.015,0.939,0.639,1.874,1.877,2.588l8.275,4.778L49.686,28.403z"/>
			<path opacity="0.25" d="M49.686,28.403L19.63,25.697v6.82c0,0.004,0.002,0.009,0.002,0.013c0.015,0.939,0.639,1.874,1.877,2.588
				l8.275,4.778L49.686,28.403z"/>
		</g>
		<g>
			<linearGradient id="SVGID_9_" gradientUnits="userSpaceOnUse" x1="29.407" y1="32.8585" x2="38.5883" y2="16.956">
				<stop  offset="0" style="stop-color:#807C74"/>
				<stop  offset="1" style="stop-color:#808080"/>
			</linearGradient>
			<path fill="url(#SVGID_9_)" d="M49.648,23.342l-9.778-5.645c-2.516-1.453-6.608-1.445-9.139,0.017l-5.326,3.075l-1.994-0.21
				c-2.912,1.694-3.77,2.845-3.781,5.075c0,0.006,0,0.012,0,0.019c0,0.009,0,0.017,0,0.026c0,0.004,0.002,0.009,0.002,0.013
				c0.015,0.939,0.639,1.874,1.877,2.588l8.297,4.79L49.648,23.342z"/>
			<path opacity="0.25" d="M49.648,23.342l-9.778-5.645c-2.516-1.453-6.608-1.445-9.139,0.017l-5.326,3.075l-1.994-0.21
				c-2.912,1.694-3.77,2.845-3.781,5.075c0,0.006,0,0.012,0,0.019c0,0.009,0,0.017,0,0.026c0,0.004,0.002,0.009,0.002,0.013
				c0.015,0.939,0.639,1.874,1.877,2.588l8.297,4.79L49.648,23.342z"/>
		</g>
		<path fill="#4F4A46" d="M31.846,29.348l-7.897-4.621c-2.159-1.246-2.148-3.274,0.025-4.528l7.89-4.555
			c2.172-1.254,5.684-1.261,7.843-0.014l7.939,4.583L31.846,29.348z"/>
		<linearGradient id="SVGID_10_" gradientUnits="userSpaceOnUse" x1="37.3577" y1="26.1527" x2="41.4151" y2="33.1805">
			<stop  offset="0" style="stop-color:#808080"/>
			<stop  offset="1" style="stop-color:#807C74"/>
		</linearGradient>
		<path fill="url(#SVGID_10_)" d="M31.824,29.348c-1.588,0.917-2.04,2.235-2.04,3.728v6.82l19.903-11.493v-6.818
			c0-1.492-0.453-2.288-2.04-1.372L31.824,29.348z"/>
	</g>
	<g>
		<linearGradient id="SVGID_11_" gradientUnits="userSpaceOnUse" x1="51.3013" y1="49.7441" x2="70.8025" y2="15.9671">
			<stop  offset="0" style="stop-color:#807C74"/>
			<stop  offset="1" style="stop-color:#808080"/>
		</linearGradient>
		<path fill="url(#SVGID_11_)" d="M93.121,39.75V28.853L29.204,22.98v11.459c0,0.007,0.003,0.015,0.003,0.022
			c0.026,1.578,1.074,3.148,3.153,4.348l26.958,15.564c4.227,2.441,11.102,2.428,15.356-0.028l15.449-8.92
			C92.8,43.88,93.799,41.736,93.121,39.75z"/>
		<path opacity="0.25" d="M93.121,39.75V28.853L29.204,22.98v11.459c0,0.007,0.003,0.015,0.003,0.022
			c0.026,1.578,1.074,3.148,3.153,4.348l26.958,15.564c4.227,2.441,11.102,2.428,15.356-0.028l15.449-8.92
			C92.8,43.88,93.799,41.736,93.121,39.75z"/>
	</g>
	<g>
		<linearGradient id="SVGID_12_" gradientUnits="userSpaceOnUse" x1="53.2041" y1="39.3836" x2="70.0527" y2="10.2009">
			<stop  offset="0" style="stop-color:#807C74"/>
			<stop  offset="1" style="stop-color:#808080"/>
		</linearGradient>
		<path fill="url(#SVGID_12_)" d="M93.121,28.291c0-5.056-2.101-5.956-6.521-8.537l-6.958-0.733L63.214,9.536
			c-4.227-2.441-11.102-2.428-15.356,0.028l-8.949,5.167l-3.351-0.353c-4.892,2.847-6.334,4.781-6.353,8.526c0,0.01,0,0.021,0,0.031
			c0,0.015-0.001,0.029-0.001,0.044c0,0.007,0.003,0.015,0.003,0.022c0.026,1.578,1.074,3.148,3.153,4.348l26.958,15.564
			c4.227,2.441,11.102,2.428,15.356-0.028l15.449-8.92C92.8,32.421,93.121,30.727,93.121,28.291z"/>
		<path opacity="0.25" d="M93.121,28.291c0-5.056-2.101-5.956-6.521-8.537l-6.958-0.733L63.214,9.536
			c-4.227-2.441-11.102-2.428-15.356,0.028l-8.949,5.167l-3.351-0.353c-4.892,2.847-6.334,4.781-6.353,8.526c0,0.01,0,0.021,0,0.031
			c0,0.015-0.001,0.029-0.001,0.044c0,0.007,0.003,0.015,0.003,0.022c0.026,1.578,1.074,3.148,3.153,4.348l26.958,15.564
			c4.227,2.441,11.102,2.428,15.356-0.028l15.449-8.92C92.8,32.421,93.121,30.727,93.121,28.291z"/>
	</g>
	<path fill="#4F4A46" d="M86.07,19.419c3.627,2.094,3.609,5.5-0.041,7.608l-13.257,7.654c-3.65,2.107-9.55,2.118-13.177,0.024
		L36.462,21.349c-3.627-2.094-3.609-5.5,0.041-7.608L49.76,6.088c3.65-2.107,9.55-2.118,13.177-0.024L86.07,19.419z"/>
	<g>
		<g>
			
				<linearGradient id="SVGID_14_" gradientUnits="userSpaceOnUse" x1="441.1817" y1="-1722.832" x2="452.2069" y2="-1741.9281" gradientTransform="matrix(0.866 0.5 0 1.1547 -357.4526 1829.2228)">
				<stop  offset="0" style="stop-color:#807C74"/>
				<stop  offset="1" style="stop-color:#808080"/>
			</linearGradient>
			<polygon fill="url(#SVGID_14_)" points="41.119,64.5 17.673,51.098 17.673,39.88 41.119,53.282 			"/>
			<polygon opacity="0.25" points="41.119,64.5 17.673,51.098 17.673,39.88 41.119,53.282 			"/>
		</g>
		<g>
			<polygon fill="#4F4A46" points="41.119,53.282 17.673,39.88 35.361,29.668 58.806,43.07 			"/>
		</g>
		
			<linearGradient id="SVGID_15_" gradientUnits="userSpaceOnUse" x1="-5456.7534" y1="815.1876" x2="-5447.4404" y2="831.318" gradientTransform="matrix(-0.866 0.5 0 1.1547 -4671.6919 1829.2228)">
			<stop  offset="0" style="stop-color:#808080"/>
			<stop  offset="1" style="stop-color:#807C74"/>
		</linearGradient>
		<polygon fill="url(#SVGID_15_)" points="41.119,64.5 58.806,54.288 58.806,43.07 41.119,53.282 		"/>
	</g>
</g>
</svg>
