<?xml version="1.0" encoding="UTF-8" standalone="no"?>
<svg width="168px" height="63px" viewBox="0 0 168 63" version="1.1" xmlns="http://www.w3.org/2000/svg" xmlns:xlink="http://www.w3.org/1999/xlink" xmlns:sketch="http://www.bohemiancoding.com/sketch/ns">
    <!-- Generator: Sketch 3.3.3 (12081) - http://www.bohemiancoding.com/sketch -->
    <title>rode kruis</title>
    <desc>Created with Sketch.</desc>
    <defs></defs>
    <g id="Landing-pages" stroke="none" stroke-width="1" fill="none" fill-rule="evenodd" sketch:type="MSPage">
        <g id="digitale-lespakketen-copy" sketch:type="MSArtboardGroup" transform="translate(-115.000000, -4764.000000)" fill="#85A269">
            <g id="we-work-for" sketch:type="MSLayerGroup" transform="translate(0.000000, 4516.000000)">
                <path d="M177.443357,268.709852 L156.857784,268.709852 L156.857784,248.113706 L136.272767,248.113706 L136.272767,268.709852 L115.687193,268.709852 L115.687193,289.297096 L136.272767,289.297096 L136.272767,309.882669 L156.857784,309.882669 L156.857784,289.297096 L177.443357,289.297096 L177.443357,268.709852 Z M228.878633,274.245081 C234.372126,274.245081 238.602427,270.116614 238.602427,264.248615 C238.602427,258.243725 234.491768,254.239908 228.878633,254.239908 C223.406843,254.239908 219.163743,258.368374 219.163743,264.248615 C219.163743,270.24182 223.272733,274.245081 228.878633,274.245081 Z M228.878633,257.55036 C232.308727,257.55036 234.862935,259.986595 234.862935,264.248615 C234.862935,268.48782 232.308727,270.927394 228.878633,270.927394 C225.452434,270.927394 222.903792,268.48782 222.903792,264.248615 C222.903792,259.986595 225.452434,257.55036 228.878633,257.55036 Z M257.191935,273.31299 C257.191935,273.682487 257.378354,273.867236 257.756755,273.867236 L260.184086,273.867236 C260.555253,273.867236 260.740002,273.682487 260.740002,273.31299 L260.740002,248.678525 C260.740002,248.300124 260.555253,248.106472 260.184086,248.106472 L257.691647,248.106472 C257.313246,248.106472 257.129054,248.300124 257.129054,248.678525 L257.129054,257.339457 C255.897581,255.489188 253.92767,254.240464 250.960004,254.240464 C245.598395,254.240464 241.79936,258.307162 241.79936,264.308714 C241.79936,270.24182 245.538852,274.245081 250.826451,274.245081 C253.915427,274.245081 255.941543,272.917338 257.191935,270.954105 L257.191935,273.31299 Z M251.269402,270.92795 C247.843204,270.92795 245.538852,268.488377 245.538852,264.249172 C245.538852,259.986595 247.843204,257.550917 251.269402,257.550917 C254.699497,257.550917 257.253704,259.986595 257.253704,264.249172 C257.253704,268.488377 254.699497,270.92795 251.269402,270.92795 Z M260.430047,283.626645 L257.570336,283.626645 C257.200839,283.626645 257.007187,283.811393 257.007187,284.189794 L257.007187,287.060634 C257.007187,287.438479 257.200839,287.624897 257.570336,287.624897 L260.430047,287.624897 C260.808448,287.624897 260.993197,287.438479 260.993197,287.060634 L260.993197,284.189794 C260.993197,283.811393 260.808448,283.626645 260.430047,283.626645 Z M260.253089,290.624282 L257.763989,290.624282 C257.386144,290.624282 257.201395,290.80903 257.201395,291.186875 L257.201395,309.318963 C257.201395,309.696808 257.386144,309.881556 257.763989,309.881556 L260.253089,309.881556 C260.622586,309.881556 260.809004,309.696808 260.809004,309.318963 L260.809004,291.186875 C260.809004,290.80903 260.622586,290.624282 260.253089,290.624282 Z M198.594307,273.867236 L201.144619,273.867236 C201.52302,273.867236 201.718341,273.682487 201.718341,273.311321 L201.718341,264.115619 L205.953651,264.115619 L212.613509,273.434857 C212.798258,273.682487 213.045888,273.867236 213.485501,273.867236 L216.475982,273.867236 C217.031898,273.867236 217.100344,273.364185 216.847149,273.056456 L209.937991,263.489587 C213.915098,262.618708 216.15935,259.864171 216.15935,256.176987 C216.15935,250.676817 211.732057,248.107028 207.067151,248.107028 L198.594307,248.107028 C198.22314,248.107028 198.038391,248.299011 198.038391,248.676856 L198.038391,273.311321 C198.038391,273.682487 198.22314,273.867236 198.594307,273.867236 Z M212.366992,256.176987 C212.366992,258.991623 210.368701,260.673282 206.753858,260.673282 L201.718341,260.673282 L201.718341,251.670676 L206.753858,251.670676 C210.368701,251.670676 212.366992,253.361238 212.366992,256.176987 Z M251.116373,290.624282 L248.618926,290.624282 C248.249428,290.624282 248.064679,290.80903 248.064679,291.186875 L248.064679,301.573984 C248.064679,304.687445 246.251137,306.878833 243.146579,306.878833 C240.275739,306.878833 238.409331,305.004078 238.409331,301.573984 L238.409331,291.186875 C238.409331,290.80903 238.224583,290.624282 237.846738,290.624282 L235.345396,290.624282 C234.979237,290.624282 234.794488,290.80903 234.794488,291.186875 L234.794488,302.189442 C234.794488,306.94227 237.971388,310.259957 242.518322,310.259957 C245.19384,310.259957 247.07082,309.121972 248.124222,307.320671 L248.124222,309.318963 C248.124222,309.696808 248.308971,309.881556 248.680138,309.881556 L251.116373,309.881556 C251.48587,309.881556 251.672288,309.696808 251.672288,309.318963 L251.672288,291.186875 C251.672288,290.80903 251.48587,290.624282 251.116373,290.624282 Z M273.780926,254.241021 C268.862825,254.241021 264.873477,258.244281 264.873477,264.248059 C264.873477,270.242377 268.862825,274.246194 274.283977,274.246194 C277.573284,274.246194 280.444124,272.749284 281.816384,270.805527 C282.125782,270.43436 281.93213,270.178939 281.747381,269.994747 L280.319474,268.559049 C280.065722,268.305854 279.818092,268.305854 279.512033,268.559049 C278.948883,269.053752 277.388535,270.998622 274.344076,270.998622 C271.846073,270.998622 269.151634,269.510616 268.590154,265.744969 L282.001133,265.744969 C282.563726,265.744969 282.628833,265.30313 282.628833,264.49402 C282.628833,258.114067 279.080767,254.241021 273.780926,254.241021 Z M268.569008,262.742245 C269.056478,259.020003 271.344691,257.488035 273.780926,257.488035 C276.527116,257.488035 278.639484,259.424558 278.948883,262.742245 L268.569008,262.742245 Z M273.913923,298.694797 C271.544465,298.00032 269.433766,297.375958 269.433766,295.621958 C269.433766,294.32037 270.671916,293.504025 273.104813,293.504025 C275.409164,293.504025 276.965616,294.32037 277.962814,294.874616 C278.341215,295.059364 278.647275,294.874616 278.779159,294.629768 L279.704572,292.74444 C279.889321,292.304827 279.704572,292.068883 279.459724,291.93533 C277.712958,291.002683 275.224415,290.246437 272.920064,290.246437 C268.805509,290.246437 265.815584,292.304827 265.815584,295.880717 C265.815584,299.688656 269.30856,300.814399 272.478225,301.747047 C275.039666,302.506631 276.780867,303.006343 276.780867,304.626233 C276.780867,305.945629 275.718562,307.002369 272.78818,307.002369 C270.358623,307.002369 268.930715,306.263931 266.812782,305.129284 C266.434381,304.944535 266.184525,305.004634 265.999776,305.382479 L265.066016,307.256121 C264.946375,307.505977 264.946375,307.759172 265.191222,308.009028 C265.815584,308.631163 269.176676,310.260514 273.041375,310.260514 C277.459763,310.260514 280.400719,308.06857 280.400719,304.441485 C280.400719,300.501662 276.965616,299.567345 273.913923,298.694797 Z M207.067151,295.50176 L217.031898,284.937136 C217.285093,284.633303 217.224994,284.130252 216.6624,284.130252 L213.67025,284.130252 C213.23954,284.130252 212.929585,284.315001 212.73649,284.559292 L201.717785,296.266909 L201.717785,284.692845 C201.717785,284.315001 201.522463,284.130252 201.146288,284.130252 L198.59375,284.130252 C198.224809,284.130252 198.037835,284.315001 198.037835,284.692845 L198.037835,309.318963 C198.037835,309.696808 198.224809,309.881556 198.59375,309.881556 L201.146288,309.881556 C201.522463,309.881556 201.717785,309.696808 201.717785,309.318963 L201.717785,300.95463 L204.444498,298.059306 L213.176103,309.440274 C213.360851,309.696808 213.67025,309.881556 214.09929,309.881556 L217.100344,309.881556 C217.65626,309.881556 217.719141,309.380175 217.469842,309.061873 L207.067151,295.50176 Z M224.073496,302.374747 C224.073496,297.31252 226.811896,294.186816 230.989332,294.186816 C231.35883,294.186816 231.545248,293.993164 231.545248,293.623666 L231.545248,290.809587 C231.545248,290.431186 231.35883,290.246437 230.989332,290.246437 C227.804086,290.246437 225.192005,292.05998 224.001155,295.120576 L224.001155,291.187431 C224.001155,290.809587 223.816406,290.624838 223.445239,290.624838 L221.009004,290.624838 C220.639507,290.624838 220.465331,290.809587 220.465331,291.187431 L220.465331,309.319519 C220.465331,309.697364 220.639507,309.882113 221.009004,309.882113 L223.510347,309.882113 C223.888748,309.882113 224.073496,309.697364 224.073496,309.319519 L224.073496,302.374747 Z" id="rode-kruis" sketch:type="MSShapeGroup"></path>
            </g>
        </g>
    </g>
</svg>