<?xml version="1.0" encoding="utf-8"?>
<!-- Generator: Adobe Illustrator 17.0.0, SVG Export Plug-In . SVG Version: 6.00 Build 0)  -->
<!DOCTYPE svg PUBLIC "-//W3C//DTD SVG 1.1//EN" "http://www.w3.org/Graphics/SVG/1.1/DTD/svg11.dtd">
<svg version="1.1" id="Laag_1" xmlns="http://www.w3.org/2000/svg" xmlns:xlink="http://www.w3.org/1999/xlink" x="0px" y="0px"
	 width="300px" height="200px" viewBox="0 0 300 200" enable-background="new 0 0 300 200" xml:space="preserve">
<g>
	<g>
		
			<line fill="none" stroke="#EE6644" stroke-width="12" stroke-linecap="round" stroke-linejoin="round" stroke-miterlimit="10" x1="91.229" y1="19.304" x2="100.321" y2="35.912"/>
		
			<line fill="none" stroke="#EE6644" stroke-width="12" stroke-linecap="round" stroke-linejoin="round" stroke-miterlimit="10" x1="87.17" y1="80.886" x2="70.563" y2="89.979"/>
		
			<line fill="none" stroke="#EE6644" stroke-width="12" stroke-linecap="round" stroke-linejoin="round" stroke-miterlimit="10" x1="161.903" y1="39.97" x2="145.296" y2="49.063"/>
		
			<line fill="none" stroke="#EE6644" stroke-width="12" stroke-linecap="round" stroke-linejoin="round" stroke-miterlimit="10" x1="130.846" y1="15" x2="125.532" y2="33.172"/>
		
			<line fill="none" stroke="#EE6644" stroke-width="12" stroke-linecap="round" stroke-linejoin="round" stroke-miterlimit="10" x1="84.431" y1="55.675" x2="66.259" y2="50.361"/>
	</g>
	<path fill="none" stroke="#EE6644" stroke-width="12" stroke-linecap="round" stroke-linejoin="round" stroke-miterlimit="10" d="
		M210.54,78.035c-0.229-0.862-0.553-1.712-1.004-2.529c-2.961-5.358-9.705-7.301-15.063-4.34c-3.426,1.894-5.447,5.335-5.691,8.971
		c-3.502-5.838-11.016-7.906-17.022-4.587c-4.074,2.252-6.411,6.413-6.541,10.751c-3.443-6.006-11.075-8.163-17.156-4.803
		c-2.827,1.562-4.811,4.048-5.813,6.869l-15.013-27.166c-3.26-5.898-10.684-8.037-16.582-4.778
		c-5.898,3.26-8.037,10.684-4.778,16.582l32.949,59.621c-0.099-0.068-0.193-0.13-0.292-0.198
		c-22.733-15.682-36.965-10.407-31.7,0.762c5.086,10.791,31.246,25.182,49.599,40.246c0.598,0.524,1.206,1.033,1.827,1.524
		c0.024,0.02,0.048,0.04,0.072,0.06l0-0.001c14.277,11.23,34.454,13.499,51.351,4.161c22.516-12.443,30.682-40.784,18.238-63.3
		c-0.629-1.139-1.31-2.231-2.018-3.296l-15.352-34.553L210.54,78.035z"/>
</g>
</svg>
