<?xml version="1.0" encoding="utf-8"?>
<!-- Generator: Adobe Illustrator 17.0.0, SVG Export Plug-In . SVG Version: 6.00 Build 0)  -->
<!DOCTYPE svg PUBLIC "-//W3C//DTD SVG 1.1//EN" "http://www.w3.org/Graphics/SVG/1.1/DTD/svg11.dtd">
<svg version="1.1" id="Laag_1" xmlns="http://www.w3.org/2000/svg" xmlns:xlink="http://www.w3.org/1999/xlink" x="0px" y="0px"
	 width="111px" height="69px" viewBox="0 0 111 69" enable-background="new 0 0 111 69" xml:space="preserve">
<g>
	<defs>
		<rect id="SVGID_2_" x="1292.32" y="-235.5" width="960" height="540"/>
	</defs>
	<clipPath id="SVGID_1_">
		<use xlink:href="#SVGID_2_"  overflow="visible"/>
	</clipPath>
	<g clip-path="url(#SVGID_1_)">
		<linearGradient id="SVGID_3_" gradientUnits="userSpaceOnUse" x1="826.4978" y1="-505.0924" x2="1137.4727" y2="33.5318">
			<stop  offset="0" style="stop-color:#4673AE"/>
			<stop  offset="1" style="stop-color:#8891AF"/>
		</linearGradient>
		<path fill="url(#SVGID_3_)" d="M1590.833-946.382L840.51-507.495l-542.371,315.52l-542.383,315.527
			c0,0,611.074,340.343,611.086,340.336l-0.012,0.041c0,0,270.724-151.11,304.302-170.397
			c33.577-19.286,54.935-39.424,78.558-53.063c46.961-27.112,110.038-24.139,135.008-79.874
			c26.601-59.376,103.261-92.938,158.626-121.2c25.537-13.035,53.726-19.36,80.017-30.401
			c28.867-12.123,60.561-16.807,88.555-31.186c28.509-14.644,52.544-36.611,80.176-52.865
			c23.622-13.638,75.519-23.618,105.844-43.347c30.325-19.729,25.235-32.239,48.34-45.672l5.34-3.083l-0.012,0.041
			c0,0,37.274-13.947,70.85-33.232c41.908-24.07,74.413-55.973,121.859-69.565c46.253-13.251,61.761-49.537,96.362-79.453
			c19.044-16.465,42.91-24.098,65.79-34.087c15.761-6.881,31.085-14.779,46.828-21.724c22.698-10.012,51.217-12.162,71.34-27.051
			c15.896-11.762,27.725-26.276,45.068-36.945c11.049-6.797,22.499-13.327,33.745-19.952
			c50.074-29.495,100.147-58.991,150.221-88.486c4.493-2.647,43.833-30.894,48.261-28.428
			C2201.906-606.04,1590.833-946.382,1590.833-946.382z"/>
	</g>
</g>
<g>
	<defs>
		<rect id="SVGID_33_" x="1286.32" y="510.5" width="972" height="540"/>
	</defs>
	<clipPath id="SVGID_4_">
		<use xlink:href="#SVGID_33_"  overflow="visible"/>
	</clipPath>
	<g clip-path="url(#SVGID_4_)">
		<linearGradient id="SVGID_5_" gradientUnits="userSpaceOnUse" x1="853.9975" y1="213.701" x2="1164.9723" y2="752.3251">
			<stop  offset="0" style="stop-color:#4673AE"/>
			<stop  offset="1" style="stop-color:#8891AF"/>
		</linearGradient>
		<path fill="url(#SVGID_5_)" d="M1618.333-227.588L868.009,211.299l-542.371,315.52l-542.383,315.527
			c0,0,611.074,340.343,611.086,340.336l-0.012,0.041c0,0,270.724-151.11,304.302-170.397
			c33.577-19.286,54.935-39.424,78.558-53.063c46.961-27.112,110.038-24.139,135.008-79.874
			c26.601-59.376,103.261-92.938,158.626-121.2c25.537-13.036,53.726-19.36,80.018-30.401
			c28.867-12.123,60.561-16.807,88.555-31.186c28.509-14.644,52.544-36.611,80.176-52.865
			c23.622-13.638,75.518-23.618,105.844-43.347c30.325-19.729,25.235-32.239,48.34-45.672l5.34-3.083l-0.012,0.041
			c0,0,37.274-13.947,70.85-33.232c41.908-24.07,74.413-55.973,121.859-69.565c46.253-13.251,61.761-49.537,96.362-79.453
			c19.044-16.465,42.91-24.098,65.79-34.087c15.761-6.881,31.085-14.779,46.828-21.724c22.698-10.012,51.217-12.162,71.34-27.051
			c15.896-11.762,27.725-26.276,45.068-36.945c11.049-6.797,22.499-13.327,33.745-19.952
			c50.074-29.495,100.147-58.991,150.221-88.486c4.493-2.647,43.833-30.894,48.261-28.428
			C2229.406,112.754,1618.333-227.588,1618.333-227.588z"/>
	</g>
</g>
<g>
	<g>
		<path fill="#4F4A46" d="M48.295,49.638c4.88-2.818,13.243-7.453,22.909-13.034c0,0,20.354-11.944,22.91-13.42
			c1.158-0.669,2.433-0.573,3.29,0.155l5.018,2.594l-7.934,5.816c-2.529,3.904-6.195,8.12-9.742,10.168
			c-2.818,1.627-12.11,6.992-19.426,11.216L51.124,63.541l-4.881-2.515C41.807,58.912,43.674,52.306,48.295,49.638z"/>
		<g>
			
				<linearGradient id="SVGID_6_" gradientUnits="userSpaceOnUse" x1="16868.8984" y1="-4454.4062" x2="16931.7383" y2="-4454.4062" gradientTransform="matrix(-0.866 0.5 0 1.1547 14712.2754 -3259.8491)">
				<stop  offset="0" style="stop-color:#807C74"/>
				<stop  offset="1" style="stop-color:#808080"/>
			</linearGradient>
			<path fill="url(#SVGID_6_)" d="M76.744,39.663c-9.62,5.554-17.94,10.17-22.796,12.973c-4.856,2.804-6.66,9.869-1.246,11.45
				c5.414,1.581,9.613-1.879,9.613-1.879s24.02-13.868,28.859-16.662c4.839-2.794,9.904-9.574,11.965-14.06
				c2.061-4.486-1.055-6.64-3.598-5.172C96.997,27.782,76.744,39.663,76.744,39.663z"/>
			<path opacity="0.5" d="M76.744,39.663c-9.62,5.554-17.94,10.17-22.796,12.973c-4.856,2.804-6.66,9.869-1.246,11.45
				c5.414,1.581,9.613-1.879,9.613-1.879s24.02-13.868,28.859-16.662c4.839-2.794,9.904-9.574,11.965-14.06
				c2.061-4.486-1.055-6.64-3.598-5.172C96.997,27.782,76.744,39.663,76.744,39.663z"/>
		</g>
		<g>
			
				<linearGradient id="SVGID_7_" gradientUnits="userSpaceOnUse" x1="16873.8281" y1="-4460.6831" x2="16873.8281" y2="-4452.3687" gradientTransform="matrix(-0.866 0.5 0 1.1547 14712.2754 -3259.8491)">
				<stop  offset="0" style="stop-color:#79807D"/>
				<stop  offset="1" style="stop-color:#5B6966"/>
			</linearGradient>
			<path fill="url(#SVGID_7_)" d="M95.357,33.53c0,2.651,1.873,3.719,4.183,2.385c2.31-1.334,4.183-4.564,4.183-7.216
				c0-2.651-1.873-3.719-4.183-2.385C97.23,27.648,95.357,30.878,95.357,33.53z"/>
			<path opacity="0.3" d="M95.357,33.53c0,2.651,1.873,3.719,4.183,2.385c2.31-1.334,4.183-4.564,4.183-7.216
				c0-2.651-1.873-3.719-4.183-2.385C97.23,27.648,95.357,30.878,95.357,33.53z"/>
		</g>
		<g>
			
				<linearGradient id="SVGID_8_" gradientUnits="userSpaceOnUse" x1="16883.4883" y1="-4456.5259" x2="16883.4883" y2="-4448.2114" gradientTransform="matrix(-0.866 0.5 0 1.1547 14712.2754 -3259.8491)">
				<stop  offset="0" style="stop-color:#79807D"/>
				<stop  offset="1" style="stop-color:#5B6966"/>
			</linearGradient>
			<path fill="url(#SVGID_8_)" d="M86.99,43.161c0,2.651,1.873,3.719,4.183,2.385c2.31-1.334,4.183-4.564,4.183-7.216
				c0-2.651-1.873-3.719-4.183-2.385C88.863,37.279,86.99,40.509,86.99,43.161z"/>
			<path opacity="0.3" d="M86.99,43.161c0,2.651,1.873,3.719,4.183,2.385c2.31-1.334,4.183-4.564,4.183-7.216
				c0-2.651-1.873-3.719-4.183-2.385C88.863,37.279,86.99,40.509,86.99,43.161z"/>
		</g>
		<g>
			
				<linearGradient id="SVGID_9_" gradientUnits="userSpaceOnUse" x1="16889.043" y1="-4460.5205" x2="16889.043" y2="-4456.5259" gradientTransform="matrix(-0.866 0.5 0 1.1547 14712.2754 -3259.8491)">
				<stop  offset="0" style="stop-color:#79807D"/>
				<stop  offset="1" style="stop-color:#5B6966"/>
			</linearGradient>
			<path fill="url(#SVGID_9_)" d="M84.354,37.576c0,1.274,0.9,1.787,2.01,1.146c1.11-0.641,2.01-2.193,2.01-3.466
				c0-1.274-0.9-1.787-2.01-1.146C85.254,34.75,84.354,36.302,84.354,37.576z"/>
			<path opacity="0.3" d="M84.354,37.576c0,1.274,0.9,1.787,2.01,1.146c1.11-0.641,2.01-2.193,2.01-3.466
				c0-1.274-0.9-1.787-2.01-1.146C85.254,34.75,84.354,36.302,84.354,37.576z"/>
		</g>
		<g>
			
				<linearGradient id="SVGID_10_" gradientUnits="userSpaceOnUse" x1="16900.1523" y1="-4460.521" x2="16900.1523" y2="-4456.5259" gradientTransform="matrix(-0.866 0.5 0 1.1547 14712.2754 -3259.8491)">
				<stop  offset="0" style="stop-color:#79807D"/>
				<stop  offset="1" style="stop-color:#5B6966"/>
			</linearGradient>
			<path fill="url(#SVGID_10_)" d="M74.734,43.13c0,1.274,0.9,1.787,2.01,1.146c1.11-0.641,2.01-2.193,2.01-3.466
				c0-1.274-0.9-1.787-2.01-1.146C75.634,40.304,74.734,41.856,74.734,43.13z"/>
			<path opacity="0.3" d="M74.734,43.13c0,1.274,0.9,1.787,2.01,1.146c1.11-0.641,2.01-2.193,2.01-3.466
				c0-1.274-0.9-1.787-2.01-1.146C75.634,40.304,74.734,41.856,74.734,43.13z"/>
		</g>
		<g>
			
				<linearGradient id="SVGID_11_" gradientUnits="userSpaceOnUse" x1="16911.2598" y1="-4460.521" x2="16911.2598" y2="-4456.5264" gradientTransform="matrix(-0.866 0.5 0 1.1547 14712.2754 -3259.8491)">
				<stop  offset="0" style="stop-color:#79807D"/>
				<stop  offset="1" style="stop-color:#5B6966"/>
			</linearGradient>
			<path fill="url(#SVGID_11_)" d="M65.115,48.684c0,1.274,0.9,1.787,2.01,1.146c1.11-0.641,2.01-2.193,2.01-3.466
				c0-1.274-0.9-1.787-2.01-1.146C66.015,45.858,65.115,47.41,65.115,48.684z"/>
			<path opacity="0.3" d="M65.115,48.684c0,1.274,0.9,1.787,2.01,1.146c1.11-0.641,2.01-2.193,2.01-3.466
				c0-1.274-0.9-1.787-2.01-1.146C66.015,45.858,65.115,47.41,65.115,48.684z"/>
		</g>
		<g>
			
				<linearGradient id="SVGID_12_" gradientUnits="userSpaceOnUse" x1="16894.5977" y1="-4456.5259" x2="16894.5977" y2="-4448.2114" gradientTransform="matrix(-0.866 0.5 0 1.1547 14712.2754 -3259.8491)">
				<stop  offset="0" style="stop-color:#79807D"/>
				<stop  offset="1" style="stop-color:#5B6966"/>
			</linearGradient>
			<path fill="url(#SVGID_12_)" d="M77.37,48.715c0,2.651,1.873,3.719,4.183,2.385c2.311-1.334,4.184-4.565,4.183-7.216
				c0-2.651-1.873-3.719-4.183-2.385C79.243,42.833,77.37,46.063,77.37,48.715z"/>
			<path opacity="0.3" d="M77.37,48.715c0,2.651,1.873,3.719,4.183,2.385c2.311-1.334,4.184-4.565,4.183-7.216
				c0-2.651-1.873-3.719-4.183-2.385C79.243,42.833,77.37,46.063,77.37,48.715z"/>
		</g>
		<g>
			
				<linearGradient id="SVGID_14_" gradientUnits="userSpaceOnUse" x1="16905.7051" y1="-4456.5264" x2="16905.7051" y2="-4448.2114" gradientTransform="matrix(-0.866 0.5 0 1.1547 14712.2754 -3259.8491)">
				<stop  offset="0" style="stop-color:#79807D"/>
				<stop  offset="1" style="stop-color:#5B6966"/>
			</linearGradient>
			<path fill="url(#SVGID_14_)" d="M67.751,54.268c0,2.651,1.873,3.719,4.183,2.385c2.311-1.334,4.184-4.565,4.184-7.216
				c0-2.651-1.873-3.719-4.183-2.385C69.624,48.387,67.751,51.617,67.751,54.268z"/>
			<path opacity="0.3" d="M67.751,54.268c0,2.651,1.873,3.719,4.183,2.385c2.311-1.334,4.184-4.565,4.184-7.216
				c0-2.651-1.873-3.719-4.183-2.385C69.624,48.387,67.751,51.617,67.751,54.268z"/>
		</g>
		<g>
			
				<linearGradient id="SVGID_15_" gradientUnits="userSpaceOnUse" x1="16916.8125" y1="-4456.5264" x2="16916.8125" y2="-4448.2119" gradientTransform="matrix(-0.866 0.5 0 1.1547 14712.2754 -3259.8491)">
				<stop  offset="0" style="stop-color:#79807D"/>
				<stop  offset="1" style="stop-color:#5B6966"/>
			</linearGradient>
			<path fill="url(#SVGID_15_)" d="M58.131,59.822c0,2.651,1.873,3.719,4.183,2.385c2.311-1.334,4.184-4.565,4.184-7.216
				c0-2.651-1.873-3.719-4.183-2.385C60.005,53.94,58.131,57.171,58.131,59.822z"/>
			<path opacity="0.3" d="M58.131,59.822c0,2.651,1.873,3.719,4.183,2.385c2.311-1.334,4.184-4.565,4.184-7.216
				c0-2.651-1.873-3.719-4.183-2.385C60.005,53.94,58.131,57.171,58.131,59.822z"/>
		</g>
		<g>
			
				<linearGradient id="SVGID_16_" gradientUnits="userSpaceOnUse" x1="16926.4746" y1="-4460.6841" x2="16926.4746" y2="-4452.3691" gradientTransform="matrix(-0.866 0.5 0 1.1547 14712.2754 -3259.8491)">
				<stop  offset="0" style="stop-color:#79807D"/>
				<stop  offset="1" style="stop-color:#5B6966"/>
			</linearGradient>
			<path fill="url(#SVGID_16_)" d="M49.764,59.852c0,2.651,1.873,3.719,4.184,2.385c2.31-1.334,4.183-4.564,4.183-7.216
				c0-2.651-1.873-3.719-4.183-2.385C51.637,53.97,49.764,57.201,49.764,59.852z"/>
			<path opacity="0.3" d="M49.764,59.852c0,2.651,1.873,3.719,4.184,2.385c2.31-1.334,4.183-4.564,4.183-7.216
				c0-2.651-1.873-3.719-4.183-2.385C51.637,53.97,49.764,57.201,49.764,59.852z"/>
		</g>
	</g>
	<g>
		<path fill="#4F4A46" d="M19.923,32.707c4.88-2.818,13.243-7.453,22.909-13.034c0,0,20.354-11.944,22.91-13.42
			c1.158-0.669,2.433-0.573,3.29,0.155l5.018,2.594l-7.934,5.816c-2.529,3.905-6.195,8.12-9.742,10.168
			c-2.818,1.627-12.11,6.992-19.426,11.216L22.753,46.609l-4.881-2.515C13.435,41.981,15.302,35.375,19.923,32.707z"/>
		<g>
			
				<linearGradient id="SVGID_17_" gradientUnits="userSpaceOnUse" x1="16901.6602" y1="-4483.2554" x2="16964.5" y2="-4483.2554" gradientTransform="matrix(-0.866 0.5 0 1.1547 14712.2754 -3259.8491)">
				<stop  offset="0" style="stop-color:#807C74"/>
				<stop  offset="1" style="stop-color:#808080"/>
			</linearGradient>
			<path fill="url(#SVGID_17_)" d="M48.372,22.732c-9.62,5.554-17.94,10.17-22.796,12.973c-4.856,2.804-6.66,9.869-1.246,11.45
				c5.414,1.581,9.613-1.879,9.613-1.879s24.02-13.868,28.859-16.662c4.839-2.794,9.904-9.574,11.965-14.06
				c2.061-4.486-1.055-6.64-3.598-5.172C68.626,10.851,48.372,22.732,48.372,22.732z"/>
			<path opacity="0.5" d="M48.372,22.732c-9.62,5.554-17.94,10.17-22.796,12.973c-4.856,2.804-6.66,9.869-1.246,11.45
				c5.414,1.581,9.613-1.879,9.613-1.879s24.02-13.868,28.859-16.662c4.839-2.794,9.904-9.574,11.965-14.06
				c2.061-4.486-1.055-6.64-3.598-5.172C68.626,10.851,48.372,22.732,48.372,22.732z"/>
		</g>
		
			<linearGradient id="SVGID_18_" gradientUnits="userSpaceOnUse" x1="16901.7578" y1="-4485.375" x2="16911.4199" y2="-4485.375" gradientTransform="matrix(-0.866 0.5 0 1.1547 14712.2754 -3259.8491)">
			<stop  offset="0" style="stop-color:#807C74"/>
			<stop  offset="1" style="stop-color:#808080"/>
		</linearGradient>
		<path fill="url(#SVGID_18_)" d="M66.986,16.598c0,2.651,1.873,3.719,4.183,2.385c2.31-1.334,4.183-4.564,4.183-7.216
			c0-2.651-1.873-3.719-4.183-2.385C68.859,10.716,66.986,13.947,66.986,16.598z"/>
		
			<linearGradient id="SVGID_19_" gradientUnits="userSpaceOnUse" x1="16911.4199" y1="-4481.2178" x2="16921.082" y2="-4481.2178" gradientTransform="matrix(-0.866 0.5 0 1.1547 14712.2754 -3259.8491)">
			<stop  offset="0" style="stop-color:#807C74"/>
			<stop  offset="1" style="stop-color:#808080"/>
		</linearGradient>
		<path fill="url(#SVGID_19_)" d="M58.619,26.229c0,2.651,1.873,3.719,4.183,2.385c2.31-1.334,4.183-4.564,4.183-7.216
			c0-2.651-1.873-3.719-4.183-2.385C60.492,20.347,58.618,23.578,58.619,26.229z"/>
		
			<linearGradient id="SVGID_20_" gradientUnits="userSpaceOnUse" x1="16919.4844" y1="-4487.3726" x2="16924.125" y2="-4487.3726" gradientTransform="matrix(-0.866 0.5 0 1.1547 14712.2754 -3259.8491)">
			<stop  offset="0" style="stop-color:#807C74"/>
			<stop  offset="1" style="stop-color:#808080"/>
		</linearGradient>
		<path fill="url(#SVGID_20_)" d="M55.982,20.645c0,1.274,0.9,1.787,2.01,1.146c1.11-0.641,2.01-2.193,2.01-3.466
			c0-1.274-0.9-1.787-2.01-1.146C56.882,17.819,55.982,19.371,55.982,20.645z"/>
		
			<linearGradient id="SVGID_21_" gradientUnits="userSpaceOnUse" x1="16930.5918" y1="-4487.3726" x2="16935.2344" y2="-4487.3726" gradientTransform="matrix(-0.866 0.5 0 1.1547 14712.2754 -3259.8491)">
			<stop  offset="0" style="stop-color:#807C74"/>
			<stop  offset="1" style="stop-color:#808080"/>
		</linearGradient>
		<path fill="url(#SVGID_21_)" d="M46.363,26.199c0,1.274,0.9,1.787,2.01,1.146c1.11-0.641,2.01-2.193,2.01-3.466
			c0-1.274-0.9-1.787-2.01-1.146C47.263,23.373,46.363,24.925,46.363,26.199z"/>
		
			<linearGradient id="SVGID_22_" gradientUnits="userSpaceOnUse" x1="16941.7012" y1="-4487.373" x2="16946.3418" y2="-4487.373" gradientTransform="matrix(-0.866 0.5 0 1.1547 14712.2754 -3259.8491)">
			<stop  offset="0" style="stop-color:#807C74"/>
			<stop  offset="1" style="stop-color:#808080"/>
		</linearGradient>
		<path fill="url(#SVGID_22_)" d="M36.743,31.752c0,1.274,0.9,1.787,2.01,1.146c1.11-0.641,2.01-2.193,2.01-3.466
			c0-1.274-0.9-1.787-2.01-1.146C37.643,28.927,36.743,30.479,36.743,31.752z"/>
		
			<linearGradient id="SVGID_24_" gradientUnits="userSpaceOnUse" x1="16922.5273" y1="-4481.2178" x2="16932.1895" y2="-4481.2178" gradientTransform="matrix(-0.866 0.5 0 1.1547 14712.2754 -3259.8491)">
			<stop  offset="0" style="stop-color:#807C74"/>
			<stop  offset="1" style="stop-color:#808080"/>
		</linearGradient>
		<path fill="url(#SVGID_24_)" d="M48.999,31.783c0,2.651,1.873,3.719,4.183,2.385c2.311-1.334,4.184-4.565,4.183-7.216
			c0-2.651-1.873-3.719-4.183-2.385C50.872,25.901,48.999,29.132,48.999,31.783z"/>
		
			<linearGradient id="SVGID_25_" gradientUnits="userSpaceOnUse" x1="16933.6367" y1="-4481.2183" x2="16943.2969" y2="-4481.2183" gradientTransform="matrix(-0.866 0.5 0 1.1547 14712.2754 -3259.8491)">
			<stop  offset="0" style="stop-color:#807C74"/>
			<stop  offset="1" style="stop-color:#808080"/>
		</linearGradient>
		<path fill="url(#SVGID_25_)" d="M39.379,37.337c0,2.651,1.873,3.719,4.183,2.385c2.311-1.334,4.184-4.565,4.184-7.216
			c0-2.651-1.873-3.719-4.183-2.385C41.253,31.455,39.379,34.686,39.379,37.337z"/>
		
			<linearGradient id="SVGID_26_" gradientUnits="userSpaceOnUse" x1="16944.7441" y1="-4481.2183" x2="16954.4062" y2="-4481.2183" gradientTransform="matrix(-0.866 0.5 0 1.1547 14712.2754 -3259.8491)">
			<stop  offset="0" style="stop-color:#807C74"/>
			<stop  offset="1" style="stop-color:#808080"/>
		</linearGradient>
		<path fill="url(#SVGID_26_)" d="M29.76,42.891c0,2.651,1.873,3.719,4.183,2.385c2.311-1.334,4.184-4.565,4.184-7.216
			c0-2.651-1.873-3.719-4.183-2.385C31.633,37.009,29.759,40.24,29.76,42.891z"/>
		<g>
			
				<linearGradient id="SVGID_27_" gradientUnits="userSpaceOnUse" x1="16959.2363" y1="-4489.5332" x2="16959.2363" y2="-4481.2188" gradientTransform="matrix(-0.866 0.5 0 1.1547 14712.2754 -3259.8491)">
				<stop  offset="0" style="stop-color:#79807D"/>
				<stop  offset="1" style="stop-color:#5B6966"/>
			</linearGradient>
			<path fill="url(#SVGID_27_)" d="M21.393,42.921c0,2.651,1.873,3.719,4.184,2.385c2.31-1.334,4.183-4.564,4.183-7.216
				c0-2.651-1.873-3.719-4.183-2.385C23.266,37.039,21.393,40.27,21.393,42.921z"/>
			<path opacity="0.3" d="M21.393,42.921c0,2.651,1.873,3.719,4.184,2.385c2.31-1.334,4.183-4.564,4.183-7.216
				c0-2.651-1.873-3.719-4.183-2.385C23.266,37.039,21.393,40.27,21.393,42.921z"/>
		</g>
	</g>
	<g>
		
			<linearGradient id="SVGID_28_" gradientUnits="userSpaceOnUse" x1="12500.2314" y1="-4291.2866" x2="12551.1641" y2="-4269.2334" gradientTransform="matrix(-0.866 0.5 1 0.5774 15188.0781 -3763.3313)">
			<stop  offset="0" style="stop-color:#6E6E6E"/>
			<stop  offset="1" style="stop-color:#808080"/>
		</linearGradient>
		<polygon fill="url(#SVGID_28_)" points="27.29,34.219 71.17,8.885 93.837,21.972 49.958,47.306 		"/>
		<polygon opacity="0.2" points="27.29,34.219 71.17,8.885 93.837,21.972 49.958,47.306 		"/>
	</g>
	<g>
		
			<linearGradient id="SVGID_29_" gradientUnits="userSpaceOnUse" x1="12546.8291" y1="-4281.8857" x2="12568.7451" y2="-4272.3965" gradientTransform="matrix(-0.866 0.5 1 0.5774 15188.0781 -3763.3313)">
			<stop  offset="0" style="stop-color:#6E6E6E"/>
			<stop  offset="1" style="stop-color:#808080"/>
		</linearGradient>
		<polygon fill="url(#SVGID_29_)" points="21.828,44.576 27.29,34.219 49.958,47.306 44.496,57.663 		"/>
		<polygon opacity="0.2" points="21.828,44.576 27.29,34.219 49.958,47.306 44.496,57.663 		"/>
	</g>
	<g>
		<polygon fill="#4F4A46" points="24.915,34.922 71.171,7.957 65.584,4.5 19.328,31.464 		"/>
		<g>
			
				<linearGradient id="SVGID_30_" gradientUnits="userSpaceOnUse" x1="12395.6855" y1="-4485.2495" x2="12395.6855" y2="-4484.2241" gradientTransform="matrix(-0.866 0.5 1 0.5774 15267.4424 -3586.4524)">
				<stop  offset="0" style="stop-color:#79807D"/>
				<stop  offset="1" style="stop-color:#5B6966"/>
			</linearGradient>
			<polygon fill="url(#SVGID_30_)" points="24.914,35.849 71.17,8.885 71.171,7.957 24.915,34.921 			"/>
			<polygon opacity="0.3" points="24.914,35.849 71.17,8.885 71.171,7.957 24.915,34.921 			"/>
		</g>
		<g>
			
				<linearGradient id="SVGID_31_" gradientUnits="userSpaceOnUse" x1="12367.7939" y1="-4485.2495" x2="12367.7939" y2="-4480.6743" gradientTransform="matrix(-0.866 0.5 1 0.5774 15267.4424 -3586.4524)">
				<stop  offset="0" style="stop-color:#79807D"/>
				<stop  offset="1" style="stop-color:#5B6966"/>
			</linearGradient>
			<polygon fill="url(#SVGID_31_)" points="71.17,8.885 76.417,10.212 77.557,9.533 71.171,7.957 			"/>
			<polygon opacity="0.3" points="71.17,8.885 76.417,10.212 77.557,9.533 71.171,7.957 			"/>
		</g>
		<g>
			
				<linearGradient id="SVGID_32_" gradientUnits="userSpaceOnUse" x1="12428.4707" y1="-4485.0264" x2="12428.4707" y2="-4481.2583" gradientTransform="matrix(-0.866 0.5 1 0.5774 15267.4424 -3586.4524)">
				<stop  offset="0" style="stop-color:#79807D"/>
				<stop  offset="1" style="stop-color:#5B6966"/>
			</linearGradient>
			<polygon fill="url(#SVGID_32_)" points="17.894,43.327 24.914,35.849 24.915,34.922 17.127,43.253 			"/>
			<polygon opacity="0.3" points="17.894,43.327 24.914,35.849 24.915,34.922 17.127,43.253 			"/>
		</g>
		<polygon fill="#4F4A46" points="17.127,43.253 24.915,34.921 19.328,31.464 11.54,39.795 		"/>
		<polygon fill="#4F4A46" points="71.171,7.957 77.557,9.533 71.97,6.075 65.584,4.5 		"/>
	</g>
	<g>
		
			<linearGradient id="SVGID_34_" gradientUnits="userSpaceOnUse" x1="15546.4219" y1="12.5801" x2="15546.4219" y2="37.0998" gradientTransform="matrix(-1 0 0 1 15607.2266 0)">
			<stop  offset="0" style="stop-color:#79807D"/>
			<stop  offset="1" style="stop-color:#5B6966"/>
		</linearGradient>
		<path fill="url(#SVGID_34_)" d="M43.436,28.499c0.654-4.753,7.936-12.587,13.4-14.506c8.466-2.974,19.506-1.529,21.509,7.015
			l0,0.001c0.964,2.925-5.419,10.058-10.026,12.718c-6.696,3.866-16.447,4.503-21.78,1.424c-0.36-0.208-0.688-0.428-0.989-0.658
			l-0.006-0.003c-0.656-0.39-1.157-0.927-1.514-1.574C43.125,31.575,42.939,30.048,43.436,28.499z"/>
		<path opacity="0.3" d="M43.436,28.499c0.654-4.753,7.936-12.587,13.4-14.506c8.466-2.974,19.506-1.529,21.509,7.015l0,0.001
			c0.964,2.925-5.419,10.058-10.026,12.718c-6.696,3.866-16.447,4.503-21.78,1.424c-0.36-0.208-0.688-0.428-0.989-0.658
			l-0.006-0.003c-0.656-0.39-1.157-0.927-1.514-1.574C43.125,31.575,42.939,30.048,43.436,28.499z"/>
	</g>
	<g>
		
			<linearGradient id="SVGID_35_" gradientUnits="userSpaceOnUse" x1="-2073.4436" y1="3842.4395" x2="-2073.4436" y2="3846.2458" gradientTransform="matrix(0.866 0.5 0 1.1547 1839.6006 -3368.5195)">
			<stop  offset="0" style="stop-color:#79807D"/>
			<stop  offset="1" style="stop-color:#5B6966"/>
		</linearGradient>
		<polygon fill="url(#SVGID_35_)" points="48.267,38.483 39.73,33.518 39.73,29.159 48.267,34.124 		"/>
		<path fill="#4F4A46" d="M48.267,34.124l-8.537-4.965l4.656-2.908c2.262,3.292,8.537,4.965,8.537,4.965L48.267,34.124z"/>
		<g>
			
				<linearGradient id="SVGID_36_" gradientUnits="userSpaceOnUse" x1="-2704.4578" y1="-4036.1199" x2="-2704.4578" y2="-4032.1543" gradientTransform="matrix(0.866 -0.5 0 1.1547 2392.6553 3340.8389)">
				<stop  offset="0" style="stop-color:#79807D"/>
				<stop  offset="1" style="stop-color:#5B6966"/>
			</linearGradient>
			<path fill="url(#SVGID_36_)" d="M51.101,36.743l-2.834,1.74l0-4.359l4.656-2.908C52.923,31.216,51.101,34.753,51.101,36.743z"/>
			<path opacity="0.3" d="M51.101,36.743l-2.834,1.74l0-4.359l4.656-2.908C52.923,31.216,51.101,34.753,51.101,36.743z"/>
		</g>
		<g>
			<path fill="#4F4A46" d="M5.351,57.601l40.014-23.64l0,0c0.2-0.182,0.513-0.194,0.867,0.01c0.604,0.349,1.095,1.195,1.095,1.888
				c0,0.403-0.166,0.665-0.424,0.747L6.491,59.421L5.351,57.601z"/>
			
				<linearGradient id="SVGID_37_" gradientUnits="userSpaceOnUse" x1="15601.2744" y1="57.5069" x2="15601.2744" y2="59.4705" gradientTransform="matrix(-1 0 0 1 15607.2266 0)">
				<stop  offset="0" style="stop-color:#79807D"/>
				<stop  offset="1" style="stop-color:#5B6966"/>
			</linearGradient>
			<path fill="url(#SVGID_37_)" d="M5.188,58.048c0,0.484,0.342,1.074,0.764,1.318c0.422,0.244,0.764,0.048,0.764-0.436
				c0-0.484-0.342-1.074-0.764-1.318C5.53,57.368,5.188,57.563,5.188,58.048z"/>
			<path d="M5.38,58.158c0,0.362,0.256,0.804,0.572,0.987c0.316,0.182,0.572,0.036,0.572-0.326c0-0.363-0.256-0.804-0.572-0.986
				C5.636,57.65,5.38,57.796,5.38,58.158z"/>
		</g>
		<g>
			
				<linearGradient id="SVGID_38_" gradientUnits="userSpaceOnUse" x1="15565.4004" y1="30.5109" x2="15565.4004" y2="34.6124" gradientTransform="matrix(-1 0 0 1 15607.2266 0)">
				<stop  offset="0" style="stop-color:#79807D"/>
				<stop  offset="1" style="stop-color:#5B6966"/>
			</linearGradient>
			<path fill="url(#SVGID_38_)" d="M40.23,31.64c0,1.012,0.715,2.244,1.596,2.753c0.881,0.509,1.596,0.102,1.596-0.91
				c0-1.012-0.715-2.244-1.596-2.753C40.945,30.221,40.231,30.629,40.23,31.64z"/>
			<path opacity="0.3" d="M40.23,31.64c0,1.012,0.715,2.244,1.596,2.753c0.881,0.509,1.596,0.102,1.596-0.91
				c0-1.012-0.715-2.244-1.596-2.753C40.945,30.221,40.231,30.629,40.23,31.64z"/>
		</g>
	</g>
	<g>
		<path opacity="0.5" d="M57.075,23.283c1.951,1.126,5.124,1.121,7.088-0.013c1.964-1.134,1.974-2.966,0.022-4.092
			c-1.951-1.127-5.125-1.121-7.088,0.013C55.134,20.324,55.124,22.156,57.075,23.283z"/>
	</g>
	<g>
		<polygon fill="#4F4A46" points="53.17,51.466 99.426,24.502 93.839,21.045 47.583,48.009 		"/>
		<g>
			
				<linearGradient id="SVGID_39_" gradientUnits="userSpaceOnUse" x1="12395.915" y1="-4456.7954" x2="12395.915" y2="-4455.77" gradientTransform="matrix(-0.866 0.5 1 0.5774 15267.4424 -3586.4524)">
				<stop  offset="0" style="stop-color:#79807D"/>
				<stop  offset="1" style="stop-color:#5B6966"/>
			</linearGradient>
			<polygon fill="url(#SVGID_39_)" points="53.168,52.393 99.424,25.429 99.426,24.502 53.17,51.466 			"/>
			<polygon opacity="0.3" points="53.168,52.393 99.424,25.429 99.426,24.502 53.17,51.466 			"/>
		</g>
		<g>
			
				<linearGradient id="SVGID_40_" gradientUnits="userSpaceOnUse" x1="12368.0244" y1="-4456.7954" x2="12368.0244" y2="-4452.2202" gradientTransform="matrix(-0.866 0.5 1 0.5774 15267.4424 -3586.4524)">
				<stop  offset="0" style="stop-color:#79807D"/>
				<stop  offset="1" style="stop-color:#5B6966"/>
			</linearGradient>
			<polygon fill="url(#SVGID_40_)" points="99.424,25.429 104.671,26.756 105.812,26.077 99.426,24.502 			"/>
			<polygon opacity="0.3" points="99.424,25.429 104.671,26.756 105.812,26.077 99.426,24.502 			"/>
		</g>
		<g>
			
				<linearGradient id="SVGID_41_" gradientUnits="userSpaceOnUse" x1="12428.7012" y1="-4456.5723" x2="12428.7012" y2="-4452.8042" gradientTransform="matrix(-0.866 0.5 1 0.5774 15267.4424 -3586.4524)">
				<stop  offset="0" style="stop-color:#79807D"/>
				<stop  offset="1" style="stop-color:#5B6966"/>
			</linearGradient>
			<polygon fill="url(#SVGID_41_)" points="46.149,59.871 53.168,52.393 53.17,51.466 45.381,59.797 			"/>
			<polygon opacity="0.3" points="46.149,59.871 53.168,52.393 53.17,51.466 45.381,59.797 			"/>
		</g>
		<polygon fill="#4F4A46" points="45.381,59.797 53.17,51.466 47.583,48.009 39.794,56.34 		"/>
		<polygon fill="#4F4A46" points="99.426,24.502 105.812,26.077 100.225,22.62 93.839,21.045 		"/>
	</g>
</g>
</svg>
