<?xml version="1.0" encoding="UTF-8"?>
<svg xmlns="http://www.w3.org/2000/svg" width="130" height="110" viewBox="0 0 130 110">
    <path fill="#161F1C" d="M70.25 110c-.857 0-1.72-.164-2.572-.487l-.084-.008c-1.236-.113-2.38-.222-3.558-.13-.106.01-.237.027-.385.046-.378.05-.85.11-1.323.11-1.014 0-1.748-.313-2.18-.932-.228-.326-.554-1.022-.185-2.032.306-.835.945-1.415 1.506-1.88-.18-.178-.347-.33-.46-.426l-49.15-28.477c-.452-.262-.73-.744-.73-1.265v-2.916c-.09-.048-.18-.096-.267-.147-1.547-.892-2.445-2.218-2.46-3.636v-1.495c-.013-1.07.488-2.09 1.427-2.923V17.167c-.003-.25.04-.477.085-.67.01-.075.03-.166.06-.267.078-.24.18-.418.25-.536.048-.107.106-.22.184-.33.066-.097.15-.195.243-.288.327-.39.724-.72 1.196-.993 2.112-1.218 5.62-1.212 7.74.012.296.17.567.363.804.57.058.05.164.163.213.222.09.082.27.262.43.486.036.052.08.125.114.193.024.04.05.08.074.124v-5.11c0-.23.03-.46.097-.72.013-.077.032-.157.052-.22.085-.263.2-.462.286-.606.016-.045.07-.15.143-.255.143-.21.3-.373.452-.522.057-.067.116-.13.186-.19.238-.21.507-.4.804-.572 2.112-1.22 5.622-1.213 7.742.01.233.135.455.29.677.472.047.033.096.07.13.1.083.074.153.15.22.23.244.237.448.5.608.784V3.995c-.012-1.208.725-2.337 2.02-3.085 2.106-1.217 5.62-1.213 7.74.012.294.17.564.362.803.57.09.08.162.156.23.237.14.134.295.3.415.47.08.115.14.227.19.34.1.174.186.34.243.508.067.203.087.368.097.456.004.02.01.043.014.068.044.14.068.29.068.445 0 .08-.007.16-.02.24l-.002 29.403 4.008 2.323 10.69-6.374c.454-.272 1.023-.276 1.48-.01l1.15.665c1.256-.326 2.79-.157 3.83.443.424.245.765.55 1.012.904.025.035.05.074.072.114.105.164.19.338.25.518.026.078.05.18.065.273l.003.012c.048.144.073.3.073.46 0 .082-.008.162-.02.24v.098l8.74 5.063c1.268-.35 2.85-.19 3.91.424.425.244.767.55 1.015.905.027.038.052.08.076.12.114.183.192.35.25.52.014.047.03.1.04.15.05.182.078.38.078.583v.409l8.655 5.015c1.28-.376 2.907-.227 3.995.4.265.153.496.333.71.554.126.126.226.238.304.35.03.044.063.096.09.15.106.17.182.332.236.496l.02.063c.07.23.102.47.097.712v.435l14.56 8.436c.06.03.118.068.173.108.38.276.607.716.607 1.185v6.173l10.286 5.938c.453.26.732.744.732 1.266v9.15c0 .523-.28 1.004-.73 1.266l-16.817 9.718c.47.637.92 1.72.527 2.645-.264.63-.85 1.124-1.37 1.56-.143.118-.278.227-.368.32-1.703 1.74-4.104 2.625-6.034 3.335-.466.17-.94.328-1.413.484l-.245.08c-.11.037-.23.085-.358.134-.557.217-1.293.48-2.028.438-.244.147-.485.295-.726.443-1.388.85-2.823 1.727-4.4 2.45-1.5.692-2.873 1.39-4.193 2.13-1.002.562-1.915 1.073-3.18 1.32-.866.17-1.707.19-2.52.21-.643.013-1.25.028-1.818.115-1.17.18-2.122.446-2.91.81-.88.404-1.812.61-2.77.61zm-5.303-3.58c1 0 1.972.088 2.913.172l.29.027c.148.012.292.048.428.104 1.118.46 2.22.468 3.217.01 1.037-.48 2.243-.82 3.687-1.045.757-.117 1.488-.134 2.196-.15.723-.017 1.405-.033 2.027-.154.807-.158 1.456-.52 2.277-.98 1.422-.8 2.86-1.53 4.435-2.257 1.42-.653 2.72-1.448 4.095-2.29.41-.25.824-.504 1.242-.753.382-.23.844-.268 1.257-.117.172-.026.51-.158.72-.24.178-.07.348-.135.503-.186l.248-.082c.442-.146.885-.29 1.32-.45 1.654-.61 3.71-1.366 4.95-2.635.144-.147.354-.328.583-.52.08-.067.19-.158.294-.25-.022-.013-.046-.028-.07-.04-.204-.128-.407-.26-.575-.4-.082-.07-.144-.127-.21-.164-.034-.01-.09-.016-.156-.026-.676-.097-1.2-.288-1.663-.457-.17-.062-.34-.125-.528-.186l-.224-.067c-.305-.087-.685-.194-1.134-.49-.045-.03-.088-.057-.13-.087l-.397.188c-.22.104-.437.204-.638.28-.62.235-1 .623-1.58 1.21l-.19.193c-.388.394-.823.643-1.172.843-.143.082-.287.16-.417.255-.243.175-.533.272-.833.278l-.274.002c-.874 0-1.65-.07-2.374-.22-.448-.09-.83-.387-1.026-.8-.198-.414-.19-.896.02-1.304l3.898-7.55c.184-.356.505-.62.888-.733.38-.11.796-.062 1.143.138l8.543 4.93 16.15-9.33v-7.462l-10.285-5.94c-.452-.26-.73-.743-.73-1.265v-6.17l-14.61-8.466c-.452-.26-.73-.744-.73-1.265v-1.073c-.462-.26-1.48-.274-1.974-.017-.447.232-.98.22-1.413-.03l-9.993-5.79c-.45-.26-.73-.744-.73-1.265v-1.002c-.46-.26-1.434-.277-1.942-.03-.438.213-.953.195-1.375-.05l-10.06-5.828c-.45-.26-.73-.744-.73-1.265v-.932c-.447-.254-1.396-.278-1.912-.044-.43.195-.93.172-1.34-.066l-.98-.568-10.688 6.374c-.455.272-1.023.277-1.482.01l-5.48-3.176c-.452-.26-.73-.744-.73-1.265l-.02-30.5-.004-.026c-.01-.02-.02-.04-.022-.04l-.045-.086c-.02-.02-.047-.043-.072-.07-.05-.05-.088-.09-.12-.128-.084-.067-.182-.134-.292-.197-1.226-.708-3.6-.713-4.813-.012-.46.266-.56.493-.558.535V36.29c0 .807-.654 1.462-1.462 1.462H32.81l-.135.16c-.398.466-1.043.634-1.62.423-.574-.212-.956-.76-.956-1.372V10.616c-.004-.035-.046-.134-.19-.274l-.067-.07v-.002c-.103-.085-.202-.16-.32-.228-1.225-.708-3.598-.713-4.816-.01-.104.06-.197.122-.278.187-.03.032-.06.065-.094.097-.032.03-.066.062-.097.095-.017.03-.03.06-.042.076l-.034.06c0 .006-.003.01-.004.017l-.01 34.812c0 .523-.278 1.005-.73 1.266L20.897 48.1c-.452.26-1.01.26-1.462 0-.452-.262-.73-.745-.73-1.267V17.19l-.015-.05-.042-.062-.033-.055c-.03-.03-.068-.066-.105-.1-.022-.022-.058-.06-.09-.096-.085-.07-.182-.135-.29-.198-1.227-.708-3.6-.714-4.816-.013-.176.1-.315.217-.438.364-.01.012-.028.033-.05.056l-.023.046-.03.052c0 .003 0 .006-.002.01l-.013 46.973c0 .487-.243.944-.648 1.215-.485.325-.784.7-.78.976v1.494c.003.33.386.767.998 1.12.216.126.47.24.775.353.574.212.955.76.955 1.372v3.03l48.53 28.118-.016.03c1.048.598 2.13 2.178 2.143 2.198.328.516.3 1.182-.07 1.668l-.08.113c-.198.243-.417.454-.642.65.337-.023.68-.034 1.024-.034zm28.9-17.63l-2.014 3.9c.09-.057.168-.113.22-.167l.184-.186c.693-.704 1.41-1.43 2.627-1.894.136-.05.28-.12.427-.19.195-.09.402-.188.62-.274l-2.062-1.19z"/>
    <path fill="#F9F6E7" d="M91.512 69.905l-49.258-28.54 17.608-10.5 49.26 28.54"/>
    <path fill="#DBD7C6" d="M48.536 37.727l4.07-2.335 49.055 28.46-10.148 6.054-.01-7.283"/>
    <linearGradient id="a" gradientUnits="userSpaceOnUse" x1="-130.93" y1="149.104" x2="-124.422" y2="149.104" gradientTransform="matrix(1 0 0 -1 219 213.5)">
        <stop offset="0" stop-color="#F9F6E7"/>
        <stop offset="1" stop-color="#B19C92"/>
    </linearGradient>
    <path fill="url(#a)" d="M94.552 64.232c.12-.556-.19-1.14-.934-1.57-1.274-.736-3.334-.74-4.602-.01-.636.37-.95.85-.946 1.334v.82c.005.48.326.957.96 1.325 1.274.736 3.334.74 4.602.01.733-.423 1.04-1 .92-1.554v-.354z"/>
    <path fill="#F9F6E7" d="M93.632 65.32c-1.267.73-3.327.727-4.602-.01-1.274-.735-1.28-1.925-.015-2.656 1.267-.73 3.327-.727 4.602.01 1.275.735 1.282 1.924.015 2.655z"/>
    <linearGradient id="b" gradientUnits="userSpaceOnUse" x1="-130.139" y1="156.913" x2="-125.215" y2="156.913" gradientTransform="matrix(1 0 0 -1 219 213.5)">
        <stop offset="0" stop-color="#F9F6E7"/>
        <stop offset="1" stop-color="#B19C92"/>
    </linearGradient>
    <path fill="url(#b)" d="M93.785 49.198c.002-.367-.24-.734-.726-1.014-.966-.556-2.526-.56-3.484-.006-.482.277-.72.643-.716 1.007v14.802c.003.363.244.724.725 1.002.965.555 2.523.56 3.48.005.484-.28.722-.643.718-1.01v-14.79l.002.003z"/>
    <path fill="#F9F6E7" d="M93.07 50.194c-.957.554-2.515.55-3.48-.006-.966-.556-.97-1.456-.01-2.008.956-.556 2.514-.552 3.48.005.965.556.97 1.457.01 2.01z"/>
    <linearGradient id="c" gradientUnits="userSpaceOnUse" x1="672.622" y1="444.428" x2="675.044" y2="446.526" gradientTransform="matrix(.866 .5 1 -.5774 -937.727 -30.45)">
        <stop offset="0" stop-color="#E5DBD1"/>
        <stop offset="1" stop-color="#656458"/>
    </linearGradient>
    <path fill="url(#c)" d="M92.797 50.036c-.81.466-2.123.464-2.935-.005-.813-.47-.817-1.227-.01-1.694.81-.466 2.123-.464 2.935.005.812.47.816 1.23.01 1.696z"/>
    <linearGradient id="d" gradientUnits="userSpaceOnUse" x1="-159.148" y1="165.313" x2="-152.639" y2="165.313" gradientTransform="matrix(1 0 0 -1 219 213.5)">
        <stop offset="0" stop-color="#F9F6E7"/>
        <stop offset="1" stop-color="#B19C92"/>
    </linearGradient>
    <path fill="url(#d)" d="M66.336 48.023c.12-.556-.192-1.14-.936-1.57-1.273-.736-3.334-.74-4.602-.01-.634.37-.95.85-.946 1.334v.82c.006.48.327.957.96 1.325 1.275.735 3.335.74 4.603.008.733-.423 1.04-1 .92-1.554v-.353z"/>
    <path fill="#F9F6E7" d="M65.415 49.11c-1.267.732-3.327.728-4.602-.01-1.274-.734-1.28-1.924-.015-2.655 1.266-.73 3.327-.727 4.602.01 1.275.735 1.28 1.924.015 2.656z"/>
    <linearGradient id="e" gradientUnits="userSpaceOnUse" x1="-158.355" y1="173.122" x2="-153.431" y2="173.122" gradientTransform="matrix(1 0 0 -1 219 213.5)">
        <stop offset="0" stop-color="#F9F6E7"/>
        <stop offset="1" stop-color="#B19C92"/>
    </linearGradient>
    <path fill="url(#e)" d="M65.57 32.99c0-.368-.24-.735-.727-1.015-.965-.556-2.523-.56-3.48-.006-.484.277-.722.642-.718 1.007V47.78c.003.362.244.723.725 1 .965.557 2.523.56 3.48.007.484-.278.722-.643.718-1.008V32.99z"/>
    <path fill="#F9F6E7" d="M64.854 33.984c-.96.556-2.518.552-3.483-.005-.964-.557-.968-1.458-.01-2.01.958-.555 2.516-.552 3.482.005.965.556.97 1.457.01 2.008h.002z"/>
    <linearGradient id="f" gradientUnits="userSpaceOnUse" x1="640.122" y1="444.357" x2="642.544" y2="446.454" gradientTransform="matrix(.866 .5 1 -.5774 -937.727 -30.45)">
        <stop offset="0" stop-color="#E5DBD1"/>
        <stop offset="1" stop-color="#656458"/>
    </linearGradient>
    <path fill="url(#f)" d="M64.578 33.828c-.807.465-2.122.463-2.935-.006-.812-.468-.816-1.228-.008-1.694.806-.466 2.12-.464 2.933.005.813.468.817 1.227.01 1.695z"/>
    <linearGradient id="g" gradientUnits="userSpaceOnUse" x1="-145.04" y1="157.207" x2="-138.531" y2="157.207" gradientTransform="matrix(1 0 0 -1 219 213.5)">
        <stop offset="0" stop-color="#F9F6E7"/>
        <stop offset="1" stop-color="#B19C92"/>
    </linearGradient>
    <path fill="url(#g)" d="M80.444 56.128c.12-.556-.192-1.14-.936-1.57-1.273-.736-3.334-.74-4.602-.01-.634.37-.95.85-.946 1.334v.82c.006.48.327.958.96 1.325 1.275.736 3.335.74 4.603.01.733-.424 1.04-1 .92-1.555v-.354z"/>
    <path fill="#F9F6E7" d="M79.524 57.215c-1.267.73-3.327.727-4.602-.01-1.274-.735-1.28-1.925-.015-2.656 1.266-.732 3.328-.728 4.602.01 1.276.735 1.28 1.924.014 2.655z"/>
    <linearGradient id="h" gradientUnits="userSpaceOnUse" x1="-144.247" y1="165.016" x2="-139.323" y2="165.016" gradientTransform="matrix(1 0 0 -1 219 213.5)">
        <stop offset="0" stop-color="#F9F6E7"/>
        <stop offset="1" stop-color="#B19C92"/>
    </linearGradient>
    <path fill="url(#h)" d="M79.677 41.094c.002-.367-.24-.734-.726-1.014-.964-.556-2.522-.56-3.48-.006-.483.278-.72.643-.717 1.008v14.803c.003.363.244.724.725 1.002.965.558 2.523.56 3.48.007.484-.278.722-.643.718-1.008V41.094z"/>
    <path fill="#F9F6E7" d="M78.962 42.09c-.958.553-2.517.55-3.48-.007s-.97-1.457-.013-2.01c.957-.554 2.516-.55 3.48.006.965.555.97 1.456.012 2.01z"/>
    <linearGradient id="i" gradientUnits="userSpaceOnUse" x1="656.319" y1="444.453" x2="658.74" y2="446.551" gradientTransform="matrix(.866 .5 1 -.5774 -937.727 -30.45)">
        <stop offset="0" stop-color="#E5DBD1"/>
        <stop offset="1" stop-color="#656458"/>
    </linearGradient>
    <path fill="url(#i)" d="M78.687 41.93c-.807.468-2.122.465-2.935-.004-.812-.468-.816-1.228-.008-1.694.807-.468 2.122-.465 2.935.004.81.468.814 1.23.007 1.694z"/>
    <linearGradient id="j" gradientUnits="userSpaceOnUse" x1="-209.138" y1="146.44" x2="-197.408" y2="146.44" gradientTransform="matrix(1 0 0 -1 219 213.5)">
        <stop offset="0" stop-color="#F9F6E7"/>
        <stop offset="1" stop-color="#B19C92"/>
    </linearGradient>
    <path fill="url(#j)" d="M21.546 66.762c.214-1.002-.345-2.054-1.685-2.827-2.297-1.326-6.01-1.334-8.294-.015-1.147.663-1.714 1.53-1.704 2.402V67.8c.01.863.585 1.726 1.73 2.387 2.3 1.326 6.014 1.334 8.298.015 1.32-.763 1.872-1.804 1.657-2.8v-.64z"/>
    <path fill="#F9F6E7" d="M19.886 68.722c-2.283 1.32-5.996 1.312-8.295-.014-2.297-1.326-2.31-3.47-.025-4.79 2.283-1.317 5.996-1.31 8.295.016 2.3 1.326 2.31 3.47.026 4.788z"/>
    <linearGradient id="k" gradientUnits="userSpaceOnUse" x1="-207.711" y1="171.758" x2="-198.837" y2="171.758" gradientTransform="matrix(1 0 0 -1 219 213.5)">
        <stop offset="0" stop-color="#F9F6E7"/>
        <stop offset="1" stop-color="#B19C92"/>
    </linearGradient>
    <path fill="url(#k)" d="M20.163 17.19c.003-.66-.433-1.324-1.308-1.83-1.738-1.003-4.548-1.01-6.277-.012-.868.5-1.297 1.16-1.29 1.817V66.32c.008.653.445 1.306 1.31 1.806 1.738 1.002 4.548 1.008 6.276.01.868-.5 1.297-1.158 1.29-1.816V17.19z"/>
    <path fill="#F9F6E7" d="M18.874 18.985c-1.728.997-4.538.993-6.277-.012-1.738-1.004-1.747-2.627-.02-3.624s4.54-.994 6.278.01c1.74 1.005 1.747 2.626.02 3.625z"/>
    <linearGradient id="l" gradientUnits="userSpaceOnUse" x1="595.931" y1="433.578" x2="600.297" y2="437.36" gradientTransform="matrix(.866 .5 1 -.5774 -937.727 -30.45)">
        <stop offset="0" stop-color="#E5DBD1"/>
        <stop offset="1" stop-color="#656458"/>
    </linearGradient>
    <path fill="url(#l)" d="M18.38 18.698c-1.457.84-3.825.837-5.29-.01s-1.47-2.213-.016-3.054c1.456-.84 3.825-.837 5.29.01 1.465.847 1.472 2.213.015 3.054z"/>
    <linearGradient id="m" gradientUnits="userSpaceOnUse" x1="-197.741" y1="153.027" x2="-186.013" y2="153.027" gradientTransform="matrix(1 0 0 -1 219 213.5)">
        <stop offset="0" stop-color="#F9F6E7"/>
        <stop offset="1" stop-color="#B19C92"/>
    </linearGradient>
    <path fill="url(#m)" d="M32.94 60.176c.217-1.004-.343-2.055-1.683-2.827-2.297-1.33-6.01-1.337-8.294-.017-1.147.66-1.714 1.53-1.704 2.4v1.48c.01.86.584 1.725 1.73 2.385 2.298 1.326 6.012 1.333 8.295.015 1.322-.763 1.872-1.804 1.657-2.8v-.64.003z"/>
    <path fill="#F9F6E7" d="M31.283 62.136c-2.283 1.318-5.996 1.31-8.295-.015-2.3-1.325-2.31-3.47-.027-4.788 2.284-1.318 5.997-1.31 8.296.015 2.3 1.326 2.31 3.47.027 4.79z"/>
    <linearGradient id="n" gradientUnits="userSpaceOnUse" x1="-196.315" y1="178.344" x2="-187.441" y2="178.344" gradientTransform="matrix(1 0 0 -1 219 213.5)">
        <stop offset="0" stop-color="#F9F6E7"/>
        <stop offset="1" stop-color="#B19C92"/>
    </linearGradient>
    <path fill="url(#n)" d="M31.56 10.602c.003-.66-.433-1.323-1.307-1.828-1.74-1.004-4.55-1.01-6.28-.012-.867.502-1.296 1.16-1.286 1.818h-.002v49.152c.008.653.445 1.306 1.31 1.807 1.738 1.003 4.548 1.008 6.276.01.87-.5 1.298-1.16 1.288-1.816V10.602z"/>
    <path fill="#F9F6E7" d="M30.272 12.398c-1.73.997-4.538.993-6.28-.012-1.736-1.004-1.744-2.627-.018-3.624 1.73-.996 4.538-.992 6.28.013 1.74 1.004 1.744 2.626.018 3.623z"/>
    <linearGradient id="o" gradientUnits="userSpaceOnUse" x1="595.924" y1="444.979" x2="600.289" y2="448.76" gradientTransform="matrix(.866 .5 1 -.5774 -937.727 -30.45)">
        <stop offset="0" stop-color="#E5DBD1"/>
        <stop offset="1" stop-color="#656458"/>
    </linearGradient>
    <path fill="url(#o)" d="M29.775 12.11c-1.456.84-3.824.838-5.288-.01-1.465-.844-1.472-2.212-.017-3.053s3.822-.837 5.287.01c1.465.847 1.472 2.214.018 3.054z"/>
    <linearGradient id="p" gradientUnits="userSpaceOnUse" x1="-186.347" y1="159.612" x2="-174.618" y2="159.612" gradientTransform="matrix(1 0 0 -1 219 213.5)">
        <stop offset="0" stop-color="#F9F6E7"/>
        <stop offset="1" stop-color="#B19C92"/>
    </linearGradient>
    <path fill="url(#p)" d="M44.337 53.59c.216-1.004-.344-2.057-1.684-2.83-2.3-1.325-6.013-1.333-8.297-.014-1.146.663-1.713 1.53-1.703 2.402v1.478c.01.863.585 1.726 1.73 2.387 2.3 1.328 6.013 1.336 8.296.016 1.32-.764 1.87-1.805 1.656-2.802v-.638z"/>
    <path fill="#F9F6E7" d="M42.678 55.55c-2.283 1.318-5.996 1.31-8.295-.015-2.298-1.326-2.31-3.47-.026-4.79 2.283-1.317 5.996-1.31 8.295.016 2.298 1.327 2.31 3.472.026 4.79z"/>
    <linearGradient id="q" gradientUnits="userSpaceOnUse" x1="-184.92" y1="184.929" x2="-176.044" y2="184.929" gradientTransform="matrix(1 0 0 -1 219 213.5)">
        <stop offset="0" stop-color="#F9F6E7"/>
        <stop offset="1" stop-color="#B19C92"/>
    </linearGradient>
    <path fill="url(#q)" d="M42.956 4.016c.002-.66-.434-1.323-1.31-1.828-1.737-1.004-4.547-1.01-6.276-.012-.868.5-1.297 1.16-1.29 1.817v49.154c.007.653.444 1.306 1.31 1.806 1.737 1.004 4.547 1.01 6.275.012.868-.5 1.297-1.16 1.29-1.817V4.016z"/>
    <path fill="#F9F6E7" d="M41.666 5.81c-1.728.998-4.538.994-6.277-.01s-1.75-2.628-.02-3.625c1.725-.997 4.536-.993 6.275.012s1.748 2.626.02 3.624z"/>
    <linearGradient id="r" gradientUnits="userSpaceOnUse" x1="595.917" y1="456.38" x2="600.283" y2="460.161" gradientTransform="matrix(.866 .5 1 -.5774 -937.727 -30.45)">
        <stop offset="0" stop-color="#E5DBD1"/>
        <stop offset="1" stop-color="#656458"/>
    </linearGradient>
    <path fill="url(#r)" d="M41.172 5.524c-1.457.84-3.825.838-5.29-.01s-1.47-2.213-.016-3.052c1.456-.84 3.824-.838 5.288.01s1.473 2.212.018 3.052z"/>
    <path fill="#E7D7C7" d="M61.85 103.057l-49.26-28.54v-16.03l49.262 28.545"/>
    <path fill="#F9F6E7" d="M61.85 87.03L12.59 58.49l5.45-3.148 49.263 28.54"/>
    <path fill="#E7D7C7" d="M67.3 83.883l-49.316-28.44-.016-7.275 49.32 28.44"/>
    <path fill="#F9F6E7" d="M67.287 76.606l-49.26-28.542 24.21-13.977 49.26 28.54"/>
    <path fill="#F6E438" d="M77.516 62.38L32.13 36.29 22.047 48.166l45.385 26.09"/>
    <path fill="#EACC75" d="M87.598 62.375L42.21 36.285l-10.08.004 45.385 26.09"/>
    <path fill="#BFABA7" d="M87.598 62.375l-20.164 11.88 10.08-11.877m13.99 7.53l-.01-7.28-24.207 13.978.016 7.276-5.45 3.15v16.025l47.272-27.625V59.404"/>
    <g>
        <path fill="#E7D7C7" d="M102.527 92.11l-11.015-6.36V76.6l11.017 6.36"/>
        <path fill="#F9F6E7" d="M102.527 82.96L91.513 76.6l17.61-10.18 11.018 6.362"/>
        <path fill="#BFABA7" d="M120.14 81.93l-17.612 10.18v-9.15l17.613-10.18"/>
    </g>
    <linearGradient id="s" gradientUnits="userSpaceOnUse" x1="-134.935" y1="141.36" x2="-127.869" y2="145.44" gradientTransform="matrix(1 0 0 -1 219 213.5)">
        <stop offset="0" stop-color="#9B585B"/>
        <stop offset="1" stop-color="#37312C"/>
    </linearGradient>
    <path fill="url(#s)" d="M85.514 67.956l4.168-2.406v6.695l-4.168 2.405"/>
    <linearGradient id="t" gradientUnits="userSpaceOnUse" x1="-131.676" y1="135.716" x2="-125.051" y2="139.541" gradientTransform="matrix(1 0 0 -1 219 213.5)">
        <stop offset="0" stop-color="#9B585B"/>
        <stop offset="1" stop-color="#37312C"/>
    </linearGradient>
    <path fill="url(#t)" d="M91.59 79.498l4.168-2.406-6.076-4.848-4.167 2.406"/>
    <path fill="#AFA79A" d="M84.866 89.467l4.168 2.406v3.06l-4.167-2.405"/>
    <linearGradient id="u" gradientUnits="userSpaceOnUse" x1="-133.53" y1="123.842" x2="-130.586" y2="118.74" gradientTransform="matrix(1 0 0 -1 219 213.5)">
        <stop offset="0" stop-color="#9B585B"/>
        <stop offset="1" stop-color="#37312C"/>
    </linearGradient>
    <path fill="url(#u)" d="M85.085 89.88l3.715 2.144v2.513l-3.715-2.143"/>
    <path fill="#A39B8D" d="M96.14 77.355c-.124-.1-.25-.195-.38-.263l-4.172 2.403 4.168 2.406c.907-1.45 1.388-3.4 1.464-4.15l.017-.013v-1.135l-1.102.75.004.003z"/>
    <path fill="#AFA79A" d="M85.514 71.598v3.052l6.076 4.85v-3.056"/>
    <path fill="#D3D0C2" d="M91.59 76.444l4.168-2.405-6.076-4.85-4.167 2.41m3.518 20.274l-4.167-2.406 6.723-13.023 4.167 2.408"/>
    <path fill="#C1BEB2" d="M95.758 74.038c1.423.755 2.46 3.523 0 4.812l-4.168-2.408 4.168-2.404z"/>
    <path fill="#A39B8D" d="M89.033 94.927v-3.054l6.724-13.023v3.052"/>
    <path fill="#59492E" d="M102.75 93.635c-.22-.202-.584-.366-.828-.57-.404-.336-.59-.445-1.102-.517-.747-.107-1.26-.365-1.95-.587-.378-.122-.653-.155-1.004-.385-.33-.216-.52-.446-.944-.377-.487.078-1.063.43-1.54.61-1.006.384-1.56 1.005-2.29 1.742-.406.41-.96.617-1.41.943-4.28.072-4.84-1.657-5.52-2.123-.574-.39-1.29-.748-1.82-1.17-.52-.414-1.19-.398-1.652-.848-.412-.405-.55-.72-1.17-.858-.58-.127-.93-.066-1.265-.595-.283-.45-.336-.654-.77-.99-.768-.595-1.852-.595-2.55-1.238-.404-.375-.41-.946-.853-1.302-.462-.37-.887-.238-1.433-.14-.537.096-1.13.244-1.476.717-.404.55-.43 1.55-.634 2.2-.38 1.198-.725 2.146-1.78 2.9-.637.453-1.12.69-1.265 1.484-.08.438-.117.894-.134 1.333-.597.068-1.31.314-1.45.887-.12.484.107 1.024-.072 1.515-.164.447-.556.877-.79 1.294-.2.35-.696 1.764-1.794 2.313s-2.922 2.896-2.922 2.896.573 1.14 1.14 2.034c-.018.025-.03.05-.052.076-.585.72-1.76 1.302-2.084 2.19-.534 1.46 1.778.908 2.59.847 1.382-.105 2.736.036 4.094.158 1.396.575 2.925.658 4.387-.016 1.027-.475 2.178-.755 3.297-.927 1.418-.218 2.884-.04 4.28-.315 1.05-.205 1.837-.65 2.745-1.158 1.41-.793 2.83-1.507 4.3-2.184 1.937-.89 3.655-2.028 5.473-3.116.634.304 1.55-.2 2.187-.41.538-.176 1.08-.352 1.613-.548 1.907-.702 4.052-1.51 5.49-2.983.365-.373 1.25-.973 1.442-1.43.156-.368-.227-1.12-.487-1.356h.003z"/>
</svg>