<?xml version="1.0" encoding="utf-8"?>
<!-- Generator: Adobe Illustrator 17.0.0, SVG Export Plug-In . SVG Version: 6.00 Build 0)  -->
<!DOCTYPE svg PUBLIC "-//W3C//DTD SVG 1.1//EN" "http://www.w3.org/Graphics/SVG/1.1/DTD/svg11.dtd">
<svg version="1.1" id="Layer_1" xmlns:sketch="http://www.bohemiancoding.com/sketch/ns"
	 xmlns="http://www.w3.org/2000/svg" xmlns:xlink="http://www.w3.org/1999/xlink" x="0px" y="0px" width="207px" height="68px"
	 viewBox="0 0 207 68" enable-background="new 0 0 207 68" xml:space="preserve">
<title>plein c</title>
<desc>Created with Sketch.</desc>
<g>
	<path fill="#FFFFFF" d="M94.739,58.333c10.995-10.995,10.995-28.822,0-39.817L54.921,58.333
		C65.917,69.328,83.744,69.328,94.739,58.333z"/>
	<path fill="#FFFFFF" d="M54.346,17.939c-10.995,10.995-10.995,28.822,0,39.817l39.817-39.817
		C83.168,6.944,65.341,6.944,54.346,17.939z"/>
	<path fill="#FFFFFF" d="M154.454,58.333c10.995-10.995,10.995-28.822,0-39.817l-39.817,39.817
		C125.632,69.328,143.459,69.328,154.454,58.333z"/>
	<path fill="#FFFFFF" d="M122.754,9.246c-10.995,10.995-10.995,28.822,0,39.818l39.818-39.818
		C151.576-1.749,133.749-1.749,122.754,9.246z"/>
</g>
</svg>
