<?xml version="1.0" encoding="utf-8"?>
<!-- Generator: Adobe Illustrator 17.0.0, SVG Export Plug-In . SVG Version: 6.00 Build 0)  -->
<!DOCTYPE svg PUBLIC "-//W3C//DTD SVG 1.1//EN" "http://www.w3.org/Graphics/SVG/1.1/DTD/svg11.dtd">
<svg version="1.1" id="Layer_1" xmlns:sketch="http://www.bohemiancoding.com/sketch/ns"
	 xmlns="http://www.w3.org/2000/svg" xmlns:xlink="http://www.w3.org/1999/xlink" x="0px" y="0px" width="89.011px"
	 height="153.5px" viewBox="45.259 -45.25 89.011 153.5" enable-background="new 45.259 -45.25 89.011 153.5" xml:space="preserve">
<title>rode kruis</title>
<desc>Created with Sketch.</desc>
<g>
	<rect x="97.351" y="55.672" fill="#FFFFFF" width="1.682" height="4.669"/>
	<path fill="#FFFFFF" d="M90.092,30.384c-0.102,0.1,0.047,1.168,0.168,2.007c0.325,0.068,0.588,0.208,0.79,0.378
		c-0.083-0.752-0.158-1.593-0.225-2.211c-0.059-0.03-0.112-0.062-0.154-0.092C90.362,30.251,90.191,30.282,90.092,30.384z"/>
	<path fill="#FFFFFF" d="M91.05,32.769c0.086,0.777,0.179,1.458,0.277,1.706c0.143-0.231,0.234-0.491,0.234-0.788
		C91.561,33.43,91.392,33.056,91.05,32.769z"/>
	<path fill="#FFFFFF" d="M87.972,33.687c0,0.296,0.09,0.556,0.232,0.787c0.097-0.249,0.19-0.928,0.275-1.703
		C88.139,33.058,87.972,33.43,87.972,33.687z"/>
	<path fill="#FFFFFF" d="M66.51,49.731c-0.055-0.592-0.646-0.731-2.019-0.656C64.751,50.303,65.839,50.477,66.51,49.731z"/>
	<path fill="#FFFFFF" d="M89.275,32.391c0.118-0.839,0.268-1.907,0.165-2.007c-0.1-0.102-0.271-0.133-0.581,0.082
		c-0.043,0.03-0.095,0.061-0.155,0.092c-0.066,0.619-0.142,1.46-0.225,2.213C88.682,32.6,88.947,32.459,89.275,32.391z"/>
	<path fill="#FFFFFF" d="M88.704,57.2c0,0-0.058,0.41,0.292,0.718c0.751-0.52,1.736-0.418,1.569,0.549c0,0-0.165,0.205-1.092,0.205
		c0,0,0.04,0.333,0.124,0.436c0,0-0.216,0.256-0.068,0.505c0,0,0.827-0.413,1.277-0.295c0.19,0.462,0.02,1.072-1.306,1.287
		c-1.662,0.262-2.565,0.736-2.746,2.544c1.288-0.097,2.103,0.513,3.104,0.995c1.508,0.7,3.169-0.282,3.169-0.287
		c-0.364-0.328-0.451-1.292,0.148-1.744c0.318,0.61,0.995,0.682,1.431,0.364c0.049-0.033,0.041-0.082,0-0.108
		c-0.733-0.392-0.81-1.062-0.472-1.78c0.382,0.554,1.218,0.126,1.305-0.344c0.005-0.026-0.02-0.036-0.049-0.021
		c-0.562,0.174-0.821-0.438-0.821-0.861c0-0.369,0.285-1.71-0.321-2.621c0.172-0.292,1.231-0.749,1.564-0.805
		c0.1-0.015,0.105-0.098-0.007-0.146c-0.444-0.187-1.459,0.023-1.633-0.192c0,0-0.185-1.472-0.249-1.508
		c-0.064-0.036-1.38,0.651-1.38,0.651c-0.277-0.015-0.685-0.969-1.092-1.231c-0.103-0.062-0.169-0.01-0.123,0.079
		c0.144,0.305,0.369,1.436,0.231,1.746c-1.17-0.105-1.569,0.338-1.64,0.659c-0.283,0.074-1.387,0.695-1.387,0.921
		C88.534,56.988,88.6,57.149,88.704,57.2z M91.079,56.421c-0.364,0.713-0.857,0.757-1.227,0.369
		C89.831,56.544,90.317,56.375,91.079,56.421z"/>
	<path fill="#FFFFFF" d="M115.044,49.074c-1.377-0.074-1.967,0.064-2.021,0.656C113.689,50.477,114.782,50.303,115.044,49.074z"/>
	<path fill="#FFFFFF" d="M90.603,70.242c0.052-0.02,0.045-0.072-0.01-0.059c-0.473,0.095-1.103-0.646-0.468-1.42
		c-0.419-0.295-0.945-0.515-1.349-0.518c-1.841,0-3.222,2.013-3.482,2.298c-0.236,0.269-0.714,0.731-1.01,0.321
		c-0.037-0.051-0.055-0.046-0.055,0.018c0,0.831,0.672,0.836,0.937,0.684c0.023-0.015,0.041-0.01,0.036,0.026
		c-0.101,0.851,0.423,2.272,0.436,2.315c-0.073,0.08-0.848,0.816-1.396,0.816c-0.368,0-0.436-0.705-0.997-0.705
		c-0.174,0-0.347,0.087-0.526,0.277c-0.02,0.026-0.013,0.056,0.04,0.056c0.426,0.021,0.672,0.277,0.574,0.656
		c-0.524-0.439-1.321-0.369-1.305,0.636c0,0.046,0.037,0.064,0.067,0.026c0.369-0.539,0.955-0.144,1.01-0.09
		c-0.386,0.059-1.05,0.5-0.457,1.31c0.021,0.036,0.039,0.02,0.041-0.01c0.014-0.174,0.1-0.61,0.626-0.61
		c0.556,0,0.929,0.492,1.353-0.026c0.168,0.682,0.887,0.621,1.09,0.58c0.018,0,0.031-0.02,0.01-0.033
		c-0.32-0.21-0.428-0.439-0.428-0.608c0-0.446,0.906-0.98,1.187-0.98c0.27,0,0.362,0.277,0.865,0.277
		c0.218,0,0.478-0.087,0.704-0.359c0.035-0.036,0.022-0.056-0.026-0.041c-0.626,0.138-0.987-0.451-0.987-1.518
		C87.082,71.521,88.17,71.155,90.603,70.242z"/>
	<path fill="#FFFFFF" d="M100.392,62.552c0.018-0.126-0.179-0.182-0.246-0.018c-0.082,0.218-0.236,0.749-0.967,0.749
		c-0.615,0-1.682-0.313-2.41-0.313c-1.377,0-1.882,1.036-1.882,1.754c0,1.615,1.685,1.908,1.685,3.457
		c0,1.146-1.618,1.508-2.769,0.426c-0.292-1.344-0.554-2.313-1.308-3.428c-2.986,0.962-3.574-0.931-5.188-0.931
		c-1.355,0-3.124,2.426-4.545,2.762l0.199-1.433l0.158-0.031l-0.041-1.189c0,0-0.32,0.769-0.368,0.882
		c-0.04,0.092-0.092,0.087-0.123,0.015c-0.153-0.354-0.455-1.046-0.455-1.046s-0.018,0.941-0.021,1.143
		c-0.003,0.072-0.055,0.092-0.097,0.028l-0.717-1.044c0,0,0.173,0.813,0.27,1.251c0.01,0.062-0.04,0.082-0.085,0.041l-0.973-0.918
		c0,0,0.268,0.664,0.506,1.249c0.023,0.059-0.024,0.097-0.082,0.059c-0.178-0.123-1.068-0.718-1.068-0.718s0.419,0.61,0.727,1.067
		c0.035,0.046,0.008,0.103-0.065,0.077c-0.641-0.241-1.09-0.408-1.09-0.408s0.394,0.387,0.842,0.828
		c0.05,0.046,0.042,0.103-0.049,0.103c-0.174,0.005-0.988,0.01-0.988,0.01l1.106,0.482l0.078-0.115l0.95,0.244
		c-0.249,0.267-0.154,0.641-0.113,0.774c0.009,0.018,0.032,0.026,0.045,0.003c0.085-0.136,0.386-0.531,0.924-0.51
		c0.04,0,0.04,0.015,0.018,0.031c-0.186,0.092-0.785,0.459-0.582,1.185c0.008,0.031,0.042,0.036,0.058,0.01
		c0.233-0.328,0.667-0.484,0.837-0.536l-0.171,1.279c0.99,0.274,2.067-0.377,2.172-1.495l-1.109-0.254
		c1.19-0.867,2.795-1.451,4.286-1.451c2.358,0,3.87,2.543,3.87,4.056c0,0.382-0.041,0.938-0.33,1.359
		c-0.439,0.631-0.773,0.49-0.927,0.336c-0.04-0.044-0.067-0.034-0.05,0.028c0.194,0.82,1.256,0.79,1.385,0.374
		c0.033-0.108,0.082-0.069,0.092-0.031c0.544,1.951,2.977-0.133,4.226,2.359c-0.057,0.026-0.677,0.351-1.034,0.128
		c-0.707-0.454-1.09-0.005-1.218,0.303c-0.023,0.046,0,0.061,0.036,0.051c0.777-0.154,1.085,0.331,1.126,0.472
		c-0.59-0.251-1.408,0.041-1.031,1.036c0.018,0.051,0.051,0.051,0.07-0.005c0.254-0.692,0.843-0.444,0.902-0.41
		c-0.346,0.169-0.838,0.839,0.021,1.405c0.031,0.026,0.062,0.013,0.054-0.031c-0.085-0.492,0.156-0.859,0.516-0.859
		c0.202,0,0.72,0.016,0.974-0.592c0.341,0.59,1.043,0.369,1.374,0.246c0.054-0.021,0.056-0.07-0.01-0.087
		c-0.446-0.133-1.041-0.441-0.549-0.79c0,0,0.939,0.349,1.293-0.569c0.02-0.056,0.002-0.082-0.046-0.054
		c-0.049,0.026-0.98,0.516-1.195-0.367c-0.144-0.587-0.231-1.569-0.718-1.79c0.528-0.221,0.718-0.656,0.303-1.228
		c-0.028-0.039-0.079-0.095-0.082-0.003c-0.064,1.339-2.862,0.226-2.928-1.646c1.969,0.492,3.928,0.018,3.928-1.959
		c0-1.903-1.836-2.738-1.836-3.657c0-0.638,0.552-0.8,0.828-0.8c0.757,0,1.613,0.902,1.772,1.631
		c0.008,0.041,0.051,0.051,0.082,0.005c0.264-0.385,0.315-0.995,0.092-1.174c-0.057-0.044,0-0.123,0.077-0.072
		c0.185,0.126,1.669-0.005,1.669-1.026C100.476,62.913,100.369,62.703,100.392,62.552z"/>
	<rect x="89.766" y="76.24" fill="#FFFFFF" width="1.682" height="4.667"/>
	<path fill="#FFFFFF" d="M45.259-45.25v153.5h89.011v-153.5H45.259z M113.154,48.31c0.123-0.597,0.887-1.459,3.205-1.146
		c1.095,0.133,1.885-0.154,1.516-0.792c-0.064-0.108,0.133-0.128,0.238-0.023c0.251,0.254,0.602,0.972-0.356,1.451
		c-1.064,0.538-1.128,1.605-1.139,1.759c-0.018,0.226,0.256,0.246,0.315,0.021c0.492-1.8,2.949-2.185,4.408-1.231
		c-0.087,0.964-1.126,1.603-1.692,1.603c-0.328,0-0.78-0.328-0.78-0.774c0-0.218-0.11-0.192-0.177-0.023
		c-0.241,0.641,0.708,1.964,2.118,1.159c1.434,1.433,0.862,3.2,0.716,3.851c-0.254,1.169,0.315,2.303,1.372,1.774
		c0.051-0.026,0.105-0.046,0.105,0.082c0,0.733-0.956,1.564-2.087,0.933c-0.151,0.207-1.736,2.267,0.703,3.054
		c0.105,0.033,0.141,0.138-0.018,0.208c-1.803,0.754-2.675-0.631-2.675-0.631c-0.905,2.074,0.485,3.22,0.485,3.22
		c-0.197,0.377-1.059,1-2.364,1.29c-0.492-0.261-1.189-0.772-1.477-1.551c0,0-0.351,0.905-0.034,1.769
		c-3.677,0.334-4.977-2.605-7.811-2.077c-0.082,0.016-0.118-0.033-0.118-0.123c0-1.81,1.108-5.126,4.613-5.798
		c3.498-0.674,2.559-2.108,2.559-2.108c-1.477-0.069-2.328,0.572-2.328,0.572c-0.267-0.441,0.11-0.918,0.11-0.918
		c-0.138-0.169-0.22-0.769-0.22-0.769c1.662,0,2.097-0.359,2.097-0.359c0.257-0.985-0.431-2.374-2.893-0.887
		c-0.618-0.549-0.569-1.385-0.569-1.385c-0.187-0.085-0.303-0.379-0.303-0.505C110.674,49.546,112.646,48.441,113.154,48.31z
		 M107.436,51.746c0.056-0.208,0.177-0.156,0.205-0.018c0.131,0.554,0.813,0.872,1.528,0.872c0.89,0,1.08-0.308,2.482-0.308
		c0.125,0,0.995,0.003,0.995,0.182c0,0.182-0.405,0.09-0.995,0.187c-1.346,0.233-1.877,0.908-2.823,0.908
		C107.972,53.569,107.095,52.99,107.436,51.746z M87.346,30.174c0.058,0.267,0.317,0.531,0.781,0.531
		c0.223,0,0.425-0.069,0.577-0.147c0.06-0.557,0.112-0.934,0.155-0.903c0.31,0.215,0.481,0.181,0.581,0.078
		c0.062-0.062,0.099,1.756,0.069,3.125c0.083-0.042,0.171-0.065,0.256-0.065c0.084,0,0.171,0.023,0.255,0.066
		c-0.029-1.369,0.009-3.187,0.071-3.125c0.1,0.103,0.27,0.137,0.579-0.078c0.043-0.03,0.095,0.346,0.154,0.903
		c0.152,0.078,0.354,0.147,0.579,0.147c0.464,0,0.722-0.264,0.78-0.531c0.008-0.107,0.013-0.153,0.013-0.115
		c0,0.038-0.004,0.077-0.013,0.115c-0.058,0.736-0.316,4.403-0.78,4.403c-0.026,0-0.052-0.038-0.077-0.102
		c-0.366,0.591-1.083,0.979-1.561,1.234c-0.478-0.255-1.196-0.643-1.561-1.235c-0.025,0.065-0.051,0.103-0.077,0.103
		C87.664,34.577,87.405,30.91,87.346,30.174c-0.008-0.039-0.013-0.077-0.013-0.115C87.334,30.021,87.338,30.066,87.346,30.174z
		 M91.053,37.557c0,0.709-0.576,1.287-1.287,1.287c-0.712,0-1.29-0.578-1.29-1.287c0-0.714,0.578-1.286,1.29-1.286
		C90.477,36.272,91.053,36.843,91.053,37.557z M79.213,37.81c1.165,0,0.982,0.762,1.977,0.762c0.123,0,0.25-0.032,0.25,0.058
		c0,0.328-0.278,0.888-0.736,0.888c-0.609,0-0.622-0.61-1.077-0.61c-0.193,0-0.474,0.16-0.474,0.785c0,1.213,0.792,2.559,1.733,3.6
		c0.214-0.297,0.506-0.482,0.858-0.482c0.554,0,1.042,0.579,1.042,1.297c0,0.264-0.041,0.456-0.138,0.677
		c0.315,0.174,0.59,0.274,0.8,0.274c0.423,0,1.064-0.172,1.064-1.1c0-2.067-2.773-3.887-2.773-6.507
		c0-1.253,0.835-2.496,2.581-2.496c1.872,0,1.523,1.709,3.146,1.709c0.073,0,0.133,0.023,0.133,0.088
		c0,0.108-0.281,1.054-1.118,1.054c-0.901,0-1.153-1.55-1.946-1.55c-0.296,0-0.74,0.173-0.74,1.224c0,0.819,0.406,2.138,0.987,3.405
		c0.21-0.21,0.494-0.364,0.817-0.364c0.692,0,1.191,0.674,1.191,1.474c0,0.51-0.199,0.998-0.542,1.32
		c0.409,0.523,0.827,0.949,1.394,0.949c1.118,0,1.612-0.636,1.612-1.326c0-0.752-1.364-1.023-1.364-2.19
		c0-0.797,0.517-1.245,1.013-1.245c0.536,0,0.809,0.355,0.864,0.355c0.055,0,0.328-0.355,0.864-0.355
		c0.495,0,1.013,0.447,1.013,1.245c0,1.167-1.368,1.439-1.368,2.19c0,0.69,0.496,1.326,1.614,1.326c0.569,0,0.985-0.426,1.395-0.949
		c-0.344-0.323-0.546-0.81-0.546-1.32c0-0.8,0.5-1.474,1.195-1.474c0.323,0,0.608,0.154,0.815,0.364
		c0.584-1.267,0.987-2.586,0.987-3.405c0-1.052-0.444-1.224-0.738-1.224c-0.795,0-1.049,1.55-1.944,1.55
		c-0.841,0-1.123-0.946-1.123-1.054c0-0.065,0.062-0.088,0.136-0.088c1.621,0,1.269-1.709,3.146-1.709
		c1.746,0,2.58,1.244,2.58,2.496c0,2.619-2.77,4.44-2.77,6.507c0,0.928,0.639,1.1,1.062,1.1c0.208,0,0.485-0.1,0.8-0.274
		c-0.097-0.221-0.138-0.413-0.138-0.677c0-0.718,0.484-1.297,1.041-1.297c0.351,0,0.644,0.185,0.859,0.482
		c0.941-1.041,1.736-2.387,1.736-3.6c0-0.624-0.285-0.785-0.48-0.785c-0.454,0-0.466,0.61-1.074,0.61
		c-0.456,0-0.736-0.56-0.736-0.888c0-0.09,0.126-0.058,0.249-0.058c0.995,0,0.813-0.762,1.98-0.762c0.392,0,1.72,0.216,1.72,2.093
		c0,2.854-3.518,3.713-2.703,5.903c-1.492-0.218-1.474,1.236-1.503,3.841c0,0-2.913-0.984-8.069-0.984
		c-5.159,0-8.07,0.984-8.07,0.984c-0.028-2.605-0.01-4.059-1.504-3.841c0.817-2.19-2.703-3.049-2.703-5.903
		C77.49,38.025,78.819,37.81,79.213,37.81z M71.89,51.728c0.03-0.138,0.15-0.19,0.205,0.018c0.341,1.244-0.533,1.823-1.392,1.823
		c-0.945,0-1.476-0.674-2.822-0.908c-0.591-0.097-0.998-0.005-0.998-0.187c0-0.18,0.871-0.182,0.998-0.182
		c1.399,0,1.591,0.308,2.478,0.308C71.078,52.6,71.759,52.282,71.89,51.728z M56.634,55.939c1.056,0.528,1.628-0.605,1.371-1.774
		c-0.144-0.651-0.717-2.418,0.717-3.851c1.41,0.805,2.355-0.518,2.117-1.159c-0.065-0.169-0.176-0.195-0.176,0.023
		c0,0.446-0.454,0.774-0.78,0.774c-0.57,0-1.605-0.638-1.691-1.603c1.456-0.954,3.914-0.569,4.405,1.231
		c0.06,0.226,0.331,0.205,0.315-0.021c-0.008-0.154-0.073-1.221-1.137-1.759c-0.958-0.48-0.609-1.197-0.354-1.451
		c0.103-0.105,0.299-0.085,0.236,0.023c-0.371,0.638,0.42,0.926,1.518,0.792c2.315-0.313,3.082,0.548,3.203,1.146
		c0.508,0.131,2.48,1.236,2.48,1.646c0,0.126-0.115,0.42-0.3,0.505c0,0,0.045,0.836-0.569,1.385
		c-2.465-1.487-3.151-0.098-2.896,0.887c0,0,0.436,0.359,2.095,0.359c0,0-0.076,0.6-0.218,0.769c0,0,0.381,0.477,0.11,0.918
		c0,0-0.85-0.641-2.326-0.572c0,0-0.941,1.433,2.554,2.108c3.508,0.672,4.619,3.988,4.619,5.798c0,0.09-0.04,0.138-0.12,0.123
		c-2.833-0.528-4.133,2.411-7.809,2.077c0.32-0.864-0.035-1.769-0.035-1.769c-0.289,0.78-0.985,1.29-1.478,1.551
		c-1.308-0.29-2.165-0.913-2.363-1.29c0,0,1.388-1.146,0.483-3.22c0,0-0.872,1.384-2.671,0.631
		c-0.163-0.069-0.126-0.174-0.018-0.208c2.436-0.787,0.848-2.846,0.7-3.054c-1.128,0.631-2.09-0.2-2.09-0.933
		C56.526,55.893,56.581,55.913,56.634,55.939z M74.42,95.476c0,3.674-6.051,0.228-11.891-0.141c-4.85-0.318-6.205,0.918-6.205,0.918
		l0.891-4.903c0.047-0.264,1.095-1.02,4.44-1.02c4.023,0,6.039,0.769,6.777,1.031v2.574c0,0.585,0.294,0.872,0.74,1.051
		c0-0.215,0.671-1.672,5.249-1.672V95.476z M68.996,76.057c-0.643-0.554-3.476-1.626-5.033-2.223c-0.083-0.031-0.078-0.09,0-0.108
		c0.431-0.121,0.851-0.382,0.906-0.91c0.039-0.331-0.032-0.785-0.405-1.005c0.769-0.833,2.295-1.413,3.101-1.413
		c3.085,0,5.7,4.177,6.953,4.177c0.158,0,0.363-0.057,0.546-0.326c0.042-0.054,0.085-0.059,0.085,0.034
		c0,1.264-0.67,1.377-1.024,1.377c-0.203,0.003-0.42-0.064-0.573-0.151c-0.041-0.026-0.063-0.005-0.063,0.041
		c0,0.049,0.01,0.174,0.01,0.261c0,1.49-1.551,3.113-1.551,3.113c0.701,0.733,2.458,1.959,2.949,1.308
		c0.208-0.267,1.13-1.923,2.358-0.605c0.045,0.051,0.013,0.105-0.068,0.105c-0.696,0-1.235,0.474-1.048,1.187
		c0.998-0.795,2.373-0.664,2.373,1.169c0,0.072-0.073,0.087-0.108,0.036c-0.659-0.944-1.696-0.305-1.849-0.169
		c0.699,0.108,1.906,0.926,0.846,2.375c-0.048,0.067-0.09,0.051-0.095,0c-0.108-0.954-0.687-1.116-1.163-1.116
		c-0.974,0-1.686,0.895-2.43-0.054c-0.267,1.244-1.649,1.123-1.985,1.067c-0.042-0.008-0.047-0.039-0.018-0.062
		c0.433-0.282,0.772-0.672,0.772-1.103c0-0.769-1.476-1.782-2.182-1.782c-0.421,0-0.722,0.505-1.531,0.505
		c-0.421,0-0.909-0.172-1.31-0.677c-0.031-0.041-0.013-0.072,0.035-0.064c0.336,0.054,1.248,0.279,1.674-1.367
		C69.61,77.96,69.76,76.714,68.996,76.057z M69.56,93.001c-0.099,0.113-0.138-0.005-0.138-0.087l-0.003-4.988
		c0-1.454,9.852-2.3,20.347-2.3s20.349,0.846,20.349,2.3l-0.003,4.988c0,0.082-0.043,0.2-0.141,0.087
		c-1.252-1.42-10.801-1.913-20.206-1.913C80.36,91.089,70.81,91.581,69.56,93.001z M102.348,79.732
		c-0.085,0-0.113-0.054-0.072-0.105c1.231-1.318,2.151,0.339,2.359,0.605c0.49,0.651,2.247-0.574,2.952-1.308
		c0,0-1.554-1.623-1.554-3.113c0-0.087,0.01-0.213,0.01-0.261c0-0.046-0.02-0.067-0.064-0.041c-0.154,0.087-0.369,0.154-0.572,0.151
		c-0.354,0-1.023-0.113-1.023-1.377c0-0.092,0.044-0.087,0.082-0.034c0.185,0.269,0.39,0.326,0.544,0.326
		c1.254,0,3.872-4.177,6.957-4.177c0.803,0,2.331,0.579,3.1,1.413c-0.372,0.221-0.444,0.674-0.403,1.005
		c0.057,0.528,0.477,0.79,0.908,0.91c0.077,0.018,0.082,0.077,0,0.108c-1.559,0.597-4.392,1.669-5.036,2.223
		c-0.762,0.656-0.615,1.903-0.174,3.621c0.426,1.646,1.338,1.421,1.677,1.367c0.046-0.008,0.062,0.023,0.033,0.064
		c-0.405,0.505-0.892,0.677-1.31,0.677c-0.81,0-1.113-0.505-1.531-0.505c-0.708,0-2.182,1.013-2.182,1.782
		c0,0.431,0.339,0.821,0.774,1.103c0.026,0.023,0.021,0.054-0.02,0.062c-0.336,0.056-1.718,0.177-1.985-1.067
		c-0.744,0.949-1.456,0.054-2.431,0.054c-0.474,0-1.054,0.161-1.162,1.116c-0.008,0.051-0.049,0.067-0.092,0
		c-1.064-1.449,0.144-2.267,0.841-2.375c-0.151-0.136-1.187-0.774-1.843,0.169c-0.039,0.051-0.108,0.036-0.108-0.036
		c0-1.833,1.375-1.964,2.369-1.169C103.579,80.206,103.038,79.732,102.348,79.732z M117.005,95.335
		c-5.844,0.369-11.895,3.815-11.895,0.141v-2.162c4.58,0,5.249,1.456,5.249,1.672c0.446-0.18,0.744-0.467,0.744-1.051v-2.574
		c0.736-0.261,2.751-1.031,6.775-1.031c3.344,0,4.392,0.756,4.438,1.02l0.892,4.903C123.208,96.253,121.851,95.017,117.005,95.335z
		 M129.608,61.757c-0.603,0-1.175-0.174-1.357-0.285c-0.125-0.072-0.19,0.046-0.131,0.113c0.58,0.677,0.623,1.944,0.387,2.254
		c-0.059,0.074-0.128,0.051-0.141-0.005c-0.323-1.287-1.526-2.5-3.144-2.5c-1.982,0-1.972,1.687-1.972,2.092
		c0,2.436,4.277,4.226,4.277,7.572c0,3.397-3.59,4.126-5.67,3.587c0.123,3.4,4.018,4.559,4.134,2.128
		c0.007-0.118,0.095-0.146,0.159,0.01c0.492,1.2,0.295,2.257-1.221,2.593c-0.102,0.028-0.051,0.082,0.044,0.146
		c1.497,0.954,0.687,4.703,0.61,5.805c-0.113,1.59,1.469,1.4,1.6,1.354c0.064-0.023,0.125,0.007,0.026,0.133
		c-1.118,1.377-2.505,0.118-2.505,0.118c-1.044,0.328-0.395,1.221,0.302,1.69c0.108,0.074,0.097,0.144-0.018,0.151
		c-0.159,0.01-1.777,0.149-2.064-1.143c-0.721,0.856-1.772,0.544-1.992,0.431c-0.313-0.159-1.831-0.71-1.979,0.997
		c-0.01,0.121-0.082,0.041-0.131-0.023c-1.146-1.441,0.079-2.331,0.764-2.436c-0.056-0.077-0.974-0.841-1.8,0.215
		c-0.054,0.072-0.11,0.087-0.118-0.054c-0.097-1.831,1.392-1.998,2.352-1.2c0.049-0.19,0.369-1.218-1.085-1.182
		c-0.039,0-0.105-0.051-0.033-0.121c1.131-1.195,2.059-0.11,2.274,0.149c0.503,0.592,1.754,0.356,1.867,0.341
		c-0.39-6.354-5.99-4.103-6.759-7.19c-0.033-0.164-0.11-0.102-0.125-0.044c-0.21,0.754-2.108,0.859-2.457-0.623
		c-0.018-0.092-0.01-0.167,0.057-0.097c1.621,1.621,5.269-3.441,0.292-7.549c-4.251-3.508-8.064-1.554-9.51-0.4
		c-0.08,0.508,0.225,0.672,0.418,0.733c0.069,0.021,0.09,0.087-0.018,0.128c-0.405,0.154-0.977,0.108-1.246-0.272
		c-0.91,0.636-0.131,1.441,0.238,1.662c0.092,0.059,0.054,0.123-0.026,0.138c-0.836,0.149-1.528-0.708-1.559-1.2l-0.144,0.082v3.61
		c0,5.139-5.931,5.852-12.439,10.211c-6.509-4.359-12.442-5.072-12.442-10.211v-3.61l-0.138-0.082
		c-0.035,0.492-0.724,1.349-1.563,1.2c-0.078-0.015-0.118-0.079-0.026-0.138c0.37-0.221,1.153-1.026,0.238-1.662
		c-0.268,0.379-0.837,0.426-1.245,0.272c-0.11-0.041-0.086-0.108-0.018-0.128c0.195-0.062,0.496-0.226,0.42-0.733
		c-1.45-1.154-5.259-3.108-9.51,0.4c-4.981,4.108-1.331,9.17,0.288,7.549c0.065-0.069,0.079,0.005,0.058,0.097
		c-0.346,1.482-2.248,1.377-2.46,0.623c-0.013-0.059-0.086-0.12-0.123,0.044c-0.769,3.087-6.367,0.836-6.758,7.19
		c0.115,0.015,1.364,0.251,1.869-0.341c0.215-0.259,1.142-1.344,2.271-0.149c0.074,0.069,0.003,0.121-0.031,0.121
		c-1.453-0.036-1.132,0.992-1.087,1.182c0.96-0.798,2.45-0.631,2.355,1.2c-0.01,0.141-0.063,0.126-0.118,0.054
		c-0.828-1.057-1.746-0.292-1.801-0.215c0.682,0.105,1.912,0.995,0.764,2.436c-0.05,0.064-0.122,0.144-0.132,0.023
		c-0.149-1.708-1.667-1.156-1.977-0.997c-0.223,0.113-1.276,0.426-1.992-0.431c-0.29,1.292-1.909,1.154-2.064,1.143
		c-0.118-0.008-0.128-0.077-0.018-0.151c0.695-0.469,1.344-1.362,0.299-1.69c0,0-1.383,1.259-2.505-0.118
		c-0.099-0.126-0.036-0.156,0.029-0.133c0.128,0.046,1.709,0.236,1.596-1.354c-0.073-1.103-0.887-4.852,0.612-5.805
		c0.095-0.064,0.145-0.118,0.042-0.146c-1.515-0.336-1.709-1.393-1.218-2.593c0.065-0.156,0.146-0.128,0.158-0.01
		c0.118,2.431,4.009,1.272,4.132-2.128c-2.079,0.538-5.668-0.19-5.668-3.587c0-3.346,4.277-5.136,4.277-7.572
		c0-0.405,0.01-2.092-1.972-2.092c-1.618,0-2.821,1.213-3.144,2.5c-0.013,0.057-0.083,0.08-0.138,0.005
		c-0.24-0.31-0.192-1.577,0.386-2.254c0.058-0.067-0.008-0.185-0.132-0.113c-0.183,0.11-0.753,0.285-1.356,0.285
		c-1.332,0-2.046-0.733-2.046-1.949c0-0.759,0.265-1.141,0.16-1.392c-0.053-0.115,0.087-0.2,0.16-0.051
		c0.188,0.374,0.531,1.359,1.899,1.359c0.013,0,2.801,0.005,3.268,0.005c3.655,0,3.989,2.954,3.989,3.68
		c0,2.993-3.801,4.295-3.801,7.331c0,0.713,0.361,1.902,2.328,1.902c0.806,0,1.658-0.231,2.172-0.451c0,0,0.874-5.323,3.453-7.164
		c0,0,3.022,1.467,6.01-0.151c2.285-1.236,3.362-2.064,5.364-0.679c2.001,1.385,3.75,2.872,3.971,2.834l0.474-0.095V54.975
		c-0.926-0.1-0.992,0.733-0.95,0.954c0.053,0.277,0.358,0.492-0.278,1.441c-0.05,0.072-0.126,0.044-0.133-0.036
		c-0.024-0.241-0.148-0.646-0.47-0.646c-0.315,0-1.736,1.072-2.951,2.287c0,0-0.699-2.11-2.371-2.757
		c0.95-0.144,5.049-1.141,5.049-2.931c0-0.6,0.674-0.738,1.118-0.707c0.022-0.051,0.691-1.644,1.944-0.81
		c0.065,0.043,0.047,0.138-0.024,0.154c-0.554,0.128-0.787,0.703-0.81,1.323c0.451-0.138,1.456-0.428,2.862-0.736v3.813h1.683
		v-4.146c2.145-0.387,4.844-0.726,7.775-0.726c6.036,0,11.126,1.431,12.323,1.795c-0.025-0.62-0.262-1.195-0.815-1.323
		c-0.072-0.015-0.09-0.11-0.02-0.154c1.249-0.834,1.918,0.759,1.941,0.81c0.441-0.031,1.118,0.108,1.118,0.707
		c0,1.79,4.098,2.787,5.051,2.931c-1.674,0.646-2.374,2.757-2.374,2.757c-1.215-1.216-2.638-2.287-2.951-2.287
		c-0.323,0-0.446,0.405-0.472,0.646c-0.005,0.08-0.082,0.108-0.128,0.036c-0.638-0.949-0.331-1.164-0.282-1.441
		c0.044-0.221-0.023-1.054-0.951-0.954v11.959l0.48,0.095c0.218,0.038,1.967-1.449,3.967-2.834c2.005-1.385,3.079-0.556,5.364,0.679
		c2.99,1.618,6.01,0.151,6.01,0.151c2.58,1.841,3.457,7.164,3.457,7.164c0.51,0.221,1.361,0.451,2.169,0.451
		c1.967,0,2.328-1.19,2.328-1.902c0-3.036-3.803-4.339-3.803-7.331c0-0.726,0.333-3.68,3.987-3.68c0.469,0,3.256-0.005,3.269-0.005
		c1.369,0,1.71-0.984,1.902-1.359c0.072-0.149,0.213-0.064,0.159,0.051c-0.105,0.251,0.157,0.633,0.157,1.392
		C131.652,61.024,130.936,61.757,129.608,61.757z"/>
	<path fill="#FFFFFF" d="M86.885,57.898c-0.02-0.082-0.091-0.079-0.115,0.01c-0.191,0.697,0.318,1.174,0.791,1.174
		c0.714,0,0.767-0.518,1.887-0.661c0.098-0.013,0.1-0.141,0.013-0.167c-0.063-0.023-0.654-0.087-1.192,0.049
		C87.391,58.529,86.955,58.2,86.885,57.898z"/>
	<path fill="#FFFFFF" d="M80.355,60.693c0.146-0.041,0.696-0.195,0.922,0.046l-0.686,0.938c-0.15,0.205,0.57,0.728,0.717,0.528
		l0.901-1.23c0,0,2.899,1.556,3.623,2c0.042-0.605,0.26-1.166,0.609-1.631c-0.897-0.246-2.716-0.836-2.716-0.836
		c-0.086,0.138-0.393,0.264-0.604,0.264c-0.464,0-0.777-0.526-0.855-0.7c-0.01-0.021-0.005-0.033,0.023-0.021
		c0.123,0.056,0.446,0.197,0.546,0.064l0.368-0.508l0.819,0.382l0.383-0.538l-0.694-0.226l3.29-4.626
		c0.082-0.113,0.053-0.8,0.027-1.057c-0.253,0.054-0.914,0.246-0.995,0.359l-3.349,4.585l-0.436-0.59l-0.389,0.538l0.623,0.651
		l-0.31,0.423c-0.706-0.418-1.336,0.092-1.546,0.318c-0.022,0.023-0.013,0.033,0.01,0.028c0.203-0.056,0.979-0.221,0.977,0.297
		c-0.854-0.254-1.195,0.313-1.282,0.498C80.315,60.688,80.333,60.698,80.355,60.693z"/>
	<path fill="#FFFFFF" d="M92.184,30.174c0.008-0.039,0.013-0.077,0.013-0.115C92.197,30.021,92.192,30.066,92.184,30.174z"/>
	<path fill="#FFFFFF" d="M87.334,30.058c0,0.038,0.004,0.077,0.013,0.115C87.338,30.066,87.334,30.021,87.334,30.058z"/>
</g>
</svg>
