<?xml version="1.0" encoding="UTF-8"?>
<svg xmlns="http://www.w3.org/2000/svg" width="130" height="110" viewBox="0 0 130 110">
    <path fill="#161F1C" d="M66.588 110c-.26 0-.52-.067-.75-.202L15.4 80.575c-.462-.268-.747-.76-.747-1.296v-2.556c-3.536-.39-6.747-1.378-9.353-2.882C1.643 71.732-.39 68.84-.425 65.7l-.002-4.266c0-.03 0-.06.003-.09 0-.336.038-.656.07-.9-.004-.02.003-.105.017-.19.05-.32.128-.655.24-1.018.01-.048.026-.104.038-.138.333-1.02.89-2 1.655-2.913L4.318 37.18c.003-.073.01-.15.017-.228l.35-12.392c0-.02 0-.04.002-.058.018-2.332 1.494-4.467 4.165-6.008 2.428-1.4 5.63-2.173 9.012-2.173 3.41 0 6.644.783 9.104 2.204 2.648 1.53 4.14 3.64 4.21 5.953.004.042.006.085.006.126l.368 12.62.235 1.64 2.578-17.99c.003-.075.008-.147.015-.22l.354-12.413v-.005c-.004-2.352 1.473-4.508 4.164-6.062C41.325.773 44.525 0 47.908 0c3.413 0 6.647.782 9.11 2.203 2.66 1.535 4.152 3.656 4.212 5.98.002.033.003.067.003.1l.368 12.624 1.81 12.614.378-.224c.467-.277 1.05-.28 1.517-.01l2.293 1.33c1.07-1.64 2.625-3.123 4.643-4.428 4.1-3.975 10.634-6.345 17.52-6.345h.01c7.124 0 13.785 2.492 17.86 6.675l.37.254c.447.32.882.66 1.292 1.013l.207.18c.42.374.784.73 1.11 1.083l.096.11c.332.373.63.742.898 1.113l.116.156c.25.357.483.738.71 1.16l.145.28c.2.397.368.792.503 1.177.026.074.05.15.075.23.153.484.25.86.315 1.22l.043.257c.056.353.09.723.1 1.125.006.16.01.255.008.35-.004.384-.034.783-.09 1.182l-.06.362-.018.107v2.042c.835-.12 1.677-.18 2.52-.18 4.278 0 8.288 1.5 10.772 4.02.064.043.128.086.188.13.112.08.213.16.312.24l.09.073c.19.15.38.302.556.46.13.117.247.234.364.353.17.17.318.328.456.49.112.13.216.26.316.39.134.176.252.35.364.525.104.165.176.28.24.398.117.212.212.42.3.628.07.16.115.262.15.365.112.312.2.642.26.967.067.39.093.74.09 1.097 0 .086-.01.19-.02.292-.017.242-.04.46-.076.676v8.963c0 3.28-1.485 5.797-4.413 7.486-2.548 1.47-5.884 2.306-9.43 2.368v6.558c0 .532-.284 1.025-.743 1.293l-48.403 28.285c-.233.137-.494.205-.756.205zm-48.94-31.584l48.937 28.354 46.91-27.412V72.14c0-.41.167-.8.463-1.083.295-.284.68-.43 1.105-.412 3.514.163 6.928-.544 9.36-1.947 2.016-1.163 2.915-2.67 2.915-4.892v-9.06c0-.065.004-.13.013-.194.007-.07.017-.14.03-.207.02-.105.03-.223.037-.342 0-.02.01-.12.013-.14.005-.194-.005-.352-.028-.5l-.018-.1c-.023-.122-.07-.29-.13-.456l-.087-.197c-.05-.12-.1-.234-.162-.35-.033-.058-.075-.122-.116-.186-.097-.15-.172-.262-.254-.37-.06-.08-.13-.165-.2-.248-.094-.108-.196-.215-.3-.322-.092-.09-.17-.17-.255-.25-.123-.11-.26-.22-.4-.328l-.12-.097c-.057-.047-.113-.094-.175-.138l-.24-.16c-.092-.06-.175-.13-.25-.21-1.92-2.015-5.18-3.22-8.724-3.22-1.23 0-2.458.155-3.647.458-.447.114-.923.016-1.29-.27-.364-.282-.577-.72-.577-1.18v-3.996c0-.102.01-.204.03-.304l.075-.456c.04-.263.06-.526.062-.79l-.004-.148c-.01-.334-.03-.59-.07-.843l-.028-.174c-.047-.26-.118-.522-.2-.783l-.065-.204c-.097-.272-.216-.552-.358-.835l-.106-.203c-.172-.32-.344-.603-.528-.867l-.076-.1c-.218-.302-.447-.585-.698-.865l-.07-.08c-.27-.295-.563-.58-.913-.89l-.165-.147c-.342-.294-.705-.58-1.078-.845l-.437-.3c-.09-.06-.175-.13-.25-.21-3.513-3.672-9.424-5.864-15.814-5.864-6.18.002-11.986 2.093-15.528 5.594-.076.075-.16.14-.25.198-2.138 1.36-3.678 2.974-4.456 4.67-.175.383-.505.675-.908.803-.404.13-.84.08-1.204-.13l-2.85-1.653-1.55.925c-.43.256-.96.28-1.413.065-.45-.215-.765-.643-.836-1.14l-2.142-14.926c-.005-.033-.008-.067-.01-.1-.004-.046-.007-.094-.007-.136v-.056l-.365-12.57c-.002-.035-.004-.07-.004-.106-.017-1.232-.98-2.474-2.717-3.475-1.984-1.146-4.76-1.802-7.61-1.802-2.868 0-5.536.63-7.515 1.77-1.73 1-2.678 2.242-2.666 3.497 0 .04-.002.078-.005.118l-.367 12.547v.06c0 .07-.004.142-.014.213l-2.8 19.533c-.042.302-.176.583-.384.806l-.054.054c-.084.096-.157.194-.232.29l-.315.397c-.05.07-.088.142-.128.213l-.208.348c-.033.053-.067.103-.094.156-.027.055-.048.113-.07.17l-.15.36c-.025.058-.053.114-.072.172-.02.058-.03.117-.042.174l-.09.37c-.012.05-.028.1-.037.15-.013.073-.013.14-.017.21l-.01.168-.008.113c-.07.756-.7 1.398-1.458 1.416-.787.04-1.416-.476-1.524-1.226l-1.08-7.515-.01-.103c-.004-.047-.006-.098-.006-.14v-.046l-.366-12.558c-.003-.044-.005-.09-.005-.132-.02-1.225-.985-2.465-2.716-3.465-2.012-1.162-4.714-1.802-7.607-1.802-2.866 0-5.535.63-7.516 1.772-1.73.998-2.678 2.24-2.667 3.493 0 .042 0 .084-.004.126l-.36 12.538c0 .09-.01.192-.024.28L4.496 57.05c-.043.297-.175.576-.378.798-.627.683-1.07 1.4-1.316 2.13l-.026.098c-.068.217-.122.43-.155.643.008-.03.003.044-.005.108-.025.193-.046.385-.044.578v.07l-.002 4.205c.024 2.023 1.526 4.006 4.23 5.567 2.513 1.45 5.87 2.377 9.45 2.61.788.05 1.4.704 1.4 1.494v3.066z"/>
    <path fill="none" d="M115.972 45.237"/>
    <linearGradient id="a" gradientUnits="userSpaceOnUse" x1="-151.596" y1="165.358" x2="-106.877" y2="165.358" gradientTransform="matrix(1 0 0 -1 219 213.5)">
        <stop offset="0" stop-color="#F9F6E7"/>
        <stop offset="1" stop-color="#B19C92"/>
    </linearGradient>
    <path fill="url(#a)" d="M111.95 41.746c.826-3.826-1.313-7.837-6.42-10.786-8.76-5.06-22.92-5.084-31.627-.058-4.37 2.524-6.533 5.84-6.497 9.157h-.002v16.163h.002c.036 3.29 2.236 6.583 6.6 9.1 8.758 5.057 22.917 5.083 31.623.057 5.038-2.91 7.14-6.874 6.32-10.68V41.746z"/>
    <path fill="#F9F6E7" d="M105.625 49.22c-8.705 5.025-22.865 5-31.626-.058s-8.806-13.232-.1-18.26 22.866-5 31.627.058 8.805 13.23.098 18.26z"/>
    <linearGradient id="b" gradientUnits="userSpaceOnUse" x1="-115.988" y1="154.273" x2="-90.068" y2="154.273" gradientTransform="matrix(1 0 0 -1 219 213.5)">
        <stop offset="0" stop-color="#F9F6E7"/>
        <stop offset="1" stop-color="#B19C92"/>
    </linearGradient>
    <path fill="url(#b)" d="M128.83 54.744c.48-2.218-.76-4.542-3.72-6.25-5.078-2.933-13.285-2.948-18.332-.034-2.534 1.462-3.788 3.384-3.767 5.307v10.92-1.55c.02 1.907 1.297 5.365 3.824 6.824 5.078 2.933 13.285 2.946 18.332.034 2.92-1.685 3.664-3.967 3.664-6.19v-9.06z"/>
    <path fill="#F9F6E7" d="M104.186 48.387c-7.917 4.57-20.79 4.547-28.756-.052s-8.006-12.03-.09-16.602 20.79-4.547 28.756.052 8.006 12.032.09 16.602z"/>
    <linearGradient id="c" gradientUnits="userSpaceOnUse" x1="-217.933" y1="149.943" x2="-184.207" y2="149.943" gradientTransform="matrix(1 0 0 -1 219 213.5)">
        <stop offset="0" stop-color="#F9F6E7"/>
        <stop offset="1" stop-color="#B19C92"/>
    </linearGradient>
    <path fill="url(#c)" d="M34.662 62.703c.624-2.885-.988-5.91-4.842-8.134-6.607-3.814-17.286-3.834-23.85-.044-3.297 1.902-4.93 4.404-4.9 6.906h-.003v4.25h.002c.026 2.482 1.684 4.965 4.975 6.863 6.607 3.813 17.286 3.833 23.85.043 3.8-2.194 5.385-5.184 4.768-8.053v-1.832z"/>
    <path fill="#F9F6E7" d="M29.895 68.337c-6.566 3.792-17.244 3.774-23.85-.042-6.605-3.815-6.643-9.98-.076-13.77 6.564-3.792 17.242-3.773 23.848.042 6.607 3.814 6.64 9.98.075 13.77h.002z"/>
    <linearGradient id="d" gradientUnits="userSpaceOnUse" x1="-216.646" y1="163.138" x2="-185.488" y2="163.138" gradientTransform="matrix(1 0 0 -1 219 213.5)">
        <stop offset="0" stop-color="#F9F6E7"/>
        <stop offset="1" stop-color="#B19C92"/>
    </linearGradient>
    <path fill="url(#d)" d="M33.51 61.432v-.014c-.007-.45-.07-.896-.193-1.34l-3.262-22.73c.002-1.8-1.188-3.605-3.577-4.985-4.75-2.742-12.425-2.755-17.145-.03-2.37 1.368-3.542 3.165-3.522 4.964l-3.233 22.57c-.15.515-.228 1.036-.223 1.557v.008c.025 2.292 1.557 4.585 4.596 6.34 6.104 3.523 15.968 3.54 22.032.04 3.045-1.758 4.553-4.068 4.53-6.38z"/>
    <linearGradient id="e" gradientUnits="userSpaceOnUse" x1="-213.191" y1="182.116" x2="-188.946" y2="182.116" gradientTransform="matrix(1 0 0 -1 219 213.5)">
        <stop offset="0" stop-color="#F9F6E7"/>
        <stop offset="1" stop-color="#B19C92"/>
    </linearGradient>
    <path fill="url(#e)" d="M30.054 37.298l-.37-12.696c-.016-1.562-2.195-3.125-4.267-4.32-4.16-2.403-10.88-2.415-15.016-.028-2.075 1.198-4.237 2.773-4.22 4.348h-.002l-.347 12.39c-.005.097-.02.195-.02.293v.012c.02 1.784 1.212 3.57 3.577 4.934 4.75 2.742 12.425 2.756 17.145.03 2.37-1.367 3.54-3.164 3.522-4.963z"/>
    <path fill="#F9F6E7" d="M26.268 29.414c-4.575 2.642-12.017 2.63-16.622-.03-4.602-2.657-4.626-6.953-.05-9.594s12.016-2.63 16.62.03 4.628 6.953.052 9.594z"/>
    <linearGradient id="f" gradientUnits="userSpaceOnUse" x1="664.894" y1="351.48" x2="681.759" y2="351.48" gradientTransform="matrix(.866 .5 1 -.5774 -916.648 -109.117)">
        <stop offset="0" stop-color="#E5DBD1"/>
        <stop offset="1" stop-color="#656458"/>
    </linearGradient>
    <path fill="url(#f)" d="M25.235 28.818c-4.008 2.314-10.527 2.302-14.56-.026s-4.053-6.093-.046-8.406 10.526-2.303 14.56.025 4.054 6.094.046 8.407z"/>
    <linearGradient id="g" gradientUnits="userSpaceOnUse" x1="-187.884" y1="166.263" x2="-154.159" y2="166.263" gradientTransform="matrix(1 0 0 -1 219 213.5)">
        <stop offset="0" stop-color="#F9F6E7"/>
        <stop offset="1" stop-color="#B19C92"/>
    </linearGradient>
    <path fill="url(#g)" d="M64.71 46.383c.624-2.885-.99-5.91-4.84-8.134-6.61-3.814-17.288-3.834-23.852-.044-3.296 1.903-4.928 4.404-4.902 6.906v4.25c.028 2.482 1.687 4.965 4.977 6.863 6.607 3.813 17.286 3.833 23.85.043 3.8-2.194 5.385-5.184 4.768-8.053v-1.832z"/>
    <path fill="#F9F6E7" d="M59.943 52.02c-6.566 3.79-17.244 3.77-23.85-.044-6.605-3.814-6.64-9.98-.075-13.77 6.566-3.79 17.244-3.772 23.85.043 6.605 3.814 6.64 9.98.075 13.77z"/>
    <linearGradient id="h" gradientUnits="userSpaceOnUse" x1="-186.597" y1="179.456" x2="-155.441" y2="179.456" gradientTransform="matrix(1 0 0 -1 219 213.5)">
        <stop offset="0" stop-color="#F9F6E7"/>
        <stop offset="1" stop-color="#B19C92"/>
    </linearGradient>
    <path fill="url(#h)" d="M63.56 45.113l-.003-.014c-.006-.448-.07-.896-.192-1.34l-3.262-22.73c.002-1.8-1.188-3.606-3.577-4.985-4.748-2.743-12.424-2.757-17.144-.032-2.37 1.368-3.542 3.167-3.522 4.965L32.625 43.55c-.15.515-.228 1.036-.223 1.557v.008c.025 2.292 1.557 4.585 4.596 6.34 6.104 3.523 15.968 3.54 22.032.04 3.045-1.758 4.552-4.068 4.527-6.38v-.002z"/>
    <linearGradient id="i" gradientUnits="userSpaceOnUse" x1="-183.142" y1="198.435" x2="-158.897" y2="198.435" gradientTransform="matrix(1 0 0 -1 219 213.5)">
        <stop offset="0" stop-color="#F9F6E7"/>
        <stop offset="1" stop-color="#B19C92"/>
    </linearGradient>
    <path fill="url(#i)" d="M60.102 20.978l-.37-12.695c-.017-1.562-2.196-3.125-4.268-4.32-4.158-2.403-10.88-2.415-15.014-.028-2.076 1.198-4.24 2.773-4.223 4.348l-.35 12.39c-.004.097-.02.195-.02.293v.012c.02 1.784 1.213 3.57 3.578 4.934 4.75 2.742 12.426 2.755 17.146.03 2.37-1.368 3.542-3.165 3.522-4.964z"/>
    <path fill="#F9F6E7" d="M56.315 13.095c-4.574 2.64-12.016 2.63-16.62-.03s-4.627-6.954-.052-9.596S51.66.84 56.265 3.5s4.626 6.954.05 9.595z"/>
    <linearGradient id="j" gradientUnits="userSpaceOnUse" x1="665.924" y1="380.635" x2="682.789" y2="380.635" gradientTransform="matrix(.866 .5 1 -.5774 -916.648 -109.117)">
        <stop offset="0" stop-color="#E5DBD1"/>
        <stop offset="1" stop-color="#656458"/>
    </linearGradient>
    <path fill="url(#j)" d="M55.283 12.498c-4.01 2.314-10.528 2.302-14.56-.026s-4.054-6.093-.046-8.406 10.527-2.303 14.56.025 4.053 6.094.046 8.408z"/>
    <path fill="#F9F6E7" d="M96.956 74.557L46.52 45.333 64.552 34.58l50.438 29.226"/>
    <path fill="#E7D7C7" d="M66.586 108.503L16.148 79.28V62.866l50.438 29.225"/>
    <path fill="#F9F6E7" d="M66.586 92.092L16.148 62.867l5.582-3.222L72.168 88.87"/>
    <path fill="#E7D7C7" d="M72.168 88.87l-50.5-29.12-.015-7.45L72.15 81.42"/>
    <path fill="#F9F6E7" d="M72.15 81.42L21.715 52.194l24.788-14.313 50.44 29.224"/>
    <path fill="#F6E438" d="M82.626 66.85L36.153 40.138 25.83 52.3l46.472 26.715"/>
    <path fill="#EACC75" d="M92.95 66.846L46.477 40.13l-10.322.007 46.47 26.714"/>
    <path fill="#BFABA7" d="M92.95 66.846L72.303 79.013 82.625 66.85m14.324 7.712l-.01-7.455L72.15 81.42l.017 7.45-5.582 3.225v16.41l48.403-28.287V63.805"/>
    <path fill="#DBD7C6" d="M52.953 41.61l4.17-2.39 50.226 29.14-10.393 6.197-.008-7.454"/>
    <linearGradient id="k" gradientUnits="userSpaceOnUse" x1="-149.575" y1="175.16" x2="-108.905" y2="175.16" gradientTransform="matrix(1 0 0 -1 219 213.5)">
        <stop offset="0" stop-color="#F6E45D"/>
        <stop offset="1" stop-color="#EEB133"/>
    </linearGradient>
    <path fill="url(#k)" d="M89.76 25.34c-11.23 0-20.335 6.385-20.335 14.263h.006c.034 2.992 2.034 5.985 6 8.276 7.965 4.597 20.84 4.62 28.756.05 3.704-2.137 5.665-4.903 5.888-7.71.012-.198.02-.395.02-.594l.002-.023c0-7.88-9.104-14.264-20.335-14.264z"/>
    <path fill="#F9F6E7" d="M125.166 59.076c-5.046 2.913-13.252 2.898-18.33-.033-5.08-2.93-5.104-7.67-.058-10.582 5.045-2.914 13.25-2.898 18.33.033 5.076 2.93 5.102 7.67.058 10.583z"/>
    <path fill="#F9F6E7" d="M124.33 58.594c-4.587 2.65-12.048 2.636-16.667-.03-4.617-2.665-4.64-6.973-.052-9.622 4.59-2.648 12.05-2.636 16.67.03 4.616 2.665 4.64 6.973.05 9.624v-.002z"/>
    <path fill="#F9F6E7" d="M93.936 52.58c.17.044 12.206-4.082 12.206-4.082l-1.404 1.87-.723 4.202 1.657 3.242 3.688 1.565-2.75-.332-1.318 1.527-11.356-7.99z"/>
    <linearGradient id="l" gradientUnits="userSpaceOnUse" x1="-114.817" y1="160.728" x2="-91.246" y2="160.728" gradientTransform="matrix(1 0 0 -1 219 213.5)">
        <stop offset="0" stop-color="#F6E45D"/>
        <stop offset="1" stop-color="#EEB133"/>
    </linearGradient>
    <path fill="url(#l)" d="M115.97 45.237c-6.51 0-11.788 3.7-11.788 8.266h.003c.02 1.734 1.178 3.47 3.477 4.796 4.617 2.664 12.08 2.678 16.668.03 2.146-1.24 3.284-2.843 3.414-4.47.006-.114.01-.23.01-.344v-.012c.002-4.568-5.276-8.267-11.785-8.267z"/>
</svg>