<?xml version="1.0" encoding="utf-8"?>
<!-- Generator: Adobe Illustrator 17.0.0, SVG Export Plug-In . SVG Version: 6.00 Build 0)  -->
<!DOCTYPE svg PUBLIC "-//W3C//DTD SVG 1.1//EN" "http://www.w3.org/Graphics/SVG/1.1/DTD/svg11.dtd">
<svg version="1.1" id="Layer_1" xmlns:sketch="http://www.bohemiancoding.com/sketch/ns"
	 xmlns="http://www.w3.org/2000/svg" xmlns:xlink="http://www.w3.org/1999/xlink" x="0px" y="0px" width="179.674px"
	 height="147.398px" viewBox="15.85 -86.191 179.674 147.398" enable-background="new 15.85 -86.191 179.674 147.398"
	 xml:space="preserve">
<title>plein c</title>
<desc>Created with Sketch.</desc>
<g>
	<path fill="#FFFFFF" d="M15.85-0.444c0-12.772,0-25.428,0-38.288c0.881,0,1.707-0.061,2.521,0.015
		c1.022,0.096,1.268-0.329,1.257-1.292c-0.045-4.149-0.019-8.299-0.02-12.449c0-0.479,0-0.958,0-1.62c2.594,0,5.076,0,7.711,0
		c0-2.634,0-5.086,0-7.645c1.313,0,2.472,0,3.776,0c0,2.486,0,4.941,0,7.593c2.619,0,5.103,0,7.726,0c0,1.598,0,3,0,4.402
		c0.001,3.223,0.039,6.446-0.02,9.668c-0.019,1.036,0.275,1.456,1.339,1.344c0.739-0.077,1.493-0.015,2.452-0.015
		c0,2.554,0,5.036,0,7.609c5.3,0,10.388,0,15.63,0c0-2.501,0-4.95,0-7.562c1.266,0,2.388,0,3.673,0c0-2.603,0-5.047,0-7.611
		c3.876,0,7.588,0,11.478,0c0,2.059,0.062,4.079-0.024,6.093c-0.049,1.151,0.279,1.632,1.475,1.488
		c0.731-0.089,1.481-0.016,2.314-0.016c0,12.823,0,25.51,0,38.288C56.729-0.444,36.36-0.444,15.85-0.444z M65.817-11.921
		c-1.207,0-2.248-0.038-3.281,0.03c-0.219,0.014-0.575,0.405-0.59,0.639c-0.065,1.032-0.028,2.071-0.028,3.25
		c1.203,0,2.244,0.038,3.278-0.03c0.22-0.014,0.578-0.403,0.593-0.637C65.854-9.702,65.817-10.742,65.817-11.921z M23.424-11.923
		c-1.119,0-2.162-0.037-3.199,0.029c-0.226,0.015-0.571,0.375-0.619,0.623c-0.563,2.874-0.18,3.321,2.736,3.278
		c0.339-0.005,0.677-0.057,1.083-0.093C23.424-9.363,23.424-10.565,23.424-11.923z M69.639-31.067c1.124,0,2.086,0.046,3.038-0.028
		c0.286-0.022,0.762-0.366,0.779-0.592c0.083-1.068,0.037-2.146,0.037-3.195c-1.431,0-2.631,0-3.854,0
		C69.639-33.594,69.639-32.424,69.639-31.067z M61.913-34.926c0,1.133-0.047,2.104,0.03,3.064c0.022,0.278,0.385,0.735,0.62,0.754
		c1.034,0.083,2.079,0.036,3.157,0.036c0-1.399,0-2.605,0-3.854C64.439-34.926,63.267-34.926,61.913-34.926z M34.962-34.826
		c0,1.027-0.047,2.029,0.032,3.02c0.021,0.262,0.416,0.684,0.665,0.704c1.027,0.08,2.063,0.034,3.06,0.034
		c0.595-3.81,0.277-4.164-3.292-3.908C35.343-34.971,35.261-34.925,34.962-34.826z M31.125-34.927c-1.314,0-2.483,0-3.833,0
		c0,1.113-0.038,2.16,0.029,3.2c0.015,0.231,0.389,0.611,0.618,0.626c1.037,0.068,2.081,0.03,3.186,0.03
		C31.125-32.437,31.125-33.61,31.125-34.927z M23.446-34.897c-1.341,0-2.538,0-3.867,0c0,1.1-0.048,2.104,0.032,3.097
		c0.021,0.26,0.424,0.677,0.677,0.697c1.028,0.08,2.067,0.033,3.158,0.033C23.446-32.438,23.446-33.607,23.446-34.897z
		 M38.795-15.708c0-1.407,0-2.578,0-3.818c-1.285,0-2.486,0-3.833,0c0,1.095-0.048,2.102,0.033,3.099
		c0.021,0.257,0.433,0.665,0.692,0.686C36.684-15.66,37.69-15.708,38.795-15.708z M65.66-19.516c-1.23,0-2.432,0-3.631,0
		c0,1.307,0,2.506,0,3.696c4.585,0.207,3.768,0.708,3.736-3.442C65.765-19.301,65.734-19.341,65.66-19.516z M23.411-15.708
		c0-1.365,0-2.568,0-3.809c-1.299,0-2.501,0-3.836,0c0,1.065-0.058,2.033,0.035,2.986c0.029,0.295,0.451,0.759,0.727,0.785
		C21.331-15.65,22.34-15.708,23.411-15.708z M27.275-46.503c0-1.308,0-2.511,0-3.722c-1.314,0-2.517,0-3.736,0
		c0,1.292,0,2.464,0,3.722C24.787-46.503,25.959-46.503,27.275-46.503z M23.525-38.737c1.114,0,2.077,0.036,3.034-0.023
		c0.274-0.017,0.745-0.294,0.761-0.482c0.079-0.962,0.071-1.935,0.01-2.899c-0.012-0.181-0.397-0.473-0.622-0.484
		c-1.038-0.052-2.08-0.023-3.182-0.023C23.525-41.289,23.525-40.116,23.525-38.737z M69.549-42.649c-1.151,0-2.158-0.029-3.16,0.022
		c-0.229,0.012-0.624,0.291-0.635,0.467c-0.064,0.964-0.066,1.936-0.006,2.9c0.012,0.184,0.393,0.482,0.615,0.494
		c1.037,0.053,2.079,0.023,3.186,0.023C69.549-40.103,69.549-41.273,69.549-42.649z M23.434-27.29c-1.146,0-2.153-0.029-3.157,0.022
		c-0.232,0.012-0.632,0.287-0.644,0.462c-0.066,0.965-0.068,1.939-0.008,2.905c0.011,0.185,0.392,0.483,0.615,0.494
		c1.04,0.053,2.084,0.023,3.195,0.023C23.434-24.734,23.434-25.906,23.434-27.29z M31.181-27.192c-1.358,0-2.553,0-3.787,0
		c0,1.307,0,2.508,0,3.816c1.073,0,2.037,0.047,2.992-0.029c0.279-0.022,0.741-0.377,0.759-0.607
		C31.228-25.047,31.181-26.092,31.181-27.192z M38.721-23.447c0.599-3.644,0.28-4.061-2.819-3.849
		c-0.044,0.003-0.105-0.016-0.129,0.006c-0.274,0.251-0.739,0.479-0.782,0.768c-0.448,2.974-0.229,3.205,2.751,3.147
		C38.044-23.381,38.346-23.418,38.721-23.447z M65.642-23.441c0.688-3.577,0.333-4.05-2.773-3.855
		c-0.044,0.003-0.107-0.017-0.129,0.005c-0.279,0.288-0.792,0.582-0.791,0.873c0.007,3.763-0.572,2.942,2.848,3.04
		C65.057-23.37,65.319-23.415,65.642-23.441z M69.651-23.372c0.991,0,1.867-0.046,2.735,0.013c0.877,0.059,1.155-0.293,1.131-1.146
		c-0.093-3.346,0.482-2.72-2.775-2.786c-0.339-0.007-0.68,0.062-1.092,0.103C69.651-25.946,69.651-24.773,69.651-23.372z
		 M31.068-15.784c0-1.353,0-2.555,0-3.836c-1.042,0-1.964,0.03-2.883-0.01c-0.706-0.031-0.922,0.287-0.91,0.943
		c0.07,3.674-0.475,2.886,2.829,2.979C30.403-15.698,30.703-15.753,31.068-15.784z M69.656-15.802c1.289,0,2.492,0,3.739,0
		c0-1.305,0-2.509,0-3.703c-1.321,0-2.528,0-3.739,0C69.656-18.214,69.656-17.042,69.656-15.802z M27.385-11.885
		c0,1.352,0,2.559,0,3.779c1.311,0,2.515,0,3.682,0c0-1.326,0-2.532,0-3.779C29.804-11.885,28.665-11.885,27.385-11.885z
		 M36.932-11.93c-2.107,0.028-1.978-0.294-1.974,1.827c0.005,2.367-0.226,2.11,1.819,2.108c2.398-0.002,2.09,0.266,2.096-1.953
		C38.878-12.181,39.119-11.906,36.932-11.93z M69.632-8.098c1.345,0,2.541,0,3.767,0c0-1.31,0-2.51,0-3.729
		c-1.309,0-2.508,0-3.767,0C69.632-10.554,69.632-9.384,69.632-8.098z M50.402-19.567c0,1.13-0.047,2.132,0.032,3.125
		c0.021,0.26,0.417,0.669,0.674,0.698c0.822,0.09,1.663,0.066,2.491,0.01c0.229-0.016,0.62-0.291,0.629-0.464
		c0.057-1.11,0.029-2.225,0.029-3.369C52.898-19.567,51.771-19.567,50.402-19.567z M54.165-23.454c0-1.336,0-2.531,0-3.839
		c-1.071,0-2.03-0.048-2.98,0.03c-0.273,0.022-0.693,0.37-0.747,0.631c-0.583,2.8-0.164,3.305,2.603,3.256
		C53.384-23.381,53.726-23.422,54.165-23.454z M54.194-7.997c0-1.355,0-2.556,0-3.835c-1.274,0-2.472,0-3.788,0
		c0,1.102-0.047,2.111,0.032,3.11c0.02,0.258,0.423,0.671,0.677,0.691C52.107-7.95,53.111-7.997,54.194-7.997z M31.262-42.564
		c0,1.328,0,2.529,0,3.829c1.045,0,1.972,0.06,2.883-0.033c0.305-0.031,0.787-0.431,0.814-0.7c0.098-0.994,0.039-2.003,0.039-3.096
		C33.684-42.564,32.518-42.564,31.262-42.564z M31.243-46.425c1.059,0,2.063,0.029,3.063-0.022c0.231-0.012,0.63-0.286,0.642-0.459
		c0.064-0.966,0.073-1.942-0.003-2.906c-0.015-0.194-0.464-0.473-0.74-0.509c-2.974-0.39-3.122-0.25-3.064,2.721
		C31.147-47.258,31.198-46.918,31.243-46.425z"/>
	<path fill="#FFFFFF" d="M84.313,45.884c0.144,3.003,0.235,6.011,0.459,9.008c0.084,1.126,0.096,2.166-0.73,3.144
		c-0.05-0.829-0.133-1.657-0.143-2.487c-0.043-3.333-0.058-6.666-0.095-9.999c-0.011-0.963-0.1-1.927-0.078-2.889
		c0.022-0.981,0.49-1.677,1.555-1.693c2.226-0.034,4.455-0.07,6.679-0.009c2.921,0.08,5.839,0.347,8.759,0.356
		c2.856,0.009,5.715-0.163,8.567-0.343c1.005-0.064,1.993-0.387,3.044-0.604c-0.194-0.77-0.341-1.354-0.548-2.178
		c0.746,0.301,1.292,0.521,1.877,0.756c0.323-0.342,0.617-0.784,1.027-1.047c0.402-0.258,0.921-0.335,1.452-0.33
		c-0.265,0.24-0.531,0.48-1.005,0.909c1.331-0.081,2.516,0.353,3.305-1.008c-0.047,0.36-0.094,0.719-0.144,1.097
		c0.183,0.06,0.37,0.121,0.701,0.23c-0.327,0.35-0.542,0.752-0.87,0.895c-0.713,0.313-0.844,0.819-0.561,1.416
		c0.407,0.857,0.869,1.698,1.398,2.484c0.397,0.59,0.488,0.812-0.313,1.171c-0.919,0.412-1.577,0.421-2.278-0.307
		c-0.142-0.148-0.506-0.135-0.759-0.11c-0.303,0.03-0.602,0.24-0.893,0.22c-1.63-0.112-2.293,0.904-2.59,2.25
		c-0.244,1.105-0.388,2.236-0.497,3.364c-0.102,1.056-0.496,1.938-1.319,2.592c-1.074,0.852-1.44,1.98-1.379,3.288
		c0.041,0.894,0.012,1.814,0.226,2.669c0.17,0.677,0.662,1.273,1.053,1.982c-0.669,0.108-1.201,0.271-1.431-0.554
		c-0.358-1.286-0.78-2.554-1.134-3.7c-0.743,0.899-0.552,2.744,0.655,4.574c-0.784,0.175-1.639-0.461-1.891-1.41
		c-0.018-0.066-0.042-0.138-0.033-0.203c0.268-2.007-0.846-3.695-1.31-5.66c-0.68,0.078-1.385,0.142-2.086,0.241
		c-3.538,0.501-7.01-0.035-10.46-0.724c-0.799-0.159-1.054,0.065-1.327,0.771c-1.009,2.601-0.026,4.667,1.62,6.592
		c0.082,0.096,0.129,0.223,0.256,0.446c-0.866,0.096-1.554,0.438-2.017-0.723c-0.576-1.443-1.512-2.738-2.133-4.167
		c-0.243-0.56-0.089-1.311-0.047-1.97c0.036-0.567,0.168-1.128,0.257-1.691c-0.086-0.01-0.172-0.019-0.259-0.029
		c-0.633,1.152-1.321,2.279-1.885,3.464c-0.63,1.324-0.301,2.607,0.409,3.821c0.147,0.252,0.274,0.516,0.421,0.795
		c-1.303,0.348-1.861-0.155-1.971-1.673c-0.097-1.337-0.262-2.678-0.225-4.013c0.019-0.717,0.39-1.428,0.619-2.136
		c0.115-0.354,0.408-0.704,0.385-1.04c-0.142-2.12-0.809-4.082-1.855-5.91C84.619,45.837,84.466,45.86,84.313,45.884z"/>
	<path fill="#FFFFFF" d="M16.017,35.095c1.131,0,2.183,0,3.371,0c0,1.21-0.04,2.372,0.026,3.527
		c0.018,0.316,0.299,0.818,0.554,0.888c3.419,0.942,6.854,1.822,10.286,2.713c0.061,0.016,0.134-0.019,0.305-0.047
		c0-0.931,0-1.881,0-2.902c1.184,0,2.265,0,3.465,0c0,1.332,0,2.626,0,3.947c3.493,0.917,6.884,1.807,10.439,2.74
		c0-1.101,0-2.107,0-3.183c0.956,0,1.765,0,2.765,0c0,1.041-0.034,2.094,0.021,3.143c0.016,0.305,0.23,0.801,0.45,0.862
		c3.047,0.85,6.11,1.639,9.315,2.482c0-1.077,0-2.02,0-3.03c0.928,0,1.739,0,2.751,0c0,0.967-0.044,1.95,0.024,2.926
		c0.023,0.327,0.269,0.845,0.519,0.918c2.075,0.61,4.176,1.136,6.414,1.726c0-0.748,0-1.381,0-2.072c0.487,0,0.85,0,1.301,0
		c0,3.765,0,7.531,0,11.386c-0.38,0-0.764,0-1.276,0c0-1.227,0-2.449,0-3.733c-2.347,0-4.572,0-6.934,0c0,1.218,0,2.439,0,3.742
		c-0.971,0-1.807,0-2.771,0c0-1.239,0-2.46,0-3.743c-3.309,0-6.492,0-9.81,0c0,1.269,0,2.49,0,3.765c-0.946,0-1.758,0-2.703,0
		c0-1.233,0-2.456,0-3.754c-3.524,0-6.918,0-10.438,0c0,1.211,0,2.431,0,3.732c-1.203,0-2.284,0-3.488,0c0-1.217,0-2.438,0-3.732
		c-3.756,0-7.392,0-11.154,0c0,1.202,0,2.423,0,3.729c-1.2,0-2.278,0-3.434,0C16.017,52.481,16.017,43.85,16.017,35.095z
		 M30.478,55.869c0.041-0.167,0.085-0.263,0.085-0.36c0.006-3.959,0.021-7.919-0.018-11.878c-0.003-0.277-0.362-0.719-0.637-0.799
		c-2.247-0.65-4.512-1.239-6.775-1.833c-1.208-0.317-2.422-0.609-3.687-0.927c0,5.361,0,10.546,0,15.797
		C23.137,55.869,26.772,55.869,30.478,55.869z M44.448,55.874c0-2.977,0.014-5.894-0.028-8.811
		c-0.003-0.212-0.378-0.529-0.638-0.608c-1.318-0.397-2.652-0.739-3.984-1.086c-1.883-0.491-3.77-0.971-5.716-1.471
		c0,4.073,0,8.011,0,11.976C37.549,55.874,40.941,55.874,44.448,55.874z M47.258,55.839c3.283,0,6.485,0,9.753,0
		c0-1.846,0.031-3.597-0.033-5.345c-0.01-0.272-0.412-0.676-0.709-0.765c-1.546-0.463-3.116-0.85-4.68-1.253
		c-1.414-0.364-2.832-0.714-4.331-1.091C47.258,50.266,47.258,53.007,47.258,55.839z M59.841,55.842c2.341,0,4.589,0,6.904,0
		c0-0.985,0.04-1.879-0.025-2.765c-0.019-0.256-0.294-0.645-0.526-0.711c-2.074-0.591-4.166-1.124-6.353-1.701
		C59.841,52.451,59.841,54.114,59.841,55.842z"/>
	<path fill="#FFFFFF" d="M88.811-0.498c0-2.419,0.05-4.709-0.037-6.993c-0.021-0.546-0.367-1.23-0.787-1.586
		c-1.8-1.521-2.82-3.506-3.459-5.681c-2.354-8.015-1.876-15.854,1.699-23.443c0.369-0.784,0.915-1.517,1.503-2.16
		c1.67-1.826,3.371-1.802,4.898,0.125c0.758,0.957,1.44,2.027,1.916,3.147c3.345,7.877,3.905,15.888,0.625,23.907
		c-0.652,1.594-2.117,2.849-3.166,4.29c-0.255,0.35-0.477,0.816-0.489,1.235c-0.053,1.851-0.023,3.704-0.024,5.556
		c-0.001,1.748-0.002,1.751-1.725,1.703C89.511-0.405,89.255-0.45,88.811-0.498z"/>
	<path fill="#FFFFFF" d="M107.522-0.482c-0.939,0-1.707,0-2.639,0c0-2.359-0.025-4.64,0.014-6.921
		c0.013-0.763-0.182-1.244-0.835-1.753c-2.482-1.932-3.416-4.778-4.061-7.681c-1.484-6.678-1.045-13.262,1.473-19.635
		c0.571-1.447,1.466-2.835,2.481-4.02c1.464-1.709,3.154-1.6,4.622,0.113c1.79,2.091,2.747,4.611,3.478,7.218
		c1.785,6.369,1.861,12.721-0.364,19.01c-0.729,2.061-1.781,3.924-3.61,5.274c-0.333,0.245-0.523,0.876-0.533,1.334
		C107.493-5.218,107.522-2.891,107.522-0.482z"/>
	<path fill="#FFFFFF" d="M122.677-0.494c-0.453,0.049-0.666,0.086-0.881,0.094c-1.769,0.059-1.77,0.058-1.772-1.656
		c-0.001-0.927-0.047-1.857,0.009-2.78c0.125-2.081-0.114-3.787-1.848-5.473c-1.412-1.373-2.227-3.606-2.749-5.604
		c-1.96-7.498-1.45-14.873,1.837-21.957c0.455-0.981,1.129-1.912,1.881-2.693c1.527-1.587,3.195-1.58,4.516,0.167
		c1.076,1.422,2.024,3.023,2.654,4.686c2.685,7.084,3.015,14.278,0.526,21.504c-0.728,2.112-1.795,4.016-3.688,5.368
		c-0.303,0.216-0.457,0.815-0.465,1.241C122.653-5.265,122.677-2.931,122.677-0.494z"/>
	<path fill="#FFFFFF" d="M159.722-24.889c2.487-1.363,4.719-2.689,7.043-3.828c2.134-1.046,4.357-1.912,6.56-2.812
		c1.08-0.441,1.549-1.438,1.148-2.558c-1.577-4.401-2.372-8.947-2.455-13.618c-0.008-0.438,0.053-0.88,0.113-1.316
		c0.022-0.157,0.134-0.302,0.343-0.746c0.406,0.685,0.792,1.143,0.972,1.672c1.522,4.46,2.359,9.045,2.366,13.766
		c0.002,1.233,0.756,2.116,1.976,2.201c5.54,0.388,10.897,1.636,16.124,3.474c0.56,0.197,1.075,0.519,1.611,0.783
		c-0.017,0.159-0.034,0.318-0.052,0.476c-0.648,0-1.303,0.062-1.943-0.01c-5.367-0.6-10.609-1.736-15.732-3.487
		c-1.409-0.482-2.916-0.255-4.345,0.549c-4.144,2.332-8.331,4.593-12.555,6.775c-0.851,0.44-1.127,0.835-1.096,1.77
		c0.222,6.75,0.384,13.503,0.561,20.255c0.009,0.345-0.028,0.691-0.048,1.129c-1.844,0-3.633,0-5.68,0
		c0.133-5.501,0.268-11.028,0.403-16.617c-4.173-0.248-8.145-1.082-12.043-2.409c-0.777-0.265-1.939,0.179-2.777,0.593
		c-2.802,1.384-5.53,2.917-8.305,4.356c-0.49,0.254-1.07,0.334-1.798,0.234c0.349-0.318,0.651-0.728,1.056-0.941
		c2.883-1.516,5.759-3.048,8.697-4.449c1.071-0.511,1.369-0.952,1.07-2.193c-0.659-2.731-1.06-5.525-1.522-8.301
		c-0.071-0.429,0.093-0.898,0.468-1.401c0.214,0.453,0.539,0.885,0.624,1.361c0.497,2.769,1.012,5.54,1.357,8.33
		c0.118,0.952,0.404,1.551,1.312,1.629c4.021,0.349,7.908,1.254,11.896,2.796c0.318-12.041,0.632-23.961,0.945-35.828
		c0.999,0,1.862,0,2.937,0C159.207-43.919,159.462-34.506,159.722-24.889z"/>
	<path fill="#FFFFFF" d="M123.743,60.76c-0.251,0-0.75,0-1.334,0c0.058-0.567,0.054-1.083,0.172-1.569
		c0.236-0.97-0.274-1.688-0.835-2.301c-0.451-0.493-0.788-0.859-0.847-1.622c-0.078-1.014-0.602-1.986-0.824-3
		c-0.116-0.529-0.001-1.111,0.027-1.668c0.005-0.09,0.169-0.199,0.147-0.259c-0.385-1.079,0.324-1.602,0.976-2.282
		c0.539-0.563,0.993-0.942,1.808-0.953c0.668-0.009,1.335-0.361,2-0.351c2.243,0.034,4.487,0.265,6.727,0.218
		c1.633-0.034,3.263-0.36,4.883-0.628c0.261-0.043,0.443-0.482,0.689-0.709c0.833-0.771,1.771-0.617,2.729-0.29
		c0.677,0.231,1.767,1.872,1.794,2.59c0.017,0.452,0.211,0.895,0.296,1.347c0.128,0.68,0.53,1.55,0.255,1.993
		c-0.249,0.403-1.243,0.356-1.913,0.479c-0.193,0.036-0.404-0.025-0.567-0.038c-0.647,1.052-1.273,2.062-1.89,3.078
		c-0.12,0.198-0.282,0.413-0.294,0.628c-0.037,0.681-0.32,1.106-0.94,1.451c-0.877,0.489-1.242,2.53-0.775,3.756
		c0.046,0.121,0.097,0.239,0.19,0.466c-0.591-0.056-1.089-0.104-1.667-0.159c0-0.625,0-1.168,0-1.711c0-0.51,0-1.019,0-1.705
		c-0.72,0.051-1.366,0.232-1.947,0.109c-1.051-0.223-2.011-0.034-3.042,0.121c-0.809,0.122-1.722-0.593-2.572-0.556
		c-1.005,0.044-2.241,0.234-2.905,0.861C123.584,58.525,123.832,59.785,123.743,60.76z"/>
	<path fill="#FFFFFF" d="M129.063-40.809c0.733-0.711,1.372-1.567,2.214-2.107c4.191-2.69,8.332-5.488,12.695-7.873
		c3.465-1.894,7.226-3.244,10.849-4.852c0.246-0.109,0.495-0.317,0.633-0.545c0.375-0.622,0.69-1.279,1.045-1.952
		c-2.97-8.451-4.599-17.242-4.336-26.347c0.015-0.533,0.249-1.06,0.38-1.59c0.138-0.038,0.276-0.076,0.414-0.115
		c0.384,0.638,0.946,1.231,1.124,1.922c1.097,4.265,2.384,8.51,3.065,12.846c0.646,4.116,0.618,8.337,0.917,12.509
		c0.023,0.317,0.273,0.633,0.466,0.916c0.089,0.13,0.372,0.143,0.437,0.273c0.728,1.465,2.079,1.235,3.374,1.378
		c8.678,0.96,17.136,2.874,25.281,6.062c0.791,0.31,1.505,0.82,2.254,1.237c-0.027,0.16-0.054,0.321-0.082,0.481
		c-0.833,0.065-1.695,0.303-2.494,0.166c-5.429-0.926-10.888-1.739-16.248-2.977c-3.632-0.839-7.114-2.325-10.676-3.482
		c-0.34-0.11-0.861-0.076-1.141,0.118c-0.884,0.613-1.736,0.749-2.738,0.309c-0.261-0.114-0.765-0.001-0.998,0.196
		c-5.131,4.34-10.952,7.577-16.945,10.507c-2.526,1.235-5.203,2.163-7.826,3.193c-0.421,0.165-0.92,0.133-1.383,0.193
		C129.252-40.499,129.158-40.654,129.063-40.809z"/>
	<path fill="#FFFFFF" d="M170.083,50.464c-0.834,2.197,0.064,3.395,1.438,4.439c0.23,0.175,0.394,0.616,0.353,0.9
		c-0.025,0.172-0.492,0.364-0.779,0.399c-1.705,0.21-3.419,0.34-5.12,0.577c-0.653,0.091-1.101,1.318-0.909,2.288
		c0.066,0.332,0.206,0.653,0.346,0.965c0.119,0.267,0.286,0.513,0.518,0.92c-1.794-0.161-1.305-1.721-1.872-2.658
		c-0.89,0.999-0.383,1.865,0.14,2.816c-0.963,0.039-1.254-0.432-1.321-1.145c-0.073-0.779-0.138-1.559-0.203-2.301
		c-2.406,0.12-4.708,0.234-7.122,0.354c-0.262,0.654-0.262,0.654,1.056,2.543c-0.994,0.276-2.536-1.587-2.572-3.107
		c-1.604,1.113-1.973,2.043-1.135,3.513c-0.626,0.191-1.124-0.151-1.201-0.944c-0.088-0.906-0.544-1.907,0.517-2.623
		c0.109-0.073,0.074-0.513-0.026-0.719c-0.633-1.307-1.2-2.62-1.035-4.128c0.014-0.125-0.132-0.262-0.189-0.4
		c-0.15-0.368-0.292-0.739-0.437-1.109c0.326-0.09,0.65-0.185,0.977-0.267c0.122-0.031,0.291,0.013,0.371-0.055
		c2.067-1.776,4.534-1.271,6.901-1.159c1.877,0.089,3.753,0.308,5.613,0.583c0.9,0.133,1.758,0.535,2.64,0.799
		c0.274,0.082,0.582,0.201,0.842,0.147C168.526,50.958,169.16,50.735,170.083,50.464z"/>
	<path fill="#FFFFFF" d="M189.073,59.82c0.35,0.328,0.64,0.6,0.953,0.893c-0.691,0.762-1.324,0.468-1.929-0.005
		c-0.807-0.63-2.158-0.513-2.895,0.274c-0.046,0.049-0.109,0.117-0.164,0.116c-1.231-0.021-2.482,0.07-3.683-0.133
		c-0.518-0.088-0.932-0.788-1.334-1.157c0.281-0.451,0.522-0.697,0.599-0.986c0.433-1.621,1.618-2.452,3.103-2.882
		c1.086-0.314,2.217-0.488,3.339-0.655c1.065-0.158,1.521-0.747,1.27-1.82c-0.07-0.3-0.263-0.579-0.292-0.878
		c-0.029-0.302,0.077-0.616,0.124-0.925c0.304,0.113,0.822,0.162,0.878,0.349c0.378,1.264,1.604,1.698,2.342,2.584
		c0.276,0.332,0.336,1.024,0.208,1.469c-0.197,0.686-0.588,1.337-0.995,1.935C190.176,58.618,189.637,59.155,189.073,59.82z"/>
	<path fill="#FFFFFF" d="M177.189-0.469c-1.245,0-2.283,0-3.567,0c0.302-9.946,0.603-19.828,0.904-29.761c0.594,0,1.099,0,1.768,0
		C176.591-20.33,176.888-10.483,177.189-0.469z"/>
	<path fill="#FFFFFF" d="M142.816-0.416c-0.551,0.03-0.853,0.059-1.156,0.06c-0.303,0.001-0.605-0.025-1.163-0.052
		c0.192-6.178,0.382-12.31,0.575-18.503c0.43,0,0.755,0,1.202,0C142.454-12.757,142.633-6.651,142.816-0.416z"/>
	<path fill="#FFFFFF" d="M66.62,22.596c0.145-0.275,0.272-0.516,0.419-0.795c1.01,0.467,2.037,0.782,3.018,0.111
		c0.587-0.402,0.478-1.1,0.464-1.571c-0.687,0.148-1.376,0.414-2.067,0.42c-1.304,0.012-2.094-0.725-2.276-2.019
		c-0.083-0.592-0.092-1.211-0.024-1.805c0.158-1.38,1.143-2.221,2.76-2.298c0.721-0.034,1.455,0.113,2.174,0.236
		c0.153,0.026,0.374,0.305,0.376,0.47c0.025,1.941,0.036,3.884,0.003,5.825c-0.014,0.839-0.529,1.385-1.276,1.717
		C69.253,23.304,67.618,23.188,66.62,22.596z M70.579,17.222c-0.016-0.002-0.032-0.003-0.049-0.005c0-0.387,0.013-0.775-0.007-1.162
		c-0.007-0.134-0.054-0.315-0.15-0.388c-0.853-0.658-2.814-0.104-3.066,0.948c-0.168,0.701-0.128,1.49-0.01,2.211
		c0.125,0.762,0.722,1.111,1.52,1.114c0.836,0.003,1.401-0.355,1.59-1.127C70.534,18.3,70.527,17.754,70.579,17.222z"/>
	<path fill="#FFFFFF" d="M150.137,13.117c0-0.248,0-0.457,0-0.705c0.622,0,1.215,0,1.888,0c0,0.931,0,1.845,0,2.887
		c0.991-0.751,1.972-0.914,3.008-0.517c0.292,0.112,0.611,0.285,0.795,0.525c0.885,1.153,0.886,2.454,0.417,3.747
		c-0.417,1.15-1.383,1.624-2.549,1.644c-0.683,0.012-1.372-0.086-2.052-0.181c-0.415-0.058-0.581-0.328-0.575-0.781
		c0.025-1.835,0.011-3.67,0.01-5.505C151.08,13.269,151.079,13.269,150.137,13.117z M151.936,18.104
		c0.036,0.007,0.071,0.014,0.107,0.021c0,0.367-0.023,0.735,0.01,1.099c0.015,0.166,0.1,0.391,0.227,0.471
		c1.107,0.692,2.833,0.044,3.094-1.204c0.12-0.575,0.09-1.206,0.004-1.793c-0.106-0.722-0.671-1.186-1.361-1.283
		c-0.703-0.099-1.433,0.214-1.703,0.894C152.093,16.868,152.056,17.503,151.936,18.104z"/>
	<path fill="#FFFFFF" d="M21.44,14.858c0.392,0.03,0.708,0.054,1.044,0.079c0.009,0.452-0.019,0.847-0.596,0.758
		c-0.571-0.088-0.777,0.192-0.833,0.698c-0.026,0.234-0.086,0.464-0.143,0.76c0.334,0.027,0.644,0.053,0.97,0.079
		c0.045,0.548-0.118,0.858-0.709,0.765c-0.378-0.06-0.548,0.111-0.598,0.481c-0.04,0.298-0.165,0.584-0.202,0.882
		c-0.071,0.564-0.356,0.732-0.958,0.524c0.121-0.591,0.243-1.188,0.385-1.884c-0.489,0-0.914-0.028-1.333,0.016
		c-0.138,0.015-0.318,0.195-0.37,0.34c-0.116,0.322-0.194,0.665-0.234,1.006c-0.075,0.633-0.419,0.713-0.979,0.521
		c0.129-0.6,0.255-1.184,0.394-1.833c-0.358-0.033-0.687-0.063-1.261-0.115c0.276-0.329,0.479-0.726,0.613-0.704
		c0.862,0.14,0.999-0.409,1.103-1.03c0.021-0.126,0.044-0.252,0.081-0.464c-0.336-0.021-0.645-0.04-0.986-0.061
		c-0.075-0.542,0.07-0.855,0.664-0.774c0.431,0.059,0.639-0.125,0.687-0.547c0.024-0.213,0.114-0.419,0.137-0.632
		c0.064-0.598,0.338-0.851,0.99-0.609c-0.118,0.557-0.236,1.117-0.378,1.784c0.455,0,0.861,0.039,1.253-0.018
		c0.172-0.025,0.378-0.217,0.458-0.386c0.127-0.267,0.199-0.575,0.229-0.872c0.062-0.611,0.415-0.659,0.97-0.529
		C21.707,13.672,21.582,14.23,21.44,14.858z M18.447,17.136c1.735,0.102,1.632,0.351,1.813-1.358
		C18.458,15.625,18.713,15.481,18.447,17.136z"/>
	<path fill="#FFFFFF" d="M24.756,15.448c0.844-0.739,1.65-0.943,2.55-0.853c1.047,0.106,1.641,0.546,1.707,1.594
		c0.092,1.454,0.023,2.919,0.023,4.422c-0.28,0-0.546,0-0.904,0c0-0.834,0.001-1.646,0-2.457c-0.001-0.388,0.012-0.777-0.012-1.164
		c-0.067-1.115-0.517-1.601-1.45-1.59c-0.968,0.012-1.841,0.781-1.871,1.707c-0.032,0.969-0.006,1.94-0.01,2.911
		c-0.001,0.189-0.021,0.377-0.035,0.6c-0.287,0-0.537,0-0.885,0c0-2.44,0-4.882,0-7.358c-0.34-0.043-0.589-0.075-0.889-0.113
		c0-0.219,0-0.444,0-0.724c0.556,0,1.126,0,1.776,0C24.756,13.352,24.756,14.306,24.756,15.448z"/>
	<path fill="#FFFFFF" d="M46.31,20.621c-0.349,0-0.597,0-0.911,0c-0.012-0.247-0.032-0.476-0.032-0.705
		c-0.003-1.92-0.001-3.84-0.001-5.76c0-0.909,0-0.909-0.95-1.014c0-0.22,0-0.447,0-0.722c0.579,0,1.172,0,1.855,0
		c0,1.568,0,3.15,0,4.95c0.414-0.2,0.725-0.271,0.922-0.46c0.512-0.492,1.009-1.009,1.446-1.567
		c0.421-0.537,0.904-0.765,1.689-0.543c-0.843,0.914-1.66,1.798-2.545,2.758c1.007,0.754,1.44,2.111,2.87,2.39
		c0.009,0.052,0.033,0.135,0.034,0.218c0,0.127-0.017,0.255-0.029,0.412c-0.662,0.148-1.232,0.175-1.729-0.444
		c-0.538-0.67-1.162-1.275-1.781-1.873c-0.183-0.176-0.478-0.236-0.837-0.402C46.31,18.871,46.31,19.705,46.31,20.621z"/>
	<path fill="#FFFFFF" d="M187.048,21.859c1.377,0.404,1.806,0.175,2.105-1.176c-0.863,0.17-0.926-0.522-1.151-1.054
		c-0.58-1.371-1.161-2.742-1.739-4.114c-0.098-0.233-0.18-0.473-0.274-0.722c0.705-0.188,1.122-0.071,1.379,0.656
		c0.453,1.28,1.015,2.522,1.55,3.771c0.075,0.175,0.257,0.304,0.389,0.454c0.116-0.158,0.284-0.299,0.339-0.476
		c0.385-1.236,0.791-2.468,1.098-3.725c0.167-0.681,0.469-0.909,1.198-0.669c-0.263,0.874-0.527,1.752-0.793,2.629
		c-0.388,1.281-0.771,2.562-1.166,3.841c-0.398,1.288-1.195,1.876-2.356,1.755C186.727,22.935,186.611,22.713,187.048,21.859z"/>
	<path fill="#FFFFFF" d="M78.408,12.568c-0.083,0.265-0.146,0.468-0.155,0.496c-0.797,0.146-1.52,0.184-2.153,0.441
		c-0.243,0.099-0.281,0.7-0.454,1.189c0.914,0,1.678,0,2.488,0c0,0.301,0,0.526,0,0.854c-0.77,0-1.549,0-2.365,0
		c0,1.47,0,2.837,0,4.283c0.804,0,1.571,0,2.374,0c0,0.301,0,0.524,0,0.785c-1.577,0-3.12,0-4.708,0c0-0.246,0-0.468,0-0.743
		c0.412-0.022,0.813-0.044,1.269-0.068c0-1.384,0-2.751,0-4.191c-0.405-0.027-0.821-0.055-1.275-0.085c0-0.255,0-0.483,0-0.772
		c0.418-0.023,0.838-0.045,1.293-0.07c0.109-0.829,0.101-1.721,0.996-2.123C76.579,12.178,77.466,12.171,78.408,12.568z"/>
	<path fill="#FFFFFF" d="M147.62,17.171c0.239-1.318-0.171-1.811-1.433-1.685c-0.527,0.053-1.041,0.226-1.598,0.353
		c-0.089-0.177-0.184-0.365-0.275-0.546c0.781-0.715,2.786-0.914,3.598-0.352c0.761,0.527,0.77,1.345,0.768,2.15
		c-0.002,0.775-0.032,1.55-0.039,2.325c-0.001,0.124,0.052,0.248,0.084,0.392c0.239,0.034,0.467,0.066,0.726,0.103
		c0,0.229,0,0.435,0,0.637c-1.154,0.316-1.553,0.181-1.722-0.688c-0.619,0.668-1.344,0.953-2.202,0.872
		c-1.139-0.108-1.758-0.844-1.616-1.967c0.102-0.806,0.606-1.268,1.364-1.449c0.373-0.089,0.764-0.116,1.149-0.139
		C146.808,17.153,147.194,17.171,147.62,17.171z M146.644,17.943c-0.005-0.023-0.01-0.046-0.015-0.069
		c-0.395,0.089-0.81,0.129-1.18,0.28c-0.42,0.171-0.608,0.546-0.513,1.008c0.094,0.456,0.397,0.694,0.86,0.743
		c0.598,0.063,1.165-0.074,1.505-0.56c0.223-0.319,0.247-0.777,0.36-1.172c-0.296-0.077-0.591-0.155-0.888-0.229
		C146.732,17.934,146.687,17.943,146.644,17.943z"/>
	<path fill="#FFFFFF" d="M34.561,17.172c0.219-1.344-0.215-1.833-1.51-1.682c-0.487,0.057-0.961,0.221-1.518,0.355
		c-0.083-0.157-0.188-0.356-0.289-0.546c0.783-0.71,2.719-0.915,3.553-0.382c0.788,0.503,0.805,1.324,0.811,2.127
		c0.005,0.624-0.025,1.249-0.064,1.872c-0.037,0.597,0.004,1.106,0.796,0.98c0.225,0.724,0.249,0.879-1.512,0.698
		c-0.059-0.214-0.119-0.435-0.201-0.734c-0.681,0.788-1.501,0.992-2.433,0.836c-0.718-0.121-1.224-0.606-1.349-1.295
		c-0.137-0.76,0.14-1.557,0.781-1.827c0.54-0.227,1.151-0.304,1.739-0.392C33.743,17.126,34.136,17.172,34.561,17.172z
		 M33.701,17.856c-0.508,0.105-0.921,0.138-1.291,0.282c-0.447,0.174-0.635,0.557-0.532,1.045c0.098,0.463,0.418,0.751,0.861,0.703
		c0.467-0.05,0.957-0.187,1.365-0.415c0.433-0.242,0.689-0.752,0.473-1.209C34.466,18.025,33.968,17.969,33.701,17.856z"/>
	<path fill="#FFFFFF" d="M128.196,19.901c0.125,0.832,0.014,0.883-1.488,0.698c-0.048-0.207-0.099-0.427-0.176-0.759
		c-0.691,0.769-1.496,1.01-2.424,0.865c-0.749-0.117-1.26-0.584-1.368-1.263c-0.146-0.913,0.11-1.608,0.835-1.915
		c0.483-0.204,1.031-0.277,1.559-0.344c0.421-0.054,0.854-0.011,1.28-0.011c0.303-1.235-0.149-1.801-1.396-1.686
		c-0.529,0.049-1.047,0.221-1.579,0.34c-0.43-0.576-0.417-0.774,0.244-0.903c0.791-0.154,1.621-0.269,2.415-0.195
		c0.828,0.077,1.282,0.677,1.322,1.517c0.044,0.947,0.004,1.897,0.008,2.846C127.429,19.817,127.435,19.817,128.196,19.901z
		 M125.443,17.942c-0.004-0.019-0.007-0.039-0.011-0.058c-0.375,0.075-0.768,0.102-1.119,0.236c-0.439,0.168-0.689,0.53-0.588,1.021
		c0.096,0.47,0.418,0.818,0.9,0.744c0.503-0.077,1.06-0.223,1.442-0.528c0.269-0.214,0.285-0.745,0.414-1.135
		c-0.303-0.093-0.606-0.188-0.91-0.279C125.532,17.932,125.486,17.942,125.443,17.942z"/>
	<path fill="#FFFFFF" d="M60.184,20.628c-0.264,0-0.518,0-0.864,0c0-0.708,0.008-1.392-0.002-2.076
		c-0.012-0.841-0.018-1.683-0.073-2.522c-0.011-0.167-0.225-0.456-0.35-0.459c-0.626-0.014-0.479-0.396-0.438-0.803
		c0.522,0,1.026,0,1.544,0c0.057,0.237,0.111,0.465,0.183,0.763c0.643-0.624,1.346-1.006,2.24-0.951
		c1.16,0.071,1.802,0.485,1.895,1.622c0.12,1.449,0.029,2.915,0.029,4.414c-0.258,0-0.528,0-0.895,0
		c0-0.872,0.003-1.728-0.001-2.585c-0.002-0.41,0.012-0.822-0.031-1.229c-0.119-1.121-1.042-1.652-2.053-1.154
		c-0.673,0.331-1.119,0.849-1.103,1.677c0.02,1.035-0.002,2.071-0.009,3.107C60.256,20.472,60.228,20.511,60.184,20.628z"/>
	<path fill="#FFFFFF" d="M85.843,17.683c-0.003,1.249-0.349,2.354-1.597,2.855c-1.142,0.459-2.306,0.414-3.278-0.468
		c-1.021-0.926-1.194-3.083-0.391-4.341c0.671-1.052,2.219-1.452,3.604-0.93C85.261,15.206,85.838,16.209,85.843,17.683z
		 M84.824,17.771c0.021-1.828-1.231-2.856-2.696-2.188c-0.981,0.447-1.022,1.364-1.003,2.265c0.021,1.013,0.519,1.793,1.233,2.019
		c0.061,0.019,0.126,0.028,0.19,0.04C83.946,20.169,84.806,19.362,84.824,17.771z"/>
	<path fill="#FFFFFF" d="M105.654,15.631c-0.272-0.045-0.48-0.079-0.717-0.119c0-0.252,0-0.479,0-0.749c0.527,0,1.034,0,1.653,0
		c0,0.51,0,1.017,0,1.523c0,0.884-0.006,1.769,0.003,2.653c0.008,0.859,0.015,0.859,0.843,0.985c0.009,0.199,0.018,0.406,0.03,0.674
		c-0.535,0-1.034,0-1.568,0c-0.037-0.233-0.074-0.461-0.109-0.676c-0.455,0.261-0.877,0.65-1.361,0.756
		c-1.814,0.396-2.623-0.303-2.682-1.889c-0.038-1.032-0.007-2.067-0.007-3.137c-0.27-0.049-0.492-0.09-0.759-0.138
		c0-0.246,0-0.489,0-0.763c0.55,0,1.061,0,1.689,0c0,0.252-0.001,0.499,0,0.746c0.004,1.057-0.051,2.119,0.042,3.168
		c0.036,0.413,0.309,0.939,0.642,1.158c0.455,0.299,1.048,0.176,1.506-0.203c0.5-0.414,0.838-0.898,0.804-1.604
		C105.625,17.224,105.654,16.429,105.654,15.631z"/>
	<path fill="#FFFFFF" d="M137.058,20.565c0-0.82,0.002-1.656-0.001-2.492c-0.002-0.54-0.018-1.08-0.016-1.619
		c0.001-0.556-0.027-1.077-0.844-0.934c0-0.276,0-0.5,0-0.761c0.529,0,1.016,0,1.541,0c0.056,0.23,0.111,0.452,0.187,0.762
		c0.666-0.633,1.38-1.002,2.275-0.936c1.146,0.084,1.781,0.518,1.87,1.661c0.112,1.431,0.027,2.878,0.027,4.364
		c-0.259,0-0.529,0-0.902,0c0-0.811,0.01-1.624-0.003-2.436c-0.009-0.538,0.008-1.086-0.088-1.611
		c-0.16-0.87-0.831-1.246-1.691-1.027c-0.841,0.214-1.423,0.963-1.428,1.847c-0.004,0.842,0,1.685-0.001,2.527
		C137.982,20.719,137.963,20.733,137.058,20.565z"/>
	<path fill="#FFFFFF" d="M88.815,15.565c-0.533,0-1.018,0-1.534,0c0-0.305,0-0.533,0-0.841c0.667,0,1.312-0.042,1.946,0.025
		c0.194,0.021,0.357,0.34,0.589,0.578c0.781-0.438,1.666-1.141,2.686-0.498c0.693,0.437,0.495,1.264,0.565,2.036
		c-0.283,0.016-0.527,0.03-0.807,0.045c-0.031-0.183-0.064-0.325-0.077-0.468c-0.085-0.936-0.449-1.17-1.331-0.853
		c-0.797,0.286-1.048,0.64-1.049,1.477c-0.001,0.899,0,1.799,0,2.758c0.771,0,1.455,0,2.191,0c0,0.285,0,0.508,0,0.781
		c-1.553,0-3.112,0-4.715,0c-0.011-0.238-0.02-0.445-0.034-0.756c0.537,0,1.038,0,1.569,0
		C88.815,18.397,88.815,17.044,88.815,15.565z"/>
	<path fill="#FFFFFF" d="M113.607,15.276c-0.129,0.249-0.244,0.471-0.329,0.635c-0.644-0.185-1.21-0.415-1.796-0.491
		c-0.383-0.05-0.816,0.07-1.183,0.221c-0.186,0.077-0.38,0.39-0.379,0.595c0.001,0.192,0.215,0.468,0.405,0.556
		c0.386,0.18,0.818,0.261,1.232,0.378c0.352,0.099,0.718,0.161,1.058,0.291c0.876,0.334,1.235,0.829,1.186,1.567
		c-0.051,0.754-0.651,1.437-1.452,1.627c-1.019,0.241-2.014,0.169-2.974-0.267c-0.782-0.355-0.802-0.455-0.188-1.169
		c0.795,0.538,1.658,0.876,2.654,0.698c0.479-0.086,0.899-0.253,0.966-0.796c0.068-0.55-0.355-0.756-0.774-0.889
		c-0.636-0.202-1.297-0.328-1.929-0.54c-0.89-0.299-1.236-0.752-1.207-1.469c0.029-0.731,0.472-1.241,1.302-1.501
		C111.24,14.397,112.649,14.61,113.607,15.276z"/>
	<path fill="#FFFFFF" d="M99.517,15.244c-0.16,0.287-0.275,0.491-0.404,0.723c-0.354-0.146-0.681-0.3-1.02-0.418
		c-0.656-0.228-1.325-0.257-1.94,0.096c-0.193,0.111-0.398,0.397-0.395,0.599c0.003,0.19,0.237,0.456,0.434,0.547
		c0.386,0.178,0.817,0.259,1.231,0.377c0.372,0.106,0.753,0.185,1.116,0.315c0.627,0.225,1.104,0.606,1.124,1.341
		c0.021,0.736-0.315,1.268-0.951,1.639c-0.876,0.511-3.227,0.46-4.145-0.574c0.135-0.219,0.276-0.449,0.44-0.716
		c0.85,0.602,1.72,0.912,2.715,0.741c0.479-0.082,0.898-0.257,0.969-0.793c0.073-0.549-0.356-0.755-0.772-0.889
		c-0.655-0.211-1.336-0.341-1.988-0.559c-0.846-0.283-1.179-0.729-1.16-1.43c0.02-0.725,0.417-1.247,1.216-1.488
		C97.204,14.391,98.358,14.572,99.517,15.244z"/>
	<path fill="#FFFFFF" d="M181.071,13.394c0,0.409,0,0.83,0,1.328c1.07,0,2.071,0,3.1,0c0,0.307,0,0.535,0,0.826
		c-1.016,0-2.002,0-2.997,0c0,1.191-0.114,2.335,0.035,3.442c0.124,0.917,1.346,1.255,2.351,0.782
		c0.233-0.11,0.453-0.247,0.676-0.37c0.497,0.573,0.509,0.75-0.13,0.975c-0.635,0.224-1.333,0.395-1.997,0.377
		c-1.164-0.032-1.874-0.799-1.97-2.003c-0.062-0.772-0.028-1.552-0.036-2.328c-0.003-0.254,0-0.507,0-0.819
		c-0.465-0.021-0.865-0.038-1.317-0.058c0-0.268,0-0.509,0-0.816c0.412,0,0.812,0,1.273,0
		C180.122,14.073,179.938,13.24,181.071,13.394z"/>
	<path fill="#FFFFFF" d="M42.986,16.746c-0.238,0-0.484,0-0.732,0c-0.028-0.085-0.061-0.143-0.066-0.204
		c-0.073-0.972-0.148-1.068-1.112-1.09c-0.823-0.019-1.656,0.095-2.057,0.929c-0.421,0.876-0.467,1.822,0.142,2.643
		c0.586,0.79,1.461,0.975,2.383,0.789c0.495-0.1,0.962-0.345,1.492-0.543c0.1,0.156,0.226,0.351,0.347,0.539
		c-0.722,0.963-2.646,1.194-3.853,0.787c-1.047-0.353-1.716-1.306-1.789-2.531c-0.152-2.548,1.39-3.881,3.958-3.423
		C43.119,14.896,43.267,15.132,42.986,16.746z"/>
	<path fill="#FFFFFF" d="M116.524,15.567c-0.506,0-0.927,0-1.38,0c0-0.306,0-0.534,0-0.816c0.444-0.02,0.866-0.038,1.336-0.059
		c0.096-0.58-0.207-1.453,0.937-1.298c0.019,0.395,0.04,0.814,0.064,1.311c1.021,0,2.022,0,3.064,0c0,0.303,0,0.528,0,0.841
		c-1.005,0-2.005,0-3.027,0c0,1.153-0.102,2.234,0.029,3.285c0.128,1.033,1.286,1.445,2.367,0.959
		c0.253-0.114,0.489-0.263,0.731-0.394c0.465,0.649,0.479,0.775-0.231,1.019c-0.634,0.218-1.341,0.369-2.002,0.328
		c-1.161-0.072-1.85-0.895-1.881-2.076C116.503,17.659,116.524,16.651,116.524,15.567z"/>
	<path fill="#FFFFFF" d="M133.133,19.822c0.688,0,1.306,0,1.903,0c0.208,0.777,0.175,0.831-0.504,0.833
		c-1.441,0.004-2.882,0.001-4.361,0.001c0-0.297,0-0.521,0-0.818c0.522,0,1.016,0.03,1.503-0.017
		c0.169-0.016,0.454-0.22,0.457-0.344c0.034-1.269,0.021-2.538,0.021-3.896c-0.691,0-1.325,0-1.989,0c0-0.319,0-0.549,0-0.82
		c0.982,0,1.94,0,2.971,0C133.133,16.448,133.133,18.1,133.133,19.822z"/>
	<path fill="#FFFFFF" d="M57.387,19.819c0,0.322,0,0.528,0,0.786c-1.647,0-3.271,0-4.96,0c-0.011-0.222-0.022-0.445-0.037-0.751
		c0.679,0,1.314,0,1.999,0c0-1.443,0-2.807,0-4.256c-0.631,0-1.264,0-1.946,0c0-0.324,0-0.565,0-0.842c0.955,0,1.895,0,2.929,0
		c0,1.665,0,3.329,0,5.062C56.079,19.819,56.695,19.819,57.387,19.819z"/>
	<path fill="#FFFFFF" d="M163.33,19.829c0.182,0.589,0.103,0.85-0.513,0.837c-1.441-0.032-2.884-0.01-4.372-0.01
		c0-0.281,0-0.504,0-0.809c0.635,0,1.271,0,1.955,0c0-1.448,0-2.814,0-4.262c-0.65,0-1.286,0-1.961,0c0-0.308,0-0.535,0-0.814
		c0.953,0,1.909,0,2.939,0c0,1.659,0,3.31,0,5.058C162.081,19.829,162.715,19.829,163.33,19.829z"/>
	<path fill="#FFFFFF" d="M174.573,15.567c-0.719,0-1.338,0-1.999,0c0-0.288,0-0.515,0-0.795c0.949,0,1.904,0,2.97,0
		c0,0.636,0,1.272,0,1.909c0,0.841,0.031,1.684-0.011,2.523c-0.027,0.535,0.18,0.681,0.672,0.641
		c0.423-0.034,0.851-0.007,1.263-0.007c0.222,0.636,0.047,0.841-0.56,0.827c-1.42-0.032-2.842-0.01-4.334-0.01
		c-0.016-0.263-0.03-0.484-0.051-0.817c0.555,0,1.066,0.029,1.57-0.016c0.169-0.015,0.456-0.218,0.459-0.342
		C174.586,18.213,174.573,16.944,174.573,15.567z"/>
	<path fill="#FFFFFF" d="M165.644,13.141c0-0.248,0-0.457,0-0.718c0.623,0,1.236,0,1.954,0c0,0.215,0,0.442,0,0.669
		c0,1.681,0,3.361,0.001,5.042c0,0.194,0.003,0.388,0.017,0.581c0.082,1.183,0.743,1.538,1.801,0.971
		c0.13-0.07,0.26-0.138,0.381-0.203c0.58,0.563,0.588,0.721-0.11,0.994c-0.485,0.19-1.042,0.303-1.56,0.282
		c-0.915-0.037-1.407-0.614-1.437-1.661c-0.047-1.636-0.031-3.274-0.039-4.911C166.647,13.245,166.65,13.245,165.644,13.141z"/>
	<path fill="#FFFFFF" d="M55.681,13.144c-0.032,0.455-0.344,0.667-0.807,0.662c-0.481-0.005-0.763-0.27-0.752-0.762
		c0.011-0.481,0.291-0.745,0.769-0.764C55.354,12.263,55.697,12.63,55.681,13.144z"/>
	<path fill="#FFFFFF" d="M160.815,12.276c0.549,0.002,0.901,0.358,0.875,0.818c-0.028,0.504-0.348,0.718-0.81,0.711
		c-0.478-0.007-0.763-0.267-0.751-0.763C160.141,12.558,160.431,12.32,160.815,12.276z"/>
	<path fill="#FFFFFF" d="M133.43,13.039c-0.046,0.538-0.347,0.772-0.819,0.767c-0.49-0.005-0.767-0.278-0.746-0.778
		c0.021-0.489,0.305-0.763,0.792-0.745C133.138,12.301,133.387,12.599,133.43,13.039z"/>
	<path fill="#FFFFFF" d="M175.029,13.819c-0.469-0.034-0.776-0.268-0.763-0.767c0.013-0.476,0.284-0.776,0.777-0.768
		c0.479,0.008,0.772,0.285,0.781,0.771C175.835,13.563,175.508,13.774,175.029,13.819z"/>
</g>
</svg>
