<?xml version="1.0" encoding="UTF-8"?>
<svg xmlns="http://www.w3.org/2000/svg" width="130" height="110" viewBox="0 0 130 110">
    <path fill="#161F1C" d="M72.397 110.016c-.252 0-.505-.066-.73-.196l-7.553-4.365c-.41-.238-.678-.658-.723-1.124-.383.117-.8.072-1.156-.133l-.074-.043c-.047 1.313-.876 2.535-2.333 3.376-1.252.724-2.89 1.123-4.61 1.123-1.734 0-3.387-.404-4.657-1.137-1.48-.855-2.34-2.13-2.358-3.493v-7.955L31.345 86.3l-6.656 3.936c-.455.27-1.018.27-1.475.008L5.63 80.08c-.452-.26-.73-.743-.73-1.265v-3.787c0-.103.01-.203.03-.3-1.31-1.443-2.037-3.303-2.037-5.292 0-4.44 3.69-8.024 8.12-7.94v-44.33c-.018-1.203.717-2.336 2.017-3.086 2.106-1.217 5.612-1.21 7.73.012.733.423 1.29.962 1.634 1.58v-5.09c-.002-.237.03-.49.102-.76.014-.07.032-.142.054-.203.07-.22.184-.454.336-.696.03-.056.064-.11.097-.155.136-.197.31-.396.526-.596.03-.034.065-.068.096-.095.244-.215.513-.407.807-.576 1.05-.606 2.416-.94 3.848-.94 1.453.003 2.826.34 3.883.95.294.17.564.362.8.57.05.042.136.13.19.192.156.153.313.315.455.517.037.052.08.127.117.197.023.037.047.077.07.118V4.004C33.764 2.8 34.5 1.67 35.794.924c2.108-1.216 5.613-1.21 7.73.01.61.354 1.098.785 1.447 1.282.02.03.04.062.06.096.165.25.29.504.374.76.02.057.036.123.05.19.073.276.106.523.105.767V33.63l4 2.317 10.676-6.368c.456-.27 1.023-.274 1.48-.01l20.592 11.933v-3.152c-.006-.445.064-.91.205-1.368l.012-.04c.07-.215.148-.407.238-.595.01-.027.024-.056.033-.075.11-.216.215-.388.327-.56.006-.016.045-.078.09-.14.066-.098.16-.215.26-.332.104-.132.15-.19.202-.248.096-.106.204-.21.314-.313l1.12.946-1.04-1.024c.054-.056.11-.11.17-.164.392-.344.85-.67 1.355-.962 1.87-1.08 4.327-1.674 6.92-1.674 2.616 0 5.1.602 6.994 1.696.28.163.537.33.778.505.062.045.12.09.18.138.214.168.366.292.507.42.08.073.15.142.22.212.146.145.268.275.38.407.07.08.142.17.21.26.105.138.202.28.29.42.064.102.114.183.16.264.09.166.168.333.238.5.038.086.067.15.09.216.188.525.278 1.054.272 1.587 0 .042-.01.17-.013.213-.01.158-.026.317-.05.474v10.79c.396-.366.843-.712 1.338-1.036 2.314-2.217 5.814-3.49 9.64-3.503h.055c3.93 0 7.618 1.38 9.904 3.7l.17.115c.088.064.16.12.232.18l.078.06c.207.163.402.32.58.483.088.08.17.16.253.243.21.21.367.377.51.544.092.108.18.214.26.32.13.172.256.355.372.54.09.142.145.23.195.322.117.213.217.43.306.647.048.106.082.186.11.266.226.63.338 1.287.33 1.945 0 .085-.008.162-.015.24-.013.223-.035.438-.072.652v6.613c.494 2.668-1.02 5.298-4.075 7.062-.578.335-1.21.636-1.888.902l.002.15c0 1.99-.726 3.847-2.035 5.288.022.1.032.202.032.304l-.003 3.788c0 .52-.278 1.003-.728 1.264l-17.583 10.16c-.235.136-.525.205-.746.197-.254 0-.507-.067-.732-.202l-6.578-3.89-10.75 6.282 2.328 1.338c.026.01.05.024.075.035.068.03.132.068.194.11 1.27.77 2.055 2.16 2.055 3.64 0 .762-.203 1.496-.59 2.15v.55c0 .516-.274.995-.718 1.257l-3.183 1.882c-.23.137-.51.186-.748.203-.124.232-.31.43-.545.57l-3.183 1.884c-.23.136-.476.198-.746.202-.124.232-.31.43-.544.57l-3.184 1.882c-.23.134-.488.202-.745.202zm-6.092-6.668l6.083 3.516 1.732-1.024v-.16c0-.322.107-.636.304-.89.046-.06.084-.124.12-.19.187-.346.508-.602.887-.708.38-.107.787-.056 1.13.14l.303.178 1.732-1.025v-.16c0-.323.107-.637.304-.892.045-.06.083-.122.12-.187.186-.346.507-.603.886-.71.38-.106.785-.055 1.127.142l.307.177 1.73-1.024v-.16c0-.324.108-.638.306-.894.13-.17.286-.448.286-.81 0-.478-.25-.91-.666-1.156-.05-.02-.068-.028-.12-.057L78.29 94.82c-.453-.26-.732-.74-.734-1.262-.002-.52.274-1.004.724-1.266l13.664-7.985c.457-.267 1.025-.267 1.48.004l6.583 3.894 16.117-9.314v-2.112c-.383-.256-.627-.68-.65-1.144-.024-.49.2-.96.595-1.25 1.307-.96 2.058-2.43 2.058-4.03 0-.28-.028-.573-.085-.893-.13-.724.3-1.43 1.002-1.65.91-.284 1.727-.634 2.428-1.04 1.995-1.15 2.96-2.64 2.65-4.082-.022-.1-.033-.203-.033-.307v-6.863c0-.066.005-.13.013-.196.007-.06.017-.133.027-.18.018-.095.03-.21.036-.328 0-.02.01-.114.01-.135.005-.288-.05-.6-.16-.91l-.06-.132c-.05-.123-.103-.24-.165-.354l-.07-.115c-.104-.164-.177-.273-.26-.38-.054-.073-.107-.136-.16-.2-.09-.106-.192-.213-.3-.32-.1-.1-.146-.147-.197-.193-.13-.117-.27-.23-.412-.34l-.445-.324c-.09-.06-.17-.13-.245-.206-1.726-1.814-4.658-2.9-7.85-2.913h-.05c-3.103 0-6.003 1.035-7.757 2.77-.074.073-.156.138-.243.193-1.535.976-2.38 2.16-2.38 3.33 0 .522-.278 1.005-.73 1.266-.45.26-1.01.26-1.462-.003l-.658-.382c-.45-.26-.727-.743-.727-1.263v-15.19c0-.063.004-.127.012-.19.008-.065.018-.137.03-.19.004-.024.01-.09.013-.158 0-.02.008-.1.01-.12 0-.14-.03-.33-.097-.514l-.043-.094c-.03-.07-.06-.14-.1-.21l-.05-.086c-.07-.108-.115-.176-.165-.242-.033-.044-.068-.086-.104-.127-.066-.076-.13-.144-.2-.212l-.145-.144c-.085-.076-.184-.154-.283-.232l-.094-.075c-.216-.16-.392-.275-.584-.387-1.436-.83-3.452-1.304-5.532-1.304-2.06 0-4.05.467-5.46 1.282-.338.196-.64.408-.89.63l-.12.12c-.105.096-.157.144-.202.193-.01.016-.07.092-.083.107-.087.105-.128.15-.162.2l.004-.005c.003 0-.018.034-.04.068-.045.067-.087.13-.123.196l-.022.048c-.044.09-.077.165-.103.24-.006.016-.01.032-.016.046-.048.155-.075.323-.073.484v5.703c0 .522-.278 1.005-.73 1.266-.452.26-1.01.26-1.46-.002L60.992 32.53 50.316 38.9c-.454.27-1.022.275-1.48.01l-5.47-3.17c-.45-.262-.728-.744-.728-1.265V4.09v-.066l-.015-.048c-.01-.016-.022-.042-.046-.076-.01-.014-.02-.028-.028-.042-.068-.085-.213-.232-.49-.392-1.226-.707-3.596-.712-4.81-.012-.458.265-.556.493-.555.535v32.266c0 .806-.654 1.46-1.46 1.46H33.96l-.132.156c-.397.466-1.04.633-1.616.424-.574-.212-.956-.76-.956-1.37V10.603l-.01-.036c-.01-.02-.03-.046-.046-.073l-.036-.06c-.028-.03-.066-.063-.102-.098-.022-.02-.06-.06-.092-.097-.083-.067-.18-.133-.29-.197-.612-.354-1.49-.558-2.41-.56-.925 0-1.794.2-2.398.548-.107.063-.204.13-.288.197l-.052.05c-.066.06-.107.103-.132.133l-.03.047-.036.058-.015.054-.005 34.758c0 .522-.28 1.004-.73 1.265l-2.516 1.452c-.453.26-1.01.26-1.46 0-.453-.26-.73-.743-.73-1.265V17.273c-.003-.03-.004-.06-.004-.09l-.014-.046c-.07-.147-.242-.332-.562-.516-1.226-.707-3.595-.712-4.808-.01-.46.264-.557.49-.556.533V63.17c0 .452-.21.88-.57 1.156-.357.277-.824.37-1.263.255-.42-.11-.846-.165-1.266-.165-2.768 0-5.02 2.252-5.02 5.022 0 1.6.75 3.068 2.06 4.03.395.292.62.762.594 1.25-.022.464-.264.887-.647 1.143v2.114l16.117 9.314 6.657-3.937c.454-.268 1.02-.27 1.476-.006l18.325 10.62c.45.26.728.742.728 1.263v8.78c.003.216.24.6.898.98 1.63.942 4.727.95 6.344.015.47-.27.943-.693.863-1.065-.02-.1-.03-.203-.03-.306v-2.034c0-.522.278-1.005.73-1.266.453-.26 1.01-.26 1.462.002l1.572.912.948-.553c.613-.357 1.392-.222 1.85.317.35.413.484.976.533 1.378.008.06.01.12.01.18v.783z"/>
    <linearGradient id="a" gradientUnits="userSpaceOnUse" x1="-135.233" y1="166.542" x2="-117.625" y2="166.542" gradientTransform="matrix(1 0 0 -1 219 213.5)">
        <stop offset="0" stop-color="#F9F6E7"/>
        <stop offset="1" stop-color="#B19C92"/>
    </linearGradient>
    <path fill="url(#a)" d="M101.307 39.013c.325-1.506-.516-3.084-2.53-4.245-3.45-1.992-9.025-2.003-12.452-.023-1.72.993-2.573 2.3-2.56 3.606v17.215c.015 1.295.88 2.592 2.6 3.583 3.45 1.992 9.025 2.003 12.452.023 1.984-1.145 2.812-2.706 2.49-4.203V39.013z"/>
    <path fill="#F9F6E7" d="M98.816 41.957c-3.427 1.98-9.003 1.97-12.453-.022-3.45-1.99-3.466-5.21-.04-7.19 3.428-1.98 9.004-1.968 12.454.023 3.45 1.99 3.467 5.208.04 7.19z"/>
    <path fill="#F9F6E7" d="M98.25 41.63c-3.116 1.798-8.186 1.79-11.323-.02-3.135-1.81-3.152-4.74-.034-6.538 3.116-1.8 8.186-1.79 11.323.02 3.135 1.81 3.15 4.738.034 6.537z"/>
    <linearGradient id="b" gradientUnits="userSpaceOnUse" x1="-117.032" y1="154.596" x2="-93.355" y2="154.596" gradientTransform="matrix(1 0 0 -1 219 213.5)">
        <stop offset="0" stop-color="#F9F6E7"/>
        <stop offset="1" stop-color="#B19C92"/>
    </linearGradient>
    <path fill="url(#b)" d="M125.553 55.516c.438-2.025-.695-4.15-3.4-5.71-4.637-2.68-12.135-2.693-16.745-.03-2.314 1.334-3.46 3.09-3.44 4.85v8.557c.018 1.743 1.183 3.486 3.492 4.82 4.638 2.68 12.136 2.693 16.747.03 2.668-1.54 3.78-3.638 3.346-5.653v-6.864z"/>
    <path fill="#F9F6E7" d="M122.204 59.473c-4.61 2.662-12.107 2.648-16.747-.03-4.637-2.678-4.66-7.007-.052-9.667 4.61-2.66 12.107-2.648 16.747.03 4.64 2.677 4.662 7.006.052 9.667z"/>
    <path fill="#F9F6E7" d="M121.442 59.033c-4.192 2.42-11.01 2.408-15.228-.027-4.22-2.435-4.238-6.37-.047-8.792 4.192-2.42 11.01-2.407 15.228.03 4.22 2.435 4.238 6.37.047 8.79z"/>
    <linearGradient id="c" gradientUnits="userSpaceOnUse" x1="-115.965" y1="159.787" x2="-94.43" y2="159.787" gradientTransform="matrix(1 0 0 -1 219 213.5)">
        <stop offset="0" stop-color="#F6E45D"/>
        <stop offset="1" stop-color="#EEB133"/>
    </linearGradient>
    <path fill="url(#c)" d="M113.804 46.83c-5.947 0-10.768 3.38-10.768 7.553h.004c.017 1.584 1.075 3.17 3.174 4.38 4.22 2.435 11.036 2.45 15.228.028 1.96-1.13 3-2.596 3.118-4.082.006-.105.01-.21.012-.315v-.013c0-4.17-4.82-7.552-10.768-7.552v.002z"/>
    <path fill="#F9F6E7" d="M92.586 69.826l-49.19-28.503L60.98 30.837l49.19 28.503"/>
    <linearGradient id="d" gradientUnits="userSpaceOnUse" x1="-207.952" y1="146.515" x2="-196.24" y2="146.515" gradientTransform="matrix(1 0 0 -1 219 213.5)">
        <stop offset="0" stop-color="#F9F6E7"/>
        <stop offset="1" stop-color="#B19C92"/>
    </linearGradient>
    <path fill="url(#d)" d="M22.715 66.688c.216-1.003-.344-2.052-1.68-2.824-2.296-1.326-6.004-1.334-8.285-.016-1.145.662-1.712 1.53-1.702 2.4v1.475c.01.862.584 1.723 1.728 2.383 2.295 1.324 6.003 1.332 8.284.015 1.32-.76 1.87-1.798 1.655-2.795v-.637z"/>
    <path fill="#F9F6E7" d="M21.06 68.646c-2.28 1.316-5.99 1.31-8.286-.015-2.294-1.323-2.306-3.465-.025-4.782 2.28-1.316 5.987-1.31 8.283.015s2.307 3.467.027 4.783z"/>
    <linearGradient id="e" gradientUnits="userSpaceOnUse" x1="-206.526" y1="171.797" x2="-197.662" y2="171.797" gradientTransform="matrix(1 0 0 -1 219 213.5)">
        <stop offset="0" stop-color="#F9F6E7"/>
        <stop offset="1" stop-color="#B19C92"/>
    </linearGradient>
    <path fill="url(#e)" d="M21.335 17.182c.003-.66-.432-1.32-1.307-1.826-1.735-1.003-4.54-1.008-6.267-.012-.866.5-1.294 1.16-1.286 1.816v49.085c.008.652.444 1.305 1.31 1.804 1.735 1.002 4.54 1.007 6.266.01.867-.5 1.295-1.158 1.288-1.814V17.184l-.003-.002z"/>
    <path fill="#F9F6E7" d="M20.047 18.976c-1.723.995-4.53.99-6.267-.013s-1.745-2.623-.02-3.62 4.532-.99 6.27.013 1.744 2.623.017 3.62z"/>
    <linearGradient id="f" gradientUnits="userSpaceOnUse" x1="732.13" y1="273.851" x2="736.489" y2="277.626" gradientTransform="matrix(.866 .5 1 -.5774 -894.766 -190.784)">
        <stop offset="0" stop-color="#E5DBD1"/>
        <stop offset="1" stop-color="#656458"/>
    </linearGradient>
    <path fill="url(#f)" d="M19.554 18.69c-1.454.838-3.82.834-5.28-.01-1.463-.846-1.47-2.21-.02-3.05 1.455-.84 3.82-.835 5.282.01 1.462.844 1.47 2.21.018 3.05z"/>
    <linearGradient id="g" gradientUnits="userSpaceOnUse" x1="-196.571" y1="153.093" x2="-184.857" y2="153.093" gradientTransform="matrix(1 0 0 -1 219 213.5)">
        <stop offset="0" stop-color="#F9F6E7"/>
        <stop offset="1" stop-color="#B19C92"/>
    </linearGradient>
    <path fill="url(#g)" d="M34.097 60.11c.214-1.003-.345-2.052-1.682-2.824-2.295-1.326-6.003-1.334-8.284-.016-1.144.662-1.71 1.53-1.7 2.4v1.475c.01.862.583 1.723 1.727 2.383 2.296 1.324 6.004 1.33 8.286.015 1.32-.762 1.87-1.8 1.655-2.797v-.636z"/>
    <path fill="#F9F6E7" d="M32.44 62.07c-2.28 1.313-5.988 1.308-8.284-.017-2.296-1.324-2.308-3.466-.026-4.783 2.28-1.316 5.988-1.31 8.284.015 2.295 1.325 2.307 3.467.026 4.784z"/>
    <linearGradient id="h" gradientUnits="userSpaceOnUse" x1="-195.146" y1="178.375" x2="-186.284" y2="178.375" gradientTransform="matrix(1 0 0 -1 219 213.5)">
        <stop offset="0" stop-color="#F9F6E7"/>
        <stop offset="1" stop-color="#B19C92"/>
    </linearGradient>
    <path fill="url(#h)" d="M32.716 10.604c.003-.66-.432-1.32-1.307-1.826-1.737-1.003-4.543-1.008-6.27-.012-.866.5-1.294 1.16-1.286 1.815v49.087c.007.652.443 1.305 1.308 1.803 1.736 1.003 4.542 1.008 6.267.012.866-.5 1.294-1.16 1.286-1.816V10.604z"/>
    <path fill="#F9F6E7" d="M31.43 12.397c-1.726.996-4.532.99-6.27-.012-1.735-1.003-1.744-2.622-.018-3.618s4.53-.99 6.268.012c1.736 1.002 1.744 2.622.02 3.617z"/>
    <linearGradient id="i" gradientUnits="userSpaceOnUse" x1="732.124" y1="285.236" x2="736.484" y2="289.012" gradientTransform="matrix(.866 .5 1 -.5774 -894.766 -190.784)">
        <stop offset="0" stop-color="#E5DBD1"/>
        <stop offset="1" stop-color="#656458"/>
    </linearGradient>
    <path fill="url(#i)" d="M30.932 12.112c-1.453.84-3.817.835-5.28-.01-1.463-.844-1.47-2.21-.017-3.05 1.454-.838 3.82-.834 5.28.01 1.465.844 1.472 2.21.017 3.05z"/>
    <linearGradient id="j" gradientUnits="userSpaceOnUse" x1="-185.192" y1="159.671" x2="-173.479" y2="159.671" gradientTransform="matrix(1 0 0 -1 219 213.5)">
        <stop offset="0" stop-color="#F9F6E7"/>
        <stop offset="1" stop-color="#B19C92"/>
    </linearGradient>
    <path fill="url(#j)" d="M45.476 53.532c.216-1.003-.344-2.052-1.68-2.824-2.296-1.326-6.004-1.334-8.285-.016-1.144.662-1.71 1.53-1.7 2.4v1.475c.01.862.583 1.723 1.727 2.383 2.294 1.324 6.002 1.332 8.283.015 1.32-.763 1.87-1.8 1.655-2.798v-.635z"/>
    <path fill="#F9F6E7" d="M43.82 55.49c-2.28 1.316-5.99 1.31-8.285-.015-2.296-1.324-2.308-3.466-.026-4.783 2.28-1.316 5.99-1.31 8.285.015 2.294 1.325 2.306 3.467.024 4.783z"/>
    <linearGradient id="k" gradientUnits="userSpaceOnUse" x1="-183.766" y1="184.952" x2="-174.903" y2="184.952" gradientTransform="matrix(1 0 0 -1 219 213.5)">
        <stop offset="0" stop-color="#F9F6E7"/>
        <stop offset="1" stop-color="#B19C92"/>
    </linearGradient>
    <path fill="url(#k)" d="M44.096 4.027c.003-.66-.432-1.32-1.307-1.826-1.737-1-4.543-1.006-6.27-.01-.866.5-1.294 1.157-1.286 1.814v49.088c.007.652.443 1.305 1.308 1.8 1.737 1.004 4.543 1.01 6.27.014.867-.5 1.295-1.16 1.285-1.815V4.028z"/>
    <path fill="#F9F6E7" d="M42.81 5.82c-1.726.995-4.532.99-6.27-.013s-1.744-2.624-.018-3.62 4.53-.99 6.268.013 1.744 2.623.02 3.62z"/>
    <linearGradient id="l" gradientUnits="userSpaceOnUse" x1="732.116" y1="296.622" x2="736.476" y2="300.397" gradientTransform="matrix(.866 .5 1 -.5774 -894.766 -190.784)">
        <stop offset="0" stop-color="#E5DBD1"/>
        <stop offset="1" stop-color="#656458"/>
    </linearGradient>
    <path fill="url(#l)" d="M42.314 5.534c-1.454.84-3.82.835-5.28-.01-1.464-.844-1.47-2.21-.018-3.05 1.454-.838 3.817-.834 5.28.01 1.463.845 1.47 2.21.018 3.05z"/>
    <path fill="#E7D7C7" d="M62.965 102.933L13.775 74.43V58.424l49.19 28.505"/>
    <path fill="#F9F6E7" d="M62.965 86.928l-49.19-28.503 5.442-3.143 49.193 28.5"/>
    <path fill="#E7D7C7" d="M68.41 83.784l-49.252-28.4-.016-7.266 49.252 28.4"/>
    <path fill="#F9F6E7" d="M68.394 76.518L19.202 48.015 43.38 34.058l49.19 28.5"/>
    <path fill="#F6E438" d="M78.61 62.31L33.285 36.255 23.217 48.118 68.54 74.172"/>
    <path fill="#EACC75" d="M88.68 62.305L43.352 36.25l-10.067.006L78.61 62.31"/>
    <path fill="#BFABA7" d="M88.68 62.305L68.54 74.17l10.068-11.86m13.97 7.52l-.01-7.27-24.173 13.958.016 7.266-5.444 3.145v16.003l47.208-27.587V59.34"/>
    <path fill="#DBD7C6" d="M49.67 37.692l4.065-2.332 48.988 28.422-10.136 6.043-.01-7.27"/>
    <g>
        <linearGradient id="m" gradientUnits="userSpaceOnUse" x1="-169.337" y1="114.889" x2="-158.3" y2="114.889" gradientTransform="matrix(1 0 0 -1 219 213.5)">
            <stop offset="0" stop-color="#F9F6E7"/>
            <stop offset="1" stop-color="#B19C92"/>
        </linearGradient>
        <path fill="url(#m)" d="M60.658 93.63c.204-.943-.324-1.933-1.585-2.66-2.16-1.25-5.657-1.257-7.806-.016-1.08.623-1.612 1.44-1.604 2.26v10.79c.01.813.552 1.626 1.628 2.247 2.162 1.25 5.658 1.257 7.807.015 1.244-.72 1.762-1.696 1.56-2.636v-10z"/>
        <path fill="#F9F6E7" d="M59.096 95.475c-2.15 1.24-5.643 1.237-7.806-.013-2.163-1.248-2.174-3.266-.025-4.506s5.643-1.237 7.806.013c2.164 1.247 2.175 3.264.026 4.505z"/>
    </g>
    <g>
        <path fill="#E7D7C7" d="M100 89.894l-7.414-4.384v-3.785L100 86.108"/>
        <path fill="#F9F6E7" d="M100 86.108l-7.414-4.384 17.587-10.165 7.414 4.384"/>
        <path fill="#BFABA7" d="M117.586 79.73l-17.584 10.163v-3.785l17.587-10.165"/>
        <linearGradient id="n" gradientUnits="userSpaceOnUse" x1="-118.481" y1="147.156" x2="-107.483" y2="128.107" gradientTransform="matrix(1 0 0 -1 219 213.5)">
            <stop offset="0" stop-color="#F6E45D"/>
            <stop offset="1" stop-color="#EEB133"/>
        </linearGradient>
        <path fill="url(#n)" d="M119.592 70.352c0-3.58-2.9-6.482-6.48-6.482-1.177 0-2.276.317-3.228.865l.004.007c-.127.064-.247.14-.36.227L94.74 73.452c-.088.035-.173.073-.255.12-.004 0-.006 0-.008.003l-.043.03c-1.93 1.132-3.23 3.222-3.23 5.623 0 3.605 2.924 6.528 6.53 6.528 1.154 0 2.236-.302 3.177-.828l-.02-.04.007-.002.004.01 15.316-8.788-.005-.008c.225-.113.43-.263.61-.45 1.673-1.174 2.772-3.105 2.772-5.3z"/>
    </g>
    <g>
        <path fill="#E7D7C7" d="M23.947 88.978l7.414-4.384V80.81l-7.413 4.383"/>
        <path fill="#F9F6E7" d="M23.947 85.193l7.414-4.384-17.586-10.166L6.36 75.03"/>
        <path fill="#BFABA7" d="M6.36 78.816L23.947 88.98v-3.786L6.36 75.028"/>
        <linearGradient id="o" gradientUnits="userSpaceOnUse" x1="-229.292" y1="131.142" x2="-240.29" y2="150.191" gradientTransform="rotate(180 -107.82 106.75)">
            <stop offset="0" stop-color="#F6E45D"/>
            <stop offset="1" stop-color="#EEB133"/>
        </linearGradient>
        <path fill="url(#o)" d="M4.354 69.437c0-3.58 2.9-6.482 6.482-6.482 1.175 0 2.274.317 3.226.865l-.004.007c.127.064.246.14.36.227l14.787 8.484c.088.035.173.073.255.12.003 0 .005 0 .007.003l.043.03c1.93 1.133 3.23 3.223 3.23 5.624 0 3.606-2.923 6.53-6.528 6.53-1.154 0-2.236-.303-3.177-.83l.02-.038-.007-.003-.005.01-15.312-8.79.005-.007c-.224-.113-.428-.263-.61-.45-1.674-1.174-2.772-3.104-2.77-5.3z"/>
    </g>
    <g>
        <path fill="#E7D7C7" d="M81.35 103.244l3.183-1.882v-1.626l-3.184 1.884"/>
        <path fill="#F9F6E7" d="M81.35 101.62l3.183-1.883-7.553-4.366-3.184 1.884"/>
        <path fill="#BFABA7" d="M73.796 98.88l7.553 4.365v-1.624l-7.554-4.365"/>
        <linearGradient id="p" gradientUnits="userSpaceOnUse" x1="-48.318" y1="113.098" x2="-53.041" y2="121.279" gradientTransform="rotate(180 14.305 106.75)">
            <stop offset="0" stop-color="#F6E45D"/>
            <stop offset="1" stop-color="#EEB133"/>
        </linearGradient>
        <path fill="url(#p)" d="M72.935 94.85c0-1.535 1.246-2.782 2.785-2.782.504 0 .977.136 1.385.372l-.002.003c.055.03.107.058.156.097l6.347 3.644c.04.016.075.03.11.05h.002c.006.006.01.01.018.015.828.486 1.386 1.384 1.386 2.414 0 1.55-1.256 2.804-2.804 2.804-.495 0-.96-.13-1.363-.354l.01-.017h-.003l-.002.003-6.578-3.774v-.004c-.095-.05-.183-.114-.26-.195-.72-.502-1.19-1.332-1.19-2.275z"/>
    </g>
    <g>
        <path fill="#E7D7C7" d="M76.873 105.9l3.184-1.883v-1.626l-3.184 1.885"/>
        <path fill="#F9F6E7" d="M76.873 104.276l3.184-1.884-7.552-4.366-3.185 1.884"/>
        <path fill="#BFABA7" d="M69.32 101.535l7.553 4.365v-1.626L69.32 99.91"/>
        <linearGradient id="q" gradientUnits="userSpaceOnUse" x1="-43.841" y1="110.443" x2="-48.564" y2="118.623" gradientTransform="rotate(180 14.305 106.75)">
            <stop offset="0" stop-color="#F6E45D"/>
            <stop offset="1" stop-color="#EEB133"/>
        </linearGradient>
        <path fill="url(#q)" d="M68.458 97.507c0-1.538 1.246-2.785 2.785-2.785.504 0 .977.136 1.385.373l-.002.005c.055.03.107.058.156.097l6.35 3.644c.04.017.075.032.11.052v-.002l.002.002c.006.004.01.01.018.013.828.487 1.387 1.385 1.387 2.415 0 1.55-1.257 2.804-2.805 2.804-.497 0-.96-.13-1.363-.354l.01-.018h-.004l-.003.003-6.578-3.774.003-.004c-.097-.05-.185-.114-.26-.195-.72-.5-1.192-1.33-1.192-2.274z"/>
    </g>
    <g>
        <path fill="#E7D7C7" d="M72.397 108.555l3.184-1.883v-1.624l-3.183 1.883"/>
        <path fill="#F9F6E7" d="M72.397 106.93l3.184-1.883-7.552-4.366-3.184 1.884"/>
        <path fill="#BFABA7" d="M64.844 104.19l7.553 4.366v-1.626l-7.553-4.365"/>
        <linearGradient id="r" gradientUnits="userSpaceOnUse" x1="-39.365" y1="107.788" x2="-44.089" y2="115.968" gradientTransform="rotate(180 14.305 106.75)">
            <stop offset="0" stop-color="#F6E45D"/>
            <stop offset="1" stop-color="#EEB133"/>
        </linearGradient>
        <path fill="url(#r)" d="M63.983 100.163c0-1.538 1.246-2.785 2.785-2.785.504 0 .977.136 1.385.373l-.002.004c.056.03.108.06.157.097l6.35 3.646c.04.016.075.03.11.05l.02.015c.828.488 1.386 1.386 1.386 2.416 0 1.55-1.256 2.804-2.804 2.804-.498 0-.962-.13-1.364-.354l.01-.017-.004-.003-.002.004-6.578-3.773.002-.004c-.097-.05-.185-.114-.26-.195-.72-.502-1.192-1.332-1.19-2.275z"/>
    </g>
</svg>