<?xml version="1.0" encoding="utf-8"?>
<!-- Generator: Adobe Illustrator 17.0.0, SVG Export Plug-In . SVG Version: 6.00 Build 0)  -->
<!DOCTYPE svg PUBLIC "-//W3C//DTD SVG 1.1//EN" "http://www.w3.org/Graphics/SVG/1.1/DTD/svg11.dtd">
<svg version="1.1" id="Layer_1" xmlns="http://www.w3.org/2000/svg" xmlns:xlink="http://www.w3.org/1999/xlink" x="0px" y="0px"
	 width="250px" height="250px" viewBox="0 0 250 250" enable-background="new 0 0 250 250" xml:space="preserve">
<g>
	<path fill="#FFFFFF" d="M125.072,2.164l86.79,35.799l35.974,86.848l-35.908,87.051l-86.845,35.972l-86.945-36.164L2.165,124.823
		l36.056-86.684L125.072,2.164 M125.071,0L36.692,36.608L0,124.821L36.608,213.2l88.475,36.8l88.379-36.608L250,124.81
		l-36.608-88.378L125.071,0L125.071,0z"/>
</g>
<polygon fill="none" points="140.428,107.477 131.145,104.38 125,122.816 125,153.761 "/>
<polygon fill="none" points="151.897,119.174 168.008,135.286 151.899,151.399 158.817,158.317 181.849,135.286 158.815,112.256 "/>
<polygon fill="#FFFFFF" points="93.185,158.315 70.151,135.286 93.183,112.254 100.101,119.173 83.992,135.286 100.103,151.397 "/>
<rect x="121.108" y="104.341" transform="matrix(0.9486 0.3164 -0.3164 0.9486 49.2789 -32.9171)" fill="#FFFFFF" width="9.785" height="61.89"/>
<polygon fill="#FFFFFF" points="158.817,158.317 151.899,151.399 168.008,135.286 151.897,119.174 158.815,112.256 181.849,135.286 
	"/>
<path opacity="0.3" fill="#FFFFFF" d="M125,77l-18.571-20H38v137h176V77H125z"/>
<path opacity="0.3" fill="#FFFFFF" d="M125,194h89V77h-89"/>
<polygon fill="#FFFFFF" points="214,61.169 110.555,61.217 125,77 214,77 "/>
</svg>
