<?xml version="1.0" encoding="UTF-8" standalone="no"?>
<svg width="182px" height="70px" viewBox="0 0 182 70" version="1.1" xmlns="http://www.w3.org/2000/svg" xmlns:xlink="http://www.w3.org/1999/xlink" xmlns:sketch="http://www.bohemiancoding.com/sketch/ns">
    <!-- Generator: Sketch 3.3.3 (12081) - http://www.bohemiancoding.com/sketch -->
    <title>critical</title>
    <desc>Created with Sketch.</desc>
    <defs></defs>
    <g id="Landing-pages" stroke="none" stroke-width="1" fill="none" fill-rule="evenodd" sketch:type="MSPage">
        <g id="digitale-lespakketen-copy" sketch:type="MSArtboardGroup" transform="translate(-421.000000, -4765.000000)" fill="#89A36A">
            <g id="we-work-for" sketch:type="MSLayerGroup" transform="translate(0.000000, 4516.000000)">
                <g id="critical" transform="translate(421.000000, 249.000000)" sketch:type="MSShapeGroup">
                    <path d="M32.81824,39.5609375 L26.992056,39.5609375 L26.992056,53.5332292 C26.992056,54.1923958 27.002248,54.9529167 27.022632,55.8147917 C27.042288,56.6759375 27.13256,58.9640625 27.294176,62.6798958 L27.112904,62.6798958 L19.513312,39.5609375 L13.78832,39.5609375 L6.692504,62.72 L6.510504,62.72 C6.766032,58.0088542 6.893432,54.8654167 6.893432,53.2911458 L6.893432,39.5609375 L1.309672,39.5609375 L1.309672,69.0797917 L9.81708,69.0797917 L16.792048,46.50625 L16.912896,46.50625 L24.310832,69.0797917 L32.81824,69.0797917 L32.81824,39.5609375 Z M52.844064,64.6180208 C52.399256,62.895 51.129624,58.6344792 49.033712,51.8371875 L56.714112,51.8371875 C54.73832,58.2035417 53.625936,61.8048958 53.377688,62.6390625 C53.12944,63.4732292 52.95108,64.133125 52.844064,64.6180208 Z M67.075008,39.5609375 L60.343192,39.5609375 L58.205056,46.5871875 L47.461232,46.5871875 L45.324552,39.5609375 L38.59128,39.5609375 L48.992944,69.2008333 L56.633304,69.2008333 L67.075008,39.5609375 Z M79.380392,39.1569792 C76.235432,39.1569792 73.453744,39.7490625 71.0346,40.9339583 L71.0346,46.7490625 C73.022768,45.8602083 74.706632,45.2345833 76.084008,44.8714583 C77.462112,44.5076042 78.721552,44.3260417 79.863784,44.3260417 C81.234608,44.3260417 82.28584,44.5885417 83.018936,45.1135417 C83.751304,45.6385417 84.117488,46.41875 84.117488,47.455625 C84.117488,48.0345833 83.9566,48.5486458 83.634096,49.0007292 C83.311592,49.4513542 82.837664,49.8852083 82.212312,50.3022917 C81.587688,50.719375 80.314416,51.3858333 78.392496,52.3016667 C76.591424,53.1496875 75.240256,53.9634375 74.340448,54.744375 C73.439912,55.5253125 72.720648,56.4338542 72.184112,57.47 C71.64612,58.5061458 71.377488,59.7180208 71.377488,61.1048958 C71.377488,63.7160417 72.260552,65.7686458 74.028136,67.2627083 C75.794992,68.7567708 78.237432,69.5041667 81.356184,69.5041667 C82.887896,69.5041667 84.348992,69.3226042 85.7402,68.95875 C87.131408,68.595625 88.585224,68.08375 90.10456,67.4245833 L88.088728,62.558125 C86.516248,63.2048958 85.21604,63.6555208 84.188104,63.9114583 C83.160168,64.1666667 82.148248,64.295 81.1538,64.295 C79.971528,64.295 79.06444,64.0186458 78.432536,63.4666667 C77.800632,62.9146875 77.485408,62.195 77.485408,61.306875 C77.485408,60.7548958 77.612808,60.2736458 77.867608,59.863125 C78.123136,59.451875 78.530088,59.0552083 79.087736,58.6716667 C79.646112,58.288125 80.965248,57.5983333 83.049512,56.6022917 C85.803536,55.2832292 87.692696,53.9605208 88.71408,52.6348958 C89.734736,51.3085417 90.245792,49.6832292 90.245792,47.7582292 C90.245792,45.093125 89.288472,42.993125 87.373104,41.4589583 C85.458464,39.9240625 82.793256,39.1569792 79.380392,39.1569792 Z M104.18408,39.1569792 C101.03912,39.1569792 98.257432,39.7490625 95.838288,40.9339583 L95.838288,46.7490625 C97.826456,45.8602083 99.509592,45.2345833 100.887696,44.8714583 C102.265072,44.5076042 103.52524,44.3260417 104.667472,44.3260417 C106.038296,44.3260417 107.089528,44.5885417 107.821896,45.1135417 C108.554992,45.6385417 108.921176,46.41875 108.921176,47.455625 C108.921176,48.0345833 108.760288,48.5486458 108.437784,49.0007292 C108.11528,49.4513542 107.641352,49.8852083 107.016,50.3022917 C106.391376,50.719375 105.118104,51.3858333 103.196184,52.3016667 C101.395112,53.1496875 100.043944,53.9634375 99.144136,54.744375 C98.2436,55.5253125 97.524336,56.4338542 96.9878,57.47 C96.449808,58.5061458 96.181176,59.7180208 96.181176,61.1048958 C96.181176,63.7160417 97.06424,65.7686458 98.831824,67.2627083 C100.59868,68.7567708 103.04112,69.5041667 106.159144,69.5041667 C107.691584,69.5041667 109.15268,69.3226042 110.543888,68.95875 C111.934368,68.595625 113.388912,68.08375 114.908248,67.4245833 L112.892416,62.558125 C111.319936,63.2048958 110.019728,63.6555208 108.991064,63.9114583 C107.963856,64.1666667 106.951936,64.295 105.957488,64.295 C104.774488,64.295 103.868128,64.0186458 103.236224,63.4666667 C102.60432,62.9146875 102.289096,62.195 102.289096,61.306875 C102.289096,60.7548958 102.416496,60.2736458 102.671296,59.863125 C102.926824,59.451875 103.333048,59.0552083 103.891424,58.6716667 C104.449072,58.288125 105.768936,57.5983333 107.852472,56.6022917 C110.607224,55.2832292 112.495656,53.9605208 113.517768,52.6348958 C114.538424,51.3085417 115.04948,49.6832292 115.04948,47.7582292 C115.04948,45.093125 114.09216,42.993125 112.176792,41.4589583 C110.261424,39.9240625 107.596944,39.1569792 104.18408,39.1569792 Z M13.243776,0.1465625 C8.956584,0.1465625 5.676944,1.44885417 3.406312,4.0534375 C1.134952,6.65802083 0,10.3964583 0,15.2694792 C0,18.3385417 0.55692,21.0269792 1.672944,23.3355208 C2.78824,25.6440625 4.390568,27.4144792 6.480656,28.6460417 C8.570016,29.8776042 11.019736,30.49375 13.82836,30.49375 C16.691584,30.49375 19.567184,29.8003125 22.455888,28.4141667 L20.440056,23.3260417 C19.338592,23.8510417 18.229848,24.3082292 17.114552,24.6990625 C15.998528,25.0891667 14.903616,25.2845833 13.82836,25.2845833 C11.47692,25.2845833 9.655464,24.3986458 8.365448,22.6296875 C7.075432,20.8592708 6.430424,18.3925 6.430424,15.229375 C6.430424,8.6471875 8.89616,5.35572917 13.82836,5.35572917 C15.898064,5.35572917 18.404568,5.87416667 21.347872,6.9103125 L21.347872,1.66104167 C18.928728,0.651145833 16.22712,0.1465625 13.243776,0.1465625 Z M34.278608,24.9411458 L34.278608,16.9655208 L36.29444,16.9655208 C38.270232,16.9655208 39.728416,17.2951042 40.66972,17.955 C41.609568,18.6141667 42.079856,19.6510417 42.079856,21.0641667 C42.079856,22.4641667 41.600104,23.4602083 40.639144,24.0530208 C39.677456,24.6451042 38.189424,24.9411458 36.173592,24.9411458 L34.278608,24.9411458 Z M51.57516,0.550520833 L44.640232,0.550520833 L37.605568,11.8773958 L34.278608,11.8773958 L34.278608,0.550520833 L28.029456,0.550520833 L28.029456,30.069375 L36.616944,30.069375 C40.621672,30.069375 43.58536,29.3394792 45.50728,27.8789583 C47.4292,26.4184375 48.39016,24.2003125 48.39016,21.2260417 C48.39016,19.4898958 47.91332,17.9455208 46.958912,16.5921875 C46.004504,15.2395833 44.653336,14.179375 42.906864,13.4122917 C47.34184,6.77541667 50.230544,2.48864583 51.57516,0.550520833 Z M55.697096,0.550520833 L61.946248,0.550520833 L61.946248,30.069375 L55.697096,30.069375 L55.697096,0.550520833 Z M81.147248,0.550520833 L74.898096,0.550520833 L74.898096,24.8602083 L66.895192,24.8602083 L66.895192,30.069375 L89.150152,30.069375 L89.150152,24.8602083 L81.147248,24.8602083 L81.147248,0.550520833 Z M94.098368,0.550520833 L100.34752,0.550520833 L100.34752,30.069375 L94.098368,30.069375 L94.098368,0.550520833 Z M120.11272,0.1465625 C115.825528,0.1465625 112.545888,1.44885417 110.275256,4.0534375 C108.003896,6.65802083 106.868944,10.3964583 106.868944,15.2694792 C106.868944,18.3385417 107.425864,21.0269792 108.541888,23.3355208 C109.657184,25.6440625 111.259512,27.4144792 113.3496,28.6460417 C115.43896,29.8776042 117.88868,30.49375 120.697304,30.49375 C123.560528,30.49375 126.436128,29.8003125 129.324832,28.4141667 L127.309,23.3260417 C126.207536,23.8510417 125.098792,24.3082292 123.983496,24.6990625 C122.867472,25.0891667 121.77256,25.2845833 120.697304,25.2845833 C118.345864,25.2845833 116.524408,24.3986458 115.234392,22.6296875 C113.944376,20.8592708 113.299368,18.3925 113.299368,15.229375 C113.299368,8.6471875 115.765104,5.35572917 120.697304,5.35572917 C122.767008,5.35572917 125.273512,5.87416667 128.216816,6.9103125 L128.216816,1.66104167 C125.797672,0.651145833 123.096064,0.1465625 120.11272,0.1465625 Z M145.442024,25.6076042 C144.997944,23.8845833 143.728312,19.6240625 141.631672,12.8267708 L149.3128,12.8267708 C147.33628,19.193125 146.223896,22.79375 145.976376,23.6286458 C145.7274,24.4628125 145.54904,25.1227083 145.442024,25.6076042 Z M159.672968,0.550520833 L152.941152,0.550520833 L150.803744,7.57677083 L140.059192,7.57677083 L137.922512,0.550520833 L131.18924,0.550520833 L141.591632,30.1904167 L149.231992,30.1904167 L159.672968,0.550520833 Z M182,0.550520833 L163.79636,0.550520833 L163.79636,30.069375 L170.045512,30.069375 L170.045512,5.71958333 L182,5.71958333 L182,0.550520833 Z" id="Fill-1" fill-opacity="0.6"></path>
                    <path d="M13.82836,5.35572917 C11.47692,5.35572917 9.655464,6.2409375 8.365448,8.010625 C7.075432,9.78104167 6.430424,12.2478125 6.430424,15.4109375 C6.430424,21.993125 8.89616,25.2845833 13.82836,25.2845833 C15.898064,25.2845833 18.404568,24.7661458 21.347872,23.73 L21.347872,28.9792708 C18.928728,29.9891667 16.22712,30.49375 13.243776,30.49375 C8.956584,30.49375 5.676944,29.1914583 3.406312,26.5861458 C1.134952,23.9822917 0,20.243125 0,15.3708333 C0,12.3017708 0.55692,9.61333333 1.672944,7.30479167 C2.78824,4.99552083 4.390568,3.22583333 6.480656,1.99354167 C8.570016,0.762708333 11.019736,0.1465625 13.82836,0.1465625 C16.691584,0.1465625 19.567184,0.84 22.455888,2.22614583 L20.440056,7.31427083 C19.338592,6.78927083 18.22912,6.33208333 17.114552,5.94125 C15.998528,5.55114583 14.903616,5.35572917 13.82836,5.35572917 Z M34.278608,18.7629167 L34.278608,30.0897917 L28.029456,30.0897917 L28.029456,0.5709375 L36.616944,0.5709375 C40.621672,0.5709375 43.58536,1.30083333 45.50728,2.76135417 C47.4292,4.221875 48.39016,6.44 48.39016,9.41427083 C48.39016,11.1504167 47.912592,12.6947917 46.958912,14.048125 C46.004504,15.4007292 44.653336,16.4609375 42.906864,17.2280208 C47.34184,23.8641667 50.230544,28.1516667 51.57516,30.0897917 L44.640232,30.0897917 L37.605568,18.7629167 L34.278608,18.7629167 Z M34.278608,13.6747917 L36.29444,13.6747917 C38.270232,13.6747917 39.728416,13.3452083 40.66972,12.6853125 C41.609568,12.0254167 42.079856,10.9892708 42.079856,9.57614583 C42.079856,8.17614583 41.600104,7.18010417 40.639144,6.58729167 C39.677456,5.99520833 38.189424,5.69916667 36.173592,5.69916667 L34.278608,5.69916667 L34.278608,13.6747917 Z M55.697096,0.5709375 L61.946248,0.5709375 L61.946248,30.0905208 L55.697096,30.0905208 L55.697096,0.5709375 Z M81.147248,30.0897917 L74.898096,30.0897917 L74.898096,5.78010417 L66.895192,5.78010417 L66.895192,0.5709375 L89.150152,0.5709375 L89.150152,5.78010417 L81.147248,5.78010417 L81.147248,30.0897917 Z M94.098368,0.5709375 L100.34752,0.5709375 L100.34752,30.0905208 L94.098368,30.0905208 L94.098368,0.5709375 Z M120.697304,5.35572917 C118.345864,5.35572917 116.524408,6.2409375 115.234392,8.010625 C113.944376,9.78104167 113.299368,12.2478125 113.299368,15.4109375 C113.299368,21.993125 115.765104,25.2845833 120.697304,25.2845833 C122.767008,25.2845833 125.273512,24.7661458 128.216816,23.73 L128.216816,28.9792708 C125.797672,29.9891667 123.096064,30.49375 120.11272,30.49375 C115.825528,30.49375 112.545888,29.1914583 110.275256,26.5861458 C108.003896,23.9822917 106.868944,20.243125 106.868944,15.3708333 C106.868944,12.3017708 107.425864,9.61333333 108.541888,7.30479167 C109.657184,4.99552083 111.259512,3.22583333 113.3496,1.99354167 C115.43896,0.762708333 117.88868,0.1465625 120.697304,0.1465625 C123.560528,0.1465625 126.436128,0.84 129.324832,2.22614583 L127.309,7.31427083 C126.207536,6.78927083 125.098792,6.33208333 123.983496,5.94125 C122.867472,5.55114583 121.77256,5.35572917 120.697304,5.35572917 Z M152.941152,30.0897917 L150.803744,23.0635417 L140.059192,23.0635417 L137.922512,30.0897917 L131.18924,30.0897917 L141.591632,0.449166667 L149.231992,0.449166667 L159.673696,30.0897917 L152.941152,30.0897917 Z M149.3128,17.8135417 C147.33628,11.4471875 146.223896,7.8465625 145.976376,7.01166667 C145.7274,6.1775 145.54904,5.51760417 145.442024,5.03270833 C144.997944,6.75572917 143.728312,11.01625 141.631672,17.8135417 L149.3128,17.8135417 Z M163.79636,30.0897917 L163.79636,0.5709375 L170.045512,0.5709375 L170.045512,24.9207292 L182,24.9207292 L182,30.0897917 L163.79636,30.0897917 Z M13.78832,69.1002083 L6.692504,45.9411458 L6.510504,45.9411458 C6.766032,50.6522917 6.893432,53.7957292 6.893432,55.3707292 L6.893432,69.1002083 L1.309672,69.1002083 L1.309672,39.5813542 L9.81708,39.5813542 L16.792048,62.1548958 L16.912896,62.1548958 L24.310832,39.5813542 L32.81824,39.5813542 L32.81824,69.1002083 L26.992056,69.1002083 L26.992056,55.1279167 C26.992056,54.46875 27.002248,53.7082292 27.022632,52.8463542 C27.042288,51.9852083 27.13256,49.6970833 27.294176,45.98125 L27.112904,45.98125 L19.513312,69.1002083 L13.78832,69.1002083 Z M60.343192,69.1002083 L58.205056,62.0739583 L47.461232,62.0739583 L45.324552,69.1002083 L38.59128,69.1002083 L48.992944,39.4603125 L56.633304,39.4603125 L67.075008,69.1002083 L60.343192,69.1002083 Z M56.714112,56.8239583 C54.737592,50.4576042 53.625936,46.8569792 53.377688,46.0220833 C53.12944,45.1879167 52.95108,44.5280208 52.844064,44.043125 C52.399256,45.7661458 51.130352,50.0266667 49.033712,56.8239583 L56.714112,56.8239583 Z M90.245792,60.9029167 C90.245792,63.5680208 89.288472,65.6680208 87.373104,67.2021875 C85.458464,68.7370833 82.793256,69.5041667 79.380392,69.5041667 C76.235432,69.5041667 73.453744,68.9120833 71.0346,67.7271875 L71.0346,61.9120833 C73.022768,62.8009375 74.706632,63.4265625 76.084008,63.7904167 C77.462112,64.1535417 78.721552,64.3351042 79.863784,64.3351042 C81.234608,64.3351042 82.28584,64.0726042 83.018936,63.5476042 C83.751304,63.0226042 84.118216,62.2423958 84.118216,61.2055208 C84.118216,60.6272917 83.9566,60.1125 83.634096,59.6611458 C83.311592,59.2097917 82.837664,58.7759375 82.212312,58.3588542 C81.587688,57.9417708 80.314416,57.2753125 78.392496,56.3594792 C76.591424,55.5114583 75.240256,54.6977083 74.340448,53.9167708 C73.439912,53.1358333 72.720648,52.2272917 72.184112,51.1911458 C71.64612,50.155 71.377488,48.943125 71.377488,47.5569792 C71.377488,44.9458333 72.260552,42.8925 74.028136,41.3984375 C75.794992,39.904375 78.237432,39.1569792 81.356184,39.1569792 C82.887896,39.1569792 84.348992,39.3385417 85.7402,39.7023958 C87.13068,40.0655208 88.585224,40.5773958 90.10456,41.2365625 L88.088728,46.1030208 C86.516248,45.4569792 85.21604,45.005625 84.188104,44.7504167 C83.160168,44.4944792 82.148248,44.3661458 81.154528,44.3661458 C79.971528,44.3661458 79.06444,44.6425 78.432536,45.1944792 C77.800632,45.7464583 77.485408,46.4661458 77.485408,47.3542708 C77.485408,47.9069792 77.612808,48.3875 77.867608,48.7980208 C78.123864,49.2092708 78.530088,49.6059375 79.087736,49.9894792 C79.646112,50.3730208 80.965248,51.0635417 83.049512,52.0588542 C85.803536,53.3786458 87.692696,54.7013542 88.71408,56.02625 C89.734736,57.3526042 90.245792,58.9779167 90.245792,60.9029167 Z M115.04948,60.9029167 C115.04948,63.5680208 114.09216,65.6680208 112.176792,67.2021875 C110.261424,68.7370833 107.596944,69.5041667 104.18408,69.5041667 C101.03912,69.5041667 98.257432,68.9120833 95.838288,67.7271875 L95.838288,61.9120833 C97.826456,62.8009375 99.51032,63.4265625 100.887696,63.7904167 C102.265072,64.1535417 103.52524,64.3351042 104.667472,64.3351042 C106.038296,64.3351042 107.089528,64.0726042 107.821896,63.5476042 C108.554992,63.0226042 108.921176,62.2423958 108.921176,61.2055208 C108.921176,60.6272917 108.760288,60.1125 108.437784,59.6611458 C108.11528,59.2097917 107.641352,58.7759375 107.016,58.3588542 C106.391376,57.9417708 105.118104,57.2753125 103.196184,56.3594792 C101.395112,55.5114583 100.043944,54.6977083 99.144136,53.9167708 C98.2436,53.1358333 97.524336,52.2272917 96.9878,51.1911458 C96.449808,50.155 96.181176,48.943125 96.181176,47.5569792 C96.181176,44.9458333 97.06424,42.8925 98.831824,41.3984375 C100.59868,39.904375 103.04112,39.1569792 106.159144,39.1569792 C107.691584,39.1569792 109.15268,39.3385417 110.543888,39.7023958 C111.934368,40.0655208 113.388912,40.5773958 114.908248,41.2365625 L112.892416,46.1030208 C111.319936,45.4569792 110.019728,45.005625 108.991792,44.7504167 C107.963856,44.4944792 106.951936,44.3661458 105.957488,44.3661458 C104.774488,44.3661458 103.868128,44.6425 103.236224,45.1944792 C102.60432,45.7464583 102.289096,46.4661458 102.289096,47.3542708 C102.289096,47.9069792 102.416496,48.3875 102.671296,48.7980208 C102.926824,49.2092708 103.333048,49.6059375 103.891424,49.9894792 C104.449072,50.3730208 105.768936,51.0635417 107.852472,52.0588542 C110.607224,53.3786458 112.495656,54.7013542 113.517768,56.02625 C114.538424,57.3526042 115.04948,58.9779167 115.04948,60.9029167 Z" id="Fill-13"></path>
                </g>
            </g>
        </g>
    </g>
</svg>