<?xml version="1.0" encoding="utf-8"?>
<!-- Generator: Adobe Illustrator 17.0.0, SVG Export Plug-In . SVG Version: 6.00 Build 0)  -->
<!DOCTYPE svg PUBLIC "-//W3C//DTD SVG 1.1//EN" "http://www.w3.org/Graphics/SVG/1.1/DTD/svg11.dtd">
<svg version="1.1" id="Layer_1" xmlns="http://www.w3.org/2000/svg" xmlns:xlink="http://www.w3.org/1999/xlink" x="0px" y="0px"
	 width="250px" height="250px" viewBox="0 0 250 250" enable-background="new 0 0 250 250" xml:space="preserve">
<g>
	<path fill="#FFFFFF" d="M125.072,2.164l86.79,35.799l35.974,86.848l-35.908,87.051l-86.845,35.972l-86.945-36.164L2.165,124.823
		l36.056-86.684L125.072,2.164 M125.071,0L36.692,36.608L0,124.821L36.608,213.2l88.475,36.8l88.379-36.608L250,124.81
		l-36.608-88.378L125.071,0L125.071,0z"/>
</g>
<path fill="none" d="M152.234,81c1.021,0,1.766-1.063,1.766-1.993v-8.679c0-2.17-1.766-4.328-4.149-4.328H125v15H152.234z"/>
<path opacity="0.3" fill="#FFFFFF" d="M194.106,81h-26.894c-1.021,0-2.213-1.063-2.213-1.993v-8.679
	C165,62.889,158.702,57,150.532,57H125v9h24.851c2.383,0,4.149,2.158,4.149,4.328v8.679c0,0.93-0.745,1.993-1.766,1.993H125v113
	h69.106c6.128,0,10.894-4.339,10.894-9.919V90.785C205,85.206,200.234,81,194.106,81z"/>
<path fill="#FFFFFF" d="M167.213,80.867c-1.021,0-2.043-0.93-2.043-1.86v-8.679c0-7.439-6.468-13.328-14.638-13.328H99.809
	c-8.17,0-14.638,5.889-14.638,13.328v8.679c0,0.93-1.021,1.86-2.043,1.86h13.957c-1.021,0-2.043-0.93-2.043-1.86v-8.679
	c0-2.17,2.043-4.029,4.426-4.029h50.383c2.383,0,4.426,1.86,4.426,4.029v8.679c0,0.93-1.021,1.86-2.043,1.86H167.213z"/>
<path opacity="0.3" fill="#FFFFFF" d="M194.106,81h-26.894c-1.021,0-2.213-1.063-2.213-1.993v-8.679
	C165,62.889,158.702,57,150.532,57H99.809C91.638,57,85,62.889,85,70.328v8.679C85,79.937,84.149,81,83.128,81H55.894
	C49.766,81,45,85.206,45,90.785v93.296c0,5.579,4.766,9.919,10.894,9.919h138.213c6.128,0,10.894-4.339,10.894-9.919V90.785
	C205,85.206,200.234,81,194.106,81z M154,79.007c0,0.93-0.745,1.993-1.766,1.993H97.085C96.064,81,95,79.937,95,79.007v-8.679
	C95,68.158,97.085,66,99.468,66h50.383c2.383,0,4.149,2.158,4.149,4.328V79.007z"/>
<rect x="119" y="81" fill="#FFFFFF" width="12" height="28"/>
<rect x="119" y="166" fill="#FFFFFF" width="12" height="28"/>
</svg>
