<?xml version="1.0" encoding="utf-8"?>
<!-- Generator: Adobe Illustrator 17.0.0, SVG Export Plug-In . SVG Version: 6.00 Build 0)  -->
<!DOCTYPE svg PUBLIC "-//W3C//DTD SVG 1.1//EN" "http://www.w3.org/Graphics/SVG/1.1/DTD/svg11.dtd">
<svg version="1.1" id="Layer_1" xmlns="http://www.w3.org/2000/svg" xmlns:xlink="http://www.w3.org/1999/xlink" x="0px" y="0px"
	 width="250px" height="250px" viewBox="0 0 250 250" enable-background="new 0 0 250 250" xml:space="preserve">
<g>
	<path fill="#FFFFFF" d="M125.072,2.164l86.79,35.799l35.974,86.848l-35.908,87.051l-86.845,35.972l-86.945-36.164L2.165,124.823
		l36.056-86.684L125.072,2.164 M125.071,0L36.692,36.608L0,124.821L36.608,213.2l88.475,36.8l88.379-36.608L250,124.81
		l-36.608-88.379L125.071,0L125.071,0z"/>
</g>
<rect x="45" y="56.5" opacity="0.3" fill="#FFFFFF" width="160" height="137"/>
<line fill="none" stroke="#FFFFFF" stroke-width="3" stroke-miterlimit="10" x1="45" y1="92.3" x2="205" y2="92.3"/>
<rect x="94.783" y="124.3" fill="#FFFFFF" width="60.435" height="11.526"/>
<line fill="none" stroke="#FFFFFF" stroke-width="3" stroke-miterlimit="10" x1="95" y1="74.3" x2="115" y2="74.3"/>
<line fill="none" stroke="#FFFFFF" stroke-width="3" stroke-miterlimit="10" x1="121" y1="74.3" x2="141" y2="74.3"/>
<line fill="none" stroke="#FFFFFF" stroke-width="3" stroke-miterlimit="10" x1="147" y1="74.3" x2="167" y2="74.3"/>
<line fill="none" stroke="#FFFFFF" stroke-width="3" stroke-miterlimit="10" x1="173" y1="74.3" x2="193" y2="74.3"/>
<polygon fill="#FFFFFF" points="68.8,64.7 71.6,70.7 78.4,71.7 73.6,76.3 74.6,82.9 68.8,79.7 62.8,82.9 64,76.3 59.2,71.7 
	65.8,70.7 "/>
<line fill="none" stroke="#FFFFFF" stroke-width="3" stroke-miterlimit="10" x1="70.609" y1="155.86" x2="179.391" y2="155.86"/>
<rect x="125" y="56.5" opacity="0.3" fill="#FFFFFF" width="80" height="137"/>
</svg>
