<?xml version="1.0" encoding="UTF-8" standalone="no"?>
<svg width="250px" height="250px" viewBox="0 0 250 250" version="1.1" xmlns="http://www.w3.org/2000/svg" xmlns:xlink="http://www.w3.org/1999/xlink" xmlns:sketch="http://www.bohemiancoding.com/sketch/ns">
    <!-- Generator: Sketch 3.3.3 (12081) - http://www.bohemiancoding.com/sketch -->
    <title>Artboard 1 Copy 3</title>
    <desc>Created with Sketch.</desc>
    <defs>
        <path d="M0,118.175676 L129.358361,118.175676 L129.358361,82.2724499 L0,82.2724499 L0,118.175676 L0,118.175676 Z M9.95064312,92.5305144 L24.8766078,92.5305144 L24.8766078,107.917611 L9.95064312,107.917611 L9.95064312,92.5305144 L9.95064312,92.5305144 Z M114.432396,41.2401918 C91.5459167,41.2401918 72.6396948,23.2885789 70.152034,0.20793374 L19.9012862,0.20793374 L0,77.1434176 L129.358361,77.1434176 L117.915121,41.2401918 L114.432396,41.2401918 L114.432396,41.2401918 Z" id="path-1"></path>
    </defs>
    <g id="Page-1" stroke="none" stroke-width="1" fill="none" fill-rule="evenodd" sketch:type="MSPage">
        <g id="Artboard-1-Copy-3" sketch:type="MSArtboardGroup">
            <path d="M48.3027804,31.7690285 C56.459077,28.3905799 67.2174954,23.9342971 78.0875531,19.4317718 C101.289462,9.82122622 125,0 125,0 C125,0 149.631822,10.2028348 173.172136,19.953552 C183.443977,24.2082878 193.507992,28.3769394 201.22703,31.5742696 C205.280803,33.2533972 213.388348,36.6116524 213.388348,36.6116524 L250,125 L213.388348,213.388348 L125,250 L36.6116524,213.388348 L0,125 C0,125 19.0377497,79.0388064 28.5566246,56.0582096 C31.2416339,49.5760238 36.6116524,36.6116524 36.6116524,36.6116524 L48.3027804,31.7690285 Z" id="Polygon-1-Copy-2" stroke="#FFFFFF" stroke-width="2" sketch:type="MSShapeGroup"></path>
            <path d="M57.8701766,167 L187.228537,167 L187.228537,131.096774 L57.8701766,131.096774 L57.8701766,167 L57.8701766,167 Z M67.8208197,141.354839 L82.7467844,141.354839 L82.7467844,156.741935 L67.8208197,156.741935 L67.8208197,141.354839 L67.8208197,141.354839 Z M172.302572,90.0645161 C149.416093,90.0645161 130.509871,72.1129032 128.022211,49.0322581 L77.7714628,49.0322581 L57.8701766,125.967742 L187.228537,125.967742 L175.785298,90.0645161 L172.302572,90.0645161 L172.302572,90.0645161 Z" id="Shape" fill-opacity="0.3" fill="#FFFFFF" sketch:type="MSShapeGroup"></path>
            <path d="M172.302572,8 C152.898818,8 137.475322,23.9 137.475322,43.9032258 C137.475322,63.9064516 152.898818,79.8064516 172.302572,79.8064516 C191.706327,79.8064516 207.129823,63.9064516 207.129823,43.9032258 C207.129823,23.9 191.706327,8 172.302572,8 Z M187.228537,59.2903226 L157.376608,59.2903226 L157.376608,38.7741935 L162.351929,38.7741935 L162.351929,35.183871 C162.351929,28.516129 166.332187,23.3870968 172.302572,23.3870968 C178.272958,23.3870968 182.253216,28.516129 182.253216,35.183871 L182.253216,38.7741935 L187.228537,38.7741935 L187.228537,59.2903226 Z M172.302572,28.516129 C169.31738,28.516129 167.327251,30.5677419 167.327251,34.1580645 L167.327251,38.7741935 L177.277894,38.7741935 L177.277894,34.1580645 C177.277894,30.5677419 175.287765,28.516129 172.302572,28.516129 Z" id="Path" fill="#FFFFFF" sketch:type="MSShapeGroup"></path>
            <g id="Rectangle-52" sketch:type="MSLayerGroup" transform="translate(57.870177, 48.824324)">
                <mask id="mask-2" sketch:name="Mask" fill="white">
                    <use xlink:href="#path-1"></use>
                </mask>
                <use id="Mask" fill-opacity="0.3" fill="#FFFFFF" sketch:type="MSShapeGroup" xlink:href="#path-1"></use>
                <rect fill-opacity="0.5" fill="#FFFFFF" sketch:type="MSShapeGroup" mask="url(#mask-2)" x="67.845294" y="-5.37162162" width="86.6332216" height="128.918919"></rect>
            </g>
        </g>
    </g>
</svg>