<?xml version="1.0" encoding="utf-8"?>
<!-- Generator: Adobe Illustrator 17.0.0, SVG Export Plug-In . SVG Version: 6.00 Build 0)  -->
<!DOCTYPE svg PUBLIC "-//W3C//DTD SVG 1.1//EN" "http://www.w3.org/Graphics/SVG/1.1/DTD/svg11.dtd">
<svg version="1.1" id="Layer_1" xmlns="http://www.w3.org/2000/svg" xmlns:xlink="http://www.w3.org/1999/xlink" x="0px" y="0px"
	 width="250px" height="250px" viewBox="0 0 250 250" enable-background="new 0 0 250 250" xml:space="preserve">
<g>
	<path fill="#FFFFFF" d="M125.072,2.164l86.79,35.799l35.974,86.848l-35.908,87.051l-86.845,35.972l-86.945-36.164L2.165,124.823
		l36.056-86.684L125.072,2.164 M125.071,0L36.692,36.608L0,124.821L36.608,213.2l88.475,36.8l88.379-36.608L250,124.81
		l-36.608-88.379L125.071,0L125.071,0z"/>
</g>
<g>
	<path opacity="0.3" fill="#FFFFFF" d="M187.17,171c2.955,0,5.53-2.029,5.75-4.985c0.22-2.955-1.997-5.662-4.953-5.882
		c-0.265-0.02-0.532-0.133-0.797-0.133H133v11H187.17z"/>
	<path opacity="0.3" fill="#FFFFFF" d="M207.481,74.37c-0.995-1.306-2.615-2.37-4.257-2.37H133v73.096l55.873-7.24
		c2.082-0.269,3.943-1.868,4.5-3.892l15.02-54.79C208.826,77.59,208.476,75.676,207.481,74.37z"/>
	<path fill="#FFFFFF" d="M91.079,198.318c4.977,0,9.068-4.094,9.068-9.068c0-4.974-4.093-9.068-9.068-9.068
		c-4.974,0-9.038,4.094-9.038,9.068C82.041,194.225,86.103,198.318,91.079,198.318z"/>
	<path fill="#FFFFFF" d="M178.079,198.318c4.977,0,9.068-4.094,9.068-9.068c0-4.974-4.093-9.068-9.068-9.068
		c-4.974,0-9.038,4.094-9.038,9.068C169.041,194.225,173.103,198.318,178.079,198.318z"/>
</g>
<path opacity="0.3" fill="#FFFFFF" d="M207.481,74.37c-0.995-1.306-2.615-2.37-4.257-2.37H77.529l-5.108-11.848
	C71.596,58.242,69.575,57,67.495,57H38.853c-1.417,0-2.822,0.757-3.831,1.752c-1.009,0.995-1.581,2.438-1.581,3.856
	s0.572,2.826,1.581,3.821C36.032,67.424,37.436,68,38.853,68h25.115l4.804,11.181l6.628,67.769l0.061,18.653
	c0.008,2.952,2.399,5.396,5.351,5.396H187.17c2.955,0,5.53-2.029,5.75-4.985c0.22-2.955-1.997-5.662-4.953-5.882
	c-0.265-0.02-0.532-0.133-0.797-0.133H86.164l-0.061-8.944l102.77-13.259c2.082-0.269,3.943-1.839,4.5-3.863l15.02-54.775
	C208.826,77.575,208.476,75.676,207.481,74.37z"/>
<g>
	<path fill="#FFFFFF" d="M196.915,97.823c-12.562,0-24.307-4.827-33.071-13.591c-8.764-8.765-13.591-20.509-13.591-33.071
		s4.827-24.306,13.591-33.07C172.608,9.327,184.354,4.5,196.915,4.5s24.306,4.827,33.07,13.591
		c8.764,8.764,13.591,20.509,13.591,33.07s-4.827,24.306-13.591,33.071C221.221,92.996,209.477,97.823,196.915,97.823z"/>
	<path fill="#0071BC" d="M196.915,9.5c23.211,0,41.661,18.45,41.661,41.661c0,23.211-18.45,41.661-41.661,41.661
		c-23.211,0-41.661-18.45-41.661-41.661C155.253,27.95,173.703,9.5,196.915,9.5 M196.915-0.5c-13.897,0-26.897,5.347-36.606,15.055
		c-9.709,9.709-15.055,22.709-15.055,36.606c0,13.897,5.347,26.897,15.055,36.606c9.709,9.709,22.709,15.055,36.606,15.055
		c13.897,0,26.897-5.347,36.606-15.055c9.709-9.709,15.055-22.709,15.055-36.606c0-13.897-5.347-26.897-15.055-36.606
		C223.812,4.847,210.812-0.5,196.915-0.5L196.915-0.5z"/>
</g>
<line fill="#FFFFFF" stroke="#0071BC" stroke-width="9" stroke-linecap="round" stroke-miterlimit="10" x1="196.5" y1="33" x2="196.5" y2="69"/>
<line fill="#FFFFFF" stroke="#0071BC" stroke-width="9" stroke-linecap="round" stroke-miterlimit="10" x1="215" y1="51.5" x2="179" y2="51.5"/>
</svg>
