<?xml version="1.0" encoding="utf-8"?>
<!-- Generator: Adobe Illustrator 17.0.0, SVG Export Plug-In . SVG Version: 6.00 Build 0)  -->
<!DOCTYPE svg PUBLIC "-//W3C//DTD SVG 1.1//EN" "http://www.w3.org/Graphics/SVG/1.1/DTD/svg11.dtd">
<svg version="1.1" id="Layer_1" xmlns="http://www.w3.org/2000/svg" xmlns:xlink="http://www.w3.org/1999/xlink" x="0px" y="0px"
	 width="250px" height="250px" viewBox="0 0 250 250" enable-background="new 0 0 250 250" xml:space="preserve">
<g>
	<path fill="#FFFFFF" d="M125.072,2.164l86.79,35.799l35.974,86.848l-35.908,87.051l-86.845,35.972l-86.945-36.164L2.165,124.823
		l36.056-86.684L125.072,2.164 M125.071,0L36.692,36.608L0,124.821L36.608,213.2l88.475,36.8l88.379-36.608L250,124.81
		l-36.608-88.378L125.071,0L125.071,0z"/>
</g>
<path opacity="0.3" fill="#FFFFFF" d="M207.596,57H41.659C39.32,57,37,58.894,37,61.231v106.676c0,2.335,2.32,4.093,4.659,4.093
	h66.819l-7.365,19.137c0,1.588,1.287,2.863,2.869,2.863h41.293c1.588,0,2.871-1.277,2.871-2.863L140.779,172H159v-20H48V66h153v48
	h11V61.233C212,58.894,209.937,57,207.596,57z"/>
<path opacity="0.3" fill="#FFFFFF" d="M218.795,117h-53.338c-1.747,0-3.457,1.744-3.457,3.496v69.423
	c0,1.75,1.709,3.081,3.457,3.081h41.63c-0.235-1-0.087-1.446-0.087-2.235V185h-40v-59h51v18h4v-23.504
	C222,118.746,220.542,117,218.795,117z"/>
<path opacity="0.3" fill="#FFFFFF" d="M232.339,148H214.56c-2.339,0-4.56,1.487-4.56,3.822v38.943c0,2.339,2.223,4.235,4.56,4.235
	h17.779c2.341,0,4.661-1.898,4.661-4.235v-38.943C237,149.485,234.678,148,232.339,148z M234,190h-21v-37h21V190z"/>
<rect x="213" y="153" fill="#FFFFFF" width="21" height="37"/>
<polygon fill="none" points="210,185 210,186 231,186 231,149 218,149 218,185 "/>
<path fill="#FFFFFF" d="M211.56,144H218v-18h-51v59h40v-37.049C207,145.616,209.221,144,211.56,144z"/>
<path fill="#FFFFFF" d="M162.457,114H201V66H48v86h111v-34.504C159,115.744,160.709,114,162.457,114z"/>
<path opacity="0.3" fill="#FFFFFF" d="M145.275,194c1.588,0,2.871-1.277,2.871-2.863L140.779,172H159v-20h-34v42H145.275z"/>
<path opacity="0.3" fill="#FFFFFF" d="M207.596,57H125v9h76v48h11V61.233C212,58.894,209.937,57,207.596,57z"/>
</svg>
