<?xml version="1.0" encoding="utf-8"?>
<!-- Generator: Adobe Illustrator 17.0.0, SVG Export Plug-In . SVG Version: 6.00 Build 0)  -->
<!DOCTYPE svg PUBLIC "-//W3C//DTD SVG 1.1//EN" "http://www.w3.org/Graphics/SVG/1.1/DTD/svg11.dtd">
<svg version="1.1" id="Layer_1" xmlns="http://www.w3.org/2000/svg" xmlns:xlink="http://www.w3.org/1999/xlink" x="0px" y="0px"
	 width="250px" height="250px" viewBox="0 0 250 250" enable-background="new 0 0 250 250" xml:space="preserve">
<g>
	<path fill="#FFFFFF" d="M125.072,2.164l86.79,35.799l35.974,86.848l-35.908,87.051l-86.845,35.972l-86.945-36.164L2.165,124.823
		l36.056-86.684L125.072,2.164 M125.071,0L36.692,36.608L0,124.821L36.608,213.2l88.475,36.8l88.379-36.608L250,124.81
		l-36.608-88.378L125.071,0L125.071,0z"/>
</g>
<rect x="45" y="57" opacity="0.3" fill="#FFFFFF" width="160" height="137"/>
<rect x="125" y="57" opacity="0.3" fill="#FFFFFF" width="80" height="137"/>
<rect x="45" y="57" fill="#FFFFFF" width="160" height="6"/>
<g>
	<path fill="#FFFFFF" d="M103.181,117.787c-1.823,0-3.235,0.685-4.236,2.055s-1.5,3.28-1.5,5.728c0,5.095,1.912,7.643,5.736,7.643
		c1.605,0,3.548-0.401,5.83-1.203v4.064c-1.876,0.781-3.97,1.172-6.283,1.172c-3.324,0-5.866-1.008-7.627-3.024
		s-2.641-4.91-2.641-8.682c0-2.376,0.432-4.457,1.297-6.244c0.865-1.787,2.107-3.157,3.728-4.111c1.62-0.953,3.519-1.43,5.697-1.43
		c2.219,0,4.449,0.537,6.689,1.61l-1.563,3.939c-0.854-0.406-1.714-0.761-2.579-1.063
		C104.864,117.938,104.015,117.787,103.181,117.787z"/>
	<path fill="#FFFFFF" d="M123.546,136.933l-5.502-17.927h-0.141c0.198,3.647,0.297,6.08,0.297,7.299v10.628h-4.329v-22.85h6.596
		l5.408,17.474h0.094l5.736-17.474h6.596v22.85h-4.517v-10.816c0-0.511,0.008-1.099,0.023-1.766
		c0.016-0.667,0.086-2.438,0.211-5.314h-0.141l-5.892,17.896H123.546z"/>
	<path fill="#FFFFFF" d="M157.541,130.587c0,2.063-0.742,3.689-2.227,4.876c-1.485,1.188-3.55,1.782-6.197,1.782
		c-2.438,0-4.595-0.458-6.471-1.375v-4.501c1.542,0.688,2.847,1.172,3.915,1.454c1.068,0.281,2.045,0.422,2.931,0.422
		c1.063,0,1.878-0.203,2.446-0.61c0.568-0.406,0.852-1.011,0.852-1.813c0-0.448-0.125-0.847-0.375-1.196
		c-0.25-0.349-0.617-0.685-1.102-1.008s-1.472-0.839-2.962-1.547c-1.396-0.656-2.443-1.287-3.142-1.891s-1.256-1.308-1.672-2.11
		c-0.417-0.802-0.625-1.74-0.625-2.813c0-2.021,0.685-3.61,2.055-4.767c1.37-1.157,3.264-1.735,5.681-1.735
		c1.188,0,2.321,0.141,3.399,0.422c1.078,0.281,2.206,0.677,3.384,1.188l-1.563,3.767c-1.219-0.5-2.227-0.849-3.024-1.047
		c-0.797-0.198-1.581-0.297-2.352-0.297c-0.917,0-1.62,0.214-2.11,0.641c-0.49,0.427-0.735,0.985-0.735,1.672
		c0,0.427,0.099,0.8,0.297,1.118c0.198,0.318,0.513,0.625,0.946,0.922c0.432,0.297,1.456,0.831,3.071,1.602
		c2.136,1.021,3.6,2.045,4.392,3.071C157.145,127.839,157.541,129.097,157.541,130.587z"/>
</g>
</svg>
