<?xml version="1.0" encoding="UTF-8" standalone="no"?>
<svg width="207px" height="68px" viewBox="0 0 207 68" version="1.1" xmlns="http://www.w3.org/2000/svg" xmlns:xlink="http://www.w3.org/1999/xlink" xmlns:sketch="http://www.bohemiancoding.com/sketch/ns">
    <!-- Generator: Sketch 3.3.3 (12081) - http://www.bohemiancoding.com/sketch -->
    <title>plein c</title>
    <desc>Created with Sketch.</desc>
    <defs></defs>
    <g id="Landing-pages" stroke="none" stroke-width="1" fill="none" fill-rule="evenodd" sketch:type="MSPage">
        <g id="digitale-lespakketen-copy" sketch:type="MSArtboardGroup" transform="translate(-718.000000, -4755.000000)" fill="#85A269">
            <g id="we-work-for" sketch:type="MSLayerGroup" transform="translate(0.000000, 4516.000000)">
                <path d="M743.672404,264.918512 C739.31903,264.918512 735.71503,266.720169 733.38998,269.874957 C732.936646,267.01827 730.460485,265.221421 727.007596,265.221421 C723.704444,265.221421 721.375273,266.04429 719.726788,267.01827 L719.726788,270.772694 C720.325737,270.549462 721.002303,270.324856 721.826545,270.324856 C723.478465,270.324856 724.154343,271.375765 723.704444,273.926108 L718,306.957623 L728.058505,304.857866 L729.408889,297.049542 C731.512081,298.548977 734.514384,299.152734 736.765939,299.152734 C746.075758,299.152734 753.883394,292.094472 755.534626,282.485179 C757.110303,273.176047 753.059152,264.918512 743.672404,264.918512 L743.672404,264.918512 Z M745.699354,282.111522 C744.574949,288.039886 741.045818,292.39326 736.314667,292.39326 C733.537657,292.39326 731.887798,291.418593 730.684404,290.21726 L732.412566,280.083199 C733.238869,275.431037 735.942384,271.824977 740.219515,271.824977 C745.026909,271.824977 746.827879,276.0293 745.699354,282.111522 Z M757.260727,300.176169 L767.397535,298.225462 L774.150828,259.038229 C775.054061,253.631886 772.200808,250.628896 767.622828,250.628896 C764.469414,250.628896 762.063313,251.454512 760.33996,252.429866 L760.33996,256.182916 C760.940283,255.959684 761.613414,255.73233 762.440404,255.73233 C763.943273,255.73233 764.770949,256.7853 764.316929,259.261462 L757.260727,300.176169 Z M791.945535,292.543684 C788.640323,292.321825 786.090667,291.190552 784.883152,287.517866 C796.747434,285.563724 804.931475,280.759078 804.931475,272.649906 C804.931475,267.845946 800.502545,264.918512 794.270586,264.918512 C784.513616,264.918512 775.804121,271.899845 775.054061,283.461906 C774.376808,291.717381 779.634101,299.152734 789.464566,299.152734 C795.548162,299.152734 800.051273,297.20134 803.580404,293.972371 L801.851556,288.941744 C798.925495,291.418593 795.396364,292.769664 791.945535,292.543684 Z M793.444283,271.226027 C795.548162,271.226027 796.520768,272.877946 796.373778,274.152088 C796.145051,277.829583 789.765414,280.910876 784.513616,281.734431 C785.787758,274.376694 789.842343,271.226027 793.444283,271.226027 Z M808.384364,301.552653 L818.592606,299.677502 L823.474182,273.552451 C824.37604,268.071926 821.522788,265.143805 816.94,265.143805 C813.78796,265.143805 811.38598,265.969421 809.659879,266.944775 L809.659879,270.70126 C810.258828,270.473219 810.938141,270.250674 811.76101,270.250674 C813.264566,270.250674 814.088121,271.226027 813.638909,273.703563 L808.384364,301.552653 Z M819.494465,260.938108 C822.19798,260.938108 824.598586,258.762795 824.975677,256.06134 C825.273091,253.283643 823.248889,251.102835 820.544687,251.102835 C817.843919,251.102835 815.366384,253.283643 815.139717,256.06134 C814.840242,258.762795 816.792323,260.938108 819.494465,260.938108 Z M828.955394,297.873098 L838.937657,296.072128 L841.116404,284.061542 C842.54097,275.952371 846.817414,272.801704 850.122626,272.801704 C852.824081,272.801704 854.255515,274.528492 854.255515,277.305502 C854.255515,282.560047 851.326707,287.890148 851.326707,292.694795 C851.326707,296.899805 854.478061,298.851199 858.081374,298.851199 C861.310343,298.851199 863.708889,297.950714 865.437737,297.049542 L865.437737,293.296492 C864.838788,293.521098 864.161535,293.745704 863.259677,293.745704 C862.058343,293.745704 861.238222,293.069138 861.238222,291.567643 C861.238222,287.663482 864.237778,280.009704 864.237778,274.6013 C864.237778,269.121462 860.71002,265.221421 854.70198,265.221421 C850.573212,265.221421 845.546707,267.62134 842.76901,271.899845 C842.839758,267.398108 840.289414,265.221421 836.388687,265.221421 C833.085535,265.221421 830.754303,266.04429 829.10101,267.01827 L829.10101,270.772694 C829.703394,270.549462 830.380646,270.324856 831.204889,270.324856 C832.857495,270.324856 833.531313,271.375765 833.085535,273.926108 L828.955394,297.873098 Z M901.067677,239.804532 C883.33204,239.804532 870.284283,251.102148 870.284283,268.442148 C870.284283,280.941785 878.35499,290.76332 893.277899,290.76332 C899.047596,290.76332 903.438747,289.735078 906.846303,288.237017 C917.276404,283.989421 924.060606,274.630148 924.060606,262.126391 C924.060606,249.625381 916.440485,240.835522 901.067677,239.804532 Z M907.418465,259.732653 C905.636727,258.252451 903.381737,257.172007 900.356768,257.172007 C895.002626,257.172007 891.280485,260.582997 891.280485,266.478391 C891.280485,270.825583 894.073293,272.684936 897.948606,272.684936 C900.897333,272.684936 902.920162,271.676613 904.54598,270.587926 L906.095556,276.331522 C903.92299,278.112573 900.586182,279.672451 895.158545,279.672451 C886.546586,279.672451 881.893051,274.005785 881.893051,266.791603 C881.893051,256.786674 889.419071,250.269664 899.654101,250.269664 C903.613899,250.269664 906.79204,251.427037 908.658949,252.907239 L907.418465,259.732653 L907.418465,259.732653 Z" id="plein-c" sketch:type="MSShapeGroup"></path>
            </g>
        </g>
    </g>
</svg>