<svg viewBox="0 0 32 32" version="1.1" xmlns="http://www.w3.org/2000/svg" xmlns:xlink="http://www.w3.org/1999/xlink">
  <symbol viewBox="0 0 548 327" id="shape-card">
    <title>card</title>
    <path d="M545.645,24.155c0-1.631,0.355-3.025,2.355-3.599v-7.392c-2-0.574-2.355-1.968-2.355-3.599S546,6.54,548,5.966V0h-8.026

	c-0.555,0-1.903,2.434-3.482,2.434c-1.578,0-2.926-2.434-3.481-2.434h-7.298c-0.555,0-1.903,2.434-3.481,2.434

	c-1.578,0-2.926-2.434-3.482-2.434h-7.298c-0.555,0-1.903,2.434-3.482,2.434c-1.578,0-2.926-2.434-3.482-2.434h-7.298

	c-0.555,0-1.903,2.434-3.482,2.434c-1.578,0-2.926-2.434-3.481-2.434h-7.298c-0.555,0-1.903,2.434-3.481,2.434

	c-1.578,0-2.926-2.434-3.482-2.434h-7.298c-0.555,0-1.903,2.434-3.482,2.434c-1.578,0-2.926-2.434-3.482-2.434h-7.298

	c-0.555,0-1.903,2.434-3.482,2.434c-1.578,0-2.926-2.434-3.481-2.434h-7.298c-0.555,0-1.903,2.434-3.481,2.434

	c-1.578,0-2.926-2.434-3.482-2.434h-7.298c-0.555,0-1.903,2.434-3.482,2.434c-1.578,0-2.926-2.434-3.481-2.434h-7.298

	c-0.555,0-1.903,2.434-3.481,2.434c-1.578,0-2.927-2.434-3.482-2.434h-7.298c-0.555,0-1.903,2.434-3.481,2.434

	c-1.578,0-2.926-2.434-3.482-2.434H383.1c-0.555,0-1.903,2.434-3.482,2.434c-1.578,0-2.926-2.434-3.481-2.434h-7.298

	c-0.555,0-1.903,2.434-3.481,2.434c-1.578,0-2.927-2.434-3.482-2.434h-7.298c-0.555,0-1.903,2.434-3.481,2.434

	c-1.578,0-2.926-2.434-3.482-2.434h-7.298c-0.555,0-1.903,2.434-3.482,2.434c-1.578,0-2.926-2.434-3.481-2.434h-7.298

	c-0.555,0-1.903,2.434-3.481,2.434c-1.578,0-2.927-2.434-3.482-2.434h-7.298c-0.555,0-1.903,2.434-3.481,2.434

	c-1.578,0-2.926-2.434-3.482-2.434h-7.298c-0.555,0-1.903,2.434-3.482,2.434c-1.578,0-2.926-2.434-3.481-2.434h-7.298

	c-0.555,0-1.903,2.434-3.481,2.434c-1.578,0-2.926-2.434-3.482-2.434h-7.298c-0.555,0-1.903,2.434-3.481,2.434

	c-1.578,0-2.926-2.434-3.481-2.434h-7.298c-0.555,0-1.903,2.434-3.482,2.434c-1.578,0-2.926-2.434-3.481-2.434h-7.298

	c-0.555,0-1.903,2.434-3.481,2.434c-1.578,0-2.926-2.434-3.482-2.434h-7.298c-0.555,0-1.903,2.434-3.482,2.434

	c-1.578,0-2.926-2.434-3.481-2.434h-7.298c-0.555,0-1.903,2.434-3.482,2.434C206.904,2.434,205.555,0,205,0h-7.298

	c-0.555,0-1.903,2.434-3.481,2.434c-1.578,0-2.926-2.434-3.482-2.434h-7.298c-0.555,0-1.903,2.434-3.482,2.434

	c-1.578,0-2.926-2.434-3.481-2.434h-7.298c-0.555,0-1.903,2.434-3.482,2.434c-1.578,0-2.926-2.434-3.481-2.434h-7.298

	c-0.555,0-1.903,2.434-3.481,2.434c-1.578,0-2.926-2.434-3.482-2.434h-7.298c-0.555,0-1.903,2.434-3.482,2.434

	c-1.578,0-2.926-2.434-3.481-2.434h-7.298c-0.555,0-1.903,2.434-3.482,2.434c-1.578,0-2.926-2.434-3.481-2.434h-7.298

	c-0.555,0-1.903,2.434-3.481,2.434c-1.578,0-2.926-2.434-3.482-2.434h-7.298c-0.555,0-1.903,2.434-3.482,2.434

	C92.813,2.434,91.465,0,90.91,0h-7.298c-0.555,0-1.903,2.434-3.482,2.434C78.552,2.434,77.203,0,76.648,0H69.35

	c-0.555,0-1.903,2.434-3.482,2.434C64.29,2.434,62.942,0,62.387,0h-7.298c-0.555,0-1.903,2.434-3.482,2.434

	C50.029,2.434,48.68,0,48.126,0h-7.298c-0.555,0-1.903,2.434-3.481,2.434C35.768,2.434,34.419,0,33.864,0h-7.298

	c-0.555,0-1.903,2.434-3.482,2.434C21.506,2.434,20.158,0,19.603,0h-7.298c-0.555,0-1.903,2.434-3.482,2.434

	C7.245,2.434,5.896,0,5.342,0H0v5.987c1.35,0.588,2.297,1.968,2.297,3.577S1.35,12.554,0,13.142v7.435

	c1.35,0.588,2.297,1.968,2.297,3.577S1.35,27.145,0,27.733v7.435c1.35,0.588,2.297,1.968,2.297,3.577S1.35,41.735,0,42.323v7.435

	c1.35,0.588,2.297,1.968,2.297,3.577c0,1.609-0.948,2.989-2.297,3.577v7.435c1.35,0.588,2.297,1.968,2.297,3.577

	S1.35,70.915,0,71.503v7.435c1.35,0.588,2.297,1.968,2.297,3.577S1.35,85.505,0,86.093v7.435c1.35,0.588,2.297,1.968,2.297,3.577

	c0,1.609-0.948,2.99-2.297,3.577v7.435c1.35,0.588,2.297,1.968,2.297,3.577c0,1.609-0.948,2.989-2.297,3.577v7.435

	c1.35,0.588,2.297,1.968,2.297,3.577S1.35,129.276,0,129.864v7.435c1.35,0.588,2.297,1.968,2.297,3.577

	c0,1.609-0.948,2.989-2.297,3.577v7.435c1.35,0.588,2.297,1.968,2.297,3.577c0,1.609-0.948,2.989-2.297,3.577v7.435

	c1.35,0.588,2.297,1.968,2.297,3.577c0,1.609-0.948,2.989-2.297,3.577v7.435c1.35,0.588,2.297,1.968,2.297,3.577

	c0,1.609-0.948,2.989-2.297,3.577v7.435c1.35,0.588,2.297,1.968,2.297,3.577c0,1.609-0.948,2.99-2.297,3.577v7.435

	c1.35,0.588,2.297,1.968,2.297,3.577c0,1.609-0.948,2.989-2.297,3.577v7.435c1.35,0.588,2.297,1.968,2.297,3.577

	S1.35,231.408,0,231.996v7.435c1.35,0.588,2.297,1.968,2.297,3.577c0,1.609-0.948,2.989-2.297,3.577v7.435

	c1.35,0.588,2.297,1.968,2.297,3.577c0,1.609-0.948,2.989-2.297,3.577v7.435c1.35,0.588,2.297,1.968,2.297,3.577

	c0,1.609-0.948,2.989-2.297,3.577v7.435c1.35,0.588,2.297,1.968,2.297,3.577c0,1.609-0.948,2.989-2.297,3.577v7.435

	c1.35,0.588,2.297,1.968,2.297,3.577c0,1.609-0.948,2.99-2.297,3.577v7.435c1.35,0.588,2.297,1.968,2.297,3.577

	S1.35,318.949,0,319.537V327h5.362c0.569-2,1.904-2.375,3.46-2.375c1.557,0,2.892,0.375,3.461,2.375h7.34

	c0.569-2,1.904-2.375,3.46-2.375c1.557,0,2.892,0.375,3.46,2.375h7.34c0.569-2,1.904-2.375,3.461-2.375

	c1.557,0,2.892,0.375,3.46,2.375h7.34c0.569-2,1.904-2.375,3.46-2.375c1.557,0,2.892,0.375,3.461,2.375h7.34

	c0.569-2,1.904-2.375,3.46-2.375c1.557,0,2.892,0.375,3.46,2.375h7.34c0.569-2,1.904-2.375,3.46-2.375

	c1.557,0,2.892,0.375,3.461,2.375h7.34c0.569-2,1.904-2.375,3.46-2.375c1.557,0,2.892,0.375,3.461,2.375h7.34

	c0.569-2,1.904-2.375,3.46-2.375c1.557,0,2.892,0.375,3.46,2.375h7.34c0.569-2,1.904-2.375,3.46-2.375

	c1.557,0,2.892,0.375,3.461,2.375h7.34c0.569-2,1.904-2.375,3.46-2.375c1.557,0,2.892,0.375,3.461,2.375h7.34

	c0.569-2,1.904-2.375,3.461-2.375c1.557,0,2.892,0.375,3.46,2.375h7.34c0.569-2,1.904-2.375,3.46-2.375

	c1.557,0,2.892,0.375,3.461,2.375h7.34c0.569-2,1.904-2.375,3.46-2.375c1.557,0,2.892,0.375,3.461,2.375h7.34

	c0.569-2,1.904-2.375,3.461-2.375c1.557,0,2.892,0.375,3.46,2.375h7.34c0.569-2,1.904-2.375,3.46-2.375

	c1.557,0,2.892,0.375,3.461,2.375h7.34c0.569-2,1.904-2.375,3.46-2.375s2.892,0.375,3.461,2.375h7.34

	c0.569-2,1.904-2.375,3.461-2.375c1.557,0,2.892,0.375,3.46,2.375h7.34c0.569-2,1.904-2.375,3.46-2.375

	c1.557,0,2.892,0.375,3.461,2.375h7.34c0.569-2,1.904-2.375,3.46-2.375c1.557,0,2.892,0.375,3.46,2.375h7.34

	c0.569-2,1.904-2.375,3.461-2.375c1.557,0,2.892,0.375,3.46,2.375h7.34c0.569-2,1.904-2.375,3.46-2.375

	c1.557,0,2.892,0.375,3.461,2.375h7.34c0.569-2,1.904-2.375,3.461-2.375c1.557,0,2.892,0.375,3.46,2.375h7.34

	c0.569-2,1.904-2.375,3.461-2.375c1.556,0,2.892,0.375,3.46,2.375h7.34c0.569-2,1.904-2.375,3.46-2.375

	c1.557,0,2.892,0.375,3.461,2.375h7.34c0.569-2,1.904-2.375,3.461-2.375c1.557,0,2.892,0.375,3.46,2.375h7.34

	c0.569-2,1.904-2.375,3.461-2.375c1.556,0,2.892,0.375,3.46,2.375h7.34c0.569-2,1.904-2.375,3.46-2.375

	c1.557,0,2.892,0.375,3.461,2.375h7.34c0.569-2,1.904-2.375,3.461-2.375c1.557,0,2.892,0.375,3.46,2.375h7.34

	c0.569-2,1.904-2.375,3.461-2.375c1.556,0,2.892,0.375,3.46,2.375h7.34c0.569-2,1.904-2.375,3.46-2.375

	c1.557,0,2.892,0.375,3.46,2.375h7.34c0.569-2,1.904-2.375,3.461-2.375c1.556,0,2.892,0.375,3.46,2.375h7.34

	c0.569-2,1.904-2.375,3.46-2.375c1.557,0,2.892,0.375,3.461,2.375h7.34c0.569-2,1.904-2.375,3.46-2.375

	c1.557,0,2.892,0.375,3.46,2.375h7.34c0.569-2,1.904-2.375,3.461-2.375c1.556,0,2.892,0.375,3.46,2.375h7.34

	c0.569-2,1.904-2.375,3.46-2.375c1.557,0,2.892,0.375,3.461,2.375h7.34c0.569-2,1.904-2.375,3.46-2.375

	c1.557,0,2.892,0.375,3.46,2.375h7.34c0.569-2,1.904-2.375,3.461-2.375c1.557,0,2.892,0.375,3.46,2.375h7.34

	c0.569-2,1.904-2.375,3.46-2.375c1.557,0,2.892,0.375,3.461,2.375H548v-7.442c-2-0.574-2.355-1.968-2.355-3.599

	S546,312.934,548,312.36v-7.392c-2-0.574-2.355-1.968-2.355-3.599c0-1.632,0.355-3.025,2.355-3.599v-7.392

	c-2-0.574-2.355-1.968-2.355-3.599c0-1.632,0.355-3.025,2.355-3.599v-7.392c-2-0.574-2.355-1.968-2.355-3.599

	c0-1.631,0.355-3.025,2.355-3.599v-7.392c-2-0.574-2.355-1.968-2.355-3.599s0.355-3.025,2.355-3.599v-7.392

	c-2-0.574-2.355-1.968-2.355-3.599c0-1.631,0.355-3.025,2.355-3.599v-7.392c-2-0.574-2.355-1.968-2.355-3.599

	s0.355-3.025,2.355-3.599v-7.392c-2-0.574-2.355-1.968-2.355-3.599c0-1.631,0.355-3.025,2.355-3.599v-7.392

	c-2-0.574-2.355-1.968-2.355-3.599c0-1.631,0.355-3.025,2.355-3.599v-7.392c-2-0.574-2.355-1.968-2.355-3.599

	c0-1.631,0.355-3.025,2.355-3.599v-7.392c-2-0.574-2.355-1.968-2.355-3.599c0-1.631,0.355-3.025,2.355-3.599v-7.392

	c-2-0.574-2.355-1.968-2.355-3.599c0-1.631,0.355-3.025,2.355-3.599v-7.392c-2-0.574-2.355-1.968-2.355-3.599

	c0-1.631,0.355-3.025,2.355-3.599v-7.392c-2-0.574-2.355-1.968-2.355-3.599s0.355-3.025,2.355-3.599v-7.392

	c-2-0.574-2.355-1.968-2.355-3.599c0-1.631,0.355-3.025,2.355-3.599v-7.392c-2-0.574-2.355-1.968-2.355-3.599

	c0-1.631,0.355-3.025,2.355-3.599v-7.392c-2-0.574-2.355-1.968-2.355-3.599S546,79.491,548,78.917v-7.392

	c-2-0.574-2.355-1.968-2.355-3.599S546,64.9,548,64.327v-7.392c-2-0.574-2.355-1.968-2.355-3.599c0-1.631,0.355-3.025,2.355-3.599

	v-7.392c-2-0.574-2.355-1.968-2.355-3.599S546,35.72,548,35.146v-7.392C546,27.18,545.645,25.787,545.645,24.155z" /> </symbol>
  <symbol viewBox="0 0 100.031 84.638" id="shape-github">
    <title>github</title>
    <path d="M0.004,47.128c0-9.497,2.725-17.433,8.175-23.806c-1.082-3.285-1.624-6.692-1.624-10.218c0-4.65,1.022-9.018,3.066-13.104

	c4.327,0,8.134,0.791,11.422,2.374c3.288,1.582,7.075,4.057,11.361,7.425c5.891-1.403,12.083-2.104,18.574-2.104

	c5.93,0,11.54,0.641,16.831,1.924c4.209-3.285,7.956-5.711,11.241-7.275C82.337,0.778,86.124-0.003,90.413,0

	c2.044,4.088,3.066,8.456,3.066,13.104c0,3.486-0.541,6.852-1.624,10.099c5.45,6.412,8.175,14.387,8.175,23.926

	c0,8.295-1.222,14.927-3.666,19.898c-1.523,3.085-3.637,5.75-6.34,7.994c-2.703,2.244-5.528,3.968-8.475,5.171

	c-2.947,1.203-6.353,2.154-10.218,2.855c-3.865,0.7-7.302,1.141-10.31,1.323c-3.009,0.182-6.354,0.272-10.037,0.269

	c-3.126,0-5.972-0.06-8.537-0.181c-2.565-0.121-5.521-0.371-8.868-0.75c-3.347-0.38-6.403-0.981-9.168-1.804

	c-2.765-0.823-5.51-1.856-8.237-3.097s-5.151-2.865-7.275-4.871c-2.124-2.006-3.847-4.31-5.171-6.913C1.243,62.092,0,55.46,0,47.124

	L0.004,47.128z M13.469,57.708c0,3.527,0.641,6.602,1.924,9.226c1.282,2.624,2.906,4.687,4.871,6.19

	c1.965,1.503,4.409,2.706,7.333,3.609s5.73,1.494,8.418,1.774c2.688,0.28,5.673,0.419,8.956,0.419h10.099

	c3.285,0,6.271-0.14,8.956-0.419c2.685-0.28,5.491-0.871,8.418-1.774c2.926-0.903,5.371-2.106,7.333-3.609

	c1.962-1.503,3.586-3.566,4.871-6.19c1.285-2.624,1.926-5.699,1.924-9.226c0-4.809-1.382-8.896-4.147-12.261

	s-6.512-5.049-11.241-5.051c-1.644,0-5.551,0.421-11.722,1.262c-2.844,0.441-5.99,0.662-9.437,0.662s-6.593-0.221-9.437-0.662

	c-6.091-0.841-9.999-1.262-11.722-1.262c-4.729,0-8.477,1.684-11.241,5.051c-2.765,3.368-4.147,7.455-4.147,12.261H13.469z

	 M23.087,57.708c0-1.603,0.25-3.246,0.75-4.928c0.5-1.682,1.362-3.206,2.585-4.57c1.223-1.364,2.676-2.045,4.359-2.043

	c1.683,0.003,3.135,0.684,4.359,2.043c1.223,1.359,2.085,2.883,2.585,4.57c0.5,1.688,0.75,3.33,0.75,4.928s-0.25,3.241-0.75,4.928

	c-0.5,1.688-1.362,3.211-2.585,4.57c-1.223,1.359-2.676,2.04-4.359,2.043c-1.683,0.003-3.135-0.678-4.359-2.043

	c-1.223-1.364-2.085-2.888-2.585-4.57C23.337,60.954,23.087,59.311,23.087,57.708z M61.559,57.708c0-1.603,0.25-3.246,0.75-4.928

	c0.5-1.682,1.362-3.206,2.585-4.57c1.223-1.364,2.676-2.045,4.359-2.043c1.682,0.003,3.135,0.684,4.359,2.043

	c1.223,1.359,2.085,2.883,2.585,4.57c0.5,1.688,0.75,3.33,0.75,4.928s-0.25,3.241-0.75,4.928c-0.5,1.688-1.362,3.211-2.585,4.57

	c-1.223,1.359-2.676,2.04-4.359,2.043c-1.682,0.003-3.135-0.678-4.359-2.043c-1.223-1.364-2.085-2.888-2.585-4.57

	C61.809,60.954,61.559,59.311,61.559,57.708z" /> </symbol>
  <symbol viewBox="0.167 -6.187 99.973 95.553" id="shape-linkedin">
    <title>linkedin</title>
    <path d="M22.881,24.863v64.499H1.404V24.863H22.881z M24.248,4.943c0.044,3.169-1.051,5.815-3.287,7.94

	c-2.236,2.124-5.175,3.188-8.818,3.191h-0.129c-3.557,0-6.422-1.064-8.593-3.191c-2.172-2.127-3.256-4.774-3.253-7.94

	c0-3.21,1.118-5.868,3.353-7.973s5.154-3.157,8.756-3.157s6.487,1.052,8.656,3.157s3.275,4.763,3.32,7.973H24.248z M100.139,52.393

	v36.969H78.724V54.867c0-4.557-0.879-8.126-2.637-10.705s-4.503-3.871-8.235-3.874c-2.733,0-5.021,0.748-6.865,2.245

	c-1.844,1.497-3.221,3.352-4.132,5.565c-0.478,1.302-0.716,3.06-0.716,5.274v35.994H34.724c0.086-17.312,0.129-31.348,0.129-42.109

	s-0.022-17.183-0.067-19.266l-0.067-3.124h21.415v9.372h-0.129c0.869-1.389,1.759-2.603,2.67-3.645s2.137-2.169,3.678-3.382

	c1.541-1.214,3.428-2.158,5.661-2.833c2.233-0.675,4.717-1.011,7.452-1.008c7.42,0,13.387,2.462,17.899,7.385

	s6.769,12.137,6.769,21.64L100.139,52.393z" /> </symbol>
  <symbol viewBox="0 0 100 61.858" id="shape-logo">
    <title>logo</title>
    <g>
      <polygon points="0,8.126 25.05,0 50.073,8.127 74.993,0.001 100,8.127 100,45.6 50.073,61.858 0,45.601 	" /> </g>
  </symbol>
  <symbol viewBox="0 0 100 100" id="shape-menu">
    <title>menu</title>
    <g>
      <rect width="100" height="21" />
      <rect y="40" width="100" height="21" />
      <rect y="79" width="100" height="21" /> </g>
  </symbol>
  <symbol viewBox="0 0 100 81.215" id="shape-twitter">
    <title>twitter</title>
    <path d="M0,72.009c1.481,0.171,3.131,0.256,4.95,0.256c9.518,0,18-2.918,25.445-8.755c-4.442-0.084-8.419-1.448-11.93-4.093

	c-3.511-2.645-5.922-6.018-7.232-10.119c1.397,0.211,2.687,0.317,3.87,0.317c1.819,0,3.617-0.233,5.393-0.698

	c-4.738-0.972-8.66-3.33-11.768-7.074c-3.108-3.744-4.662-8.09-4.662-13.039v-0.256c2.875,1.608,5.963,2.476,9.263,2.603

	c-2.791-1.863-5.012-4.295-6.664-7.297s-2.476-6.259-2.473-9.77c0-3.722,0.931-7.17,2.794-10.343

	c5.119,6.302,11.348,11.347,18.688,15.134s15.197,5.892,23.573,6.314c-0.338-1.608-0.508-3.173-0.508-4.694

	c0-5.669,1.999-10.501,5.998-14.497S63.566,0.003,69.232,0c5.923,0,10.914,2.158,14.972,6.473c4.61-0.888,8.946-2.538,13.007-4.95

	c-1.565,4.865-4.568,8.629-9.011,11.293c3.934-0.422,7.867-1.479,11.801-3.171c-2.834,4.145-6.26,7.676-10.278,10.594

	c0.043,0.593,0.065,1.481,0.065,2.664c0,5.498-0.804,10.987-2.412,16.466s-4.051,10.735-7.33,15.768

	c-3.278,5.033-7.181,9.485-11.707,13.356c-4.526,3.871-9.983,6.959-16.369,9.263c-6.386,2.304-13.218,3.457-20.495,3.46

	c-11.462,0-21.952-3.067-31.471-9.202L0,72.009z" /> </symbol>
</svg>