<?xml version="1.0" encoding="utf-8"?>
<!-- Generator: Adobe Illustrator 17.0.0, SVG Export Plug-In . SVG Version: 6.00 Build 0)  -->
<!DOCTYPE svg PUBLIC "-//W3C//DTD SVG 1.1//EN" "http://www.w3.org/Graphics/SVG/1.1/DTD/svg11.dtd">
<svg version="1.1" id="Layer_1" xmlns="http://www.w3.org/2000/svg" xmlns:xlink="http://www.w3.org/1999/xlink" x="0px" y="0px"
	 width="99.973px" height="95.553px" viewBox="0.167 -6.187 99.973 95.553" enable-background="new 0.167 -6.187 99.973 95.553"
	 xml:space="preserve">
<path d="M22.881,24.863v64.499H1.404V24.863H22.881z M24.248,4.943c0.044,3.169-1.051,5.815-3.287,7.94
	c-2.236,2.124-5.175,3.188-8.818,3.191h-0.129c-3.557,0-6.422-1.064-8.593-3.191c-2.172-2.127-3.256-4.774-3.253-7.94
	c0-3.21,1.118-5.868,3.353-7.973s5.154-3.157,8.756-3.157s6.487,1.052,8.656,3.157s3.275,4.763,3.32,7.973H24.248z M100.139,52.393
	v36.969H78.724V54.867c0-4.557-0.879-8.126-2.637-10.705s-4.503-3.871-8.235-3.874c-2.733,0-5.021,0.748-6.865,2.245
	c-1.844,1.497-3.221,3.352-4.132,5.565c-0.478,1.302-0.716,3.06-0.716,5.274v35.994H34.724c0.086-17.312,0.129-31.348,0.129-42.109
	s-0.022-17.183-0.067-19.266l-0.067-3.124h21.415v9.372h-0.129c0.869-1.389,1.759-2.603,2.67-3.645s2.137-2.169,3.678-3.382
	c1.541-1.214,3.428-2.158,5.661-2.833c2.233-0.675,4.717-1.011,7.452-1.008c7.42,0,13.387,2.462,17.899,7.385
	s6.769,12.137,6.769,21.64L100.139,52.393z"/>
</svg>
